<?xml version="1.0" standalone="no"?>
<!DOCTYPE svg PUBLIC "-//W3C//DTD SVG 1.1//EN" "http://www.w3.org/Graphics/SVG/1.1/DTD/svg11.dtd" >
<svg xmlns="http://www.w3.org/2000/svg" xmlns:xlink="http://www.w3.org/1999/xlink" version="1.1">
<metadata>
Created by FontForge 20170731 at Fri Jul  7 07:20:27 2023
 By Aleksey,,,
Copyright (c) 2018 by Dastan Miraj. All rights reserved.
</metadata>
<defs>
<font id="Borsok" horiz-adv-x="1355" >
  <font-face 
    font-family="Borsok"
    font-weight="400"
    font-stretch="normal"
    units-per-em="2048"
    panose-1="2 0 5 3 0 0 0 2 0 2"
    ascent="1638"
    descent="-410"
    x-height="1368"
    cap-height="1380"
    bbox="-167.25 -465.2 2419.16 2127"
    underline-thickness="68"
    underline-position="-204"
    unicode-range="U+0020-2248"
  />
<missing-glyph horiz-adv-x="688" 
 />
    <glyph glyph-name=".notdef" horiz-adv-x="688" 
 />
    <glyph glyph-name=".null" horiz-adv-x="0" 
 />
    <glyph glyph-name="nonmarkingreturn" horiz-adv-x="682" 
 />
    <glyph glyph-name="space" unicode=" " horiz-adv-x="688" 
 />
    <glyph glyph-name="exclam" unicode="!" horiz-adv-x="542" 
d="M272 -15q-48 6 -74 11q-143 34 -158 177q-5 51 2 121q20 110 133 146q81 25 160 8q82 -19 129 -83.5t40 -150.5q-6 -59 -21 -97q-25 -63 -80 -97t-131 -35zM517 1117q0 -88 -28.5 -279t-59.5 -275q-53 -60 -128 -76t-138 26.5t-76 137.5q-58 371 -17 664q30 27 74.5 44
t94.5 22.5t99.5 -7t89 -41t64.5 -84.5t25 -132z" />
    <glyph glyph-name="quotedbl" unicode="&#x22;" horiz-adv-x="1179" 
d="M212 890q-65 20 -108 64t-58.5 96.5t-12.5 106.5t23 99q65 146 240 150q122 3 190.5 -76.5t70.5 -192.5q2 -121 -59.5 -249.5t-142.5 -228.5q-32 -40 -71.5 -62t-75 -23.5t-66 8.5t-48.5 31.5t-18 47.5q23 46 70.5 120t65.5 109zM799 890q-65 20 -108 64t-58 96.5
t-12.5 106.5t22.5 99q65 146 240 150q84 2 144 -37t87.5 -99t29.5 -133q2 -121 -59.5 -249.5t-141.5 -228.5q-32 -40 -72 -62t-75.5 -23.5t-65.5 8.5t-48 31.5t-18 47.5q23 45 70 119t65 110z" />
    <glyph glyph-name="numbersign" unicode="#" horiz-adv-x="1536" 
d="M1453 580q35 -39 47.5 -97.5t0.5 -118t-66.5 -109.5t-144.5 -67q-5 -144 -18 -178q-39 -35 -97.5 -47.5t-118 -0.5t-109 67t-65.5 146q-134 0 -202 1q-5 -129 -16 -166q-32 -28 -77 -43t-95 -11.5t-95.5 25.5t-80.5 74t-46 128v5q-119 9 -150 14q-36 32 -47.5 84.5
t2.5 107t62 104.5t122 74q0 57 2 169q-100 5 -175 13q-29 28 -42.5 70.5t-6 90.5t32 92.5t76 80.5t122.5 51q11 192 12 202q35 38 93 48t117 -8.5t109 -77t67 -147.5q142 2 215 2q5 147 12 183q28 30 71 43.5t91 6t93 -32.5t80.5 -78t49.5 -126v-3q90 -4 141 -15
q34 -37 48 -92t5.5 -111.5t-54 -106.5t-122.5 -72v-157q115 -5 157 -17zM687 602q59 1 180 1q0 85 1 125h-181v-126z" />
    <glyph glyph-name="dollar" unicode="$" horiz-adv-x="1196" 
d="M956 765q99 -61 151.5 -147.5t54.5 -174.5t-27 -171.5t-90 -148.5t-137 -96q-55 -22 -137 -37q2 -129 -6 -192q-50 -42 -107.5 -52t-102.5 8t-76 58t-34 90q0 38 -1 76q-231 27 -374 144q-27 34 -39 76t-8 81t18.5 76.5t42 65t61 43.5t77 14t88.5 -25q93 -46 180 -63.5
t144 -4t68 54.5t-19.5 67.5t-103.5 31.5q-87 6 -165.5 27.5t-151.5 62t-123 109.5t-65 160q-2 26 -3.5 57.5t8.5 70t24 77.5t43 78.5t65.5 73.5t92.5 63t123 47q1 0 6 1.5t8 2.5q0 156 8 220q51 42 108.5 51.5t103 -8.5t76 -57.5t32.5 -89.5q1 -14 1 -105q125 -19 198 -65
q84 -56 114 -127t11.5 -131t-64.5 -106.5t-105 -60.5q-47 59 -151.5 93.5t-191.5 23.5t-87 -68q-1 -24 18.5 -37.5t69.5 -18.5q131 -17 227 -51.5t147 -66.5z" />
    <glyph glyph-name="percent" unicode="%" horiz-adv-x="1668" 
d="M421 150q44 93 51 107q63 120 191.5 383.5t232 461.5t180.5 311q54 12 99.5 -1.5t69 -43.5t31.5 -69.5t-12 -79.5q-44 -99 -314 -638.5t-326 -625.5q-36 -16 -71 -18t-62 8.5t-48 31t-31 47t-8 60t17 66.5zM385 628q-255 15 -322 216q-35 112 -17 250q13 85 52.5 144.5
t97 88t120.5 38t133 0.5q128 -17 203.5 -102.5t79.5 -215.5q2 -107 -23 -195q-34 -111 -120 -169.5t-204 -54.5zM313 1014q0 -47 18.5 -76t53.5 -29q40 0 57 26t17 82q0 33 -16 61.5t-53 28.5q-36 0 -57 -25.5t-20 -67.5zM1283 -27q-255 10 -320 213q-37 113 -17 251
q13 85 52.5 144.5t96.5 88.5t120.5 38.5t132.5 0.5q128 -17 203.5 -103t78.5 -217q0 -113 -23 -194q-34 -112 -119.5 -170t-204.5 -52zM1211 358q0 -47 18.5 -75.5t53.5 -28.5q41 0 57.5 25t16.5 80q0 33 -15 61.5t-52 28.5t-58.5 -25t-20.5 -66z" />
    <glyph glyph-name="ampersand" unicode="&#x26;" horiz-adv-x="1366" 
d="M1105 803q50 7 101.5 -14.5t85.5 -60.5t46 -89t-19 -100q-72 -120 -158 -226q50 -69 90 -133q-4 -55 -42 -109.5t-92 -87.5t-121.5 -28t-123.5 61q-13 18 -27 32q-153 -75 -296 -75q-251 3 -379.5 120t-140.5 313q-6 100 54 193.5t141 144.5q-101 60 -142 193
q-34 103 4.5 205t131.5 161q129 84 331 83t332 -86q87 -58 119 -155.5t2.5 -197t-110.5 -163.5q-6 -4 -48.5 -35.5t-48.5 -35.5q46 -58 114 -122q99 98 196 212zM558 1080q-45 0 -70.5 -21t-26.5 -60q0 -23 21.5 -49.5t43.5 -41.5l21 -14q4 2 11 6.5t24.5 16.5t31 24
t24.5 28.5t11 29.5q-1 37 -25.5 59t-65.5 22zM538 339q33 1 72 19q-96 126 -140 169q-45 -39 -58 -75t2.5 -60.5t48.5 -38.5t75 -14z" />
    <glyph glyph-name="quotesingle" unicode="'" horiz-adv-x="573" 
d="M202 -11q-65 20 -108 64t-58.5 96.5t-12.5 107t23 99.5q65 146 241 151q122 2 190 -78t70 -193q2 -121 -59.5 -249.5t-142.5 -226.5q-32 -41 -72 -63t-75 -23.5t-65 8.5t-48 31.5t-18 47.5q23 45 70 119t65 109z" />
    <glyph glyph-name="parenleft" unicode="(" horiz-adv-x="780" 
d="M156 -7q-66 176 -91.5 405t-7 462t95.5 453.5t205 363.5q61 19 118 17t99 -22t76.5 -51t50.5 -68.5t22 -75t-9 -71.5q-90 -225 -125 -445.5t-14.5 -466t103.5 -513.5q-6 -39 -39.5 -74.5t-81.5 -59.5t-107.5 -30.5t-114.5 6t-104.5 56t-75.5 114.5z" />
    <glyph glyph-name="parenright" unicode=")" horiz-adv-x="787" 
d="M614 1509q65 -176 90 -404.5t7 -461t-95 -453.5t-204 -363q-53 -17 -103 -18t-88.5 12.5t-72.5 36t-55 52t-35 61.5t-13 64.5t10 60.5q89 225 124.5 445t14.5 466t-103 514q5 39 38.5 75t82 60t107.5 30.5t114.5 -6t104.5 -56.5t76 -115z" />
    <glyph glyph-name="asterisk" unicode="*" horiz-adv-x="931" 
d="M874 890q18 -60 9 -110.5t-39 -77t-74 -31t-96 27.5q-8 5 -40.5 31t-39.5 36q23 -119 16 -173q-54 -63 -120.5 -69.5t-113.5 40t-50 124.5q0 4 5 34.5t5 36.5q-97 -93 -119 -104q-75 21 -110 73.5t-24 109t60 92.5q40 32 112 53q-31 23 -105 53.5t-90 43.5q-5 47 7.5 86
t36.5 63t54.5 36.5t64.5 9t65 -22.5q5 -3 34 -26.5t37 -28.5q-19 109 -9 182q61 49 124.5 51.5t102.5 -35.5t37 -98q0 -11 -3 -36.5t-6.5 -47t-3.5 -22.5q24 21 52 49.5t46 47t29 23.5q61 -6 99 -40t44.5 -77t-13.5 -88t-65 -71q-65 -36 -87 -44q26 -18 88.5 -52.5
t79.5 -48.5z" />
    <glyph glyph-name="plus" unicode="+" horiz-adv-x="1331" 
d="M1188 907q38 -35 55.5 -89.5t7.5 -115t-41.5 -117.5t-98.5 -102t-158 -62q-2 0 -11 -2t-15 -3q-5 -193 -27 -274q-40 -35 -96.5 -54t-119.5 -14.5t-120 32.5t-101 94.5t-59 162.5q0 4 -1.5 16.5t-2.5 20.5q-186 5 -266 26q-35 40 -54.5 96.5t-14.5 119.5t32.5 120
t94.5 101t163 59q12 3 41 5q7 150 25 269q44 48 116.5 60.5t146 -10.5t136.5 -97t85 -186q0 -4 1.5 -14.5l2.5 -17.5q165 -8 279 -24z" />
    <glyph glyph-name="comma" unicode="," horiz-adv-x="567" 
d="M202 -11q-65 20 -108 64t-58.5 96.5t-12.5 107t23 99.5q65 146 241 151q122 2 190 -78t70 -193q2 -121 -59.5 -249.5t-142.5 -226.5q-32 -41 -72 -63t-75 -23.5t-65 8.5t-48 31.5t-18 47.5q23 45 70 119t65 109z" />
    <glyph glyph-name="hyphen" unicode="-" horiz-adv-x="1247" 
d="M322 856q126 19 391 14.5t442 -29.5q38 -35 55.5 -89.5t7.5 -115t-41.5 -117.5t-98.5 -102t-158 -62q-107 -22 -392.5 -24t-426.5 29q-35 40 -54 96.5t-14.5 119.5t32.5 120t94.5 101t162.5 59z" />
    <glyph glyph-name="period" unicode="." horiz-adv-x="588" 
d="M298 -40q-69 10 -84 13q-164 39 -181 202q-7 76 4 136q21 126 150 167q92 30 182 9q94 -20 147 -93t45 -171q-5 -68 -23 -111q-28 -73 -90.5 -112t-149.5 -40z" />
    <glyph glyph-name="slash" unicode="/" horiz-adv-x="1048" 
d="M85 131q7 30 13 47.5t15.5 42t17.5 45.5q59 160 162 469t187 540.5t159 380.5q69 11 121 0.5t89 -37.5t60 -63.5t33.5 -78.5t10 -82t-10.5 -75q-38 -124 -270.5 -789.5t-285.5 -780.5q-106 -23 -186.5 10.5t-116 125t1.5 245.5z" />
    <glyph glyph-name="zero" unicode="0" horiz-adv-x="1197" 
d="M1143 612q0 -162 -49 -308q-103 -301 -414 -335q-154 -18 -285 19q-234 61 -309 301q-65 202 -46 492q12 188 75 325q110 238 374 273q173 24 321 -33q191 -77 275 -299q58 -166 58 -435zM669 653q-2 23 -8 94.5t-11 108.5q-12 85 -72 87q-61 0 -78 -79
q-27 -115 -14 -315q5 -67 27 -123q14 -36 50 -39.5t61 27.5q20 22 25 52q4 34 10.5 97.5t9.5 89.5z" />
    <glyph glyph-name="one" unicode="1" horiz-adv-x="927" 
d="M401 872q-28 -8 -81 -31t-102 -37q-45 7 -84 34t-65 65.5t-36 85.5t-1 92.5t45 87.5t96 69q99 43 218 87.5t166 57.5q38 12 80 13t84 -10.5t75.5 -34t54.5 -63t21 -92.5q0 -159 -6 -548t-4 -599q-62 -47 -130 -66t-127 -9.5t-108 37.5t-78.5 77t-32.5 107
q-4 135 -1 230.5t10 245t8 193.5z" />
    <glyph glyph-name="two" unicode="2" horiz-adv-x="1070" 
d="M276 863q-60 -8 -110.5 9.5t-82 51.5t-45.5 81.5t-8 97t36.5 99.5t83.5 88q88 61 209.5 86t233.5 13.5t191 -51.5q203 -104 218 -341q13 -218 -173 -421q-40 -43 -137 -124q-10 -8 -7 -13.5t11 -5.5h29q27 1 108.5 4.5t126.5 6.5q47 -39 68.5 -96t14 -114t-34.5 -108.5
t-77 -85.5t-112 -39q-120 -9 -313 -13t-364 1q-37 37 -65 85t-43.5 106t1.5 122.5t69 119.5q24 25 163.5 157.5t202.5 206.5q31 40 29 74.5t-21 57.5t-42 25q-61 9 -119 -38q-11 -12 -41 -42z" />
    <glyph glyph-name="three" unicode="3" horiz-adv-x="1088" 
d="M339 415q54 -26 118 -31q28 -2 39 1q33 4 50.5 21.5t17.5 45.5q0 26 -16.5 43.5t-47.5 20.5q-64 6 -160 6q-48 34 -72 94t-20.5 116t36.5 97t89 39q17 0 35.5 -1t37.5 -1q22 0 54 5q30 5 46.5 21t16.5 39q-1 22 -20 37t-50 18q-60 8 -122 -23q-42 -3 -81 17t-65.5 54
t-40 78t-9.5 86t32.5 81.5t79.5 61.5q88 40 182 50t177.5 -5t160.5 -52q202 -95 209 -303q13 -206 -146 -321q-3 -2 -8 -6t-6 -5v-10q126 -43 173 -173q41 -107 9.5 -224.5t-119.5 -191.5q-107 -95 -275 -118q-269 -33 -471 85q-38 21 -110 83q-23 46 -14 109.5t45.5 112.5
t98.5 67.5t146 -24.5z" />
    <glyph glyph-name="four" unicode="4" horiz-adv-x="1205" 
d="M978 240v-213q-20 -15 -51.5 -26.5t-71 -17t-81 -3.5t-80.5 18.5t-69 44.5t-47 77.5t-15 114.5h-431q-75 54 -101.5 178.5t25.5 251.5q33 75 168 289.5t253 383.5q78 42 169 45.5t165.5 -25t126.5 -87.5t56 -132q2 -79 1.5 -127t-2.5 -172.5t-2 -204.5v-36q28 -2 139 -5
q34 -59 42 -121t-9.5 -113.5t-65.5 -85t-119 -34.5zM569 594q17 179 21 248q-2 0 -5 2t-5 3q-78 -105 -132 -253h121z" />
    <glyph glyph-name="five" unicode="5" horiz-adv-x="1096" 
d="M355 411q66 -29 132 -22q35 4 56 24.5t18 50.5q-1 34 -24 55.5t-59 17.5q-76 -8 -155 14t-135 77t-54 130q11 324 56 562q2 6 4.5 16l3.5 14q435 25 730 19q30 -21 49.5 -67.5t20 -101t-15 -105.5t-60.5 -87t-111 -39q-113 -6 -270 -8q-1 -15 -2 -42t-2 -41q18 0 57 3.5
t61 3.5q163 2 266.5 -90.5t120.5 -256.5q18 -196 -62 -333q-60 -103 -169 -167.5t-257 -64.5q-157 0 -285 36.5t-209 105.5q-31 65 -25 138t45 123.5t108.5 66.5t166.5 -32z" />
    <glyph glyph-name="six" unicode="6" horiz-adv-x="1130" 
d="M758 1035q-56 -47 -91.5 -83t-83.5 -95q16 1 26 3q123 33 222.5 0.5t166 -119.5t81.5 -203q23 -163 -33 -294q-71 -167 -254 -230q-261 -89 -479 26q-223 114 -264 381q-55 357 210 705q125 156 257 245q45 11 90 8.5t82.5 -21.5t69 -45.5t48.5 -62t20.5 -71t-13.5 -74
t-55 -70.5zM680 453q0 50 -27.5 81t-70.5 31q-45 0 -74.5 -30.5t-29.5 -78.5q0 -52 27 -81.5t74 -29.5q47 1 74 29.5t27 78.5z" />
    <glyph glyph-name="seven" unicode="7" horiz-adv-x="1049" 
d="M500 933q-128 0 -384 -2q-40 31 -63.5 84.5t-24 112.5t18 112t67 88t117.5 35q19 1 294 0.5t283 -0.5q113 0 167.5 -110.5t7.5 -268.5q-170 -555 -375 -973q-66 -36 -153 -33t-155 45t-95 126t27 211q150 350 268 573z" />
    <glyph glyph-name="eight" unicode="8" horiz-adv-x="1161" 
d="M261 714q-129 81 -165 198q-33 108 6 213.5t134 167.5q133 87 340 85.5t342 -89.5q89 -60 127 -162t13.5 -207t-105.5 -172q-29 -21 -37 -27q24 -19 56 -40q107 -82 138.5 -206.5t-20 -242t-170.5 -181.5q-140 -76 -325 -76q-198 0 -334 63q-207 94 -219 325
q-10 210 187 331q8 8 32 20zM588 294q60 0 92.5 30t32.5 84t-32.5 86.5t-87.5 32.5q-54 0 -91.5 -34t-37.5 -85q0 -53 33 -83.5t91 -30.5zM586 1064q-47 0 -73 -23t-27 -62q-1 -40 26 -63t74 -23q42 0 67 24t24 61q0 39 -24.5 62.5t-66.5 23.5z" />
    <glyph glyph-name="nine" unicode="9" horiz-adv-x="1135" 
d="M532 500q-12 -2 -39 -8.5t-41 -8.5q-142 -15 -251.5 62.5t-140.5 217.5q-34 139 -3 272q47 211 246 291q226 98 445 15q286 -104 328 -426q40 -313 -171 -621q-55 -82 -132 -162.5t-155 -136.5q-53 -16 -102 -16.5t-87.5 17t-68 44t-43 63.5t-13 76.5t22 83t62.5 82.5
q63 58 85 81t58 74zM644 900q0 51 -25.5 80.5t-71.5 29.5q-45 0 -73.5 -29.5t-28.5 -75.5q0 -50 27 -81.5t70 -31.5q45 -1 73.5 29.5t28.5 78.5z" />
    <glyph glyph-name="colon" unicode=":" horiz-adv-x="611" 
d="M291 -18q-64 9 -83 13q-80 19 -127.5 70t-54.5 130q-8 71 4 138q20 124 150 165q93 31 182 11q95 -22 147.5 -95t44.5 -171q-6 -69 -23 -111q-28 -72 -90 -110.5t-150 -39.5zM321 743q-77 11 -83 13q-80 17 -127 68.5t-55 132.5q-8 71 4 137q20 125 150 166q94 30 182 10
q94 -20 147 -93.5t45 -171.5q-5 -68 -23 -111q-57 -146 -240 -151z" />
    <glyph glyph-name="semicolon" unicode=";" horiz-adv-x="621" 
d="M324 739q-75 10 -84 12q-80 19 -127.5 70.5t-55.5 131.5q-6 71 4 137q22 125 152 166q94 30 182 10q95 -22 147.5 -94.5t44.5 -170.5q-5 -68 -23 -112q-28 -72 -90.5 -110.5t-149.5 -39.5zM214 -20q-65 20 -108 63.5t-58 96.5t-12 106.5t23 98.5q65 147 240 151
q122 3 190.5 -76.5t70.5 -192.5q2 -121 -59.5 -249.5t-142.5 -228.5q-32 -40 -72 -62t-75.5 -23.5t-66 8.5t-48.5 32t-18 48q24 46 71 120.5t65 107.5z" />
    <glyph glyph-name="less" unicode="&#x3c;" horiz-adv-x="1021" 
d="M658 640q263 -277 320 -402q-14 -92 -91 -165t-190.5 -82t-243.5 102q-212 189 -330 349q-46 62 -64.5 127.5t0 147.5t82.5 162q78 98 243 240.5t315 244.5q52 0 101.5 -28.5t83.5 -79.5t49 -114.5t-4 -141.5t-74 -152q-53 -71 -197 -208z" />
    <glyph glyph-name="equal" unicode="=" horiz-adv-x="1331" 
d="M358 1262q126 20 391 15.5t442 -30.5q38 -35 55.5 -89.5t7.5 -115t-41.5 -117t-98.5 -101.5t-158 -62q-108 -22 -392.5 -24t-426.5 29q-29 32 -47 77.5t-22.5 96t10.5 102.5t47 96t92 77.5t141 45.5zM358 640q126 19 391 14.5t442 -29.5q38 -35 55.5 -89.5t7.5 -115
t-41.5 -117.5t-98.5 -102t-158 -62q-110 -20 -392.5 -22.5t-426.5 28.5q-35 40 -54.5 96.5t-14.5 119.5t32.5 119.5t94.5 100.5t163 59z" />
    <glyph glyph-name="greater" unicode="&#x3e;" horiz-adv-x="1045" 
d="M369 714q-264 283 -320 404q7 43 31 85.5t60 78.5t85.5 57.5t104 25t118.5 -21.5t125 -80q219 -198 329 -351q46 -62 65 -127.5t1 -147.5t-82 -162q-78 -97 -242.5 -239t-315.5 -246q-43 0 -84.5 21t-75.5 56t-54.5 85.5t-24.5 106t16.5 121t66.5 127.5q58 77 197 207z
" />
    <glyph glyph-name="question" unicode="?" horiz-adv-x="1021" 
d="M461 -64q-73 11 -77 12q-155 35 -172 191q-6 67 4 129q20 118 142 157q84 27 172 9q89 -20 139 -89t42 -162q-7 -63 -22 -104q-28 -68 -86.5 -104.5t-141.5 -38.5zM841 797q-1 -1 -38 -35t-56.5 -55.5t-42 -64.5t-25.5 -86q-31 -43 -86.5 -68t-115 -24.5t-112.5 18
t-84.5 61.5t-26.5 104q6 59 30.5 104.5t54 72t79.5 75t87 98.5q35 43 17 89t-77 42q-29 -2 -54 -20.5t-67 -63.5q-28 -30 -70.5 -36.5t-83 10.5t-74 55.5t-44 99t7.5 140.5q66 90 185 141.5t227 52.5q114 0 208 -34.5t154 -91t94 -131t35.5 -152.5t-29.5 -157.5t-93 -143.5z
" />
    <glyph glyph-name="at" unicode="@" horiz-adv-x="1627" 
d="M1495 987q50 -133 54.5 -278.5t-38.5 -282.5q-8 -25 -21.5 -56.5t-41 -75.5t-61 -78.5t-84 -58.5t-106.5 -23q-219 1 -293 217q-96 -21 -201 7q-162 40 -209 205q-30 113 2 222q24 77 85.5 128t140.5 72t172 19q86 -3 131 -38.5t48 -131.5q1 -44 -0.5 -137t0.5 -117
q6 -94 26.5 -133t74.5 -37q37 0 68.5 53t46 126t9.5 135q-9 120 -54 212t-113 145.5t-147 80t-165 26.5q-89 0 -171.5 -32.5t-150.5 -95t-105 -168t-29 -238.5q5 -86 33.5 -158.5t72 -121t95.5 -85t108 -55.5t105.5 -27.5t92.5 -5.5q51 -25 75.5 -65.5t21.5 -77.5t-30 -64.5
t-70 -30.5q-133 -7 -252.5 24.5t-202.5 86t-148 125t-101 137.5t-50 128q-69 298 34 533q174 387 631 402q203 7 305 -20.5t210 -112.5q141 -112 202 -279zM855 560q2 0 6 0.5t6 0.5q-2 48 -4 129t-3 113q-70 3 -106 -33t-36 -123q8 -52 46.5 -73.5t90.5 -13.5z" />
    <glyph glyph-name="A" unicode="A" 
d="M20 412q39 199 135 492t164 426q47 15 93 26.5t110 20t122 7.5t123 -16.5t118.5 -46.5t102.5 -88t81 -135q59 -143 145 -442.5t123 -505.5q-4 -31 -30.5 -63.5t-67 -56t-90 -39t-103 -11.5t-101.5 25t-89 72.5t-63 128.5q-45 2 -134 1.5t-135 0.5q-33 -83 -64 -197
q-169 -58 -276.5 -19.5t-150.5 151.5t-13 269zM578 598h167q-15 62 -42 174.5t-37 153.5q-8 -2 -12 -2q-13 -58 -38.5 -166.5t-37.5 -159.5z" />
    <glyph glyph-name="B" unicode="B" horiz-adv-x="1171" 
d="M952 720q91 -31 141 -111.5t48 -192.5q-3 -206 -154.5 -326t-417.5 -120q-480 0 -527 431q-17 177 -12 424t25 468q105 62 281 85t339.5 3t244.5 -74q78 -52 121.5 -129.5t47.5 -155.5t-24.5 -152.5t-85.5 -125.5q-4 -4 -13 -11.5t-14 -12.5zM515 384q25 -13 56 -14
t57 11q58 23 51 96q-2 27 -19.5 45t-43.5 24q-71 13 -100 -16q-1 -16 -1 -146zM505 866q16 -10 36 -11.5t39 5t31 26.5t12 51q-1 34 -26.5 50.5t-53 13.5t-38.5 -17q-9 -21 -9.5 -53t9.5 -65z" />
    <glyph glyph-name="C" unicode="C" 
d="M905 934q-60 16 -111 10t-105 -39q-129 -80 -102 -270q16 -114 99 -161.5t196 -31.5q22 3 48.5 11.5t47.5 17.5t48.5 24t41 23t35.5 22l22 13q48 -9 88.5 -41t67 -76.5t32 -100.5t-11.5 -110.5t-70 -109t-136 -93.5q-70 -32 -170 -43.5t-195.5 -4t-177.5 28.5
q-351 90 -454 446q-73 260 4 485q83 248 358 385q117 57 243.5 72.5t269.5 -16.5t287 -115q18 -65 10 -119.5t-32 -97t-63 -71.5t-83.5 -43.5t-93.5 -13.5t-93 19z" />
    <glyph glyph-name="D" unicode="D" horiz-adv-x="1363" 
d="M1318 715q0 -58 -8.5 -120t-30.5 -136.5t-56 -141.5t-91 -131.5t-129 -111t-175.5 -75t-226.5 -28.5q-252 0 -371.5 79t-136.5 272q-31 348 4 976q108 64 289.5 84t349 -1t258.5 -69q166 -87 245 -232t79 -365zM634 354q42 1 79 21t69 60.5t51 115t19 173.5
q0 56 -9.5 102t-27 77t-40.5 55.5t-49 37t-53.5 20.5t-53.5 7t-50 -4v-616q1 -28 21.5 -38.5t43.5 -10.5z" />
    <glyph glyph-name="E" unicode="E" horiz-adv-x="1149" 
d="M75 315q-10 129 -3.5 503t25.5 536q181 16 487.5 15t498.5 -16q13 -19 22 -55.5t11 -83t-12.5 -94t-42.5 -87.5t-85.5 -65.5t-135.5 -25.5h-282v-71q10 0 80 1.5t119.5 1.5t115.5 -6t106 -19q31 -68 34.5 -130t-19 -109t-73 -76.5t-124.5 -33.5h-237v-84h31h438
q39 -55 49.5 -122t-8.5 -128t-79 -107.5t-153 -58.5q-81 -12 -290 -11.5t-278 16.5q-96 25 -141.5 97.5t-53.5 212.5z" />
    <glyph glyph-name="F" unicode="F" horiz-adv-x="1163" 
d="M79 254q-17 148 -10 533t28 563q179 16 487 14.5t499 -16.5q13 -19 22 -55.5t11 -82.5t-12.5 -94t-42.5 -87.5t-85.5 -65t-135.5 -25.5h-282v-162q10 0 80 1.5t119.5 1.5t115.5 -6t106 -19q31 -68 34 -137.5t-18.5 -125.5t-73 -93t-124.5 -40q-31 -2 -60 -2t-79 1t-98 1
q0 -260 -6 -327q-36 -26 -91 -37.5t-117 -3t-118 35.5t-97.5 86.5t-51.5 141.5z" />
    <glyph glyph-name="G" unicode="G" horiz-adv-x="1419" 
d="M889 923q-60 16 -110.5 9.5t-102.5 -39.5q-128 -79 -101 -266q10 -90 66.5 -141t132.5 -50q31 0 55.5 9t40 20.5t27 34.5t17 39t9 47.5t4 46.5t1.5 47q24 33 94.5 43.5t147 -3t138 -67.5t66.5 -137q3 -40 -3 -85t-24.5 -98t-48.5 -102t-79 -95t-112 -80t-153 -54.5
t-196 -20.5q-517 0 -667 438q-41 119 -39 250.5t42 253.5q83 248 355 380q116 57 241 72.5t267 -16.5t284 -114q17 -65 9.5 -119t-31.5 -96t-62.5 -70.5t-82.5 -43t-92.5 -13t-92.5 19.5z" />
    <glyph glyph-name="H" unicode="H" horiz-adv-x="1411" 
d="M572 893h262q1 43 2.5 149.5t4 170t7.5 96.5q62 49 149 59t164.5 -15.5t132.5 -93.5t55 -161q0 -572 -1 -919q0 -93 -5 -145q-15 -17 -56 -31t-93.5 -21t-111 -1t-108.5 24.5t-86.5 59.5t-43.5 100q-13 92 -13 287h-255v-419q-16 -15 -50 -28.5t-79 -21.5t-94.5 -9
t-97.5 13t-87.5 40.5t-66 77.5t-31.5 120q-10 137 -15.5 495.5t4.5 568.5q66 54 153 71t162.5 -2.5t131 -73t62.5 -128.5q4 -41 5.5 -90t1 -81t-1.5 -62z" />
    <glyph glyph-name="I" unicode="I" horiz-adv-x="652" 
d="M561 1098q19 -122 13.5 -502.5t-28.5 -551.5q-43 -47 -114 -59t-143 10.5t-134 95t-83 181.5q-20 107 -22 503.5t28 537.5q39 34 94 52.5t116.5 14t117 -31.5t98 -91.5t57.5 -158.5z" />
    <glyph glyph-name="J" unicode="J" horiz-adv-x="1059" 
d="M964 1136q14 -92 22 -211t1 -279.5t-34 -287.5q-20 -94 -73 -169.5t-126 -122t-160 -70.5t-180.5 -19.5t-181.5 35.5q-79 29 -128 83t-59.5 115.5t3 121.5t56 107t101.5 66q30 -17 71.5 -22t83.5 5t70.5 50t26.5 106q-16 570 -13 668q38 33 96.5 54.5t126 21.5t128.5 -21
t108 -80.5t61 -150.5z" />
    <glyph glyph-name="K" unicode="K" horiz-adv-x="1332" 
d="M568 866q72 113 121 206q127 236 181 317q72 15 150 -7t133.5 -72.5t76 -124t-22.5 -160.5q-31 -65 -57 -105t-61.5 -88t-68.5 -100q-15 -22 -1 -47q33 -62 99.5 -177.5t111.5 -199t68 -144.5q-13 -43 -47 -83t-79 -68t-100 -39t-107.5 -2.5t-103 48t-85.5 107.5
q-10 19 -51 98.5t-78 151.5q-70 -110 -75 -141q-9 -53 3 -185q-35 -30 -92 -47t-120 -14t-121 22.5t-100.5 68t-51.5 117.5q-24 174 -30.5 541t12.5 564q27 34 74 56.5t101 31t110 0t102 -32.5t76.5 -71t32.5 -111q4 -153 4 -156t-4 -123v-31z" />
    <glyph glyph-name="L" unicode="L" horiz-adv-x="1235" 
d="M911 4q-86 -5 -192 -5t-169 3l-63 2q-360 0 -404 296q-16 104 -23.5 267.5t-1.5 369.5t31 364q32 28 77 46t96 22.5t102 -10t94 -45.5t74 -91t40 -140q22 -224 11 -611q86 8 257 4t308 -20q43 -77 37 -156t-42 -143t-99 -106.5t-133 -46.5z" />
    <glyph glyph-name="M" unicode="M" horiz-adv-x="1738" 
d="M872 657q1 4 4.5 12.5t4.5 13.5q21 91 63.5 271.5t63.5 271.5q4 14 13 40.5t13 38.5q81 52 172 61t167 -21t131.5 -101t68.5 -169q9 -66 64 -533q9 -77 26 -221t26 -221q-54 -70 -131.5 -98.5t-147 -15.5t-123 65t-62.5 131q-8 72 -10.5 128.5t-3 140t-3.5 159.5
q-6 2 -9 2q-6 -36 -18 -85q-93 -395 -113 -476q-37 -23 -98.5 -35t-130 -7.5t-126.5 47t-78 121.5q-13 50 -38 158t-44.5 189t-26.5 101q-18 -256 -40 -585q-68 -36 -136.5 -49.5t-129 2t-104 58t-62 125t-2.5 194.5q12 89 45 257.5t44 234.5q15 88 43.5 249t35.5 202
q32 30 87 48.5t121 18.5t129 -19.5t115.5 -73.5t74.5 -135q12 -42 91 -378q2 -4 14.5 -58.5t13.5 -58.5h6z" />
    <glyph glyph-name="N" unicode="N" horiz-adv-x="1473" 
d="M890 767v511q60 73 147 95t163 -2t130 -87t54 -147q0 -32 1.5 -195t2 -303t-2 -308.5t-9.5 -263.5q-45 -45 -117 -68t-153 -19.5t-165.5 47.5t-144.5 125q-33 46 -76 118t-79.5 138t-46.5 81q-2 4 -8 12t-8 11q-2 0 -5 -0.5t-5 -0.5q1 -58 5.5 -138.5t6.5 -153.5t0 -159
q-54 -44 -114 -65t-113 -19t-102.5 19.5t-85 47.5t-57.5 69t-23 79q-9 277 -9.5 614.5t10.5 482.5q50 43 122 66t148.5 22t151 -42t120.5 -119q30 -51 239 -420q3 -6 9.5 -15.5t8.5 -14.5q1 1 3 1t2 1z" />
    <glyph glyph-name="O" unicode="O" horiz-adv-x="1529" 
d="M755 1393q96 1 181 -17t146.5 -46.5t115 -69t88 -78t63 -82t42.5 -73.5t25 -58q102 -278 24 -532q-112 -360 -476 -445q-308 -75 -571 61q-249 128 -315 422q-31 131 -22.5 272.5t56.5 246.5q35 79 85.5 145t126 125.5t186.5 94t245 34.5zM762 904q-81 0 -134.5 -66.5
t-45.5 -182.5q7 -108 64.5 -160.5t120.5 -48.5t114 56.5t56 158.5q7 110 -45.5 176.5t-129.5 66.5z" />
    <glyph glyph-name="P" unicode="P" horiz-adv-x="1324" 
d="M1077 483q-59 -43 -127 -68t-124 -30.5t-106 -2.5t-78.5 10t-36.5 12h-3q-2 -2 -5 -3q-2 -1 -2 -2q0 -256 -13 -383q-34 -37 -88 -55.5t-115 -11t-118 36.5t-102 93t-62 152q-12 62 -16.5 283t3.5 456t28 312q45 44 164 76.5t261 44t294 -14.5t249 -91q80 -54 128.5 -160
t54.5 -224t-41 -237t-145 -193zM806 871q0 29 -26.5 54t-66 30.5t-86.5 -20.5q0 -95 1 -143q0 -4 5.5 -10t9.5 -6q78 0 102 5q61 10 61 90z" />
    <glyph glyph-name="Q" unicode="Q" horiz-adv-x="1622" 
d="M1537 208q19 -25 21.5 -64t-9.5 -81.5t-37.5 -85t-58.5 -76t-76.5 -53t-88.5 -16.5q-155 11 -290 163q-10 -2 -14 -3q-309 -75 -572 61q-249 128 -315 422q-68 291 34 519q35 79 85 144t125.5 124t186 93.5t246.5 37.5q148 3 252.5 -33.5t210.5 -119.5q136 -107 198 -271
q103 -281 25 -532q-33 -105 -88 -187q83 -28 165 -42zM601 655q7 -108 64.5 -160.5t120.5 -48.5t114 56.5t56 158.5q7 110 -45.5 176.5t-129.5 66.5q-81 0 -134.5 -66.5t-45.5 -182.5z" />
    <glyph glyph-name="R" unicode="R" horiz-adv-x="1361" 
d="M1066 508q48 -45 128.5 -167t103.5 -184q-16 -87 -78.5 -138t-141 -56.5t-164.5 41.5t-144 141q-16 26 -65 101.5t-92 143.5q-4 6 -22 32l-9 -3q0 -11 -0.5 -24.5t-1.5 -30.5t-1 -27q-9 -208 -23 -300q-34 -37 -86.5 -54t-112 -8t-115 40t-99 96t-60.5 154
q-20 108 -22.5 487.5t28.5 519.5q45 44 164 77t261 44.5t294 -14t249 -90.5q66 -44 117.5 -113t78.5 -153.5t25.5 -171t-48 -173t-135.5 -152.5q-11 -10 -29 -18zM782 857q0 53 -50.5 76t-128.5 -9q0 -11 -0.5 -67t0.5 -60q0 -4 6.5 -10t10.5 -6q77 0 101 5q61 10 61 71z
" />
    <glyph glyph-name="S" unicode="S" horiz-adv-x="1286" 
d="M997 769q84 -52 134.5 -122.5t65 -143t3 -148.5t-46 -140.5t-87.5 -115.5t-116 -77q-72 -29 -175.5 -43.5t-222.5 -12t-241.5 40.5t-209.5 110q-27 35 -39.5 77t-9 82t18 78t42.5 66t62 44t78.5 14t90.5 -25q94 -47 182 -65t145 -4.5t68 54.5q12 43 -18.5 69.5
t-104.5 31.5q-70 5 -134.5 19t-128.5 42.5t-113.5 68.5t-86 100.5t-48.5 134.5q-2 26 -3.5 58t8.5 70.5t24 77.5t43.5 79t66.5 74.5t93 64t124 47.5q135 37 297.5 21.5t250.5 -73.5q68 -45 102 -101t31.5 -107.5t-25.5 -97.5t-64 -78t-88 -43q-29 35 -83 63.5t-113.5 41
t-114 13.5t-90 -18t-36.5 -53q0 -23 19.5 -36.5t70.5 -20.5q132 -17 230 -51.5t149 -65.5z" />
    <glyph glyph-name="T" unicode="T" horiz-adv-x="1342" 
d="M1227 1363q23 -30 37 -82.5t11 -115t-24.5 -119t-79 -97t-144.5 -45.5q-20 -1 -41.5 -2.5t-33 -2.5t-14.5 -1q8 -187 0.5 -452t-26.5 -401q-43 -48 -114 -60.5t-143 10.5t-134 97.5t-83 187.5q-11 59 -18 245t-4 375q-170 -13 -279 9q-22 28 -34 71.5t-13 92t13 98
t40.5 90t74.5 67.5t110 31q76 5 259.5 5.5t390.5 -0.5t249 -1z" />
    <glyph glyph-name="U" unicode="U" horiz-adv-x="1492" 
d="M1394 464q-15 -125 -77 -224t-153 -158t-195.5 -89t-214.5 -30q-68 0 -124 4t-121.5 17t-118 35t-105 60t-90.5 89t-66.5 125t-41.5 166q-45 318 28 861q18 20 71 36t121 17.5t133.5 -12t115 -58.5t58.5 -115q1 -6 4.5 -310.5t23.5 -421.5q7 -43 37.5 -70t66 -29.5
t68 24.5t42.5 80q27 132 31.5 396.5t-23.5 428.5q27 27 75 46.5t105.5 28t118 -2t111.5 -37.5t87 -84.5t43 -137.5q1 -15 6 -64t6 -62t4 -55t2.5 -65t-1.5 -68.5t-4.5 -88t-9 -102t-13.5 -130.5z" />
    <glyph glyph-name="V" unicode="V" horiz-adv-x="1436" 
d="M776 778h4h-4zM295 264q-49 121 -112 402.5t-112 551.5q12 43 49.5 79.5t87 59t106.5 26.5t107.5 -11.5t91 -63t55.5 -120.5q81 -378 124 -737h13q12 51 36.5 159.5t38.5 167.5q23 103 65 324.5t51 254.5q166 59 269.5 20t144 -151.5t10.5 -269.5q-39 -207 -130 -502
t-155 -424q-46 -15 -91.5 -26.5t-109 -20t-120.5 -7.5t-121 17t-117 47t-101 88t-80 136z" />
    <glyph glyph-name="W" unicode="W" horiz-adv-x="2083" 
d="M1571 1326q56 27 115.5 40t116 11t105.5 -22.5t83.5 -56t50.5 -94t7 -132.5q-22 -173 -105 -525.5t-140 -513.5q-181 -57 -283 -68q-359 -39 -446 289q-8 30 -14.5 61t-10.5 51t-9 61t-6.5 55.5t-7.5 73.5t-8 78h-17q-41 -337 -74 -588q-46 -14 -70.5 -21.5t-80 -21.5
t-92.5 -19t-93.5 -8.5t-97.5 3.5t-91 23.5t-87 45t-72.5 74.5t-59.5 106q-32 80 -55.5 234t-50 428.5t-34.5 342.5q12 42 52.5 76t93.5 53.5t112.5 20.5t111 -17.5t88.5 -67.5t45 -122q19 -174 28 -411t16 -298h14q50 210 76 319q18 72 149 556q39 13 79.5 23t97 13
t102.5 -8t87 -46.5t59 -94.5q31 -98 64.5 -220.5t76.5 -289t68 -260.5q4 1 12 1q48 274 95 866z" />
    <glyph glyph-name="X" unicode="X" horiz-adv-x="1283" 
d="M1027 644q8 -19 92 -193.5t115 -255.5q-3 -48 -31 -92.5t-70 -76.5t-96 -46t-107.5 -5.5t-106.5 51.5t-91 117q-41 81 -96 222q-101 -225 -159 -358q-94 -20 -163 -15.5t-114.5 30.5t-73 61.5t-39 78t-11.5 80.5t9 69q19 61 49.5 121.5t69 124t53.5 94.5q8 18 -2 40
q-41 89 -117.5 252.5t-106.5 229.5q10 56 53.5 101.5t103.5 68t123 26.5t118 -22t82 -79q68 -132 138 -311q124 257 219 404q64 22 138 9t130.5 -56.5t81 -115.5t-9.5 -167q-19 -51 -46 -104t-66 -122t-65 -120q-12 -20 -4 -41z" />
    <glyph glyph-name="Y" unicode="Y" horiz-adv-x="1295" 
d="M684 841q7 15 53 126.5t99 233.5t82 177q73 20 147.5 3.5t126 -62.5t69.5 -117.5t-21 -163.5q-47 -109 -146 -292.5t-156 -307.5q-20 -36 -20 -75q0 -53 -1 -129.5t-2.5 -135.5t-1.5 -63q-15 -20 -56.5 -35t-95.5 -21.5t-113 2.5t-109 32.5t-84 74t-37 121.5v53.5t0.5 68
t0.5 43.5q-1 27 -15 53q-234 448 -371 780q32 78 97.5 125.5t132.5 56t128 -14t87 -71.5q34 -63 98.5 -224.5t80.5 -196.5q2 -7 7.5 -20t8.5 -20q8 0 11 -1z" />
    <glyph glyph-name="Z" unicode="Z" horiz-adv-x="1295" 
d="M638 460q32 0 156 2.5t228 0t199 -14.5q42 -76 35.5 -153.5t-42 -141t-97.5 -106t-131 -47.5q-84 -5 -202.5 -6t-195.5 0l-77 2q-37 0 -67 1.5t-74.5 7.5t-79.5 17t-74 31.5t-65 49t-45 72.5t-23 99q-2 40 4 80t15 74t31.5 74.5t40.5 69.5t54 71.5t59 68.5t70.5 72
t73 70.5t80.5 75.5q-76 0 -183.5 -4t-148 -5t-83.5 2q-26 33 -38.5 86.5t-5.5 112.5t30.5 112t76 89.5t124.5 40.5q75 5 241.5 5.5t377 -1t231.5 -1.5q32 -37 50 -95t8.5 -137.5t-54.5 -151.5q-59 -92 -216.5 -253t-282.5 -270z" />
    <glyph glyph-name="bracketleft" unicode="[" horiz-adv-x="898" 
d="M461 -18q250 -2 310 -7q43 -69 51 -136.5t-18.5 -125.5t-100.5 -98.5t-188 -51.5q-161 -14 -241 0q-48 8 -84.5 25t-70.5 51.5t-55 95t-26 145.5q-7 119 9.5 886.5t52.5 1004.5q65 36 205 48t267 4t199 -25q43 -68 51 -135.5t-18.5 -125.5t-100.5 -99t-188 -52
q-5 0 -13.5 -1t-12.5 -1q-11 -970 -28 -1402z" />
    <glyph glyph-name="backslash" unicode="\" horiz-adv-x="1179" 
d="M627 -3q-14 28 -21 44.5t-16 41.5t-17 47q-59 154 -185.5 458t-214 532.5t-129.5 390.5q63 76 136.5 100t134 2t108 -63.5t70.5 -92.5q52 -115 314.5 -771t297.5 -777q-48 -65 -108 -97t-123.5 -29t-129 57.5t-117.5 156.5z" />
    <glyph glyph-name="bracketright" unicode="]" horiz-adv-x="917" 
d="M419 1379q-236 0 -310 8q-34 54 -47 108.5t-1.5 105t46 91.5t101.5 69t159 37q160 14 241 0q47 -8 83 -25t70 -51.5t55 -95t26 -145.5q7 -120 -9 -887t-52 -1004q-64 -36 -204 -48t-268 -4t-200 25q-34 54 -47 108.5t-1.5 105t46 91.5t101.5 69t159 37q24 3 25 3
q17 1097 27 1402z" />
    <glyph glyph-name="underscore" unicode="_" horiz-adv-x="1870" 
d="M322 505q123 20 702 14.5t752 -29.5q32 -29 49 -72.5t18 -92t-17.5 -99.5t-53 -95t-94 -78t-135.5 -49q-106 -21 -704 -23t-738 29q-35 40 -54.5 96.5t-14.5 119.5t32.5 119.5t94.5 100.5t163 59z" />
    <glyph glyph-name="grave" unicode="`" horiz-adv-x="574" 
d="M63 1804q5 58 49 108t104 62.5t124 -32.5q79 -64 127 -178t59 -203q4 -41 -9 -72t-36 -44.5t-52.5 -15t-58.5 15.5q-73 73 -175 194t-132 165z" />
    <glyph glyph-name="a" unicode="a" 
d="M33 408q40 208 131 501.5t155 420.5q47 15 93 26.5t110 20t122 7.5t123 -16.5t118.5 -46.5t102.5 -88t81 -135q60 -145 147.5 -446.5t124.5 -505.5q-4 -31 -30.5 -63.5t-67 -56t-90 -39t-103 -11.5t-101.5 25t-89 72.5t-63 128.5q-45 2 -134 1t-135 0q-34 -85 -64 -196
q-169 -59 -274 -19.5t-146 151.5t-11 269zM578 598h167q-15 62 -42 174.5t-37 153.5q-8 -2 -12 -2q-13 -58 -38.5 -166.5t-37.5 -159.5z" />
    <glyph glyph-name="b" unicode="b" horiz-adv-x="1171" 
d="M952 720q91 -31 141 -111.5t48 -192.5q-3 -206 -154.5 -326t-417.5 -120q-480 0 -527 431q-17 177 -12 424t25 468q105 62 281 85t339.5 3t244.5 -74q78 -52 121.5 -129.5t47.5 -155.5t-24.5 -152.5t-85.5 -125.5q-4 -4 -13 -11.5t-14 -12.5zM515 384q25 -13 56 -14
t57 11q58 23 51 96q-2 27 -19.5 45t-43.5 24q-71 13 -100 -16q-1 -16 -1 -146zM505 866q16 -10 36 -11.5t39 5t31 26.5t12 51q-1 34 -26.5 50.5t-53 13.5t-38.5 -17q-9 -21 -9.5 -53t9.5 -65z" />
    <glyph glyph-name="c" unicode="c" 
d="M905 934q-60 16 -111 10t-105 -39q-129 -80 -102 -270q16 -114 99 -161.5t196 -31.5q22 3 48.5 11.5t47.5 17.5t48.5 24t41 23t35.5 22l22 13q48 -9 88.5 -41t67 -76.5t32 -100.5t-11.5 -110.5t-70 -109t-136 -93.5q-70 -32 -170 -43.5t-195.5 -4t-177.5 28.5
q-351 90 -454 446q-73 260 4 485q83 248 358 385q117 57 243.5 72.5t269.5 -16.5t287 -115q18 -65 10 -119.5t-32 -97t-63 -71.5t-83.5 -43.5t-93.5 -13.5t-93 19z" />
    <glyph glyph-name="d" unicode="d" horiz-adv-x="1363" 
d="M1318 715q0 -58 -8.5 -120t-30.5 -136.5t-56 -141.5t-91 -131.5t-129 -111t-175.5 -75t-226.5 -28.5q-252 0 -371.5 79t-136.5 272q-31 348 4 976q108 64 289.5 84t349 -1t258.5 -69q166 -87 245 -232t79 -365zM629 404q27 1 45.5 3t44 8.5t42.5 18.5t35.5 34t29.5 52
t18 75.5t7 103.5q0 56 -10.5 98t-26.5 68t-41.5 42.5t-48.5 23t-55 7t-53.5 -2.5t-50.5 -8v-474q1 -28 21.5 -38.5t42.5 -10.5z" />
    <glyph glyph-name="e" unicode="e" horiz-adv-x="1149" 
d="M75 315q-10 129 -3.5 503t25.5 536q181 16 487.5 15t498.5 -16q13 -19 22 -55.5t11 -83t-12.5 -94t-42.5 -87.5t-85.5 -65.5t-135.5 -25.5h-282v-71q10 0 80 1.5t119.5 1.5t115.5 -6t106 -19q31 -68 34.5 -130t-19 -109t-73 -76.5t-124.5 -33.5h-237v-84h31h438
q39 -55 49.5 -122t-8.5 -128t-79 -107.5t-153 -58.5q-81 -12 -290 -11.5t-278 16.5q-96 25 -141.5 97.5t-53.5 212.5z" />
    <glyph glyph-name="f" unicode="f" horiz-adv-x="1163" 
d="M79 254q-17 148 -10 533t28 563q179 16 487 14.5t499 -16.5q13 -19 22 -55.5t11 -82.5t-12.5 -94t-42.5 -87.5t-85.5 -65t-135.5 -25.5h-282v-162q10 0 80 1.5t119.5 1.5t115.5 -6t106 -19q31 -68 34 -137.5t-18.5 -125.5t-73 -93t-124.5 -40q-31 -2 -60 -2t-79 1t-98 1
q0 -260 -6 -327q-36 -26 -91 -37.5t-117 -3t-118 35.5t-97.5 86.5t-51.5 141.5z" />
    <glyph glyph-name="g" unicode="g" horiz-adv-x="1419" 
d="M889 923q-60 16 -110.5 9.5t-102.5 -39.5q-128 -79 -101 -266q10 -90 66.5 -141t132.5 -50q31 0 55.5 9t40 20.5t27 34.5t17 39t9 47.5t4 46.5t1.5 47q24 33 94.5 43.5t147 -3t138 -67.5t66.5 -137q3 -40 -3 -85t-24.5 -98t-48.5 -102t-79 -95t-112 -80t-153 -54.5
t-196 -20.5q-517 0 -667 438q-41 119 -39 250.5t42 253.5q83 248 355 380q116 57 241 72.5t267 -16.5t284 -114q17 -65 9.5 -119t-31.5 -96t-62.5 -70.5t-82.5 -43t-92.5 -13t-92.5 19.5z" />
    <glyph glyph-name="h" unicode="h" horiz-adv-x="1411" 
d="M572 893h262q1 43 2.5 149.5t4 170t7.5 96.5q62 49 149 59t164.5 -15.5t132.5 -93.5t55 -161q0 -572 -1 -919q0 -93 -5 -145q-15 -17 -56 -31t-93.5 -21t-111 -1t-108.5 24.5t-86.5 59.5t-43.5 100q-13 92 -13 287h-255v-419q-16 -15 -50 -28.5t-79 -21.5t-94.5 -9
t-97.5 13t-87.5 40.5t-66 77.5t-31.5 120q-10 137 -15.5 495.5t4.5 568.5q66 54 153 71t162.5 -2.5t131 -73t62.5 -128.5q4 -41 5.5 -90t1 -81t-1.5 -62z" />
    <glyph glyph-name="i" unicode="i" horiz-adv-x="652" 
d="M561 1098q19 -122 13.5 -502.5t-28.5 -551.5q-43 -47 -114 -59t-143 10.5t-134 95t-83 181.5q-20 107 -22 503.5t28 537.5q39 34 94 52.5t116.5 14t117 -31.5t98 -91.5t57.5 -158.5z" />
    <glyph glyph-name="j" unicode="j" horiz-adv-x="1059" 
d="M964 1136q14 -92 22 -211t1 -279.5t-34 -287.5q-20 -94 -73 -169.5t-126 -122t-160 -70.5t-180.5 -19.5t-181.5 35.5q-79 29 -128 83t-59.5 115.5t3 121.5t56 107t101.5 66q30 -17 71.5 -22t83.5 5t70.5 50t26.5 106q-16 570 -13 668q38 33 96.5 54.5t126 21.5t128.5 -21
t108 -80.5t61 -150.5z" />
    <glyph glyph-name="k" unicode="k" horiz-adv-x="1332" 
d="M568 866q92 145 127 196q29 44 112 165t102 149q72 15 142 -4.5t115 -66.5t57.5 -118t-30.5 -158q-26 -53 -46.5 -91.5t-32.5 -57.5t-42 -66t-52 -82q-15 -22 -1 -47q33 -62 99.5 -177.5t111.5 -199t68 -144.5q-13 -43 -47 -83t-79 -68t-100 -39t-107.5 -2.5t-103 48
t-85.5 107.5q-10 19 -51 98.5t-78 151.5q-70 -110 -75 -141q-9 -53 3 -185q-35 -30 -92 -47t-120 -14t-121 22.5t-100.5 68t-51.5 117.5q-24 174 -30.5 532t12.5 555q27 34 74 56.5t101 31t110 0t102 -32.5t76.5 -71t32.5 -111q2 -49 3 -77t1 -52t-0.5 -35t-1.5 -41.5
t-2 -55.5v-31z" />
    <glyph glyph-name="l" unicode="l" horiz-adv-x="1235" 
d="M911 -1q-86 -5 -192 -5t-169 2l-63 3q-360 0 -404 296q-16 104 -23.5 269t-1.5 372t31 365q32 28 77 46t96 22.5t102 -10t94 -45.5t74 -91t40 -140q22 -226 11 -616q86 8 257 4t308 -20q43 -77 37 -156t-42 -143t-99 -106.5t-133 -46.5z" />
    <glyph glyph-name="m" unicode="m" horiz-adv-x="1738" 
d="M872 640q1 4 4.5 12.5t4.5 13.5q21 91 63.5 272t63.5 272q4 14 13 40.5t13 38.5q81 52 172 61t167 -21.5t131.5 -101.5t68.5 -169q10 -73 64 -532q9 -77 26 -221.5t26 -221.5q-54 -70 -131.5 -98.5t-147 -15.5t-123 65t-62.5 131q-8 72 -10.5 128.5t-3 140.5t-3.5 160
q-3 1 -9 1q-6 -33 -18 -84q-96 -409 -113 -477q-29 -18 -74.5 -30.5t-101 -13t-106.5 12.5t-93 53.5t-58 104.5q-13 50 -38 158t-44.5 189t-26.5 101q-18 -246 -40 -586q-68 -36 -136.5 -49.5t-129 2.5t-104 58.5t-62 125t-2.5 194.5q12 89 45 257t44 234q15 89 44 252
t35 200q32 30 87 48.5t121 18.5t129 -19.5t115.5 -73.5t74.5 -135q12 -42 91 -378q2 -4 14 -59t14 -59h6z" />
    <glyph glyph-name="n" unicode="n" horiz-adv-x="1473" 
d="M890 767v511q60 73 147 95t163 -2t130 -87t54 -147q0 -32 1.5 -195t2 -303t-2 -308.5t-9.5 -263.5q-45 -45 -117 -68t-153 -19.5t-165.5 47.5t-144.5 125q-33 46 -76 118t-79.5 138t-46.5 81q-2 4 -8 12t-8 11q-2 0 -5 -0.5t-5 -0.5q1 -58 5.5 -138.5t6.5 -153.5t0 -159
q-54 -44 -114 -65t-113 -19t-102.5 19.5t-85 47.5t-57.5 69t-23 79q-9 277 -9.5 614.5t10.5 482.5q50 43 122 66t148.5 22t151 -42t120.5 -119q30 -51 239 -420q3 -6 9.5 -15.5t8.5 -14.5q1 1 3 1t2 1z" />
    <glyph glyph-name="o" unicode="o" horiz-adv-x="1529" 
d="M755 1393q96 1 181 -17t146.5 -46.5t115 -69t88 -78t63 -82t42.5 -73.5t25 -58q102 -278 24 -532q-112 -360 -476 -445q-308 -75 -571 61q-249 128 -315 422q-31 131 -22.5 272.5t56.5 246.5q35 79 85.5 145t126 125.5t186.5 94t245 34.5zM762 904q-81 0 -134.5 -66.5
t-45.5 -182.5q7 -108 64.5 -160.5t120.5 -48.5t114 56.5t56 158.5q7 110 -45.5 176.5t-129.5 66.5z" />
    <glyph glyph-name="p" unicode="p" horiz-adv-x="1324" 
d="M1077 483q-59 -43 -127 -68t-124 -30.5t-106 -2.5t-78.5 10t-36.5 12h-3q-2 -2 -5 -3q-2 -1 -2 -2q0 -219 -13 -346q-34 -37 -88 -55.5t-115 -11t-118 36.5t-102 93t-62 152q-12 62 -16.5 270t3.5 430t28 299q45 44 164 76.5t261 44t294 -14.5t249 -91q80 -54 128.5 -158
t54.5 -219t-41 -231.5t-145 -190.5zM806 871q0 29 -26.5 54t-66 30.5t-86.5 -20.5q0 -95 1 -143q0 -4 5.5 -10t9.5 -6q78 0 102 5q61 10 61 90z" />
    <glyph glyph-name="q" unicode="q" horiz-adv-x="1622" 
d="M1537 208q19 -25 21.5 -64t-9.5 -81.5t-37.5 -85t-58.5 -76t-76.5 -53t-88.5 -16.5q-155 11 -290 163q-10 -2 -14 -3q-309 -75 -572 61q-249 128 -315 422q-68 291 34 519q35 79 85 144t125.5 124t186 93.5t246.5 37.5q148 3 252.5 -33.5t210.5 -119.5q136 -107 198 -271
q103 -281 25 -532q-33 -105 -88 -187q83 -28 165 -42zM601 655q7 -108 64.5 -160.5t120.5 -48.5t114 56.5t56 158.5q7 110 -45.5 176.5t-129.5 66.5q-81 0 -134.5 -66.5t-45.5 -182.5z" />
    <glyph glyph-name="r" unicode="r" horiz-adv-x="1361" 
d="M1066 508q48 -45 128.5 -167t103.5 -184q-16 -87 -78.5 -138t-141 -56.5t-164.5 41.5t-144 141q-16 26 -65 101.5t-92 143.5q-4 6 -22 32l-9 -3q0 -11 -0.5 -24.5t-1.5 -30.5t-1 -27q-8 -180 -23 -280q-34 -37 -86.5 -54t-112 -8t-115 40t-99 96t-60.5 154
q-20 108 -22.5 477.5t28.5 509.5q45 44 164 77t261 44.5t294 -14t249 -90.5q66 -44 117.5 -113t78.5 -153.5t25.5 -171t-48 -173t-135.5 -152.5q-11 -10 -29 -18zM782 857q0 53 -50.5 76t-128.5 -9q0 -11 -0.5 -67t0.5 -60q0 -4 6.5 -10t10.5 -6q77 0 101 5q61 10 61 71z
" />
    <glyph glyph-name="s" unicode="s" horiz-adv-x="1286" 
d="M997 769q84 -52 134.5 -122.5t65 -143t3 -148.5t-46 -140.5t-87.5 -115.5t-116 -77q-72 -29 -175.5 -43.5t-222.5 -12t-241.5 40.5t-209.5 110q-27 35 -39.5 77t-9 82t18 78t42.5 66t62 44t78.5 14t90.5 -25q146 -73 240 -80.5t112 54.5q12 44 -1.5 58.5t-86.5 19.5
q-86 6 -166.5 33.5t-151.5 75t-120.5 122.5t-64.5 168q-2 26 -3.5 58t8.5 70.5t24 77.5t43.5 79t66.5 74.5t93 64t124 47.5q135 37 297.5 21.5t250.5 -73.5q68 -45 102 -101t31.5 -107.5t-25.5 -97.5t-64 -78t-88 -43q-29 35 -80.5 60.5t-107 33.5t-106.5 4.5t-84 -25
t-34 -56.5q0 -23 19.5 -36.5t70.5 -20.5q269 -35 354 -87z" />
    <glyph glyph-name="t" unicode="t" horiz-adv-x="1342" 
d="M1227 1363q23 -30 37 -82.5t11 -115t-24.5 -119t-79 -97t-144.5 -45.5q-20 -1 -41.5 -2.5t-33 -2.5t-14.5 -1q8 -187 0.5 -452t-26.5 -401q-43 -48 -114 -60.5t-143 10.5t-134 97.5t-83 187.5q-11 59 -18 245t-4 375q-170 -13 -279 9q-22 28 -34 71.5t-13 92t13 98
t40.5 90t74.5 67.5t110 31q76 5 259.5 5.5t390.5 -0.5t249 -1z" />
    <glyph glyph-name="u" unicode="u" horiz-adv-x="1492" 
d="M1394 464q-15 -125 -77 -224t-153 -158t-195.5 -89t-214.5 -30q-68 0 -124 4t-121.5 17t-118 35t-105 60t-90.5 89t-66.5 125t-41.5 166q-45 318 28 861q18 20 71 36t121 17.5t133.5 -12t115 -58.5t58.5 -115q1 -6 4.5 -310.5t23.5 -421.5q7 -43 37.5 -70t66 -29.5
t68 24.5t42.5 80q27 132 31.5 396.5t-23.5 428.5q27 27 75 46.5t105.5 28t118 -2t111.5 -37.5t87 -84.5t43 -137.5q1 -15 6 -64t6 -62t4 -55t2.5 -65t-1.5 -68.5t-4.5 -88t-9 -102t-13.5 -130.5z" />
    <glyph glyph-name="v" unicode="v" horiz-adv-x="1436" 
d="M776 778h4h-4zM283 253q-73 182 -212 950q12 43 49.5 79.5t87 59t106.5 26.5t107.5 -11.5t91 -63t55.5 -120.5q85 -398 124 -722h13q12 51 36.5 159.5t38.5 167.5q23 101 65 315.5t51 248.5q166 59 269.5 20t144 -151.5t10.5 -269.5q-39 -206 -129.5 -499.5
t-155.5 -422.5q-46 -15 -92.5 -26.5t-110.5 -20t-122.5 -7.5t-124 17t-119 47t-102.5 88t-81 136z" />
    <glyph glyph-name="w" unicode="w" horiz-adv-x="2083" 
d="M1571 1326q56 27 115.5 40t116 11t105.5 -22.5t83.5 -56t50.5 -94t7 -132.5q-22 -173 -105 -525.5t-140 -513.5q-181 -57 -283 -68q-359 -39 -446 289q-8 30 -14.5 61t-10.5 51t-9 61t-6.5 55.5t-7.5 73.5t-8 78h-17q-41 -337 -74 -588q-46 -14 -70.5 -21.5t-80 -21.5
t-92.5 -19t-93.5 -8.5t-97.5 3.5t-91 23.5t-87 45t-72.5 74.5t-59.5 106q-32 80 -55.5 234t-50 428.5t-34.5 342.5q12 42 52.5 76t93.5 53.5t112.5 20.5t111 -17.5t88.5 -67.5t45 -122q19 -174 28 -411t16 -298h14q50 210 76 319q18 72 149 556q39 13 79.5 23t97 13
t102.5 -8t87 -46.5t59 -94.5q31 -98 64.5 -220.5t76.5 -289t68 -260.5q4 1 12 1q48 274 95 866z" />
    <glyph glyph-name="x" unicode="x" horiz-adv-x="1283" 
d="M1027 644q8 -19 92 -193.5t115 -255.5q-3 -48 -31 -92.5t-70 -76.5t-96 -46t-107.5 -5.5t-106.5 51.5t-91 117q-41 81 -96 222q-101 -225 -159 -358q-94 -20 -163 -15.5t-114.5 30.5t-73 61.5t-39 78t-11.5 80.5t9 69q19 61 49.5 121.5t69 124t53.5 94.5q8 18 -2 40
q-41 89 -117.5 252.5t-106.5 229.5q10 56 53.5 101.5t103.5 68t123 26.5t118 -22t82 -79q68 -132 138 -311q124 257 219 404q64 22 138 9t130.5 -56.5t81 -115.5t-9.5 -167q-19 -51 -46 -104t-66 -122t-65 -120q-12 -20 -4 -41z" />
    <glyph glyph-name="y" unicode="y" horiz-adv-x="1295" 
d="M684 841q7 15 52.5 125.5t98 231.5t81.5 176q73 20 147.5 3.5t126 -62.5t69.5 -117.5t-21 -163.5q-47 -109 -145 -290.5t-155 -305.5q-20 -36 -20 -75q0 -53 -1 -129.5t-2.5 -135.5t-1.5 -63q-15 -20 -56.5 -35t-95.5 -21.5t-113 2.5t-109 32.5t-84 74t-37 121.5v53.5
t0.5 68t0.5 43.5q-1 27 -15 53q-265 505 -382 791q32 78 97.5 125.5t132.5 55.5t128 -14.5t87 -71.5q35 -64 107.5 -236.5t82.5 -194.5q2 -7 7.5 -20t8.5 -20q8 0 11 -1z" />
    <glyph glyph-name="z" unicode="z" horiz-adv-x="1295" 
d="M638 455q29 0 155 2t229.5 -0.5t198.5 -14.5q42 -76 35.5 -153t-42 -139.5t-97.5 -104t-131 -46.5q-84 -5 -202.5 -6t-195.5 1l-77 1q-37 0 -67 1.5t-74.5 7.5t-79.5 17t-74 31.5t-65 49t-45 72.5t-23 99q-3 51 7.5 102t27 94.5t52 95t65 89t83.5 93t90.5 91t102.5 96.5
q-76 0 -183.5 -4t-148 -5t-83.5 2q-26 33 -38.5 86t-5.5 111.5t30.5 111t76 88.5t124.5 40q75 5 241.5 5.5t377 -1t231.5 -1.5q24 -27 39.5 -67.5t21.5 -90t-8 -108.5t-49 -114q-60 -93 -220.5 -261t-278.5 -271z" />
    <glyph glyph-name="braceleft" unicode="{" horiz-adv-x="1079" 
d="M661 287q39 -292 314 -311q6 -1 8 -1q42 -68 46.5 -134t-28.5 -120t-111.5 -90t-193.5 -43q-102 -6 -181.5 19.5t-128.5 70.5t-82 111t-46.5 131.5t-17.5 142.5q-11 216 -25 293q-27 145 -125 317q-27 48 -63 105q134 168 197.5 331t97.5 371q11 66 37 125t68.5 111
t110 83.5t150.5 32.5q17 3 52 0t46 -2t40.5 -3.5t36.5 -4.5t33.5 -5.5t30.5 -6t28.5 -6t27.5 -6.5q83 -134 50.5 -240.5t-165.5 -138.5q-57 -14 -95 -36.5t-69.5 -72.5t-48.5 -129q-35 -156 -49.5 -214t-40 -117t-60.5 -92q47 -66 76.5 -119t43 -100.5t18.5 -78.5t9 -85
t9 -88z" />
    <glyph glyph-name="bar" unicode="|" horiz-adv-x="542" 
d="M42 49q-3 36 2 142q7 276 4 522.5t4 519t30 437.5q93 47 165.5 41t123 -49.5t77.5 -100t29 -112.5q3 -126 -6 -832.5t-22 -833.5q-69 -41 -137 -48t-125 21t-96.5 103t-48.5 190z" />
    <glyph glyph-name="braceright" unicode="}" horiz-adv-x="1126" 
d="M433 1132q-40 292 -319 313h-5q-42 68 -46.5 133.5t28.5 119.5t111.5 90.5t193.5 43.5q102 6 182 -20t129 -71t81.5 -111t46 -132t17.5 -142q4 -73 5 -93.5t5 -78.5t8 -77t12 -66.5t18 -71.5t25.5 -67.5t35 -79.5t45.5 -82.5t59 -99.5q-134 -168 -197 -330.5t-98 -370.5
q-11 -66 -37 -125t-68.5 -111.5t-110 -84t-150.5 -32.5q-17 -3 -52 0t-46 2t-40.5 3.5t-36.5 4.5t-33.5 5.5t-30.5 6t-28.5 6t-27.5 6.5q-83 135 -50 241.5t166 138.5q57 14 94.5 37t69 72.5t49.5 129.5q47 214 73.5 294.5t75.5 127.5q-47 66 -76.5 119t-42.5 100.5
t-18 78.5t-8.5 85t-8.5 88z" />
    <glyph glyph-name="asciitilde" unicode="~" horiz-adv-x="1114" 
d="M201 451q-61 27 -96.5 78t-39.5 107.5t22 114t80 96.5q48 35 115 44.5t133.5 -1.5t142 -27t141.5 -32.5t132 -18t112 16.5q55 -13 86.5 -63t32.5 -107.5t-31.5 -110.5t-92.5 -69q-61 -17 -121.5 -18t-107 9.5t-103.5 20t-111.5 14.5t-131.5 -8t-162 -46z" />
    <glyph glyph-name="exclamdown" unicode="&#xa1;" horiz-adv-x="669" 
d="M344 1431q72 -11 79 -12q76 -16 120 -65t52 -125q6 -69 -4 -130q-20 -115 -142 -157q-87 -28 -172 -8q-89 19 -139 88.5t-42 161.5q5 64 23 105q26 67 84.5 103.5t140.5 38.5zM67 214q0 93 31 299t63 298q43 47 102.5 68t114.5 12.5t98.5 -54t55.5 -122.5
q60 -394 18 -715q-33 -29 -81 -47.5t-102 -24.5t-107.5 8t-96.5 45t-69.5 91t-26.5 142z" />
    <glyph glyph-name="cent" unicode="&#xa2;" horiz-adv-x="1123" 
d="M924 586q48 -9 87.5 -44.5t56.5 -86t11.5 -106t-52 -111.5t-129.5 -95q-46 -22 -116 -34q0 -116 -8 -177q-51 -43 -109 -53t-103.5 8.5t-76.5 58.5t-34 91q0 3 -1 33.5t-1 56.5h-4q-293 75 -378 371q-61 215 3 406q38 110 112.5 187t186.5 132q46 25 95 39q-2 126 7 199
q51 43 109.5 52.5t104 -9t77 -59t34.5 -91.5q0 -2 0.5 -30t0.5 -52q117 -28 239 -96q14 -55 7.5 -100t-26.5 -80.5t-52.5 -59.5t-69.5 -36.5t-78 -11.5t-78 16q-50 14 -92.5 9.5t-86.5 -32.5q-106 -68 -86 -227q13 -95 82.5 -134t164.5 -27q69 10 203 93z" />
    <glyph glyph-name="sterling" unicode="&#xa3;" horiz-adv-x="1265" 
d="M1169 381q39 -54 48.5 -118t-9 -123t-77.5 -105t-149 -61q-142 -24 -401 -19.5t-356 33.5q-45 13 -79.5 53t-51 91t-16.5 107.5t19 100.5q85 53 132 143q-90 2 -139 10q-55 80 -54.5 155.5t46 131t112.5 58.5q6 0 22.5 0.5t43.5 1.5t54 1q8 65 16.5 112t25.5 108
t39.5 104t59.5 88.5t84 74t114 48t150 22.5q234 10 366 -101q16 -23 26.5 -63t9.5 -88t-17 -89.5t-60.5 -68t-113.5 -23.5q-7 0 -33 2t-43.5 3t-47 -0.5t-50.5 -5.5t-46 -14.5t-41.5 -26t-28.5 -40.5t-15 -57q11 0 78.5 1.5t116 1.5t113 -5.5t103.5 -17.5
q38 -92 33.5 -166.5t-60 -123t-151.5 -52.5q-68 -4 -262 -4q-11 -46 -31 -79l33 -1q34 -2 85 -4t114.5 -3t141 1t146.5 7z" />
    <glyph glyph-name="yen" unicode="&#xa5;" horiz-adv-x="1332" 
d="M934 1384q73 21 148.5 4t127.5 -64.5t70.5 -122.5t-21.5 -170q-45 -108 -135 -269t-122 -225q109 -2 164 -11q57 -82 57 -160t-46.5 -135t-115.5 -60q-48 -3 -127 -3q0 -31 -1 -67.5t-1.5 -57t-0.5 -25.5q-15 -20 -55 -35t-92 -22.5t-110 0.5t-108 29t-86 68.5t-44 114.5
q-139 0 -215 10q-43 56 -53 120.5t8.5 114.5t58.5 84t91 37q2 0 13.5 1t20.5 1q-234 463 -315 667q32 80 98 128.5t134 57t129 -14.5t88 -74q35 -67 103 -229.5t76 -181.5q15 -35 16 -39q5 0 11 -2q8 15 102 235.5t132 295.5z" />
    <glyph glyph-name="dieresis" unicode="&#xa8;" horiz-adv-x="1062" 
d="M246 1475q-9 2 -33 4.5t-36 5.5q-66 14 -104 57t-44 109q-6 58 4 110q16 102 123 137q73 24 148 8q77 -17 120.5 -77.5t36.5 -139.5q-6 -57 -19 -92q-23 -58 -74 -89.5t-122 -32.5zM791 1475q-9 2 -32 4.5t-35 5.5q-66 14 -105 57t-46 109q-4 48 5 110q17 103 122 137
q74 24 149 8q78 -17 121.5 -77t37.5 -140q-5 -54 -21 -92q-46 -120 -196 -122z" />
    <glyph glyph-name="copyright" unicode="&#xa9;" horiz-adv-x="1594" 
d="M871 792q-56 15 -100 -14q-59 -36 -46 -124q7 -52 45 -74t90 -15q45 8 112 52q33 -7 56.5 -35.5t29.5 -65t-19 -77t-82 -66.5q-47 -22 -122 -23t-126 15q-161 40 -209 204q-33 121 2 223q37 114 164 176q174 86 368 -27q11 -43 -1 -78.5t-38 -53.5t-59.5 -25t-64.5 8z
M751 1398q103 4 175.5 -3t131 -29t98.5 -46.5t100 -71.5q140 -112 202 -279q107 -285 26 -544q-114 -370 -487 -459q-317 -75 -587 63q-253 130 -324 434q-70 298 36 532q170 386 629 403zM792 1186q-70 0 -137 -19.5t-128.5 -62.5t-106 -104t-68 -151.5t-16.5 -197.5
q7 -103 38.5 -185t77.5 -133t105.5 -85t119 -47t120.5 -11q82 6 146.5 22t122 50t97 85.5t64 130t30.5 181.5q7 126 -33 229.5t-110 166.5t-153.5 97t-168.5 34z" />
    <glyph glyph-name="guillemotleft" unicode="&#xab;" horiz-adv-x="1774" 
d="M664 657q260 -274 319 -403q-7 -43 -31 -85.5t-60 -78.5t-85.5 -57.5t-103.5 -25t-118 21.5t-125 80q-211 189 -330 351q-46 62 -65 127.5t-1 147.5t82 162q77 96 242.5 238.5t317.5 246.5q65 0 123.5 -45.5t91 -115.5t20.5 -166.5t-81 -188.5q-58 -77 -196 -209z
M1483 657q109 -115 160.5 -178.5t82.5 -131.5q-8 -52 -39.5 -103t-83 -87t-113 -51.5t-138 8t-149.5 88.5q-21 19 -59.5 53t-55.5 49.5t-44 42t-49 53t-47 60.5q-159 218 17 437q76 95 211 210t288 220q52 0 101.5 -28.5t83.5 -79.5t49 -114.5t-4.5 -141.5t-74.5 -152
q-3 -3 -11.5 -15t-11.5 -16t-11.5 -14.5t-13.5 -16.5t-15 -17.5t-20 -21.5l-23.5 -23.5z" />
    <glyph glyph-name="uni00AD" unicode="&#xad;" horiz-adv-x="995" 
d="M280 642q94 14 293 10t331 -23q35 -33 44.5 -87t-7.5 -109.5t-73 -103t-140 -63.5q-82 -16 -295 -17.5t-320 21.5q-26 30 -40.5 72t-10.5 89.5t25 90t71 76t122 44.5z" />
    <glyph glyph-name="registered" unicode="&#xae;" horiz-adv-x="876" 
d="M558 979q13 -11 34 -43.5t28 -48.5q-5 -31 -30.5 -44.5t-57 -3t-51.5 43.5q-27 40 -43 66q0 2 -2 4.5t-3 3.5q-2 0 -3 -1q0 -14 -1 -22q0 -36 -6 -74q-15 -17 -41.5 -18t-51.5 19.5t-32 58.5q-5 31 -5.5 127t6.5 135q29 26 114 31.5t143 -27.5q30 -21 47 -56t10 -76.5
t-46 -69.5q-6 -2 -9 -5zM492 1085q0 19 -18 27.5t-48 -3.5v-45q0 -7 7 -7q25 0 37 1q22 4 22 27zM426 1405q102 3 153 -14t113 -65q77 -59 107 -146q56 -153 15 -288q-62 -197 -258 -243q-171 -40 -312 34q-134 69 -170 228t19 281q91 207 333 213zM446 1294
q-101 -1 -174.5 -73.5t-65.5 -208.5q4 -68 26.5 -118t58 -77.5t75 -40.5t86.5 -14q107 -1 170.5 60t71.5 194q4 66 -17.5 120.5t-58.5 88t-82 51.5t-90 18z" />
    <glyph glyph-name="degree" unicode="&#xb0;" horiz-adv-x="835" 
d="M433 627q-268 12 -337 226q-41 120 -18 264q11 72 40.5 127t71 87t93.5 52t107 21.5t111 -3.5q135 -17 215 -106.5t83 -226.5q2 -115 -25 -205q-36 -118 -126 -179.5t-215 -56.5zM356 1032q1 -48 20.5 -79t56.5 -31q42 0 60.5 27.5t18.5 85.5q0 35 -16.5 65t-55.5 30
q-38 0 -61 -27t-23 -71z" />
    <glyph glyph-name="acute" unicode="&#xb4;" horiz-adv-x="505" 
d="M212 1982q31 14 68.5 14.5t73 -13t63.5 -36t42 -59.5t7 -80q-12 -70 -60 -145.5t-94.5 -123t-90.5 -79.5q-70 -46 -123 -17.5t-53 97.5q29 97 85.5 244.5t81.5 197.5z" />
    <glyph glyph-name="cedilla" unicode="&#xb8;" horiz-adv-x="649" 
d="M501 -105q32 1 60.5 -24t42 -60.5t8.5 -75.5t-33 -64q-53 -47 -122 -71t-136.5 -20t-127 27.5t-101 73.5t-51.5 116q-12 81 6.5 143t55.5 99.5t96 63t115.5 36t126.5 15.5q37 2 26 -56q-9 -52 -35 -81q-7 -9 -13 -9q-79 -2 -130 -44.5t-28 -106.5q14 -38 61.5 -47t100 15
t78.5 70z" />
    <glyph glyph-name="guillemotright" unicode="&#xbb;" horiz-adv-x="1824" 
d="M1113 732q-261 271 -320 403q8 52 39.5 103t83 87.5t113 51t138 -9t149.5 -88.5q215 -192 331 -349q46 -62 64.5 -127.5t0 -147.5t-82.5 -162q-77 -96 -242.5 -238.5t-316.5 -246.5q-65 0 -123.5 45t-91 115t-20.5 167t80 189q58 78 198 208zM294 732
q-108 112 -160.5 177t-84.5 133q8 52 39.5 103t83.5 87.5t113.5 52t137.5 -8t149 -88.5l59.5 -52.5t56.5 -51t42.5 -41.5t50 -54t46.5 -59q159 -218 -17 -437q-77 -96 -211.5 -211.5t-287.5 -220.5q-65 0 -123.5 45.5t-91 115.5t-20.5 167t80 189q3 4 10.5 14.5l10 14t10 13
t11.5 14.5t12.5 14.5t16 17t18 18.5t22.5 22.5t27 25.5z" />
    <glyph glyph-name="questiondown" unicode="&#xbf;" horiz-adv-x="1021" 
d="M546 1421q72 -11 79 -12q76 -16 120 -65t52 -125q6 -68 -4 -129q-20 -116 -142 -157q-89 -29 -172 -9q-89 19 -139 88.5t-42 161.5q5 64 23 105q26 67 84.5 103.5t140.5 38.5zM168 560q5 5 29.5 27t42 40.5t39.5 46.5t35 61t15 68q39 54 114.5 76.5t146.5 12t121.5 -59
t43.5 -122.5q-6 -59 -30.5 -104t-54 -72t-79.5 -75.5t-87 -98.5q-35 -43 -17 -88.5t77 -42.5q29 2 53.5 20.5t67.5 63.5q28 30 70.5 36.5t83 -10.5t74 -55t44 -98.5t-7.5 -140.5q-68 -92 -186 -143t-226 -51q-114 0 -208 34t-154 91t-94 131t-35.5 152t29.5 157.5t93 143.5z
" />
    <glyph glyph-name="Agrave" unicode="&#xc0;" 
d="M20 412q39 199 135 492t164 426q47 15 93 26.5t110 20t122 7.5t123 -16.5t118.5 -46.5t102.5 -88t81 -135q59 -143 145 -442.5t123 -505.5q-4 -31 -30.5 -63.5t-67 -56t-90 -39t-103 -11.5t-101.5 25t-89 72.5t-63 128.5q-45 2 -134 1.5t-135 0.5q-33 -83 -64 -197
q-169 -58 -276.5 -19.5t-150.5 151.5t-13 269zM578 598h167q-15 62 -42 174.5t-37 153.5q-8 -2 -12 -2q-13 -58 -38.5 -166.5t-37.5 -159.5zM440 1828q5 58 49 108t104 62.5t124 -32.5q79 -64 126.5 -178t58.5 -203q4 -41 -8.5 -72t-36 -44.5t-52.5 -15t-58 15.5
q-73 73 -175 194t-132 165z" />
    <glyph glyph-name="Aacute" unicode="&#xc1;" 
d="M20 412q39 199 135 492t164 426q47 15 93 26.5t110 20t122 7.5t123 -16.5t118.5 -46.5t102.5 -88t81 -135q59 -143 145 -442.5t123 -505.5q-4 -31 -30.5 -63.5t-67 -56t-90 -39t-103 -11.5t-101.5 25t-89 72.5t-63 128.5q-45 2 -134 1.5t-135 0.5q-33 -83 -64 -197
q-169 -58 -276.5 -19.5t-150.5 151.5t-13 269zM578 598h167q-15 62 -42 174.5t-37 153.5q-8 -2 -12 -2q-13 -58 -38.5 -166.5t-37.5 -159.5zM621 1991q31 14 68.5 14.5t73 -13t63.5 -36.5t42 -60t7 -80q-12 -70 -59.5 -145.5t-94.5 -123t-90 -79.5q-70 -46 -123 -17.5
t-53 97.5q29 98 85.5 246t80.5 197z" />
    <glyph glyph-name="Acircumflex" unicode="&#xc2;" 
d="M20 412q-30 -156 13 -269t150.5 -151.5t276.5 19.5q31 114 64 197q41 -1 135 -0.5t134 -1.5q22 -77 63 -128.5t89 -72.5t101.5 -25t103 11.5t90 39t67 56t30.5 63.5q-37 206 -123 505.5t-145 442.5q-32 78 -81 135t-102.5 88t-118.5 46.5t-123 16.5t-122 -7.5t-110 -20
t-93 -26.5q-68 -133 -164 -426t-135 -492zM578 598q12 51 37.5 159.5t38.5 166.5q4 0 12 2q10 -41 37 -153.5t42 -174.5h-167zM965 1521q4 -41 -11 -69.5t-39 -39t-51.5 -7t-48.5 21.5q-87 79 -162 210q-115 -179 -185 -216q-75 -36 -124 -0.5t-40 103.5q40 92 115 226.5
t109 185.5q34 21 74.5 27.5t83 -5.5t72.5 -44q91 -99 146 -209.5t61 -183.5z" />
    <glyph glyph-name="Atilde" unicode="&#xc3;" 
d="M20 412q39 199 135 492t164 426q47 15 93 26.5t110 20t122 7.5t123 -16.5t118.5 -46.5t102.5 -88t81 -135q59 -143 145 -442.5t123 -505.5q-4 -31 -30.5 -63.5t-67 -56t-90 -39t-103 -11.5t-101.5 25t-89 72.5t-63 128.5q-45 2 -134 1.5t-135 0.5q-33 -83 -64 -197
q-169 -58 -276.5 -19.5t-150.5 151.5t-13 269zM578 598h167q-15 62 -42 174.5t-37 153.5q-8 -2 -12 -2q-13 -58 -38.5 -166.5t-37.5 -159.5zM407 1455q-62 28 -88 83.5t-9.5 115.5t71.5 100q42 31 105 35.5t124 -9.5t129.5 -28.5t122.5 -21.5t103 11q41 -10 65 -48t24.5 -81
t-24 -83t-69.5 -52q-46 -13 -92 -13.5t-80.5 7t-77.5 14.5t-84 10.5t-98.5 -6t-121.5 -34.5z" />
    <glyph glyph-name="Adieresis" unicode="&#xc4;" 
d="M20 412q39 199 135 492t164 426q47 15 93 26.5t110 20t122 7.5t123 -16.5t118.5 -46.5t102.5 -88t81 -135q59 -143 145 -442.5t123 -505.5q-4 -31 -30.5 -63.5t-67 -56t-90 -39t-103 -11.5t-101.5 25t-89 72.5t-63 128.5q-45 2 -134 1.5t-135 0.5q-33 -83 -64 -197
q-169 -58 -276.5 -19.5t-150.5 151.5t-13 269zM578 598h167q-15 62 -42 174.5t-37 153.5q-8 -2 -12 -2q-13 -58 -38.5 -166.5t-37.5 -159.5zM403 1461q-8 1 -32 4.5t-36 6.5q-66 14 -104.5 56.5t-44.5 108.5q-6 59 4 111q16 101 123 136q73 24 148 8q77 -17 120.5 -77.5
t36.5 -139.5q-6 -56 -19 -91q-23 -58 -74 -90t-122 -33zM948 1461q-8 1 -31 4.5t-36 6.5q-136 30 -151 165q-4 48 5 111q17 102 122 136q74 24 149 8q78 -17 121.5 -77t37.5 -140q-5 -53 -21 -91q-47 -121 -196 -123z" />
    <glyph glyph-name="Aring" unicode="&#xc5;" 
d="M20 412q39 199 135 492t164 426q47 15 93 26.5t110 20t122 7.5t123 -16.5t118.5 -46.5t102.5 -88t81 -135q59 -143 145 -442.5t123 -505.5q-4 -31 -30.5 -63.5t-67 -56t-90 -39t-103 -11.5t-101.5 25t-89 72.5t-63 128.5q-45 2 -134 1.5t-135 0.5q-33 -83 -64 -197
q-169 -58 -276.5 -19.5t-150.5 151.5t-13 269zM578 598h167q-15 62 -42 174.5t-37 153.5q-8 -2 -12 -2q-13 -58 -38.5 -166.5t-37.5 -159.5zM679 1506q-216 11 -268 180q-32 93 -15 209q11 71 44.5 121.5t80 73t102 32.5t110.5 0q107 -14 170 -86t66 -181q0 -97 -20 -162
q-27 -93 -99 -142t-171 -45zM590 1831q1 -57 23.5 -92.5t65.5 -35.5q49 0 69.5 32t20.5 99q0 24 -6.5 47t-26.5 43t-51 20q-44 0 -69.5 -31t-25.5 -82z" />
    <glyph glyph-name="Ccedilla" unicode="&#xc7;" 
d="M1125 560q48 -9 89 -40.5t67 -76t31.5 -100.5t-11.5 -110.5t-70 -109t-137 -94.5q-121 -56 -305 -51q-72 -6 -116 -46t-23 -99q13 -36 58 -44t95.5 15t75.5 68q31 1 58 -23.5t40 -58t8 -71.5t-31 -62q-64 -57 -149 -77.5t-161 -4.5t-133.5 69t-69.5 133q-24 155 72 243
q-320 97 -417 436q-76 258 2 487q43 130 142 231t217 154q70 33 160.5 50t196 17t223 -31.5t222.5 -93.5q18 -66 10 -120.5t-32 -97t-63.5 -71.5t-84 -43.5t-94 -13.5t-93.5 19q-116 31 -215 -19q-69 -35 -96 -110t-15 -163q16 -114 104 -165t201 -35q26 3 56.5 13.5
t60.5 25t52 26.5t46.5 27t28.5 17z" />
    <glyph glyph-name="Egrave" unicode="&#xc8;" horiz-adv-x="1149" 
d="M75 315q-10 129 -3.5 503t25.5 536q181 16 487.5 15t498.5 -16q13 -19 22 -55.5t11 -83t-12.5 -94t-42.5 -87.5t-85.5 -65.5t-135.5 -25.5h-282v-71q10 0 80 1.5t119.5 1.5t115.5 -6t106 -19q31 -68 34.5 -130t-19 -109t-73 -76.5t-124.5 -33.5h-237v-84h31h438
q39 -55 49.5 -122t-8.5 -128t-79 -107.5t-153 -58.5q-81 -12 -290 -11.5t-278 16.5q-96 25 -141.5 97.5t-53.5 212.5zM337 1801q5 58 49 108t104 62.5t124 -32.5q79 -64 127 -178t59 -203q4 -41 -9 -72t-36 -44.5t-52.5 -15t-58.5 15.5q-73 73 -175 194t-132 165z" />
    <glyph glyph-name="Eacute" unicode="&#xc9;" horiz-adv-x="1149" 
d="M75 315q-10 129 -3.5 503t25.5 536q181 16 487.5 15t498.5 -16q13 -19 22 -55.5t11 -83t-12.5 -94t-42.5 -87.5t-85.5 -65.5t-135.5 -25.5h-282v-71q10 0 80 1.5t119.5 1.5t115.5 -6t106 -19q31 -68 34.5 -130t-19 -109t-73 -76.5t-124.5 -33.5h-237v-84h31h438
q39 -55 49.5 -122t-8.5 -128t-79 -107.5t-153 -58.5q-81 -12 -290 -11.5t-278 16.5q-96 25 -141.5 97.5t-53.5 212.5zM519 1972q31 14 68.5 14.5t73 -13t63.5 -36.5t42 -60t7 -80q-12 -70 -60 -145.5t-94.5 -123t-90.5 -79.5q-70 -46 -123 -17.5t-53 97.5q29 97 86 245
t81 198z" />
    <glyph glyph-name="Ecircumflex" unicode="&#xca;" horiz-adv-x="1149" 
d="M75 315q8 -140 53.5 -212.5t141.5 -97.5q69 -16 278 -16.5t290 11.5q93 12 153 58.5t79 107.5t8.5 128t-49.5 122h-438h-31v84h237q74 4 124.5 33.5t73 76.5t19 109t-34.5 130q-40 13 -106 19t-115.5 6t-119.5 -1.5t-80 -1.5v71h282q78 0 135.5 25.5t85.5 65.5t42.5 87.5
t12.5 94t-11 83t-22 55.5q-192 15 -498.5 16t-487.5 -15q-19 -162 -25.5 -536t3.5 -503zM905 1551q4 -41 -11 -69.5t-39 -39t-51.5 -7t-48.5 21.5q-87 79 -162 210q-115 -179 -185 -216q-75 -36 -124 -0.5t-40 103.5q40 92 115 226.5t109 185.5q34 21 74.5 27.5t83 -5.5
t72.5 -44q91 -99 146 -209.5t61 -183.5z" />
    <glyph glyph-name="Edieresis" unicode="&#xcb;" horiz-adv-x="1149" 
d="M75 315q-10 129 -3.5 503t25.5 536q181 16 487.5 15t498.5 -16q13 -19 22 -55.5t11 -83t-12.5 -94t-42.5 -87.5t-85.5 -65.5t-135.5 -25.5h-282v-71q10 0 80 1.5t119.5 1.5t115.5 -6t106 -19q31 -68 34.5 -130t-19 -109t-73 -76.5t-124.5 -33.5h-237v-84h31h438
q39 -55 49.5 -122t-8.5 -128t-79 -107.5t-153 -58.5q-81 -12 -290 -11.5t-278 16.5q-96 25 -141.5 97.5t-53.5 212.5zM300 1475q-9 2 -32.5 4.5t-35.5 5.5q-66 14 -104.5 57t-44.5 109q-6 58 4 110q16 102 123 137q73 24 149 8q77 -17 120.5 -77.5t36.5 -139.5
q-6 -57 -19 -92q-23 -58 -74.5 -89.5t-122.5 -32.5zM845 1475q-9 2 -32 4.5t-35 5.5q-65 14 -104 56.5t-46 109.5q-4 52 4 110q17 102 123 137q74 24 149 8q78 -17 121 -77t37 -140q-6 -58 -20 -92q-22 -58 -73.5 -89.5t-123.5 -32.5z" />
    <glyph glyph-name="Igrave" unicode="&#xcc;" horiz-adv-x="652" 
d="M561 1098q19 -122 13.5 -502.5t-28.5 -551.5q-43 -47 -114 -59t-143 10.5t-134 95t-83 181.5q-20 107 -22 503.5t28 537.5q39 34 94 52.5t116.5 14t117 -31.5t98 -91.5t57.5 -158.5zM89 1797q5 58 49 108t104 62.5t124 -32.5q79 -64 127 -178t59 -203q4 -41 -9 -72
t-36 -44.5t-52.5 -15t-58.5 15.5q-73 73 -175 194t-132 165z" />
    <glyph glyph-name="Iacute" unicode="&#xcd;" horiz-adv-x="652" 
d="M561 1098q19 -122 13.5 -502.5t-28.5 -551.5q-43 -47 -114 -59t-143 10.5t-134 95t-83 181.5q-20 107 -22 503.5t28 537.5q39 34 94 52.5t116.5 14t117 -31.5t98 -91.5t57.5 -158.5zM270 1978q31 14 68.5 14.5t73 -13t63.5 -36t42 -59.5t7 -80q-12 -70 -59.5 -145.5
t-94.5 -123.5t-90 -80q-70 -46 -123 -17t-53 98q29 98 85.5 245.5t80.5 196.5z" />
    <glyph glyph-name="Icircumflex" unicode="&#xce;" horiz-adv-x="652" 
d="M561 1098q-15 94 -57.5 158.5t-98 91.5t-117 31.5t-116.5 -14t-94 -52.5q-30 -141 -28 -537.5t22 -503.5q21 -109 83 -181.5t134 -95t143 -10.5t114 59q23 171 28.5 551.5t-13.5 502.5zM657 1539q4 -41 -11 -69.5t-39 -39t-51.5 -7t-48.5 21.5q-89 81 -163 210
q-115 -180 -184 -216q-75 -36 -124 -1t-40 103q40 92 115 227t109 186q34 21 74 27.5t82.5 -5.5t72.5 -44q92 -99 147 -209.5t61 -183.5z" />
    <glyph glyph-name="Idieresis" unicode="&#xcf;" horiz-adv-x="652" 
d="M561 1098q19 -122 13.5 -502.5t-28.5 -551.5q-43 -47 -114 -59t-143 10.5t-134 95t-83 181.5q-20 107 -22 503.5t28 537.5q39 34 94 52.5t116.5 14t117 -31.5t98 -91.5t57.5 -158.5zM52 1484q-8 1 -32 4.5t-36 6.5q-66 14 -104.5 56.5t-44.5 108.5q-6 59 4 111
q16 101 123 136q75 25 149 9q77 -17 120.5 -78t36.5 -140q-5 -52 -20 -91q-23 -58 -74 -90t-122 -33zM597 1484q-8 1 -31 4.5t-36 6.5q-66 14 -104.5 56.5t-45.5 108.5q-4 53 4 111q17 101 123 136q75 25 148 9q78 -17 121.5 -77.5t37.5 -140.5q-5 -53 -21 -91
q-47 -121 -196 -123z" />
    <glyph glyph-name="Eth" unicode="&#xd0;" horiz-adv-x="1549" 
d="M1174 1312q166 -87 245 -232t79 -365q0 -58 -8.5 -120t-30.5 -136.5t-56 -141.5t-91 -131.5t-129 -111t-175.5 -75t-226.5 -28.5q-252 0 -371.5 79t-136.5 272q-5 53 -11 167q-127 5 -181 20q-34 37 -46 94t0.5 114t67 104.5t144.5 61.5q2 0 6.5 1t7.5 1q5 210 16 413
q108 64 289.5 84t349 -1t258.5 -69zM814 354q42 1 79 21t69 60.5t51 115t19 173.5q0 65 -13 116.5t-35.5 83.5t-51.5 55.5t-60.5 31.5t-63 11.5t-58.5 -3.5q0 -14 -2 -134q59 -4 130 -13q33 -31 44 -81.5t-2 -102.5t-57.5 -99.5t-114.5 -71.5q0 -54 2 -114q1 -28 21.5 -38.5
t42.5 -10.5z" />
    <glyph glyph-name="Ntilde" unicode="&#xd1;" horiz-adv-x="1473" 
d="M890 767v511q60 73 147 95t163 -2t130 -87t54 -147q0 -32 1.5 -195t2 -303t-2 -308.5t-9.5 -263.5q-45 -45 -117 -68t-153 -19.5t-165.5 47.5t-144.5 125q-33 46 -76 118t-79.5 138t-46.5 81q-2 4 -8 12t-8 11q-2 0 -5 -0.5t-5 -0.5q1 -58 5.5 -138.5t6.5 -153.5t0 -159
q-54 -44 -114 -65t-113 -19t-102.5 19.5t-85 47.5t-57.5 69t-23 79q-9 277 -9.5 614.5t10.5 482.5q50 43 122 66t148.5 22t151 -42t120.5 -119q30 -51 239 -420q3 -6 9.5 -15.5t8.5 -14.5q1 1 3 1t2 1zM466 1488q-62 28 -88 83.5t-9.5 115.5t71.5 100q42 31 105 35.5
t124 -9.5t129.5 -28.5t122.5 -21.5t103 11q41 -10 65 -48t24.5 -81t-24 -83t-69.5 -52q-46 -13 -92 -13.5t-80.5 7t-77.5 14.5t-84 10.5t-98.5 -6t-121.5 -34.5z" />
    <glyph glyph-name="Ograve" unicode="&#xd2;" horiz-adv-x="1529" 
d="M755 1393q96 1 181 -17t146.5 -46.5t115 -69t88 -78t63 -82t42.5 -73.5t25 -58q102 -278 24 -532q-112 -360 -476 -445q-308 -75 -571 61q-249 128 -315 422q-31 131 -22.5 272.5t56.5 246.5q35 79 85.5 145t126 125.5t186.5 94t245 34.5zM762 904q-81 0 -134.5 -66.5
t-45.5 -182.5q7 -108 64.5 -160.5t120.5 -48.5t114 56.5t56 158.5q7 110 -45.5 176.5t-129.5 66.5zM527 1815q5 58 49 108t104 62t124 -33q79 -64 127 -178t59 -203q4 -41 -9 -72t-36 -44.5t-52.5 -15t-58.5 15.5q-72 73 -174 194t-133 166z" />
    <glyph glyph-name="Oacute" unicode="&#xd3;" horiz-adv-x="1529" 
d="M755 1393q96 1 181 -17t146.5 -46.5t115 -69t88 -78t63 -82t42.5 -73.5t25 -58q102 -278 24 -532q-112 -360 -476 -445q-308 -75 -571 61q-249 128 -315 422q-31 131 -22.5 272.5t56.5 246.5q35 79 85.5 145t126 125.5t186.5 94t245 34.5zM762 904q-81 0 -134.5 -66.5
t-45.5 -182.5q7 -108 64.5 -160.5t120.5 -48.5t114 56.5t56 158.5q7 110 -45.5 176.5t-129.5 66.5zM709 1973q31 14 68.5 14.5t73 -13t63.5 -36.5t42 -60t7 -80q-12 -70 -60 -145.5t-94.5 -123t-90.5 -79.5q-70 -46 -123 -17t-53 98q29 97 85.5 244.5t81.5 197.5z" />
    <glyph glyph-name="Ocircumflex" unicode="&#xd4;" horiz-adv-x="1529" 
d="M755 1393q-134 0 -245 -34.5t-186.5 -94t-126 -125.5t-85.5 -145q-48 -105 -56.5 -246.5t22.5 -272.5q66 -294 315 -422q263 -136 571 -61q364 85 476 445q78 254 -24 532q-11 29 -25 58t-42.5 73.5t-63 82t-88 78t-115 69t-146.5 46.5t-181 17zM762 904
q77 0 129.5 -66.5t45.5 -176.5q-5 -106 -56 -158.5t-114 -56.5t-120.5 48.5t-64.5 160.5q-8 116 45.5 182.5t134.5 66.5zM1095 1548q4 -41 -11 -69.5t-39 -39t-51.5 -7t-48.5 21.5q-89 81 -163 210q-115 -178 -184 -215q-75 -36 -124 -1t-40 103q40 92 115 226.5t109 185.5
q34 21 74 28t82.5 -5t72.5 -44q91 -99 146.5 -210t61.5 -184z" />
    <glyph glyph-name="Otilde" unicode="&#xd5;" horiz-adv-x="1529" 
d="M755 1393q96 1 181 -17t146.5 -46.5t115 -69t88 -78t63 -82t42.5 -73.5t25 -58q102 -278 24 -532q-112 -360 -476 -445q-308 -75 -571 61q-249 128 -315 422q-31 131 -22.5 272.5t56.5 246.5q35 79 85.5 145t126 125.5t186.5 94t245 34.5zM762 904q-81 0 -134.5 -66.5
t-45.5 -182.5q7 -108 64.5 -160.5t120.5 -48.5t114 56.5t56 158.5q7 110 -45.5 176.5t-129.5 66.5zM493 1516q-62 28 -88 83.5t-9.5 115.5t71.5 100q36 26 86 33.5t100 -1t107.5 -20.5t107 -24.5t99 -13.5t84.5 12q41 -10 65 -48t24.5 -81t-24 -83t-69.5 -52
q-65 -17 -108.5 -13t-95 12.5t-96 17t-111.5 0t-143 -37.5z" />
    <glyph glyph-name="Odieresis" unicode="&#xd6;" horiz-adv-x="1529" 
d="M755 1393q96 1 181 -17t146.5 -46.5t115 -69t88 -78t63 -82t42.5 -73.5t25 -58q102 -278 24 -532q-112 -360 -476 -445q-308 -75 -571 61q-249 128 -315 422q-31 131 -22.5 272.5t56.5 246.5q35 79 85.5 145t126 125.5t186.5 94t245 34.5zM762 904q-81 0 -134.5 -66.5
t-45.5 -182.5q7 -108 64.5 -160.5t120.5 -48.5t114 56.5t56 158.5q7 110 -45.5 176.5t-129.5 66.5zM490 1483q-8 1 -32 4.5t-36 6.5q-66 14 -104.5 56.5t-44.5 108.5q-6 58 4 110q16 102 123 137q73 24 149 8q77 -17 120.5 -77.5t36.5 -139.5q-6 -56 -19 -91
q-23 -58 -74.5 -90t-122.5 -33zM1035 1483q-8 1 -31 4.5t-36 6.5q-66 14 -104.5 56.5t-45.5 108.5q-4 52 4 110q17 102 123 137q74 24 149 8q78 -17 121 -77t37 -140q-6 -56 -20 -91q-22 -58 -73.5 -90t-123.5 -33z" />
    <glyph glyph-name="multiply" unicode="&#xd7;" horiz-adv-x="1183" 
d="M855 1188q51 -3 99 -34t79 -84t42.5 -117t-11.5 -141t-82 -148q-2 -2 -8.5 -9.5t-10.5 -11.5q115 -146 152 -229q-8 -52 -39.5 -102.5t-83 -87t-113 -51.5t-137.5 8.5t-149 88.5l-26 26q-143 -110 -224 -147q-91 14 -163.5 91t-81 189.5t102.5 242.5q8 10 28 30
q-103 141 -153 224q2 43 25 83t60 71.5t88.5 49.5t107.5 18.5t120.5 -23.5t123.5 -74q11 -8 23 -20q141 102 231 157z" />
    <glyph glyph-name="Ugrave" unicode="&#xd9;" horiz-adv-x="1500" 
d="M1394 464q-15 -125 -77 -224t-153 -158t-195.5 -89t-214.5 -30q-68 0 -124 4t-121.5 17t-118 35t-105 60t-90.5 89t-66.5 125t-41.5 166q-45 318 28 861q18 20 71 36t121 17.5t133.5 -12t115 -58.5t58.5 -115q1 -6 4.5 -310.5t23.5 -421.5q7 -43 37.5 -70t66 -29.5
t68 24.5t42.5 80q27 132 31.5 396.5t-23.5 428.5q27 27 75 46.5t105.5 28t118 -2t111.5 -37.5t87 -84.5t43 -137.5q1 -15 6 -64t6 -62t4 -55t2.5 -65t-1.5 -68.5t-4.5 -88t-9 -102t-13.5 -130.5zM446 1791q5 58 49.5 108t104.5 62.5t124 -32.5q79 -64 126.5 -178t58.5 -203
q4 -41 -8.5 -72t-36 -44.5t-52.5 -15t-58 15.5q-73 74 -175.5 195t-132.5 164z" />
    <glyph glyph-name="Uacute" unicode="&#xda;" horiz-adv-x="1492" 
d="M1394 464q-15 -125 -77 -224t-153 -158t-195.5 -89t-214.5 -30q-68 0 -124 4t-121.5 17t-118 35t-105 60t-90.5 89t-66.5 125t-41.5 166q-45 318 28 861q18 20 71 36t121 17.5t133.5 -12t115 -58.5t58.5 -115q1 -6 4.5 -310.5t23.5 -421.5q7 -43 37.5 -70t66 -29.5
t68 24.5t42.5 80q27 132 31.5 396.5t-23.5 428.5q27 27 75 46.5t105.5 28t118 -2t111.5 -37.5t87 -84.5t43 -137.5q1 -15 6 -64t6 -62t4 -55t2.5 -65t-1.5 -68.5t-4.5 -88t-9 -102t-13.5 -130.5zM689 1965q31 14 68.5 14.5t73 -13t63.5 -36.5t42 -60t7 -80
q-12 -70 -59.5 -145.5t-94.5 -123t-90 -79.5q-70 -46 -123 -17.5t-53 97.5q29 98 85.5 246t80.5 197z" />
    <glyph glyph-name="Ucircumflex" unicode="&#xdb;" horiz-adv-x="1492" 
d="M1394 464q-15 -125 -77 -224t-153 -158t-195.5 -89t-214.5 -30q-68 0 -124 4t-121.5 17t-118 35t-105 60t-90.5 89t-66.5 125t-41.5 166q-45 318 28 861q18 20 71 36t121 17.5t133.5 -12t115 -58.5t58.5 -115q1 -6 4.5 -310.5t23.5 -421.5q7 -43 37.5 -70t66 -29.5
t68 24.5t42.5 80q27 132 31.5 396.5t-23.5 428.5q27 27 75 46.5t105.5 28t118 -2t111.5 -37.5t87 -84.5t43 -137.5q1 -15 6 -64t6 -62t4 -55t2.5 -65t-1.5 -68.5t-4.5 -88t-9 -102t-13.5 -130.5zM1076 1541q4 -41 -11 -69.5t-39 -39t-51.5 -7t-48.5 21.5q-88 80 -163 211
q-115 -180 -184 -216q-75 -36 -124 -1t-40 103q40 92 115 227t109 186q34 21 74 27.5t82.5 -5.5t72.5 -44q91 -99 146.5 -210t61.5 -184z" />
    <glyph glyph-name="Udieresis" unicode="&#xdc;" horiz-adv-x="1492" 
d="M1394 464q-15 -125 -77 -224t-153 -158t-195.5 -89t-214.5 -30q-68 0 -124 4t-121.5 17t-118 35t-105 60t-90.5 89t-66.5 125t-41.5 166q-45 318 28 861q18 20 71 36t121 17.5t133.5 -12t115 -58.5t58.5 -115q1 -6 4.5 -310.5t23.5 -421.5q7 -43 37.5 -70t66 -29.5
t68 24.5t42.5 80q27 132 31.5 396.5t-23.5 428.5q27 27 75 46.5t105.5 28t118 -2t111.5 -37.5t87 -84.5t43 -137.5q1 -15 6 -64t6 -62t4 -55t2.5 -65t-1.5 -68.5t-4.5 -88t-9 -102t-13.5 -130.5zM471 1479q-8 1 -32 4.5t-36 6.5q-66 14 -104.5 56.5t-44.5 108.5q-6 58 4 110
q16 102 123 137q73 24 149 8q77 -17 120.5 -77.5t36.5 -139.5q-6 -56 -19 -91q-23 -58 -74.5 -90t-122.5 -33zM1016 1479q-8 1 -31 4.5t-36 6.5q-66 14 -104.5 56.5t-45.5 108.5q-4 52 4 110q17 102 123 137q74 24 149 8q78 -17 121 -77t37 -140q-5 -53 -21 -91
q-47 -121 -196 -123z" />
    <glyph glyph-name="Yacute" unicode="&#xdd;" horiz-adv-x="1295" 
d="M684 841q7 15 53 126.5t99 233.5t82 177q73 20 147.5 3.5t126 -62.5t69.5 -117.5t-21 -163.5q-47 -109 -146 -292.5t-156 -307.5q-20 -36 -20 -75q0 -53 -1 -129.5t-2.5 -135.5t-1.5 -63q-15 -20 -56.5 -35t-95.5 -21.5t-113 2.5t-109 32.5t-84 74t-37 121.5v53.5t0.5 68
t0.5 43.5q-1 27 -15 53q-234 448 -371 780q32 78 97.5 125.5t132.5 56t128 -14t87 -71.5q34 -63 98.5 -224.5t80.5 -196.5q2 -7 7.5 -20t8.5 -20q8 0 11 -1zM591 1981q31 14 68.5 14.5t73 -13t63.5 -36.5t42 -60t7 -80q-12 -70 -59.5 -145.5t-94.5 -123t-90 -79.5
q-70 -46 -123 -17t-53 98q29 98 85.5 245.5t80.5 196.5z" />
    <glyph glyph-name="agrave" unicode="&#xe0;" 
d="M33 408q40 208 131 501.5t155 420.5q47 15 93 26.5t110 20t122 7.5t123 -16.5t118.5 -46.5t102.5 -88t81 -135q60 -145 147.5 -446.5t124.5 -505.5q-4 -31 -30.5 -63.5t-67 -56t-90 -39t-103 -11.5t-101.5 25t-89 72.5t-63 128.5q-45 2 -134 1t-135 0q-34 -85 -64 -196
q-169 -59 -274 -19.5t-146 151.5t-11 269zM578 598h167q-15 62 -42 174.5t-37 153.5q-8 -2 -12 -2q-13 -58 -38.5 -166.5t-37.5 -159.5zM440 1804q5 58 49 108t104 62.5t124 -32.5q79 -64 126.5 -178t58.5 -203q4 -41 -8.5 -72t-36 -44.5t-52.5 -15t-58 15.5
q-73 73 -175 194t-132 165z" />
    <glyph glyph-name="aacute" unicode="&#xe1;" 
d="M33 408q40 208 131 501.5t155 420.5q47 15 93 26.5t110 20t122 7.5t123 -16.5t118.5 -46.5t102.5 -88t81 -135q60 -145 147.5 -446.5t124.5 -505.5q-4 -31 -30.5 -63.5t-67 -56t-90 -39t-103 -11.5t-101.5 25t-89 72.5t-63 128.5q-45 2 -134 1t-135 0q-34 -85 -64 -196
q-169 -59 -274 -19.5t-146 151.5t-11 269zM578 598h167q-15 62 -42 174.5t-37 153.5q-8 -2 -12 -2q-13 -58 -38.5 -166.5t-37.5 -159.5zM621 1982q31 14 68.5 14.5t73 -13t63.5 -36t42 -59.5t7 -80q-12 -70 -59.5 -145.5t-94.5 -123t-90 -79.5q-70 -46 -123 -17.5t-53 97.5
q29 98 85.5 245.5t80.5 196.5z" />
    <glyph glyph-name="acircumflex" unicode="&#xe2;" 
d="M33 408q-30 -157 11 -269t146 -151.5t274 19.5q30 111 64 196q41 -1 135 0t134 -1q22 -77 63 -128.5t89 -72.5t101.5 -25t103 11.5t90 39t67 56t30.5 63.5q-37 204 -124.5 505.5t-147.5 446.5q-32 78 -81 135t-102.5 88t-118.5 46.5t-123 16.5t-122 -7.5t-110 -20
t-93 -26.5q-64 -127 -155 -420.5t-131 -501.5zM578 598q12 51 37.5 159.5t38.5 166.5q4 0 12 2q10 -41 37 -153.5t42 -174.5h-167zM1008 1566q4 -41 -11 -69.5t-39 -39t-52 -7t-49 21.5q-87 79 -162 210q-115 -180 -184 -216q-75 -36 -124 -0.5t-40 103.5q40 92 115 226.5
t109 185.5q34 21 74 27.5t82.5 -5.5t72.5 -44q92 -99 147 -209.5t61 -183.5z" />
    <glyph glyph-name="atilde" unicode="&#xe3;" 
d="M33 408q40 208 131 501.5t155 420.5q47 15 93 26.5t110 20t122 7.5t123 -16.5t118.5 -46.5t102.5 -88t81 -135q60 -145 147.5 -446.5t124.5 -505.5q-4 -31 -30.5 -63.5t-67 -56t-90 -39t-103 -11.5t-101.5 25t-89 72.5t-63 128.5q-45 2 -134 1t-135 0q-34 -85 -64 -196
q-169 -59 -274 -19.5t-146 151.5t-11 269zM578 598h167q-15 62 -42 174.5t-37 153.5q-8 -2 -12 -2q-13 -58 -38.5 -166.5t-37.5 -159.5zM407 1556q-62 28 -88 83.5t-9.5 115.5t71.5 100q42 31 105 35.5t124 -9.5t129.5 -28.5t122.5 -21.5t103 11q41 -10 65 -48t24.5 -81
t-24 -83t-69.5 -52q-46 -13 -92 -13.5t-80.5 7t-77.5 14.5t-84 10.5t-98.5 -6t-121.5 -34.5z" />
    <glyph glyph-name="adieresis" unicode="&#xe4;" 
d="M33 408q40 208 131 501.5t155 420.5q47 15 93 26.5t110 20t122 7.5t123 -16.5t118.5 -46.5t102.5 -88t81 -135q60 -145 147.5 -446.5t124.5 -505.5q-4 -31 -30.5 -63.5t-67 -56t-90 -39t-103 -11.5t-101.5 25t-89 72.5t-63 128.5q-45 2 -134 1t-135 0q-34 -85 -64 -196
q-169 -59 -274 -19.5t-146 151.5t-11 269zM578 598h167q-15 62 -42 174.5t-37 153.5q-8 -2 -12 -2q-13 -58 -38.5 -166.5t-37.5 -159.5zM403 1475q-9 2 -32.5 4.5t-35.5 5.5q-66 14 -104.5 57t-44.5 109q-6 58 4 110q16 102 123 137q73 24 148 8q77 -17 120.5 -77.5
t36.5 -139.5q-6 -57 -19 -92q-23 -58 -74 -89.5t-122 -32.5zM948 1475q-9 2 -32 4.5t-35 5.5q-66 14 -105 57t-46 109q-4 48 5 110q17 103 122 137q74 24 149 8q78 -17 121.5 -77t37.5 -140q-5 -54 -21 -92q-46 -120 -196 -122z" />
    <glyph glyph-name="aring" unicode="&#xe5;" 
d="M29 437q39 200 131 480.5t159 412.5q47 15 93 26.5t110 20t122 7.5t123 -16.5t118.5 -46.5t102.5 -88t81 -135q61 -149 146.5 -435.5t121.5 -487.5q-4 -31 -30.5 -63.5t-67 -56t-90 -39t-103 -11.5t-101.5 25t-89 72.5t-63 128.5q-45 2 -134 1t-135 0q-33 -83 -64 -197
q-169 -59 -274 -19.5t-146 152t-11 269.5zM578 598h167q-15 62 -42 174.5t-37 153.5q-8 -2 -12 -2q-13 -58 -38.5 -166.5t-37.5 -159.5zM625 1435q-215 11 -267 180q-32 93 -15 209q11 71 44.5 121.5t80 73t102 32.5t110.5 0q107 -14 170 -86t66 -181q0 -97 -20 -162
q-27 -93 -99 -142t-172 -45zM537 1760q1 -57 23.5 -92.5t64.5 -35.5q49 0 69.5 32t20.5 99q0 24 -6 47t-26 43t-51 20q-44 0 -69.5 -31t-25.5 -82z" />
    <glyph glyph-name="ccedilla" unicode="&#xe7;" 
d="M1125 560q48 -9 89 -40.5t67 -76t31.5 -100.5t-11.5 -110.5t-70 -109t-137 -94.5q-121 -56 -305 -51q-72 -6 -116 -46t-23 -99q13 -36 58 -44t95.5 15t75.5 68q31 1 58 -23.5t40 -58t8 -71.5t-31 -62q-64 -57 -149 -77.5t-161 -4.5t-133.5 69t-69.5 133q-24 155 72 243
q-320 97 -417 436q-76 258 2 487q43 130 142 231t217 154q70 33 160.5 50t196 17t223 -31.5t222.5 -93.5q18 -66 10 -120.5t-32 -97t-63.5 -71.5t-84 -43.5t-94 -13.5t-93.5 19q-116 31 -215 -19q-69 -35 -96 -110t-15 -163q16 -114 104 -165t201 -35q26 3 56.5 13.5
t60.5 25t52 26.5t46.5 27t28.5 17z" />
    <glyph glyph-name="egrave" unicode="&#xe8;" horiz-adv-x="1149" 
d="M75 315q-10 129 -3.5 503t25.5 536q181 16 487.5 15t498.5 -16q13 -19 22 -55.5t11 -83t-12.5 -94t-42.5 -87.5t-85.5 -65.5t-135.5 -25.5h-282v-71q10 0 80 1.5t119.5 1.5t115.5 -6t106 -19q31 -68 34.5 -130t-19 -109t-73 -76.5t-124.5 -33.5h-237v-84h31h438
q39 -55 49.5 -122t-8.5 -128t-79 -107.5t-153 -58.5q-81 -12 -290 -11.5t-278 16.5q-96 25 -141.5 97.5t-53.5 212.5zM337 1804q5 58 49 108t104 62.5t124 -32.5q79 -64 127 -178t59 -203q4 -41 -9 -72t-36 -44.5t-52.5 -15t-58.5 15.5q-73 73 -175 194t-132 165z" />
    <glyph glyph-name="eacute" unicode="&#xe9;" horiz-adv-x="1149" 
d="M75 315q-10 129 -3.5 503t25.5 536q181 16 487.5 15t498.5 -16q13 -19 22 -55.5t11 -83t-12.5 -94t-42.5 -87.5t-85.5 -65.5t-135.5 -25.5h-282v-71q10 0 80 1.5t119.5 1.5t115.5 -6t106 -19q31 -68 34.5 -130t-19 -109t-73 -76.5t-124.5 -33.5h-237v-84h31h438
q39 -55 49.5 -122t-8.5 -128t-79 -107.5t-153 -58.5q-81 -12 -290 -11.5t-278 16.5q-96 25 -141.5 97.5t-53.5 212.5zM519 1982q31 14 68.5 14.5t73 -13t63.5 -36t42 -59.5t7 -80q-12 -70 -60 -145.5t-94.5 -123t-90.5 -79.5q-70 -46 -123 -17.5t-53 97.5q29 97 85.5 244.5
t81.5 197.5z" />
    <glyph glyph-name="ecircumflex" unicode="&#xea;" horiz-adv-x="1149" 
d="M75 315q8 -140 53.5 -212.5t141.5 -97.5q69 -16 278 -16.5t290 11.5q93 12 153 58.5t79 107.5t8.5 128t-49.5 122h-438h-31v84h237q74 4 124.5 33.5t73 76.5t19 109t-34.5 130q-40 13 -106 19t-115.5 6t-119.5 -1.5t-80 -1.5v71h282q78 0 135.5 25.5t85.5 65.5t42.5 87.5
t12.5 94t-11 83t-22 55.5q-192 15 -498.5 16t-487.5 -15q-19 -162 -25.5 -536t3.5 -503zM905 1566q4 -41 -11 -69.5t-39 -39t-51.5 -7t-48.5 21.5q-87 79 -162 210q-115 -179 -185 -216q-75 -36 -124 -0.5t-40 103.5q40 92 115 226.5t109 185.5q34 21 74.5 27.5t83 -5.5
t72.5 -44q91 -99 146 -209.5t61 -183.5z" />
    <glyph glyph-name="edieresis" unicode="&#xeb;" horiz-adv-x="1149" 
d="M75 315q-10 129 -3.5 503t25.5 536q181 16 487.5 15t498.5 -16q13 -19 22 -55.5t11 -83t-12.5 -94t-42.5 -87.5t-85.5 -65.5t-135.5 -25.5h-282v-71q10 0 80 1.5t119.5 1.5t115.5 -6t106 -19q31 -68 34.5 -130t-19 -109t-73 -76.5t-124.5 -33.5h-237v-84h31h438
q39 -55 49.5 -122t-8.5 -128t-79 -107.5t-153 -58.5q-81 -12 -290 -11.5t-278 16.5q-96 25 -141.5 97.5t-53.5 212.5zM300 1475q-9 2 -32.5 4.5t-35.5 5.5q-66 14 -104.5 57t-44.5 109q-6 58 4 110q16 102 123 137q73 24 149 8q77 -17 120.5 -77.5t36.5 -139.5
q-6 -57 -19 -92q-23 -58 -74.5 -89.5t-122.5 -32.5zM845 1475q-9 2 -32 4.5t-35 5.5q-65 14 -104 56.5t-46 109.5q-4 52 4 110q17 102 123 137q74 24 149 8q78 -17 121 -77t37 -140q-6 -58 -20 -92q-22 -58 -73.5 -89.5t-123.5 -32.5z" />
    <glyph glyph-name="igrave" unicode="&#xec;" horiz-adv-x="652" 
d="M561 1098q19 -122 13.5 -502.5t-28.5 -551.5q-43 -47 -114 -59t-143 10.5t-134 95t-83 181.5q-20 107 -22 503.5t28 537.5q39 34 94 52.5t116.5 14t117 -31.5t98 -91.5t57.5 -158.5zM89 1804q5 58 49 108t104 62.5t124 -32.5q79 -64 127 -178t59 -203q4 -41 -9 -72
t-36 -44.5t-52.5 -15t-58.5 15.5q-73 73 -175 194t-132 165z" />
    <glyph glyph-name="iacute" unicode="&#xed;" horiz-adv-x="652" 
d="M561 1098q19 -122 13.5 -502.5t-28.5 -551.5q-43 -47 -114 -59t-143 10.5t-134 95t-83 181.5q-20 107 -22 503.5t28 537.5q39 34 94 52.5t116.5 14t117 -31.5t98 -91.5t57.5 -158.5zM270 1982q31 14 68.5 14.5t73 -13t63.5 -36t42 -59.5t7 -80q-12 -70 -59.5 -145.5
t-94.5 -123t-90 -79.5q-70 -46 -123 -17.5t-53 97.5q29 98 85.5 245.5t80.5 196.5z" />
    <glyph glyph-name="icircumflex" unicode="&#xee;" horiz-adv-x="652" 
d="M561 1098q-15 94 -57.5 158.5t-98 91.5t-117 31.5t-116.5 -14t-94 -52.5q-30 -141 -28 -537.5t22 -503.5q21 -109 83 -181.5t134 -95t143 -10.5t114 59q23 171 28.5 551.5t-13.5 502.5zM657 1566q4 -41 -11 -69.5t-39 -39t-51.5 -7t-48.5 21.5q-89 81 -163 210
q-115 -180 -184 -216q-75 -36 -124 -0.5t-40 103.5q40 92 115 226.5t109 185.5q34 21 74 27.5t82.5 -5.5t72.5 -44q92 -99 147 -209.5t61 -183.5z" />
    <glyph glyph-name="idieresis" unicode="&#xef;" horiz-adv-x="652" 
d="M561 1098q19 -122 13.5 -502.5t-28.5 -551.5q-43 -47 -114 -59t-143 10.5t-134 95t-83 181.5q-20 107 -22 503.5t28 537.5q39 34 94 52.5t116.5 14t117 -31.5t98 -91.5t57.5 -158.5zM52 1475q-9 2 -32.5 4.5t-35.5 5.5q-66 14 -104.5 57t-44.5 109q-6 58 4 110
q16 102 123 137q73 24 149 8q77 -17 120.5 -77.5t36.5 -139.5q-5 -53 -20 -92q-23 -58 -74 -89.5t-122 -32.5zM597 1475q-9 2 -32 4.5t-35 5.5q-65 14 -104 56.5t-46 109.5q-4 52 4 110q17 102 123 137q74 24 148 8q78 -17 121.5 -77t37.5 -140q-5 -54 -21 -92
q-46 -120 -196 -122z" />
    <glyph glyph-name="ntilde" unicode="&#xf1;" horiz-adv-x="1473" 
d="M890 767v511q60 73 147 95t163 -2t130 -87t54 -147q0 -32 1.5 -195t2 -303t-2 -308.5t-9.5 -263.5q-45 -45 -117 -68t-153 -19.5t-165.5 47.5t-144.5 125q-33 46 -76 118t-79.5 138t-46.5 81q-2 4 -8 12t-8 11q-2 0 -5 -0.5t-5 -0.5q1 -58 5.5 -138.5t6.5 -153.5t0 -159
q-54 -44 -114 -65t-113 -19t-102.5 19.5t-85 47.5t-57.5 69t-23 79q-9 277 -9.5 614.5t10.5 482.5q50 43 122 66t148.5 22t151 -42t120.5 -119q30 -51 239 -420q3 -6 9.5 -15.5t8.5 -14.5q1 1 3 1t2 1zM466 1556q-62 28 -88 83.5t-9.5 115.5t71.5 100q42 31 105 35.5
t124 -9.5t129.5 -28.5t122.5 -21.5t103 11q41 -10 65 -48t24.5 -81t-24 -83t-69.5 -52q-46 -13 -92 -13.5t-80.5 7t-77.5 14.5t-84 10.5t-98.5 -6t-121.5 -34.5z" />
    <glyph glyph-name="ograve" unicode="&#xf2;" horiz-adv-x="1529" 
d="M755 1393q96 1 181 -17t146.5 -46.5t115 -69t88 -78t63 -82t42.5 -73.5t25 -58q102 -278 24 -532q-112 -360 -476 -445q-308 -75 -571 61q-249 128 -315 422q-31 131 -22.5 272.5t56.5 246.5q35 79 85.5 145t126 125.5t186.5 94t245 34.5zM762 904q-81 0 -134.5 -66.5
t-45.5 -182.5q7 -108 64.5 -160.5t120.5 -48.5t114 56.5t56 158.5q7 110 -45.5 176.5t-129.5 66.5zM527 1804q5 58 49 108t104 62.5t124 -32.5q79 -64 127 -178t59 -203q4 -41 -9 -72t-36 -44.5t-52.5 -15t-58.5 15.5q-73 73 -175 194t-132 165z" />
    <glyph glyph-name="oacute" unicode="&#xf3;" horiz-adv-x="1529" 
d="M755 1393q96 1 181 -17t146.5 -46.5t115 -69t88 -78t63 -82t42.5 -73.5t25 -58q102 -278 24 -532q-112 -360 -476 -445q-308 -75 -571 61q-249 128 -315 422q-31 131 -22.5 272.5t56.5 246.5q35 79 85.5 145t126 125.5t186.5 94t245 34.5zM762 904q-81 0 -134.5 -66.5
t-45.5 -182.5q7 -108 64.5 -160.5t120.5 -48.5t114 56.5t56 158.5q7 110 -45.5 176.5t-129.5 66.5zM709 1982q31 14 68.5 14.5t73 -13t63.5 -36t42 -59.5t7 -80q-12 -70 -60 -145.5t-94.5 -123t-90.5 -79.5q-70 -46 -123 -17.5t-53 97.5q29 97 85.5 244.5t81.5 197.5z" />
    <glyph glyph-name="ocircumflex" unicode="&#xf4;" horiz-adv-x="1529" 
d="M755 1393q-134 0 -245 -34.5t-186.5 -94t-126 -125.5t-85.5 -145q-48 -105 -56.5 -246.5t22.5 -272.5q66 -294 315 -422q263 -136 571 -61q364 85 476 445q78 254 -24 532q-11 29 -25 58t-42.5 73.5t-63 82t-88 78t-115 69t-146.5 46.5t-181 17zM762 904
q77 0 129.5 -66.5t45.5 -176.5q-5 -106 -56 -158.5t-114 -56.5t-120.5 48.5t-64.5 160.5q-8 116 45.5 182.5t134.5 66.5zM1095 1566q4 -41 -11 -69.5t-39 -39t-51.5 -7t-48.5 21.5q-89 81 -163 210q-115 -180 -184 -216q-75 -36 -124 -0.5t-40 103.5q40 92 115 226.5
t109 185.5q34 21 74 27.5t82.5 -5.5t72.5 -44q92 -99 147 -209.5t61 -183.5z" />
    <glyph glyph-name="otilde" unicode="&#xf5;" horiz-adv-x="1529" 
d="M755 1393q96 1 181 -17t146.5 -46.5t115 -69t88 -78t63 -82t42.5 -73.5t25 -58q102 -278 24 -532q-112 -360 -476 -445q-308 -75 -571 61q-249 128 -315 422q-31 131 -22.5 272.5t56.5 246.5q35 79 85.5 145t126 125.5t186.5 94t245 34.5zM762 904q-81 0 -134.5 -66.5
t-45.5 -182.5q7 -108 64.5 -160.5t120.5 -48.5t114 56.5t56 158.5q7 110 -45.5 176.5t-129.5 66.5zM493 1556q-62 28 -88 83.5t-9.5 115.5t71.5 100q42 31 105 35.5t124 -9.5t129.5 -28.5t122.5 -21.5t103 11q41 -10 65 -48t24.5 -81t-24 -83t-69.5 -52q-46 -13 -92 -13.5
t-80.5 7t-77.5 14.5t-84 10.5t-98.5 -6t-121.5 -34.5z" />
    <glyph glyph-name="odieresis" unicode="&#xf6;" horiz-adv-x="1529" 
d="M755 1393q96 1 181 -17t146.5 -46.5t115 -69t88 -78t63 -82t42.5 -73.5t25 -58q102 -278 24 -532q-112 -360 -476 -445q-308 -75 -571 61q-249 128 -315 422q-31 131 -22.5 272.5t56.5 246.5q35 79 85.5 145t126 125.5t186.5 94t245 34.5zM762 904q-81 0 -134.5 -66.5
t-45.5 -182.5q7 -108 64.5 -160.5t120.5 -48.5t114 56.5t56 158.5q7 110 -45.5 176.5t-129.5 66.5zM490 1475q-9 2 -32.5 4.5t-35.5 5.5q-66 14 -104.5 57t-44.5 109q-6 58 4 110q16 102 123 137q73 24 149 8q77 -17 120.5 -77.5t36.5 -139.5q-6 -57 -19 -92
q-23 -58 -74.5 -89.5t-122.5 -32.5zM1035 1475q-9 2 -32 4.5t-35 5.5q-65 14 -104 56.5t-46 109.5q-4 52 4 110q17 102 123 137q74 24 149 8q78 -17 121 -77t37 -140q-6 -58 -20 -92q-22 -58 -73.5 -89.5t-123.5 -32.5z" />
    <glyph glyph-name="ugrave" unicode="&#xf9;" horiz-adv-x="1492" 
d="M1394 464q-15 -125 -77 -224t-153 -158t-195.5 -89t-214.5 -30q-68 0 -124 4t-121.5 17t-118 35t-105 60t-90.5 89t-66.5 125t-41.5 166q-45 318 28 861q18 20 71 36t121 17.5t133.5 -12t115 -58.5t58.5 -115q1 -6 4.5 -310.5t23.5 -421.5q7 -43 37.5 -70t66 -29.5
t68 24.5t42.5 80q27 132 31.5 396.5t-23.5 428.5q27 27 75 46.5t105.5 28t118 -2t111.5 -37.5t87 -84.5t43 -137.5q1 -15 6 -64t6 -62t4 -55t2.5 -65t-1.5 -68.5t-4.5 -88t-9 -102t-13.5 -130.5zM508 1804q5 58 49 108t104 62.5t124 -32.5q79 -64 127 -178t59 -203
q4 -41 -9 -72t-36 -44.5t-52.5 -15t-58.5 15.5q-73 73 -175 194t-132 165z" />
    <glyph glyph-name="uacute" unicode="&#xfa;" horiz-adv-x="1492" 
d="M1394 464q-15 -125 -77 -224t-153 -158t-195.5 -89t-214.5 -30q-68 0 -124 4t-121.5 17t-118 35t-105 60t-90.5 89t-66.5 125t-41.5 166q-45 318 28 861q18 20 71 36t121 17.5t133.5 -12t115 -58.5t58.5 -115q1 -6 4.5 -310.5t23.5 -421.5q7 -43 37.5 -70t66 -29.5
t68 24.5t42.5 80q27 132 31.5 396.5t-23.5 428.5q27 27 75 46.5t105.5 28t118 -2t111.5 -37.5t87 -84.5t43 -137.5q1 -15 6 -64t6 -62t4 -55t2.5 -65t-1.5 -68.5t-4.5 -88t-9 -102t-13.5 -130.5zM689 1982q31 14 68.5 14.5t73 -13t63.5 -36t42 -59.5t7 -80
q-12 -70 -59.5 -145.5t-94.5 -123t-90 -79.5q-70 -46 -123 -17.5t-53 97.5q29 98 85.5 245.5t80.5 196.5z" />
    <glyph glyph-name="ucircumflex" unicode="&#xfb;" horiz-adv-x="1492" 
d="M1394 464q-15 -125 -77 -224t-153 -158t-195.5 -89t-214.5 -30q-68 0 -124 4t-121.5 17t-118 35t-105 60t-90.5 89t-66.5 125t-41.5 166q-45 318 28 861q18 20 71 36t121 17.5t133.5 -12t115 -58.5t58.5 -115q1 -6 4.5 -310.5t23.5 -421.5q7 -43 37.5 -70t66 -29.5
t68 24.5t42.5 80q27 132 31.5 396.5t-23.5 428.5q27 27 75 46.5t105.5 28t118 -2t111.5 -37.5t87 -84.5t43 -137.5q1 -15 6 -64t6 -62t4 -55t2.5 -65t-1.5 -68.5t-4.5 -88t-9 -102t-13.5 -130.5zM1076 1566q4 -41 -11 -69.5t-39 -39t-51.5 -7t-48.5 21.5q-89 81 -163 210
q-115 -180 -184 -216q-75 -36 -124 -0.5t-40 103.5q40 92 115 226.5t109 185.5q34 21 74 27.5t82.5 -5.5t72.5 -44q92 -99 147 -209.5t61 -183.5z" />
    <glyph glyph-name="udieresis" unicode="&#xfc;" horiz-adv-x="1492" 
d="M1394 464q-15 -125 -77 -224t-153 -158t-195.5 -89t-214.5 -30q-68 0 -124 4t-121.5 17t-118 35t-105 60t-90.5 89t-66.5 125t-41.5 166q-45 318 28 861q18 20 71 36t121 17.5t133.5 -12t115 -58.5t58.5 -115q1 -6 4.5 -310.5t23.5 -421.5q7 -43 37.5 -70t66 -29.5
t68 24.5t42.5 80q27 132 31.5 396.5t-23.5 428.5q27 27 75 46.5t105.5 28t118 -2t111.5 -37.5t87 -84.5t43 -137.5q1 -15 6 -64t6 -62t4 -55t2.5 -65t-1.5 -68.5t-4.5 -88t-9 -102t-13.5 -130.5zM471 1475q-9 2 -32.5 4.5t-35.5 5.5q-66 14 -104.5 57t-44.5 109q-6 58 4 110
q16 102 123 137q73 24 149 8q77 -17 120.5 -77.5t36.5 -139.5q-6 -57 -19 -92q-23 -58 -74.5 -89.5t-122.5 -32.5zM1016 1475q-9 2 -32 4.5t-35 5.5q-65 14 -104 56.5t-46 109.5q-4 52 4 110q17 102 123 137q74 24 149 8q78 -17 121 -77t37 -140q-5 -54 -21 -92
q-46 -120 -196 -122z" />
    <glyph glyph-name="yacute" unicode="&#xfd;" horiz-adv-x="1295" 
d="M684 841q7 15 52.5 125.5t98 231.5t81.5 176q73 20 147.5 3.5t126 -62.5t69.5 -117.5t-21 -163.5q-47 -109 -145 -290.5t-155 -305.5q-20 -36 -20 -75q0 -53 -1 -129.5t-2.5 -135.5t-1.5 -63q-15 -20 -56.5 -35t-95.5 -21.5t-113 2.5t-109 32.5t-84 74t-37 121.5v53.5
t0.5 68t0.5 43.5q-1 27 -15 53q-265 505 -382 791q32 78 97.5 125.5t132.5 55.5t128 -14.5t87 -71.5q35 -64 107.5 -236.5t82.5 -194.5q2 -7 7.5 -20t8.5 -20q8 0 11 -1zM591 1982q31 14 68.5 14.5t73 -13t63.5 -36t42 -59.5t7 -80q-12 -70 -59.5 -145.5t-94.5 -123
t-90 -79.5q-70 -46 -123 -17.5t-53 97.5q29 98 85.5 245.5t80.5 196.5z" />
    <glyph glyph-name="ydieresis" unicode="&#xff;" horiz-adv-x="1295" 
d="M684 841q7 15 52.5 125.5t98 231.5t81.5 176q73 20 147.5 3.5t126 -62.5t69.5 -117.5t-21 -163.5q-47 -109 -145 -290.5t-155 -305.5q-20 -36 -20 -75q0 -53 -1 -129.5t-2.5 -135.5t-1.5 -63q-15 -20 -56.5 -35t-95.5 -21.5t-113 2.5t-109 32.5t-84 74t-37 121.5v53.5
t0.5 68t0.5 43.5q-1 27 -15 53q-265 505 -382 791q32 78 97.5 125.5t132.5 55.5t128 -14.5t87 -71.5q35 -64 107.5 -236.5t82.5 -194.5q2 -7 7.5 -20t8.5 -20q8 0 11 -1zM373 1475q-9 2 -33 4.5t-36 5.5q-66 14 -104 57t-44 109q-6 58 4 110q16 102 123 137q73 24 148 8
q77 -17 120.5 -77.5t36.5 -139.5q-6 -57 -19 -92q-23 -58 -74 -89.5t-122 -32.5zM918 1475q-9 2 -32 4.5t-35 5.5q-66 14 -105 57t-46 109q-4 48 5 110q17 103 122 137q74 24 149 8q78 -17 121.5 -77t37.5 -140q-5 -54 -21 -92q-46 -120 -196 -122z" />
    <glyph glyph-name="Scaron" unicode="&#x160;" horiz-adv-x="1286" 
d="M997 769q84 -52 134.5 -122.5t65 -143t3 -148.5t-46 -140.5t-87.5 -115.5t-116 -77q-72 -29 -175.5 -43.5t-222.5 -12t-241.5 40.5t-209.5 110q-27 35 -39.5 77t-9 82t18 78t42.5 66t62 44t78.5 14t90.5 -25q94 -47 182 -65t145 -4.5t68 54.5q12 43 -18.5 69.5
t-104.5 31.5q-70 5 -134.5 19t-128.5 42.5t-113.5 68.5t-86 100.5t-48.5 134.5q-2 26 -3.5 58t8.5 70.5t24 77.5t43.5 79t66.5 74.5t93 64t124 47.5q135 37 297.5 21.5t250.5 -73.5q68 -45 102 -101t31.5 -107.5t-25.5 -97.5t-64 -78t-88 -43q-29 35 -83 63.5t-113.5 41
t-114 13.5t-90 -18t-36.5 -53q0 -23 19.5 -36.5t70.5 -20.5q132 -17 230 -51.5t149 -65.5zM311 1888q-4 41 11.5 70t39 39.5t51.5 7t48 -22.5q87 -79 163 -210q118 180 184 216q75 36 124 1.5t40 -103.5q-40 -92 -114 -226.5t-108 -186.5q-34 -20 -74.5 -26.5t-83.5 5.5
t-73 44q-91 99 -146 208.5t-62 183.5z" />
    <glyph glyph-name="scaron" unicode="&#x161;" horiz-adv-x="1286" 
d="M997 769q84 -52 134.5 -122.5t65 -143t3 -148.5t-46 -140.5t-87.5 -115.5t-116 -77q-72 -29 -175.5 -43.5t-222.5 -12t-241.5 40.5t-209.5 110q-27 35 -39.5 77t-9 82t18 78t42.5 66t62 44t78.5 14t90.5 -25q146 -73 240 -80.5t112 54.5q12 44 -1.5 58.5t-86.5 19.5
q-86 6 -166.5 33.5t-151.5 75t-120.5 122.5t-64.5 168q-2 26 -3.5 58t8.5 70.5t24 77.5t43.5 79t66.5 74.5t93 64t124 47.5q135 37 297.5 21.5t250.5 -73.5q68 -45 102 -101t31.5 -107.5t-25.5 -97.5t-64 -78t-88 -43q-29 35 -80.5 60.5t-107 33.5t-106.5 4.5t-84 -25
t-34 -56.5q0 -23 19.5 -36.5t70.5 -20.5q269 -35 354 -87zM311 1883q-4 41 11.5 70t39 39.5t51.5 7t48 -22.5q87 -79 163 -210q117 178 184 215q75 36 124 1.5t40 -103.5q-40 -92 -114 -226t-108 -186q-34 -20 -74.5 -26.5t-83.5 5.5t-73 44q-91 99 -146 208.5t-62 183.5z
" />
    <glyph glyph-name="Ydieresis" unicode="&#x178;" horiz-adv-x="1295" 
d="M684 841q7 15 53 126.5t99 233.5t82 177q73 20 147.5 3.5t126 -62.5t69.5 -117.5t-21 -163.5q-47 -109 -146 -292.5t-156 -307.5q-20 -36 -20 -75q0 -53 -1 -129.5t-2.5 -135.5t-1.5 -63q-15 -20 -56.5 -35t-95.5 -21.5t-113 2.5t-109 32.5t-84 74t-37 121.5v53.5t0.5 68
t0.5 43.5q-1 27 -15 53q-234 448 -371 780q32 78 97.5 125.5t132.5 56t128 -14t87 -71.5q34 -63 98.5 -224.5t80.5 -196.5q2 -7 7.5 -20t8.5 -20q8 0 11 -1zM373 1487q-8 1 -32.5 4.5t-36.5 6.5q-136 30 -148 165q-6 59 4 111q16 101 123 136q73 24 148 8
q77 -17 120.5 -77.5t36.5 -139.5q-6 -56 -19 -91q-23 -58 -74 -90t-122 -33zM918 1487q-8 1 -31 4.5t-36 6.5q-136 30 -151 165q-4 48 5 111q17 102 122 136q74 24 149 8q78 -17 121.5 -77t37.5 -140q-5 -53 -21 -91q-47 -121 -196 -123z" />
    <glyph glyph-name="Zcaron" unicode="&#x17d;" horiz-adv-x="1295" 
d="M638 460q32 0 156 2.5t228 0t199 -14.5q42 -76 35.5 -153.5t-42 -141t-97.5 -106t-131 -47.5q-84 -5 -202.5 -6t-195.5 0l-77 2q-37 0 -67 1.5t-74.5 7.5t-79.5 17t-74 31.5t-65 49t-45 72.5t-23 99q-2 40 4 80t15 74t31.5 74.5t40.5 69.5t54 71.5t59 68.5t70.5 72
t73 70.5t80.5 75.5q-76 0 -183.5 -4t-148 -5t-83.5 2q-26 33 -38.5 86.5t-5.5 112.5t30.5 112t76 89.5t124.5 40.5q75 5 241.5 5.5t377 -1t231.5 -1.5q32 -37 50 -95t8.5 -137.5t-54.5 -151.5q-59 -92 -216.5 -253t-282.5 -270zM317 1858q-4 41 11.5 70t39 39.5t51.5 7
t48 -22.5q85 -77 162 -210q117 179 185 216q75 36 124 1t40 -104q-40 -92 -114 -225t-109 -187q-34 -20 -74.5 -26.5t-83.5 5.5t-73 44q-91 99 -145.5 208.5t-61.5 183.5z" />
    <glyph glyph-name="zcaron" unicode="&#x17e;" horiz-adv-x="1295" 
d="M638 455q29 0 155 2t229.5 -0.5t198.5 -14.5q42 -76 35.5 -153t-42 -139.5t-97.5 -104t-131 -46.5q-84 -5 -202.5 -6t-195.5 1l-77 1q-37 0 -67 1.5t-74.5 7.5t-79.5 17t-74 31.5t-65 49t-45 72.5t-23 99q-3 51 7.5 102t27 94.5t52 95t65 89t83.5 93t90.5 91t102.5 96.5
q-76 0 -183.5 -4t-148 -5t-83.5 2q-26 33 -38.5 86t-5.5 111.5t30.5 111t76 88.5t124.5 40q75 5 241.5 5.5t377 -1t231.5 -1.5q24 -27 39.5 -67.5t21.5 -90t-8 -108.5t-49 -114q-60 -93 -220.5 -261t-278.5 -271zM317 1883q-4 41 11.5 70t39 39.5t51.5 7t48 -22.5
q85 -77 162 -210q116 178 185 215q75 36 124 1.5t40 -103.5q-40 -92 -114 -225t-109 -187q-34 -20 -74.5 -26.5t-83.5 5.5t-73 44q-91 99 -145.5 208.5t-61.5 183.5z" />
    <glyph glyph-name="circumflex" unicode="&#x2c6;" horiz-adv-x="764" 
d="M703 1566q4 -41 -11 -69.5t-39 -39t-51.5 -7t-48.5 21.5q-89 81 -163 210q-115 -180 -184 -216q-75 -36 -124 -0.5t-40 103.5q40 92 115 226.5t109 185.5q34 21 74.5 27.5t83 -5.5t72.5 -44q91 -99 146 -209.5t61 -183.5z" />
    <glyph glyph-name="caron" unicode="&#x2c7;" horiz-adv-x="1706" 
d="M496 1883q-4 41 11.5 70t39 39.5t51.5 7t48 -22.5q85 -77 162 -210q116 178 185 215q75 36 123.5 1.5t39.5 -103.5q-40 -92 -114 -226t-108 -186q-34 -20 -74.5 -26.5t-83.5 5.5t-73 44q-91 99 -145.5 208.5t-61.5 183.5z" />
    <glyph glyph-name="dotaccent" unicode="&#x2d9;" horiz-adv-x="1706" 
d="M827 1539q-8 1 -32 4.5t-37 6.5q-65 14 -103.5 56.5t-44.5 108.5q-5 51 3 110q17 102 123 137q75 25 149 8q78 -17 121 -77t37 -140q-5 -56 -20 -91q-22 -59 -73.5 -90.5t-122.5 -32.5z" />
    <glyph glyph-name="ring" unicode="&#x2da;" horiz-adv-x="1706" 
d="M833 1435q-216 11 -268 180q-32 93 -15 209q11 71 44.5 121.5t80 73t102 32.5t110.5 0q107 -14 170.5 -86t66.5 -181q0 -94 -21 -162q-27 -93 -99 -142t-171 -45zM744 1760q1 -57 23.5 -92.5t65.5 -35.5q49 0 69.5 32t20.5 99q0 24 -6 47t-26 43t-51 20q-44 0 -70 -31
t-26 -82z" />
    <glyph glyph-name="ogonek" unicode="&#x2db;" horiz-adv-x="1706" 
d="M967 -105q33 1 61 -24t41 -60t8 -75t-33 -65q-53 -47 -122 -71t-136.5 -20t-127 27.5t-100.5 73.5t-51 116q-12 81 6.5 143t55.5 99.5t96 63t115.5 36t126.5 15.5q37 2 26 -56q-9 -52 -35 -81q-7 -9 -13 -9q-79 -2 -130.5 -45.5t-28.5 -107.5q13 -38 60.5 -46.5t101 16
t79.5 70.5z" />
    <glyph glyph-name="tilde" unicode="&#x2dc;" horiz-adv-x="843" 
d="M143 1556q-62 28 -88 83.5t-9.5 115.5t71.5 100q42 31 105 35.5t124 -9.5t129.5 -28.5t123 -21.5t103.5 11q41 -10 65 -48t24.5 -81t-24 -83t-69.5 -52q-46 -13 -92 -13.5t-81 7t-78 14.5t-84 10.5t-98.5 -6t-121.5 -34.5z" />
    <glyph glyph-name="afii10023" unicode="&#x401;" horiz-adv-x="1127" 
d="M34 314q-10 127 -4 507.5t27 541.5q183 16 493 14t503 -17q14 -19 23 -55.5t11 -83t-13 -95t-43.5 -89t-86 -66t-136.5 -25.5h-284v-69q5 0 79.5 1.5t122 1t115 -7.5t108.5 -21q38 -94 33.5 -170.5t-62 -126.5t-155.5 -54q-32 -2 -61 -2t-80 1t-100 1v-85h32h443
q40 -56 50.5 -123t-8.5 -129t-80 -109t-155 -59q-81 -14 -293 -12.5t-281 20.5q-97 22 -143 95.5t-55 215.5zM289 1455q-7 1 -32 4.5t-37 6.5q-133 28 -152 167q-5 45 4 112q18 106 126 136q75 29 149 9q79 -17 123.5 -77t36.5 -139q-8 -63 -18 -93q-22 -59 -75.5 -92.5
t-124.5 -33.5zM867 1455q-6 1 -30 4.5t-37 6.5q-137 29 -153 167q-5 55 6 112q15 107 123 136q75 29 151 9q77 -17 120.5 -77t35.5 -139q0 -46 -18 -93q-23 -60 -74.5 -93t-123.5 -33z" />
    <glyph glyph-name="afii10062" unicode="&#x40e;" horiz-adv-x="1336" 
d="M684 949l38 76t66 130.5t69 129.5t55 91q80 20 165.5 2t144.5 -65.5t80.5 -121t-25.5 -164.5q-73 -142 -310.5 -533.5t-311.5 -479.5q-72 -36 -141 -43.5t-121.5 10.5t-91 55.5t-55.5 86.5t-9 109.5t44 118.5q26 43 44 71t24.5 36t13.5 20.5t18 32.5t-15 64
q-35 61 -112 187.5t-130.5 224.5t-101.5 205q36 79 105 128t140 59.5t135.5 -10t93.5 -69.5q29 -50 54 -99t55 -112t49 -100q2 -4 8.5 -18t9.5 -22h12z" />
    <glyph glyph-name="afii10017" unicode="&#x410;" 
d="M29 437q39 200 131 480.5t159 412.5q47 15 93 26.5t110 20t122 7.5t123 -16.5t118.5 -46.5t102.5 -88t81 -135q61 -149 146.5 -435.5t121.5 -487.5q-4 -31 -30.5 -63.5t-67 -56t-90 -39t-103 -11.5t-101.5 25t-89 72.5t-63 128.5q-45 2 -134 1t-135 0q-33 -83 -64 -197
q-169 -59 -274 -19.5t-146 152t-11 269.5zM578 598h167q-15 62 -42 174.5t-37 153.5q-8 -2 -12 -2q-13 -58 -38.5 -166.5t-37.5 -159.5z" />
    <glyph glyph-name="afii10018" unicode="&#x411;" horiz-adv-x="1172" 
d="M967 836q91 -68 132.5 -173t33.5 -210t-51.5 -202.5t-112.5 -157.5q-73 -63 -203 -92t-263.5 -15t-217.5 67q-102 65 -157 163t-69 240q-39 366 23 905q174 14 454 13t465 -14q13 -19 21 -52.5t10 -76t-12 -86t-41 -79.5t-81.5 -59t-128.5 -23h-250v-71l1 -1l2 -1l2 -1
l2 -1h2q11 7 51.5 13.5t102 8.5t140.5 -22t145 -73zM549 415q62 -36 111.5 -15.5t54.5 75.5q4 45 -22.5 76t-64.5 30.5t-78 -32.5q-9 -87 -1 -134z" />
    <glyph glyph-name="afii10019" unicode="&#x412;" horiz-adv-x="1171" 
d="M952 720q91 -31 141 -111.5t48 -192.5q-3 -206 -154.5 -326t-417.5 -120q-480 0 -527 431q-17 177 -12 424t25 468q105 62 281 85t339.5 3t244.5 -74q78 -52 121.5 -129.5t47.5 -155.5t-24.5 -152.5t-85.5 -125.5q-4 -4 -13 -11.5t-14 -12.5zM515 384q25 -13 56 -14
t57 11q58 23 51 96q-2 27 -19.5 45t-43.5 24q-71 13 -100 -16q-1 -16 -1 -146zM505 866q16 -10 36 -11.5t39 5t31 26.5t12 51q-1 34 -26.5 50.5t-53 13.5t-38.5 -17q-9 -21 -9.5 -53t9.5 -65z" />
    <glyph glyph-name="afii10020" unicode="&#x413;" horiz-adv-x="1116" 
d="M48 258q-17 148 -10 533t28 563q181 16 486.5 14.5t498.5 -15.5q11 -16 20 -46t11.5 -68t-2 -78.5t-23 -80t-48.5 -70t-81.5 -49.5t-119.5 -19h-281q10 -125 11.5 -417t-15.5 -490q-36 -26 -91 -37.5t-117 -3t-118 35.5t-97.5 86.5t-51.5 141.5z" />
    <glyph glyph-name="afii10021" unicode="&#x414;" horiz-adv-x="1781" 
d="M1704 426q30 -58 33 -276.5t-18 -329.5q-27 -34 -79.5 -56.5t-113.5 -22t-116.5 22.5t-94 84t-41.5 155q-14 0 -38 2q-359 -15 -739 -10q7 -155 4 -230q-79 -51 -160.5 -61t-147.5 20.5t-110 107.5t-48 190q-4 26 -0.5 64.5t7 79t22.5 84t45.5 81.5t76 69.5t114.5 48.5
q41 200 128.5 465t151.5 390q46 15 91.5 26.5t109 20t120.5 7.5t121 -16.5t117 -46t101 -86.5t80 -133q66 -158 165 -613q146 -16 219 -37zM814 483q114 2 177 2q-35 192 -68 420h-12q-12 -51 -37 -158t-38 -163q-3 -14 -10.5 -48t-11.5 -53z" />
    <glyph glyph-name="afii10022" unicode="&#x415;" horiz-adv-x="1127" 
d="M53 315q-10 129 -3.5 503t25.5 536q181 16 487.5 15t498.5 -16q13 -19 22 -55.5t11 -83t-12.5 -94t-42.5 -87.5t-85.5 -65.5t-135.5 -25.5h-281v-71q10 0 80 1.5t119 1.5t115 -6t106 -19q31 -68 34.5 -130t-18.5 -109t-72.5 -76.5t-124.5 -33.5q-31 -1 -60 -1t-79.5 0.5
t-98.5 0.5v-84h31h439q31 -44 45 -96t6.5 -104t-34 -97t-80.5 -77t-129 -42q-81 -12 -290 -11.5t-278 16.5q-96 25 -141.5 97.5t-53.5 212.5z" />
    <glyph glyph-name="afii10024" unicode="&#x416;" horiz-adv-x="1899" 
d="M1651 649q7 -15 95 -190t119 -256q-3 -48 -30 -93t-68.5 -78t-95.5 -47.5t-107.5 -7t-107 49.5t-92.5 116q-25 46 -134 302q-7 -226 -29 -386q-35 -38 -89 -54.5t-113.5 -7t-115 41.5t-99.5 98.5t-60 156.5q-10 48 -15 203q-125 -290 -211 -489q-81 -20 -142.5 -19
t-107 16.5t-75.5 43.5t-48 60.5t-25.5 69t-6.5 68t8 57.5q18 62 48.5 124t67.5 124.5t52 94.5q8 17 -3 41q-38 80 -115.5 239.5t-115.5 239.5q11 70 74 122t139.5 70.5t153 -4t111.5 -87.5q87 -164 192 -424q2 342 31 452q40 34 96 52.5t118.5 13.5t118.5 -33t99 -94
t57 -162q10 -79 11 -190q133 302 245 481q64 23 138 11t131 -54.5t82.5 -114.5t-7.5 -168q-18 -51 -44.5 -104.5t-64.5 -123t-63 -121.5q-10 -23 -2 -40z" />
    <glyph glyph-name="afii10025" unicode="&#x417;" horiz-adv-x="1228" 
d="M1061 735q57 -41 89.5 -103.5t38.5 -131t-10 -141.5t-49.5 -136.5t-86 -115t-115.5 -76.5q-71 -29 -175 -43.5t-222.5 -11t-241 41t-210.5 108.5q-32 40 -43 89.5t-1.5 94t34 85t63.5 62.5t87 26t105 -24q94 -47 181.5 -65t144.5 -4.5t68 54.5q18 67 -65 100t-231 29
q-40 21 -62.5 72.5t-20 104.5t42 94.5t112.5 42.5q105 1 162.5 16t56.5 50q0 55 -81.5 69t-179.5 -7t-153 -57q-38 18 -69.5 55t-47.5 83t-16 92t28 87t82 62q87 35 187.5 46t177.5 4t137 -26q67 -21 121 -51.5t89.5 -65t63 -74t40 -77t21.5 -75.5t7.5 -69t-2.5 -57
q-13 -94 -57 -157z" />
    <glyph glyph-name="afii10026" unicode="&#x418;" horiz-adv-x="1406" 
d="M538 781q2 -2 5 -3q3 6 9.5 16t8.5 14q257 463 286 512q47 27 110.5 41t131 7.5t125.5 -31.5t98 -82t45 -138q8 -201 1.5 -524.5t-19.5 -541.5q-85 -55 -172.5 -67.5t-153.5 14t-109.5 84t-47.5 134.5q-1 65 -1 77.5t3 88.5t5 134q-2 0 -5.5 0.5t-5.5 0.5q-1 -2 -7 -10
t-9 -14q-13 -21 -128 -217.5t-141 -237.5q-82 -53 -171 -60t-161.5 27t-124.5 108t-64 174q-17 219 -16.5 531.5t8.5 478.5q52 56 135 73t160 -1.5t136 -70t66 -121.5q7 -69 7.5 -120.5t-2 -130.5t-2.5 -145z" />
    <glyph glyph-name="afii10027" unicode="&#x419;" horiz-adv-x="1402" 
d="M430 1791q23 0 85 -2t96 -1.5t94 6.5t103.5 20t98 42t102.5 69q47 -5 85.5 -42t56 -87.5t4 -110t-62.5 -105.5q-112 -107 -342 -137.5t-466 22.5q-34 38 -45 94t2.5 108t62.5 88.5t126 35.5zM538 781q0 -1 2 -2t3 -1q14 22 18 30q257 463 286 512q47 27 110.5 41t131 7.5
t126 -31.5t99 -82t45.5 -138q8 -225 1 -524t-19 -542q-69 -45 -140 -62t-130 -6t-107 41t-76 80.5t-31 111.5q-1 62 -1 77t3 88.5t4 134.5q-2 0 -5.5 0.5t-4.5 0.5q-12 -13 -17 -24q-12 -19 -127 -215.5t-142 -239.5q-82 -53 -171 -60t-161.5 27t-124.5 108t-64 174
q-11 100 -14.5 323.5t-0.5 410.5t7 276q52 56 135 73t160 -1.5t136 -70t66 -121.5q7 -69 7.5 -120.5t-2 -130.5t-2.5 -145z" />
    <glyph glyph-name="afii10028" unicode="&#x41a;" horiz-adv-x="1306" 
d="M543 868q22 34 64 100t63 98q22 33 105 153.5t111 163.5q72 15 142 -4.5t115 -66.5t57.5 -118.5t-30.5 -159.5q-25 -54 -46 -92.5t-34 -59.5t-41 -65.5t-52 -84.5q-16 -23 -2 -47q34 -64 100.5 -180t111.5 -201t68 -146q-13 -44 -47 -84.5t-79.5 -68.5t-100.5 -39
t-107.5 -2t-103 49t-85.5 109q-24 45 -128 252q-72 -118 -75 -143q-9 -53 3 -187q-44 -38 -120.5 -52.5t-153.5 -3t-138 65t-73 139.5q-24 176 -30.5 537.5t12.5 559.5q32 41 92 66.5t127 26t129 -18.5t103.5 -71.5t44.5 -129.5q2 -60 2.5 -96t0 -50t-2 -51t-2.5 -66v-32z
" />
    <glyph glyph-name="afii10029" unicode="&#x41b;" horiz-adv-x="1368" 
d="M612 595h-4h4zM1115 1109q52 -128 121 -411t116 -537q-13 -44 -52.5 -81.5t-91.5 -61t-112 -27.5t-113 12t-95.5 64.5t-58.5 123.5q-92 437 -130 740h-14q-30 -127 -77 -336q-24 -102 -68.5 -321.5t-54.5 -255.5q-175 -61 -284 -20.5t-151.5 156t-11.5 276.5
q40 206 135.5 493.5t165.5 424.5q49 16 96.5 27.5t114 20.5t126.5 7.5t127 -17.5t122.5 -48t106 -90t83.5 -139z" />
    <glyph glyph-name="afii10030" unicode="&#x41c;" horiz-adv-x="1709" 
d="M862 666q1 3 8 26q21 90 62.5 271t62.5 271q5 19 28 79q80 53 171 62t167 -21.5t132 -101.5t68 -169q7 -51 64 -531q15 -120 52 -444q-53 -69 -131 -97.5t-147.5 -15.5t-123 64.5t-61.5 130.5q-8 72 -11 128.5t-3.5 141.5t-3.5 160q-5 0 -8 1q-3 -13 -8.5 -41.5
t-9.5 -42.5q-91 -384 -115 -478q-36 -23 -97.5 -34.5t-130 -7t-126.5 47.5t-78 122q-97 412 -110 447q-29 -437 -39 -585q-67 -36 -135.5 -49.5t-129 2t-104.5 57.5t-62.5 124.5t-2.5 194.5q13 88 45 256.5t43 236.5q12 68 39 219.5t41 232.5q32 30 87.5 48.5t121.5 18
t129 -20t115 -73t74 -134.5q15 -55 50 -203t42 -175q1 -7 12.5 -59.5t13.5 -58.5h9z" />
    <glyph glyph-name="afii10031" unicode="&#x41d;" horiz-adv-x="1411" 
d="M572 893h262q1 43 2.5 149.5t4 170t7.5 96.5q62 49 149 59t164.5 -15.5t132.5 -93.5t55 -161q0 -572 -1 -919q0 -93 -5 -145q-15 -17 -56 -31t-93.5 -21t-111 -1t-108.5 24.5t-86.5 59.5t-43.5 100q-13 92 -13 287h-255v-419q-16 -15 -50 -28.5t-79 -21.5t-94.5 -9
t-97.5 13t-87.5 40.5t-66 77.5t-31.5 120q-10 137 -15.5 495.5t4.5 568.5q66 54 153 71t162.5 -2.5t131 -73t62.5 -128.5q4 -41 5.5 -90t1 -81t-1.5 -62z" />
    <glyph glyph-name="afii10032" unicode="&#x41e;" horiz-adv-x="1525" 
d="M755 1393q96 1 181 -17t146.5 -46.5t115 -69t88 -78t63 -82t42.5 -73.5t25 -58q102 -278 24 -532q-112 -360 -476 -445q-308 -75 -571 61q-249 128 -315 422q-31 131 -22.5 272.5t56.5 246.5q35 79 85.5 145t126 125.5t186.5 94t245 34.5zM762 904q-81 0 -134.5 -66.5
t-45.5 -182.5q7 -108 64.5 -160.5t120.5 -48.5t114 56.5t56 158.5q7 110 -45.5 176.5t-129.5 66.5z" />
    <glyph glyph-name="afii10033" unicode="&#x41f;" horiz-adv-x="1410" 
d="M707 1380q649 0 649 -312v-881q0 -101 -6 -147q-15 -17 -55.5 -31t-93 -21.5t-111 -1.5t-108.5 24.5t-86.5 60.5t-44.5 102q-11 78 -11 747h-257v-880q-14 -13 -42 -25.5t-65 -22t-79.5 -12t-85.5 2t-83 22t-72 45t-53 75t-25 108.5q-10 142 -16 476.5t4 550.5
q103 64 285.5 92t355.5 28z" />
    <glyph glyph-name="afii10034" unicode="&#x420;" horiz-adv-x="1276" 
d="M1043 477q-58 -44 -126.5 -69t-124 -30.5t-106 -2.5t-79 9.5t-36.5 11.5q-1 2 -3 0h-2q-2 -1 -3 -1q-2 0 -2 -3q0 -210 -14 -346q-34 -37 -88.5 -55.5t-115 -11t-117.5 36.5t-101.5 92.5t-61.5 152.5q-12 62 -16.5 270t3.5 430t28 299q45 43 164 76t261 44.5t294 -14.5
t249 -91q80 -54 128.5 -158t54.5 -219t-41 -231.5t-145 -189.5zM771 863q0 29 -26 54t-65.5 30.5t-86.5 -19.5q0 -97 1 -143q0 -5 5.5 -10.5t9.5 -5.5q75 0 102 4q60 12 60 90z" />
    <glyph glyph-name="afii10035" unicode="&#x421;" horiz-adv-x="1381" 
d="M918 938q-116 31 -215 -19q-68 -34 -94 -108.5t-14 -159.5q16 -116 102.5 -166t198.5 -34q26 3 56.5 13t61 25t51.5 26t47 26.5t28 16.5q47 -8 87.5 -39.5t66.5 -75.5t31 -99.5t-12 -110t-70 -109t-137 -93.5q-68 -32 -167.5 -43.5t-194.5 -4t-175 28.5q-348 89 -453 443
q-72 258 6 483q43 130 140.5 230.5t212.5 151.5q72 32 162 49t194 17t220 -31t220 -91q18 -65 10.5 -119.5t-31 -97t-62 -71.5t-83 -43.5t-94 -13.5t-93.5 19z" />
    <glyph glyph-name="afii10036" unicode="&#x422;" horiz-adv-x="1250" 
d="M1173 1346q23 -29 37 -80t11 -112t-24.5 -116t-79.5 -94t-145 -44q-20 -1 -41.5 -2.5t-32.5 -2.5t-13 -1q8 -190 -0.5 -452t-27.5 -397q-34 -37 -87 -54t-112 -7.5t-114 40.5t-99 96t-61 153q-11 57 -17.5 245t-4.5 376q-171 -10 -280 10q-26 33 -38.5 86.5t-6 112
t30.5 110.5t77.5 88.5t127.5 40.5q76 5 259.5 5.5t391.5 -0.5t249 -1z" />
    <glyph glyph-name="afii10037" unicode="&#x423;" horiz-adv-x="1336" 
d="M684 949l38 76t66 130.5t69 129.5t55 91q80 20 165.5 2t144.5 -65.5t80.5 -121t-25.5 -164.5q-73 -142 -310.5 -533.5t-311.5 -479.5q-72 -36 -141 -43.5t-121.5 10.5t-91 55.5t-55.5 86.5t-9 109.5t44 118.5q26 43 44 71t24.5 36t13.5 20.5t18 32.5t-15 64
q-35 61 -112 187.5t-130.5 224.5t-101.5 205q36 79 105 128t140 59.5t135.5 -10t93.5 -69.5q29 -50 54 -99t55 -112t49 -100q2 -4 8.5 -18t9.5 -22h12z" />
    <glyph glyph-name="afii10038" unicode="&#x424;" horiz-adv-x="1897" 
d="M1641 1236q94 -61 149 -165.5t62.5 -215.5t-39.5 -222.5t-146 -184.5q-59 -43 -127 -67.5t-124 -30t-106 -2.5t-79 10t-36 12h-3h-3l-3 -1l-1 -3q0 -205 -14 -340q-24 -26 -59.5 -43t-76.5 -21.5t-84 1t-85 26t-77.5 52.5t-62.5 82t-39 113q-6 27 -11 137q0 1 -2 1t-2 1
q-3 0 -3 -1q-8 -5 -34 -12t-73.5 -10.5t-99.5 1t-117.5 28.5t-123.5 67q-99 73 -149.5 173.5t-49 202t45 200t123.5 172.5q93 87 296.5 133.5t421.5 47.5t423.5 -36.5t308.5 -104.5zM655 735q4 0 9 5.5t6 9.5q0 29 2 87v55q-47 25 -87 19t-66.5 -30.5t-26.5 -53.5
q0 -76 61 -88q26 -4 102 -4zM1335 739q60 12 60 88q0 29 -26.5 53.5t-66 30.5t-85.5 -19v-141q1 -4 6.5 -10t9.5 -6q75 0 102 4z" />
    <glyph glyph-name="afii10039" unicode="&#x425;" horiz-adv-x="1283" 
d="M1027 644q8 -19 92 -193.5t115 -255.5q-3 -48 -31 -92.5t-70 -76.5t-96 -46t-107.5 -5.5t-106.5 51.5t-91 117q-41 81 -96 222q-101 -225 -159 -358q-94 -20 -163 -15.5t-114.5 30.5t-73 61.5t-39 78t-11.5 80.5t9 69q19 61 49.5 121.5t69 124t53.5 94.5q8 18 -2 40
q-41 89 -117.5 252.5t-106.5 229.5q10 56 53.5 101.5t103.5 68t123 26.5t118 -22t82 -79q68 -132 138 -311q124 257 219 404q64 22 138 9t130.5 -56.5t81 -115.5t-9.5 -167q-19 -51 -46 -104t-66 -122t-65 -120q-12 -20 -4 -41z" />
    <glyph glyph-name="afii10040" unicode="&#x426;" horiz-adv-x="1613" 
d="M1524 414q23 -28 37 -68t17.5 -85t-11.5 -89.5t-45 -81.5t-88 -62t-137 -29q-322 -19 -841 -3q-200 11 -288 76t-107 219q-23 181 -22 492.5t28 517.5q19 21 72 37t121.5 17.5t134 -12t115 -58.5t58.5 -115q11 -98 11 -734h255v867q19 17 62 31.5t97.5 22.5t113.5 -0.5
t109 -32.5t85 -79t40 -134q18 -260 18 -685q101 -5 165 -12z" />
    <glyph glyph-name="afii10041" unicode="&#x427;" horiz-adv-x="1391" 
d="M1331 1073q20 -125 15 -487t-30 -537q-34 -38 -87 -55t-112 -7.5t-114 41t-98.5 98.5t-60.5 157q-2 2 -2 4q-94 0 -187 2t-148.5 4t-58.5 2q-200 12 -287 79.5t-106 227.5q-24 188 -23.5 339t28.5 366q18 21 71.5 37.5t121.5 18t133.5 -13t115 -61t58.5 -119.5
q11 -99 11 -417q20 0 105.5 1t144.5 1q-2 427 28 539q38 35 93 54.5t116.5 14.5t117 -32.5t98 -94t57.5 -162.5z" />
    <glyph glyph-name="afii10042" unicode="&#x428;" horiz-adv-x="2200" 
d="M2141 1092q14 -122 11 -722q0 -51 -5 -92t-25.5 -94.5t-56 -90t-102.5 -65t-159 -33.5q-177 -11 -514 -12.5t-552 1.5t-270 5q-201 11 -288 76t-106 220q-23 182 -22.5 495.5t27.5 519.5q19 21 72 37t121 17.5t133.5 -12t115 -58.5t58.5 -115q12 -85 12 -739
q21 0 108 0.5t148 0.5v870q16 15 50 28.5t79 21.5t94.5 9t97.5 -13t87.5 -40.5t66 -77.5t31.5 -120q16 -236 18 -687q22 -1 280 1q-10 572 7 882q39 34 95.5 52.5t119.5 14t119.5 -31t97.5 -91t51 -157.5z" />
    <glyph glyph-name="afii10043" unicode="&#x429;" horiz-adv-x="2456" 
d="M2363 412q23 -28 37.5 -68.5t18 -85.5t-11.5 -90.5t-45 -82.5t-88 -62.5t-137 -29.5q-177 -10 -599.5 -10.5t-723.5 3.5t-357 6q-201 11 -288 76t-106 221q-23 182 -22.5 498.5t27.5 523.5q19 21 72 37t121.5 17.5t134 -12t114.5 -59t58 -116.5q12 -85 12 -742
q21 0 108 0.5t148 0.5v875q19 18 62 32.5t97.5 22.5t113 -0.5t108.5 -33t85 -80t40 -135.5q18 -262 18 -691q49 -2 259 -4q9 677 6 870q38 33 94.5 51.5t117.5 15t117 -24.5t97.5 -71.5t52.5 -122.5q12 -82 15.5 -298t-4.5 -425q228 -2 248 -6z" />
    <glyph glyph-name="afii10044" unicode="&#x42a;" horiz-adv-x="1520" 
d="M1285 883q98 -74 145.5 -190.5t41 -232t-54.5 -219.5t-129 -158q-97 -65 -249 -90.5t-294 -14t-261.5 44.5t-164.5 77q-35 132 -27 768q-133 7 -187 22q-34 38 -52.5 93t-14 116.5t31.5 117t92 98t159 57.5q54 7 165 12q72 2 141.5 -18t118.5 -62t53 -97q3 -49 4.5 -94
t1 -69.5t-1 -48.5t-0.5 -28q1 -2 1 -3h4l2 -1h2q8 5 37 12t79.5 10t106.5 -2.5t124 -31t126 -68.5zM834 431q47 -26 86.5 -20t66 31t26.5 54q0 80 -60 90q-24 5 -102 5q-4 0 -9.5 -6t-5.5 -10q-2 -96 -2 -144z" />
    <glyph glyph-name="afii10045" unicode="&#x42b;" horiz-adv-x="1888" 
d="M1821 1095q-15 94 -57.5 158.5t-98 92t-117 32t-116.5 -14t-93 -52.5q-31 -142 -28 -532t23 -498q17 -89 60.5 -154t99 -96t114.5 -40t111.5 8t86.5 54q25 170 30 545.5t-15 496.5zM567 952q7 5 36 12t79 10t106 -2.5t124 -31t127 -68.5q98 -74 145 -190.5t41 -231.5
t-54.5 -218.5t-128.5 -157.5q-97 -65 -249 -91t-294 -14.5t-261 44t-164 76.5q-31 139 -29 623t22 591q68 54 154 68.5t156.5 -5t120.5 -65.5t54 -105q3 -49 4.5 -94.5t1.5 -69.5t-0.5 -48.5t-0.5 -26.5q0 -3 1 -3l6 -2h3zM588 421q46 -26 86 -20.5t66.5 30.5t26.5 54
q0 80 -61 90q-24 5 -101 5q-4 0 -10.5 -6t-6.5 -10v-143z" />
    <glyph glyph-name="afii10046" unicode="&#x42c;" horiz-adv-x="1269" 
d="M569 963q8 5 36.5 11.5t79.5 9.5t107 -2.5t124 -30.5t126 -69q98 -74 145 -190.5t40.5 -231.5t-55 -219t-128.5 -158q-97 -65 -249 -91t-294 -14.5t-261 44.5t-164 76q-30 139 -28 623t22 591q68 54 154 68.5t157 -5t121 -65t54 -104.5q3 -49 4.5 -94t1 -69l-1 -48
t-0.5 -28l1 -3q5 -2 6 -3q2 0 2 2zM591 430q47 -26 86.5 -20t66 31.5t26.5 54.5q0 78 -60 90q-26 4 -102 4q-4 0 -9.5 -6.5t-5.5 -10.5q-2 -96 -2 -143z" />
    <glyph glyph-name="afii10047" unicode="&#x42d;" horiz-adv-x="1406" 
d="M1360 816q43 -260 -64 -480q-118 -238 -409 -336q-95 -32 -199 -39.5t-214.5 12t-220 81.5t-198.5 163q-10 77 8.5 138.5t57 96t87.5 49.5t103 3.5t100 -45.5q77 -58 154 -70t131.5 15t83.5 81q-185 5 -250 22q-37 41 -49.5 98.5t0 111.5t58.5 94t118 45q7 1 121 1
q-31 46 -82 73.5t-112.5 31.5t-132 -23.5t-132.5 -85.5q-55 18 -97 66t-54.5 111t2.5 127t78.5 121t167.5 86q107 30 214 33t205 -18.5t185.5 -69.5t156.5 -117t116.5 -165.5t66.5 -210.5z" />
    <glyph glyph-name="afii10048" unicode="&#x42e;" horiz-adv-x="2210" 
d="M2109 987q105 -275 26 -531q-112 -361 -476 -446q-313 -73 -572 61q-240 124 -311 407q-52 -1 -162 -1q-9 -295 -27 -416q-43 -47 -121.5 -59t-158.5 10.5t-149 95t-90 181.5q-20 107 -22 503.5t28 535.5q38 34 98 53t128 14.5t130 -31.5t109.5 -91.5t62.5 -158.5
q7 -40 14 -248q44 1 143 1q16 77 47 145q34 77 85.5 139.5t127.5 115.5t186 83.5t245 33.5q91 1 173 -14.5t143.5 -42t115 -63t90 -73t66 -77t45.5 -70.5t26 -57zM1632 679q6 112 -46.5 177.5t-130.5 65.5q-80 0 -133.5 -66t-46.5 -183q8 -107 66 -160t121 -49t113 56.5
t57 158.5z" />
    <glyph glyph-name="afii10049" unicode="&#x42f;" horiz-adv-x="1261" 
d="M1188 1283q11 -39 18.5 -136.5t11 -203.5t5 -256t1.5 -246.5t-0.5 -225.5t-0.5 -145q-52 -40 -117 -61t-130.5 -18t-122.5 28t-96.5 83.5t-47.5 143.5q-6 76 -6 113q-34 -110 -91.5 -214t-130.5 -170q-45 -11 -92.5 -10.5t-90 17.5t-79 41.5t-60 61t-32.5 76.5t4 88.5
t48 95.5q46 66 72 110q-3 2 -28 19q-98 74 -145 194.5t-41 240.5t54.5 227.5t128.5 161.5q97 65 249 91t294 14.5t261 -44t164 -76.5zM673 952q-46 26 -86 20t-66.5 -31t-26.5 -54q0 -80 62 -90q24 -5 102 -5q3 0 9 6t6 10v144z" />
    <glyph glyph-name="afii10065" unicode="&#x430;" horiz-adv-x="1422" 
d="M49 422q41 209 137 498.5t166 425.5q47 16 95.5 28.5t114.5 21.5t126.5 8t127 -17.5t122.5 -48.5t107 -91t84 -140q64 -159 151.5 -454.5t124.5 -502.5q-4 -32 -31 -65.5t-69.5 -58t-93.5 -40.5t-106.5 -11.5t-105 26t-92 75t-65.5 133.5q-47 2 -139 1t-139 0
q-37 -88 -67 -203q-175 -61 -284 -20t-151.5 156.5t-12.5 278.5zM618 588h175q-39 153 -82 340q-5 -1 -13 -1q-14 -63 -42 -179.5t-38 -159.5z" />
    <glyph glyph-name="afii10066" unicode="&#x431;" horiz-adv-x="1172" 
d="M967 836q91 -68 132.5 -173t33.5 -210t-51.5 -202.5t-112.5 -157.5q-73 -63 -203 -92t-263.5 -15t-217.5 67q-102 65 -157 163t-69 240q-39 366 23 905q174 14 454 13t465 -14q13 -19 21 -52.5t10 -76t-12 -86t-41 -79.5t-81.5 -59t-128.5 -23h-250v-71l1 -1l2 -1l2 -1
l2 -1h2q11 7 51.5 13.5t102 8.5t140.5 -22t145 -73zM549 415q62 -36 111.5 -15.5t54.5 75.5q4 45 -22.5 76t-64.5 30.5t-78 -32.5q-9 -87 -1 -134z" />
    <glyph glyph-name="afii10067" unicode="&#x432;" horiz-adv-x="1171" 
d="M952 720q91 -31 141 -111.5t48 -192.5q-3 -206 -154.5 -326t-417.5 -120q-480 0 -527 431q-17 177 -12 424t25 468q105 62 281 85t339.5 3t244.5 -74q78 -52 121.5 -129.5t47.5 -155.5t-24.5 -152.5t-85.5 -125.5q-4 -4 -13 -11.5t-14 -12.5zM515 384q25 -13 56 -14
t57 11q58 23 51 96q-2 27 -19.5 45t-43.5 24q-71 13 -100 -16q-1 -16 -1 -146zM505 866q16 -10 36 -11.5t39 5t31 26.5t12 51q-1 34 -26.5 50.5t-53 13.5t-38.5 -17q-9 -21 -9.5 -53t9.5 -65z" />
    <glyph glyph-name="afii10068" unicode="&#x433;" horiz-adv-x="1116" 
d="M48 258q-17 148 -10 533t28 563q181 16 486.5 14.5t498.5 -15.5q11 -16 20 -46t11.5 -68t-2 -78.5t-23 -80t-48.5 -70t-81.5 -49.5t-119.5 -19h-281q10 -125 11.5 -417t-15.5 -490q-36 -26 -91 -37.5t-117 -3t-118 35.5t-97.5 86.5t-51.5 141.5z" />
    <glyph glyph-name="afii10069" unicode="&#x434;" horiz-adv-x="1781" 
d="M1704 426q30 -58 33 -276.5t-18 -329.5q-27 -34 -79.5 -56.5t-113.5 -22t-116.5 22.5t-94 84t-41.5 155q-14 0 -38 2q-359 -15 -739 -10q7 -155 4 -230q-79 -51 -160.5 -61t-147.5 20.5t-110 107.5t-48 190q-4 26 -0.5 64.5t7 79t22.5 84t45.5 81.5t76 69.5t114.5 48.5
q41 200 128.5 465t151.5 390q46 15 91.5 26.5t109 20t120.5 7.5t121 -16.5t117 -46t101 -86.5t80 -133q66 -158 165 -613q146 -16 219 -37zM814 483q114 2 177 2q-35 192 -68 420h-12q-12 -51 -37 -158t-38 -163q-3 -14 -10.5 -48t-11.5 -53z" />
    <glyph glyph-name="afii10070" unicode="&#x435;" horiz-adv-x="1127" 
d="M53 315q-10 129 -3.5 503t25.5 536q181 16 487.5 15t498.5 -16q13 -19 22 -55.5t11 -83t-12.5 -94t-42.5 -87.5t-85.5 -65.5t-135.5 -25.5h-281v-71q10 0 80 1.5t119 1.5t115 -6t106 -19q31 -68 34.5 -130t-18.5 -109t-72.5 -76.5t-124.5 -33.5q-31 -1 -60 -1t-79.5 0.5
t-98.5 0.5v-84h31h439q31 -44 45 -96t6.5 -104t-34 -97t-80.5 -77t-129 -42q-81 -12 -290 -11.5t-278 16.5q-96 25 -141.5 97.5t-53.5 212.5z" />
    <glyph glyph-name="afii10072" unicode="&#x436;" horiz-adv-x="1899" 
d="M1651 649q7 -15 95 -190t119 -256q-3 -48 -30 -93t-68.5 -78t-95.5 -47.5t-107.5 -7t-107 49.5t-92.5 116q-25 46 -134 302q-7 -226 -29 -386q-35 -38 -89 -54.5t-113.5 -7t-115 41.5t-99.5 98.5t-60 156.5q-10 48 -15 203q-125 -290 -211 -489q-81 -20 -142.5 -19
t-107 16.5t-75.5 43.5t-48 60.5t-25.5 69t-6.5 68t8 57.5q18 62 48.5 124t67.5 124.5t52 94.5q8 17 -3 41q-38 80 -115.5 239.5t-115.5 239.5q11 70 74 122t139.5 70.5t153 -4t111.5 -87.5q87 -164 192 -424q2 342 31 452q40 34 96 52.5t118.5 13.5t118.5 -33t99 -94
t57 -162q10 -79 11 -190q133 302 245 481q64 23 138 11t131 -54.5t82.5 -114.5t-7.5 -168q-18 -51 -44.5 -104.5t-64.5 -123t-63 -121.5q-10 -23 -2 -40z" />
    <glyph glyph-name="afii10073" unicode="&#x437;" horiz-adv-x="1228" 
d="M1061 735q57 -41 89.5 -103.5t38.5 -131t-10 -141.5t-49.5 -136.5t-86 -115t-115.5 -76.5q-71 -29 -175 -43.5t-222.5 -11t-241 41t-210.5 108.5q-32 40 -43 89.5t-1.5 94t34 85t63.5 62.5t87 26t105 -24q145 -69 231.5 -66.5t103.5 67.5q18 68 -37 92.5t-200 20.5
q-40 21 -62.5 72.5t-20 104.5t42 94.5t112.5 42.5q102 1 134 11t31 45q0 55 -70.5 61t-154.5 -21t-142 -65q-37 18 -68.5 59t-46 93t-13.5 104t29.5 97t82.5 66q87 35 187.5 46t177.5 4t137 -26q67 -21 121 -51.5t89.5 -65t63 -74t40 -77t21.5 -75.5t7.5 -69t-2.5 -57
q-13 -94 -57 -157z" />
    <glyph glyph-name="afii10074" unicode="&#x438;" horiz-adv-x="1406" 
d="M538 781q2 -2 5 -3q3 6 9.5 16t8.5 14q257 463 286 512q47 27 110.5 41t131 7.5t125.5 -31.5t98 -82t45 -138q8 -201 1.5 -524.5t-19.5 -541.5q-85 -55 -172.5 -67.5t-153.5 14t-109.5 84t-47.5 134.5q-1 65 -1 77.5t3 88.5t5 134q-2 0 -5.5 0.5t-5.5 0.5q-1 -2 -7 -10
t-9 -14q-13 -21 -128 -217.5t-141 -237.5q-82 -53 -171 -60t-161.5 27t-124.5 108t-64 174q-17 219 -16.5 531.5t8.5 478.5q52 56 135 73t160 -1.5t136 -70t66 -121.5q7 -69 7.5 -120.5t-2 -130.5t-2.5 -145z" />
    <glyph glyph-name="afii10075" unicode="&#x439;" horiz-adv-x="1402" 
d="M430 1791q23 0 85 -2t96 -1.5t94 6.5t103.5 20t98 42t102.5 69q47 -5 85.5 -42t56 -87.5t4 -110t-62.5 -105.5q-112 -107 -342 -137.5t-466 22.5q-34 38 -45 94t2.5 108t62.5 88.5t126 35.5zM538 781q0 -1 2 -2t3 -1q14 22 18 30q257 463 286 512q47 27 110.5 41t131 7.5
t126 -31.5t99 -82t45.5 -138q8 -225 1 -524t-19 -542q-69 -45 -140 -62t-130 -6t-107 41t-76 80.5t-31 111.5q-1 62 -1 77t3 88.5t4 134.5q-2 0 -5.5 0.5t-4.5 0.5q-12 -13 -17 -24q-12 -19 -127 -215.5t-142 -239.5q-82 -53 -171 -60t-161.5 27t-124.5 108t-64 174
q-11 100 -14.5 323.5t-0.5 410.5t7 276q52 56 135 73t160 -1.5t136 -70t66 -121.5q7 -69 7.5 -120.5t-2 -130.5t-2.5 -145z" />
    <glyph glyph-name="afii10076" unicode="&#x43a;" horiz-adv-x="1306" 
d="M543 868q22 34 64 100t63 98q22 33 105 153.5t111 163.5q72 15 142 -4.5t115 -66.5t57.5 -118.5t-30.5 -159.5q-25 -54 -46 -92.5t-34 -59.5t-41 -65.5t-52 -84.5q-16 -23 -2 -47q34 -64 100.5 -180t111.5 -201t68 -146q-13 -44 -47 -84.5t-79.5 -68.5t-100.5 -39
t-107.5 -2t-103 49t-85.5 109q-24 45 -128 252q-72 -118 -75 -143q-9 -53 3 -187q-44 -38 -120.5 -52.5t-153.5 -3t-138 65t-73 139.5q-24 176 -30.5 537.5t12.5 559.5q32 41 92 66.5t127 26t129 -18.5t103.5 -71.5t44.5 -129.5q2 -60 2.5 -96t0 -50t-2 -51t-2.5 -66v-32z
" />
    <glyph glyph-name="afii10077" unicode="&#x43b;" horiz-adv-x="1368" 
d="M612 595h-4h4zM1115 1109q52 -128 121 -411t116 -537q-13 -44 -52.5 -81.5t-91.5 -61t-112 -27.5t-113 12t-95.5 64.5t-58.5 123.5q-92 437 -130 740h-14q-30 -127 -77 -336q-24 -102 -68.5 -321.5t-54.5 -255.5q-175 -61 -284 -20.5t-151.5 156t-11.5 276.5
q40 206 135.5 493.5t165.5 424.5q49 16 96.5 27.5t114 20.5t126.5 7.5t127 -17.5t122.5 -48t106 -90t83.5 -139z" />
    <glyph glyph-name="afii10078" unicode="&#x43c;" horiz-adv-x="1709" 
d="M862 666q1 3 8 26q21 90 62.5 271t62.5 271q5 19 28 79q80 53 171 62t167 -21.5t132 -101.5t68 -169q7 -51 64 -531q15 -120 52 -444q-53 -69 -131 -97.5t-147.5 -15.5t-123 64.5t-61.5 130.5q-8 72 -11 128.5t-3.5 141.5t-3.5 160q-5 0 -8 1q-3 -13 -8.5 -41.5
t-9.5 -42.5q-91 -384 -115 -478q-36 -23 -97.5 -34.5t-130 -7t-126.5 47.5t-78 122q-97 412 -110 447q-29 -437 -39 -585q-67 -36 -135.5 -49.5t-129 2t-104.5 57.5t-62.5 124.5t-2.5 194.5q13 88 45 256.5t43 236.5q12 68 39 219.5t41 232.5q32 30 87.5 48.5t121.5 18
t129 -20t115 -73t74 -134.5q15 -55 50 -203t42 -175q1 -7 12.5 -59.5t13.5 -58.5h9z" />
    <glyph glyph-name="afii10079" unicode="&#x43d;" horiz-adv-x="1411" 
d="M572 893h262q1 43 2.5 149.5t4 170t7.5 96.5q62 49 149 59t164.5 -15.5t132.5 -93.5t55 -161q0 -572 -1 -919q0 -93 -5 -145q-15 -17 -56 -31t-93.5 -21t-111 -1t-108.5 24.5t-86.5 59.5t-43.5 100q-13 92 -13 287h-255v-419q-16 -15 -50 -28.5t-79 -21.5t-94.5 -9
t-97.5 13t-87.5 40.5t-66 77.5t-31.5 120q-10 137 -15.5 495.5t4.5 568.5q66 54 153 71t162.5 -2.5t131 -73t62.5 -128.5q4 -41 5.5 -90t1 -81t-1.5 -62z" />
    <glyph glyph-name="afii10080" unicode="&#x43e;" horiz-adv-x="1525" 
d="M755 1393q96 1 181 -17t146.5 -46.5t115 -69t88 -78t63 -82t42.5 -73.5t25 -58q102 -278 24 -532q-112 -360 -476 -445q-308 -75 -571 61q-249 128 -315 422q-31 131 -22.5 272.5t56.5 246.5q35 79 85.5 145t126 125.5t186.5 94t245 34.5zM762 904q-81 0 -134.5 -66.5
t-45.5 -182.5q7 -108 64.5 -160.5t120.5 -48.5t114 56.5t56 158.5q7 110 -45.5 176.5t-129.5 66.5z" />
    <glyph glyph-name="afii10081" unicode="&#x43f;" horiz-adv-x="1410" 
d="M707 1380q649 0 649 -312v-881q0 -101 -6 -147q-15 -17 -55.5 -31t-93 -21.5t-111 -1.5t-108.5 24.5t-86.5 60.5t-44.5 102q-11 78 -11 747h-257v-880q-14 -13 -42 -25.5t-65 -22t-79.5 -12t-85.5 2t-83 22t-72 45t-53 75t-25 108.5q-10 142 -16 476.5t4 550.5
q103 64 285.5 92t355.5 28z" />
    <glyph glyph-name="afii10082" unicode="&#x440;" horiz-adv-x="1276" 
d="M1043 477q-58 -44 -126.5 -69t-124 -30.5t-106 -2.5t-79 9.5t-36.5 11.5q-1 2 -3 0h-2q-2 -1 -3 -1q-2 0 -2 -3q0 -210 -14 -346q-34 -37 -88.5 -55.5t-115 -11t-117.5 36.5t-101.5 92.5t-61.5 152.5q-12 62 -16.5 270t3.5 430t28 299q45 43 164 76t261 44.5t294 -14.5
t249 -91q80 -54 128.5 -158t54.5 -219t-41 -231.5t-145 -189.5zM771 863q0 29 -26 54t-65.5 30.5t-86.5 -19.5q0 -97 1 -143q0 -5 5.5 -10.5t9.5 -5.5q75 0 102 4q60 12 60 90z" />
    <glyph glyph-name="afii10083" unicode="&#x441;" horiz-adv-x="1340" 
d="M892 934q-114 30 -219 -21q-68 -35 -94 -109.5t-14 -160.5q16 -115 103.5 -167t198.5 -34q27 3 57.5 13t61 25t52 26.5t47 26.5t28.5 17q48 -8 88.5 -39.5t67 -76t31.5 -100.5t-12 -110.5t-70.5 -109t-137.5 -94.5q-70 -32 -169.5 -43.5t-195 -4.5t-177.5 28
q-353 93 -455 446q-74 265 4 488q43 129 141.5 230t216.5 155q71 32 161.5 49t195.5 16t222 -32t223 -92q17 -65 9 -119.5t-31.5 -97t-62.5 -71.5t-83.5 -43.5t-93.5 -13.5t-93 19z" />
    <glyph glyph-name="afii10084" unicode="&#x442;" horiz-adv-x="1250" 
d="M1181 1365q19 -25 32 -66t18 -90.5t-6.5 -100.5t-38 -93.5t-80 -71.5t-128.5 -34q-82 -5 -89 -5q8 -195 0 -461t-27 -403q-45 -48 -117.5 -60.5t-146 10.5t-136.5 97t-84 185q-11 58 -18 250.5t-5 381.5q-178 -10 -284 9q-27 34 -40 88t-6 114t31.5 113.5t79 90.5
t129.5 42q78 4 265.5 5t398 0t252.5 -1z" />
    <glyph glyph-name="afii10085" unicode="&#x443;" horiz-adv-x="1336" 
d="M684 949l38 76t66 130.5t69 129.5t55 91q80 20 165.5 2t144.5 -65.5t80.5 -121t-25.5 -164.5q-73 -142 -310.5 -533.5t-311.5 -479.5q-72 -36 -141 -43.5t-121.5 10.5t-91 55.5t-55.5 86.5t-9 109.5t44 118.5q26 43 44 71t24.5 36t13.5 20.5t18 32.5t-15 64
q-35 61 -112 187.5t-130.5 224.5t-101.5 205q36 79 105 128t140 59.5t135.5 -10t93.5 -69.5q29 -50 54 -99t55 -112t49 -100q2 -4 8.5 -18t9.5 -22h12z" />
    <glyph glyph-name="afii10086" unicode="&#x444;" horiz-adv-x="1897" 
d="M1641 1236q94 -61 149 -165.5t62.5 -215.5t-39.5 -222.5t-146 -184.5q-59 -43 -127 -67.5t-124 -30t-106 -2.5t-79 10t-36 12h-3h-3l-3 -1l-1 -3q0 -205 -14 -340q-24 -26 -59.5 -43t-76.5 -21.5t-84 1t-85 26t-77.5 52.5t-62.5 82t-39 113q-6 27 -11 137q0 1 -2 1t-2 1
q-3 0 -3 -1q-8 -5 -34 -12t-73.5 -10.5t-99.5 1t-117.5 28.5t-123.5 67q-99 73 -149.5 173.5t-49 202t45 200t123.5 172.5q93 87 296.5 133.5t421.5 47.5t423.5 -36.5t308.5 -104.5zM655 735q4 0 9 5.5t6 9.5q0 29 2 87v55q-47 25 -87 19t-66.5 -30.5t-26.5 -53.5
q0 -76 61 -88q26 -4 102 -4zM1335 739q60 12 60 88q0 29 -26.5 53.5t-66 30.5t-85.5 -19v-141q1 -4 6.5 -10t9.5 -6q75 0 102 4z" />
    <glyph glyph-name="afii10087" unicode="&#x445;" horiz-adv-x="1288" 
d="M1039 640q7 -17 94.5 -196t118.5 -261q-3 -49 -31 -95t-71 -79t-98.5 -47t-110 -5.5t-109 52t-93.5 119.5q-29 54 -97 226q-26 -59 -65.5 -146t-64.5 -142.5t-34 -76.5q-96 -20 -166.5 -16t-117 31t-75 63.5t-40 80t-11.5 82.5t10 70q19 63 49 124t70.5 128t55.5 95
q10 24 -2 41q-75 165 -231 493q11 57 56 104t106.5 70t126 27t120.5 -22.5t83 -80.5q64 -120 141 -318q132 269 225 414q66 23 141.5 9t133.5 -59t83 -118.5t-10 -170.5q-26 -68 -95 -193.5t-87 -161.5q-11 -17 -5 -41z" />
    <glyph glyph-name="afii10088" unicode="&#x446;" horiz-adv-x="1613" 
d="M1524 414q23 -28 37 -68t17.5 -85t-11.5 -89.5t-45 -81.5t-88 -62t-137 -29q-322 -19 -841 -3q-200 11 -288 76t-107 219q-23 181 -22 492.5t28 517.5q19 21 72 37t121.5 17.5t134 -12t115 -58.5t58.5 -115q11 -98 11 -734h255v867q19 17 62 31.5t97.5 22.5t113.5 -0.5
t109 -32.5t85 -79t40 -134q18 -260 18 -685q101 -5 165 -12z" />
    <glyph glyph-name="afii10089" unicode="&#x447;" horiz-adv-x="1391" 
d="M1331 1073q20 -125 15 -487t-30 -537q-34 -38 -87 -55t-112 -7.5t-114 41t-98.5 98.5t-60.5 157q-2 2 -2 4q-94 0 -187 2t-148.5 4t-58.5 2q-200 12 -287 79.5t-106 227.5q-24 188 -23.5 339t28.5 366q18 21 71.5 37.5t121.5 18t133.5 -13t115 -61t58.5 -119.5
q11 -99 11 -417q20 0 105.5 1t144.5 1q-2 427 28 539q38 35 93 54.5t116.5 14.5t117 -32.5t98 -94t57.5 -162.5z" />
    <glyph glyph-name="afii10090" unicode="&#x448;" horiz-adv-x="2200" 
d="M2141 1092q14 -122 11 -722q0 -51 -5 -92t-25.5 -94.5t-56 -90t-102.5 -65t-159 -33.5q-177 -11 -514 -12.5t-552 1.5t-270 5q-201 11 -288 76t-106 220q-23 182 -22.5 495.5t27.5 519.5q19 21 72 37t121 17.5t133.5 -12t115 -58.5t58.5 -115q12 -85 12 -739
q21 0 108 0.5t148 0.5v870q16 15 50 28.5t79 21.5t94.5 9t97.5 -13t87.5 -40.5t66 -77.5t31.5 -120q16 -236 18 -687q22 -1 280 1q-10 572 7 882q39 34 95.5 52.5t119.5 14t119.5 -31t97.5 -91t51 -157.5z" />
    <glyph glyph-name="afii10091" unicode="&#x449;" horiz-adv-x="2456" 
d="M2363 412q23 -28 37.5 -68.5t18 -85.5t-11.5 -90.5t-45 -82.5t-88 -62.5t-137 -29.5q-177 -10 -599.5 -10.5t-723.5 3.5t-357 6q-201 11 -288 76t-106 221q-23 182 -22.5 498.5t27.5 523.5q19 21 72 37t121.5 17.5t134 -12t114.5 -59t58 -116.5q12 -85 12 -742
q21 0 108 0.5t148 0.5v875q19 18 62 32.5t97.5 22.5t113 -0.5t108.5 -33t85 -80t40 -135.5q18 -262 18 -691q49 -2 259 -4q9 677 6 870q38 33 94.5 51.5t117.5 15t117 -24.5t97.5 -71.5t52.5 -122.5q12 -82 15.5 -298t-4.5 -425q228 -2 248 -6z" />
    <glyph glyph-name="afii10092" unicode="&#x44a;" horiz-adv-x="1520" 
d="M1285 883q98 -74 145.5 -190.5t41 -232t-54.5 -219.5t-129 -158q-97 -65 -249 -90.5t-294 -14t-261.5 44.5t-164.5 77q-35 132 -27 768q-133 7 -187 22q-34 38 -52.5 93t-14 116.5t31.5 117t92 98t159 57.5q54 7 165 12q72 2 141.5 -18t118.5 -62t53 -97q3 -49 4.5 -94
t1 -69.5t-1 -48.5t-0.5 -28q1 -2 1 -3h4l2 -1h2q8 5 37 12t79.5 10t106.5 -2.5t124 -31t126 -68.5zM834 431q47 -26 86.5 -20t66 31t26.5 54q0 80 -60 90q-24 5 -102 5q-4 0 -9.5 -6t-5.5 -10q-2 -96 -2 -144z" />
    <glyph glyph-name="afii10093" unicode="&#x44b;" horiz-adv-x="1888" 
d="M1821 1095q-15 94 -57.5 158.5t-98 92t-117 32t-116.5 -14t-93 -52.5q-31 -142 -28 -532t23 -498q17 -89 60.5 -154t99 -96t114.5 -40t111.5 8t86.5 54q25 170 30 545.5t-15 496.5zM567 952q7 5 36 12t79 10t106 -2.5t124 -31t127 -68.5q98 -74 145 -190.5t41 -231.5
t-54.5 -218.5t-128.5 -157.5q-97 -65 -249 -91t-294 -14.5t-261 44t-164 76.5q-31 139 -29 623t22 591q68 54 154 68.5t156.5 -5t120.5 -65.5t54 -105q3 -49 4.5 -94.5t1.5 -69.5t-0.5 -48.5t-0.5 -26.5q0 -3 1 -3l6 -2h3zM588 421q46 -26 86 -20.5t66.5 30.5t26.5 54
q0 80 -61 90q-24 5 -101 5q-4 0 -10.5 -6t-6.5 -10v-143z" />
    <glyph glyph-name="afii10094" unicode="&#x44c;" horiz-adv-x="1269" 
d="M569 963q8 5 36.5 11.5t79.5 9.5t107 -2.5t124 -30.5t126 -69q98 -74 145 -190.5t40.5 -231.5t-55 -219t-128.5 -158q-97 -65 -249 -91t-294 -14.5t-261 44.5t-164 76q-30 139 -28 623t22 591q68 54 154 68.5t157 -5t121 -65t54 -104.5q3 -49 4.5 -94t1 -69l-1 -48
t-0.5 -28l1 -3q5 -2 6 -3q2 0 2 2zM591 430q47 -26 86.5 -20t66 31.5t26.5 54.5q0 78 -60 90q-26 4 -102 4q-4 0 -9.5 -6.5t-5.5 -10.5q-2 -96 -2 -143z" />
    <glyph glyph-name="afii10095" unicode="&#x44d;" horiz-adv-x="1406" 
d="M1360 816q43 -260 -64 -480q-118 -238 -409 -336q-95 -32 -199 -39.5t-214.5 12t-220 81.5t-198.5 163q-10 77 8.5 138.5t57 96t87.5 49.5t103 3.5t100 -45.5q77 -58 154 -70t131.5 15t83.5 81q-185 5 -250 22q-37 41 -49.5 98.5t0 111.5t58.5 94t118 45q7 1 121 1
q-31 46 -82 73.5t-112.5 31.5t-132 -23.5t-132.5 -85.5q-55 18 -97 66t-54.5 111t2.5 127t78.5 121t167.5 86q107 30 214 33t205 -18.5t185.5 -69.5t156.5 -117t116.5 -165.5t66.5 -210.5z" />
    <glyph glyph-name="afii10096" unicode="&#x44e;" horiz-adv-x="2210" 
d="M2109 982q105 -275 26 -531q-112 -362 -476 -447q-311 -73 -572 62q-240 124 -311 406q-52 -1 -162 -1q-9 -304 -27 -423q-43 -47 -121.5 -59t-158.5 10.5t-149 95t-90 181.5q-20 107 -22 496t28 528q38 34 98 53t128 14t130 -31.5t109.5 -91.5t62.5 -159q8 -46 14 -225
q88 2 143 2q15 75 47 144q34 77 85.5 139.5t127.5 116t186 84t245 33.5q91 1 173 -14.5t143.5 -42t115 -63t90 -73t66 -77t45.5 -70.5t26 -57zM1632 673q6 112 -46.5 177.5t-130.5 65.5q-80 0 -133.5 -65.5t-46.5 -182.5q8 -107 66 -160t121 -49t113 56.5t57 157.5z" />
    <glyph glyph-name="afii10097" unicode="&#x44f;" horiz-adv-x="1261" 
d="M1188 1257q11 -39 18.5 -134.5t11 -199t5 -249.5t1.5 -240t-0.5 -220.5t-0.5 -143.5q-52 -40 -117 -61t-130.5 -18t-122.5 28t-96.5 83.5t-47.5 143.5q-6 76 -6 113q-34 -110 -91.5 -214t-130.5 -170q-45 -11 -92.5 -10.5t-90 17.5t-79 41.5t-60 61t-32.5 76.5t4 88.5
t48 95.5q46 66 72 110q-3 2 -28 19q-98 74 -145 190.5t-41 231.5t54.5 218.5t128.5 157.5q97 65 249 91t294 14.5t261 -44t164 -76.5zM673 926q-46 26 -86 20.5t-66.5 -30.5t-26.5 -54q0 -81 62 -91q24 -5 102 -5q3 0 9 6t6 10q1 0 0.5 68.5t-0.5 75.5z" />
    <glyph glyph-name="afii10071" unicode="&#x451;" horiz-adv-x="1127" 
d="M34 314q-10 127 -4 507.5t27 541.5q183 16 493 14t503 -17q14 -19 23 -55.5t11 -83t-13 -95t-43.5 -89t-86 -66t-136.5 -25.5h-284v-69q5 0 79.5 1.5t122 1t115 -7.5t108.5 -21q38 -94 33.5 -170.5t-62 -126.5t-155.5 -54q-32 -2 -61 -2t-80 1t-100 1v-85h32h443
q40 -56 50.5 -123t-8.5 -129t-80 -109t-155 -59q-81 -14 -293 -12.5t-281 20.5q-97 22 -143 95.5t-55 215.5zM289 1455q-7 1 -32 4.5t-37 6.5q-133 28 -152 167q-5 45 4 112q18 106 126 136q75 29 149 9q79 -17 123.5 -77t36.5 -139q-8 -63 -18 -93q-22 -59 -75.5 -92.5
t-124.5 -33.5zM867 1455q-6 1 -30 4.5t-37 6.5q-137 29 -153 167q-5 55 6 112q15 107 123 136q75 29 151 9q77 -17 120.5 -77t35.5 -139q0 -46 -18 -93q-23 -60 -74.5 -93t-123.5 -33z" />
    <glyph glyph-name="uni04A2" unicode="&#x4a2;" horiz-adv-x="1631" 
d="M1554 389q23 -29 32 -71t2.5 -89.5t-36 -95t-76 -85.5t-124.5 -61.5t-175 -23.5q-118 0 -208 48.5t-103 142.5q-13 96 -13 294h-262v-429q-20 -18 -63.5 -33t-99.5 -23.5t-116.5 0.5t-111.5 33.5t-87 81t-41 138.5q-10 142 -16 508t4 584q68 56 157.5 72.5t167 -3
t134.5 -74.5t65 -132q4 -42 5 -92t0.5 -83.5t-1.5 -63.5l-1 -31h269q2 53 3 155.5t3.5 170t7.5 101.5q51 40 119.5 56t136.5 3.5t126.5 -45t95 -93.5t36.5 -138v-74v-115v-136.5t-0.5 -140t-0.5 -122.5v-89v-33q104 -5 171 -12z" />
    <glyph glyph-name="uni04A3" unicode="&#x4a3;" horiz-adv-x="1631" 
d="M1554 389q23 -29 32 -71t2.5 -89.5t-36 -95t-76 -85.5t-124.5 -61.5t-175 -23.5q-118 0 -208 48.5t-103 142.5q-13 96 -13 294h-262v-429q-20 -18 -63.5 -33t-99.5 -23.5t-116.5 0.5t-111.5 33.5t-87 81t-41 138.5q-10 142 -16 508t4 584q68 56 157.5 72.5t167 -3
t134.5 -74.5t65 -132q4 -42 5 -92t0.5 -83.5t-1.5 -63.5l-1 -31h269q2 53 3 155.5t3.5 170t7.5 101.5q51 40 119.5 56t136.5 3.5t126.5 -45t95 -93.5t36.5 -138v-74v-115v-136.5t-0.5 -140t-0.5 -122.5v-89v-33q104 -5 171 -12z" />
    <glyph glyph-name="uni04AE" unicode="&#x4ae;" horiz-adv-x="1295" 
d="M684 841q5 11 52.5 119t100 222.5t81.5 170.5q73 20 147.5 3.5t126 -62.5t69.5 -117.5t-21 -163.5q-46 -106 -144.5 -276.5t-157.5 -298.5q-20 -36 -20 -75q0 -53 -1 -129.5t-2.5 -135.5t-1.5 -63q-15 -20 -56.5 -35t-95.5 -21.5t-113 2.5t-109 32.5t-84 74t-37 121.5
v53.5t0.5 68t0.5 43.5q-1 27 -15 53q-3 7 -34 65t-39 73.5t-37 72t-41 80t-39 76.5t-41 82.5t-37 77t-38.5 81t-33 73t-31.5 74.5q32 78 97.5 125.5t132.5 56t128 -14t87 -71.5q35 -65 107 -230t72 -166q2 -7 7.5 -20t8.5 -20q8 0 11 -1z" />
    <glyph glyph-name="uni04AF" unicode="&#x4af;" horiz-adv-x="1295" 
d="M684 841q5 11 52.5 119t100 222.5t81.5 170.5q73 20 147.5 3.5t126 -62.5t69.5 -117.5t-21 -163.5q-46 -106 -144.5 -276.5t-157.5 -298.5q-20 -36 -20 -75q0 -53 -1 -129.5t-2.5 -135.5t-1.5 -63q-15 -20 -56.5 -35t-95.5 -21.5t-113 2.5t-109 32.5t-84 74t-37 121.5
v53.5t0.5 68t0.5 43.5q-1 27 -15 53q-3 7 -34 65t-39 73.5t-37 72t-41 80t-39 76.5t-41 82.5t-37 77t-38.5 81t-33 73t-31.5 74.5q32 78 97.5 125.5t132.5 56t128 -14t87 -71.5q35 -65 107 -230t72 -166q2 -7 7.5 -20t8.5 -20q8 0 11 -1z" />
    <glyph glyph-name="uni04E8" unicode="&#x4e8;" horiz-adv-x="1467" 
d="M1375 968q105 -273 26 -526q-109 -355 -470 -441q-309 -73 -566 60q-248 129 -312 418q-31 130 -22.5 270.5t56.5 243.5q34 78 83.5 143t124.5 124t185 93.5t244 35.5q95 1 179 -17t144.5 -46t113 -68t86.5 -77.5t62 -81.5t41.5 -73t24.5 -58zM729 904q-46 0 -86 -24
t-64 -69q37 -2 152 -28t162 -16q-19 64 -64 100.5t-100 36.5zM736 451q100 8 145 107q-46 -7 -101.5 1.5t-96.5 17t-116 -1.5q24 -65 72.5 -96t96.5 -28z" />
    <glyph glyph-name="uni04E9" unicode="&#x4e9;" horiz-adv-x="1473" 
d="M1375 968q105 -273 26 -526q-109 -355 -470 -441q-309 -73 -566 60q-248 129 -312 418q-31 130 -22.5 270.5t56.5 243.5q34 78 83.5 143t124.5 124t185 93.5t244 35.5q95 1 179 -17t144.5 -46t113 -68t86.5 -77.5t62 -81.5t41.5 -73t24.5 -58zM729 904q-46 0 -86 -24
t-64 -69q37 -2 152 -28t162 -16q-19 64 -64 100.5t-100 36.5zM736 451q100 8 145 107q-46 -7 -101.5 1.5t-96.5 17t-116 -1.5q24 -65 72.5 -96t96.5 -28z" />
    <glyph glyph-name="endash" unicode="&#x2013;" horiz-adv-x="1542" 
d="M329 856q124 20 536.5 14.5t587.5 -29.5q38 -35 55 -89.5t7.5 -115t-41.5 -117.5t-99 -102t-157 -62q-63 -13 -298 -20t-484.5 -1.5t-327.5 26.5q-35 40 -54.5 96.5t-14.5 119.5t32.5 120t94.5 101t163 59z" />
    <glyph glyph-name="emdash" unicode="&#x2014;" horiz-adv-x="1552" 
d="M329 856q124 20 536.5 14.5t587.5 -29.5q38 -35 55 -89.5t7.5 -115t-41.5 -117.5t-99 -102t-157 -62q-63 -13 -298 -20t-484.5 -1.5t-327.5 26.5q-35 40 -54.5 96.5t-14.5 119.5t32.5 120t94.5 101t163 59z" />
    <glyph glyph-name="quoteleft" unicode="&#x2018;" horiz-adv-x="574" 
d="M367 1121q65 -20 108 -64t58 -97t12.5 -107t-22.5 -99q-65 -146 -240 -151q-123 -3 -191 77t-70 194q-2 121 59.5 248.5t142.5 227.5q32 41 72 63t75 23.5t65 -8.5t48 -31.5t18 -47.5q-24 -45 -70.5 -119.5t-64.5 -108.5z" />
    <glyph glyph-name="quoteright" unicode="&#x2019;" horiz-adv-x="591" 
d="M210 920q-65 20 -108 64t-58 96.5t-12 106.5t23 99q68 146 240 150q84 2 144 -37t87.5 -99t29.5 -133q2 -121 -59.5 -249.5t-141.5 -228.5q-32 -40 -72 -62t-75.5 -23.5t-66 8.5t-48.5 31.5t-18 47.5q23 45 70 119t65 110z" />
    <glyph glyph-name="quotesinglbase" unicode="&#x201a;" horiz-adv-x="584" 
d="M202 -11q-65 20 -108 64t-58.5 96.5t-12.5 107t23 99.5q65 146 241 151q122 2 190 -78t70 -193q2 -121 -59.5 -249.5t-142.5 -226.5q-32 -41 -72 -63t-75 -23.5t-65 8.5t-48 31.5t-18 47.5q23 45 70 119t65 109z" />
    <glyph glyph-name="quotedblleft" unicode="&#x201c;" horiz-adv-x="1196" 
d="M385 1121q65 -20 108 -64t57.5 -97t11.5 -107t-23 -99q-65 -146 -239 -151q-123 -3 -190.5 77t-69.5 194q-2 83 32 179.5t76 166t92 130.5q32 41 72 63t75.5 23.5t66 -8.5t48.5 -31.5t18 -47.5q-24 -45 -70.5 -119.5t-64.5 -108.5zM978 1121q65 -20 108 -64t58 -97
t12 -107t-23 -99q-65 -146 -239 -151q-123 -3 -191 77t-71 194q-2 121 59.5 248.5t142.5 227.5q32 41 72 63t75.5 23.5t66 -8.5t48 -31.5t17.5 -47.5q-25 -48 -72.5 -124.5t-62.5 -103.5z" />
    <glyph glyph-name="quotedblright" unicode="&#x201d;" horiz-adv-x="1189" 
d="M209 920q-65 20 -108 64t-58.5 96.5t-12.5 106.5t23 99q65 146 241 150q122 3 190 -76.5t70 -192.5q2 -121 -59.5 -249.5t-142.5 -228.5q-32 -40 -71.5 -62t-75 -23.5t-65.5 8.5t-48 31.5t-18 47.5q23 46 70 120t65 109zM796 920q-65 20 -108 64t-58 96.5t-12.5 106.5
t22.5 99q65 146 241 150q123 3 190.5 -76t69.5 -193q2 -121 -59 -249.5t-141 -228.5q-32 -40 -72 -62t-75.5 -23.5t-66 8.5t-48.5 31.5t-18 47.5q23 45 70 119t65 110z" />
    <glyph glyph-name="quotedblbase" unicode="&#x201e;" horiz-adv-x="1170" 
d="M212 -27q-65 20 -108 63.5t-58 96.5t-12 107t23 99q65 145 239 150q123 3 191 -77t71 -194q2 -121 -59.5 -249t-142.5 -228q-32 -40 -72 -61.5t-75.5 -23t-66 8.5t-48.5 31t-18 47q23 44 70 119t66 111zM800 -27q-65 20 -108 63.5t-58.5 96.5t-12.5 107t23 99
q65 145 239 150q123 3 191.5 -77t71.5 -194q2 -121 -60 -249t-143 -228q-32 -40 -72 -61.5t-75.5 -23t-65.5 8.5t-47.5 31t-17.5 47q24 47 71 122.5t64 107.5z" />
    <glyph glyph-name="dagger" unicode="&#x2020;" horiz-adv-x="1111" 
d="M1014 1084q42 -67 50 -134t-18 -124t-97.5 -98.5t-181.5 -53.5q-6 -527 -20 -648q-55 -33 -109 -45t-104.5 0t-91 47.5t-68 102t-34.5 158.5q-8 93 -4 387q-107 7 -253 26q-67 123 -50 211t89.5 136t175.5 49q6 0 25 0.5t31 0.5q7 128 23 243q124 65 211.5 46t135 -91
t47.5 -176v-25q155 -5 243 -12z" />
    <glyph glyph-name="bullet" unicode="&#x2022;" horiz-adv-x="793" 
d="M404 317q-77 10 -112 18q-107 23 -170 92t-73 176q-11 93 6 183q28 169 200 224q126 41 245 13q126 -28 197.5 -126t60.5 -229q-7 -84 -32 -149q-38 -96 -121.5 -148t-200.5 -54z" />
    <glyph glyph-name="ellipsis" unicode="&#x2026;" horiz-adv-x="1830" 
d="M304 -41q-68 10 -83 14q-164 36 -181 200q-8 70 4 137q21 126 150 167q92 30 181 9q95 -22 148 -95t45 -171q-5 -67 -23 -111q-28 -71 -91 -109.5t-150 -40.5zM919 -41q-66 9 -85 14q-164 36 -181 200q-6 71 4 137q22 126 150 167q93 30 183 9q95 -22 147.5 -95
t44.5 -171q-8 -70 -24 -111q-27 -71 -89.5 -109.5t-149.5 -40.5zM1532 -41q-68 10 -83 14q-80 17 -127.5 68.5t-54.5 131.5q-8 70 4 137q21 126 150 167q92 30 182 9q95 -22 147.5 -95t44.5 -171q-5 -67 -23 -111q-28 -71 -90.5 -109.5t-149.5 -40.5z" />
    <glyph glyph-name="guilsinglleft" unicode="&#x2039;" horiz-adv-x="1137" 
 />
    <glyph glyph-name="Euro" unicode="&#x20ac;" horiz-adv-x="1504" 
d="M1266 545q56 -11 102 -53t66.5 -103t14 -127.5t-61 -133.5t-151.5 -114q-68 -32 -165.5 -43.5t-191 -4t-174.5 28.5q-348 90 -443 436q-10 38 -14 54q-138 0 -161 2q-34 45 -32.5 86.5t31 70.5t70.5 30q14 1 72 3q0 3 -0.5 21.5t-0.5 22.5q-81 -2 -137 4q-35 46 -35 89.5
t29 75.5t70 33q20 1 111 3v1q83 252 349 384q115 57 238.5 73t264 -16.5t281.5 -115.5q17 -66 11 -121t-27 -99t-55.5 -73.5t-74.5 -44t-84 -11.5t-84 25q-37 20 -82 27t-94.5 -2.5t-88.5 -36.5q95 0 133 -5q35 -46 35 -89t-29 -75t-71 -34q-6 0 -27.5 -0.5t-58.5 -1.5
t-72 -1q0 -3 0.5 -20.5t0.5 -21.5v-3q177 0 223 -6q52 -65 28 -116t-92 -54q-28 0 -108 -2q38 -47 108.5 -64t134.5 -7q57 11 106.5 37t92 58.5t43.5 33.5z" />
    <glyph glyph-name="approxequal" unicode="&#x2248;" horiz-adv-x="1114" 
d="M183 760q-61 27 -96.5 78t-39.5 107.5t22 114t80 96.5q48 35 115 44.5t133.5 -1.5t142.5 -27t142 -32t132 -17.5t112 16.5q55 -13 86.5 -63t32 -107.5t-32 -110.5t-92.5 -69q-61 -17 -121.5 -18t-107 9t-103.5 19.5t-111.5 14.5t-131.5 -8t-162 -46zM177 760
q-61 27 -96.5 78t-39.5 107.5t22 114t80 96.5q48 35 115 44.5t133.5 -1.5t142.5 -27t142 -32t132 -17.5t112 16.5q55 -13 86.5 -63t32.5 -107.5t-31.5 -110.5t-92.5 -69q-86 -23 -143.5 -18t-126 16.5t-128 22.5t-149.5 0t-191 -50zM183 198q-61 27 -96.5 78t-39.5 107.5
t22 114t80 96.5q48 35 115 44.5t133.5 -1.5t142.5 -27t142 -32.5t132 -18t112 16.5q55 -13 86.5 -63t32 -107t-32 -110t-92.5 -69q-61 -17 -121.5 -18t-107 9t-103.5 19.5t-111.5 14.5t-131.5 -8t-162 -46zM177 198q-61 27 -96.5 78t-39.5 107.5t22 114t80 96.5
q48 35 115 44.5t133.5 -1.5t142.5 -27t142 -32.5t132 -18t112 16.5q44 -10 74.5 -45t38.5 -80t0.5 -91t-39 -83t-79.5 -50q-86 -23 -143.5 -18t-126 16.5t-128 22.5t-149.5 0t-191 -50z" />
    <glyph glyph-name="aring.001" 
d="M20 412q39 199 135 492t164 426q47 15 93 26.5t110 20t122 7.5t123 -16.5t118.5 -46.5t102.5 -88t81 -135q59 -143 145 -442.5t123 -505.5q-4 -31 -30.5 -63.5t-67 -56t-90 -39t-103 -11.5t-101.5 25t-89 72.5t-63 128.5q-45 2 -134 1.5t-135 0.5q-33 -83 -64 -197
q-169 -58 -276.5 -19.5t-150.5 151.5t-13 269zM578 598h167q-15 62 -42 174.5t-37 153.5q-8 -2 -12 -2q-13 -58 -38.5 -166.5t-37.5 -159.5zM679 1506q-216 11 -268 180q-32 93 -15 209q11 71 44.5 121.5t80 73t102 32.5t110.5 0q107 -14 170 -86t66 -181q0 -97 -20 -162
q-27 -93 -99 -142t-171 -45zM590 1831q1 -57 23.5 -92.5t65.5 -35.5q49 0 69.5 32t20.5 99q0 24 -6.5 47t-26.5 43t-51 20q-44 0 -69.5 -31t-25.5 -82z" />
    <glyph glyph-name="Ccedilla.001" 
d="M1125 560q48 -9 89 -40.5t67 -76t31.5 -100.5t-11.5 -110.5t-70 -109t-137 -94.5q-121 -56 -305 -51q-72 -6 -116 -46t-23 -99q13 -36 58 -44t95.5 15t75.5 68q31 1 58 -23.5t40 -58t8 -71.5t-31 -62q-64 -57 -149 -77.5t-161 -4.5t-133.5 69t-69.5 133q-24 155 72 243
q-320 97 -417 436q-76 258 2 487q43 130 142 231t217 154q70 33 160.5 50t196 17t223 -31.5t222.5 -93.5q18 -66 10 -120.5t-32 -97t-63.5 -71.5t-84 -43.5t-94 -13.5t-93.5 19q-116 31 -215 -19q-69 -35 -96 -110t-15 -163q16 -114 104 -165t201 -35q26 3 56.5 13.5
t60.5 25t52 26.5t46.5 27t28.5 17z" />
    </font>
</defs>
</svg>
