<?xml version="1.0" standalone="no"?>
<!DOCTYPE svg PUBLIC "-//W3C//DTD SVG 1.1//EN" "http://www.w3.org/Graphics/SVG/1.1/DTD/svg11.dtd" >
<svg xmlns="http://www.w3.org/2000/svg" xmlns:xlink="http://www.w3.org/1999/xlink" version="1.1">
<metadata>
Created by FontForge 20170924 at Fri Jan  1 00:00:00 1904
 By www-data
Copyright (C) 1993; Type Market Ltd. Moscow, 119136, Box 20; phone:(095)1427712; Created by A.Kustov
</metadata>
<defs>
<font id="MistralNormal" horiz-adv-x="1286" >
  <font-face 
    font-family="Mistral"
    font-weight="400"
    font-stretch="normal"
    units-per-em="4096"
    panose-1="2 11 114 0 0 0 0 0 0 0"
    ascent="3276"
    descent="-820"
    x-height="942"
    cap-height="2167"
    bbox="-98 -1081 3760 2740"
    underline-thickness="50"
    underline-position="-125"
    unicode-range="U+0020-2122"
  />
<missing-glyph horiz-adv-x="3072" 
d="M512 0v2560h2048v-2560h-2048zM2494 66v2428h-1916v-2428h1916z" />
    <glyph glyph-name=".notdef" horiz-adv-x="3072" 
d="M512 0v2560h2048v-2560h-2048zM2494 66v2428h-1916v-2428h1916z" />
    <glyph glyph-name=".null" horiz-adv-x="0" 
 />
    <glyph glyph-name="nonmarkingreturn" horiz-adv-x="0" 
 />
    <glyph glyph-name="space" unicode=" " horiz-adv-x="1610" 
 />
    <glyph glyph-name="exclam" unicode="!" horiz-adv-x="999" 
d="M553 537q0 64 18 160.5t39 133.5q0 50 13 131t24 103q30 67 45.5 210t28.5 261q34 69 57 344q2 41 25.5 147.5t23.5 151.5q0 70 -41 70q-100 0 -225 -135q-76 -19 -102.5 -70.5t-32.5 -204.5q0 -69 -18 -149t-19 -93q0 -45 53 -45q13 -29 13 -77q0 -67 -17 -140t-28 -86
q0 -25 -16.5 -179.5t-16.5 -246.5q-37 -68 -37 -172q0 -64 12 -90q-2 -44 -9 -98t-7 -70q0 -15 8 -41q53 0 120.5 66t88.5 119zM274 -86q20 0 109 10t104 10q29 0 40.5 28t16.5 78.5t9 61.5q0 77 -41 100t-135 23q-95 -63 -144 -151q-8 -8 -8 -25q0 -32 20 -82t29 -53z" />
    <glyph glyph-name="quotedbl" unicode="&#x22;" horiz-adv-x="897" 
d="M152 1946q-25 0 -25 -140q0 -17 -94 -352q0 -47 10 -58.5t39 -11.5q44 0 87.5 60.5t74 140.5t30.5 119q13 4 37 56t50 121.5t57 150.5q16 56 16 61q0 26 -33 37q-20 9 -51 23t-39 14q-112 -43 -159 -119q-13 -17 -13 -45q0 -19 5 -34.5t8 -22.5zM602 1946q-24 0 -24 -140
q0 -20 -17 -81.5t-45.5 -153t-36.5 -117.5q0 -70 41 -70q60 0 130.5 127t70.5 193q16 4 38.5 56t50.5 127t54 145q17 60 17 65q0 22 -33 33q-17 9 -45 23t-41 14q-68 -24 -99.5 -46.5t-60.5 -72.5q-12 -18 -12 -45q0 -19 4.5 -34.5t7.5 -22.5z" />
    <glyph glyph-name="dollar" unicode="$" horiz-adv-x="1360" 
d="M561 -49q0 -30 -6 -68t-6 -47q0 -37 82 -37q12 25 16 100t17 101q137 77 233 160q187 179 201 184q12 9 46 23.5t48 42.5q0 42 -9.5 62.5t-47.5 31.5q-4 106 -42 189t-87.5 141t-128 130t-82.5 76q0 98 26.5 347.5t26.5 275.5q85 13 222 82.5t187 134.5q37 55 37 127
q0 82 -53 135q-18 12 -45 12q-43 0 -144.5 -43t-154.5 -55q2 36 11.5 102t9.5 95q0 22 -13 37q1 0 -57 8q-53 0 -53 -17q-11 -46 -33 -299q-243 -158 -286 -191t-107 -120q-136 -157 -136 -319q0 -123 119 -312q37 -46 149.5 -147t129.5 -131q0 -112 -14.5 -261t-14.5 -214
q-112 -47 -212.5 -89.5t-177.5 -95t-77 -110.5q34 -111 184 -111q142 0 242 70zM864 446q-4 -43 -25.5 -64.5t-57 -32t-76.5 -21.5q0 39 20 172t20 155q9 -8 50 -49q4 -8 22.5 -43t32.5 -66t14 -51zM729 1638q-7 -23 -24 -216.5t-25 -229.5q-49 49 -84 130t-35 157
q0 159 168 159z" />
    <glyph glyph-name="percent" unicode="%" horiz-adv-x="1999" 
d="M135 1016q24 -18 43 -55.5t36.5 -55.5t64.5 -24q0 -12 47 -33t96 -21q52 0 82 29q51 0 92 53t105 161t98 130q4 24 33.5 146t51 236.5t21.5 195.5q8 40 8 69q0 117 -69.5 218.5t-163.5 101.5q-73 0 -135 -62q0 49 -45 49q-47 0 -101.5 -34.5t-54.5 -71.5
q-57 -112 -126 -320t-91 -327v-139q0 -45 -8 -62q16 -49 16 -184zM578 -82q46 141 117 291.5t159.5 310t176.5 318t128 252.5q219 347 347 597t157 504q25 25 25 115q-75 -12 -144 -65q-65 0 -133 -107t-68 -160q-20 -58 -37.5 -98.5t-23.5 -60.5l-299 -582
q-10 -21 -127.5 -241.5t-173 -343.5t-59.5 -193q-254 -339 -254 -553q0 -82 41 -127q8 -17 32 -17q83 0 136 160zM1696 86q15 40 58 105.5t66.5 119.5t34.5 144q70 155 70 405q0 278 -123 357q-52 28 -98 28q-100 -6 -135 -78q0 54 -66 54q-44 0 -84 -29.5t-51 -81.5
q-77 -115 -105 -226.5t-59.5 -316.5t-68.5 -309q23 -26 27 -99.5t14 -92.5q57 -103 108.5 -128.5t173.5 -39.5q155 29 238 188zM680 1393q-4 -46 -30 -98t-61.5 -103.5t-35.5 -56.5q-8 -4 -57 -29q-23 -29 -50 -29q-38 0 -74 55.5t-36 112.5q0 40 24 66q-8 48 -8 78
q0 47 6 93t19 124.5t16 105.5q19 82 42 106.5t69 38.5t74 39q44 0 62 -11t40 -62q18 -11 29.5 -75.5t11.5 -125.5q-14 -174 -41 -229zM1737 578q-12 -104 -62 -205.5t-113 -167t-112 -70.5q-32 15 -57 65t-25 107q0 45 16 78q-12 55 -12 127q0 242 86 369q0 19 67 48t122 29
q61 -11 75.5 -106t14.5 -274z" />
    <glyph glyph-name="ampersand" unicode="&#x26;" horiz-adv-x="1786" 
d="M647 -94q60 0 127.5 34.5t73.5 75.5q24 0 46.5 29t50.5 82.5t48.5 79.5t46.5 26q33 -4 103 -4q377 0 508 209q33 26 56 44t38.5 45t15.5 71q0 12 -16 12q-22 0 -114.5 -47.5t-127.5 -58.5q-67 0 -150.5 -8.5t-111.5 -8.5q-119 0 -119 91q0 11 8 53q0 79 4.5 175t4.5 152
q46 74 69 134t74 182q18 50 152.5 280t134.5 293q0 41 -37 41q-27 0 -66 -16q-47 0 -76 -17t-55 -52.5t-53 -73.5q-40 -29 -130.5 -158t-119.5 -129q-8 0 -16 8q-38 38 -72 124t-59.5 145.5t-65.5 78.5q-33 31 -88.5 88t-102 82t-132.5 47q-40 21 -86 21q-111 0 -201 -102.5
t-90 -295.5q0 -61 4 -94q-21 -21 -21 -74q0 -64 58 -303q6 -101 52.5 -202.5t117 -191.5t157 -179t160.5 -164q-3 -50 -28 -161t-25 -109q0 -24 -16.5 -85t-16.5 -91q0 -78 86 -78zM897 1040q0 -11 -28.5 -64t-28.5 -87q-47 -74 -95 -160q-54 0 -156.5 114.5t-181.5 271.5
t-79 286q0 29 -18.5 92.5t-18.5 112.5q0 83 37 172q9 45 43.5 75.5t83.5 30.5q120 0 233 -180q22 -21 85 -119t99 -135q0 -115 33 -184q-16 -40 -51 -95t-51.5 -96.5t-16.5 -107.5q9 0 44.5 36.5t66.5 36.5z" />
    <glyph glyph-name="quotesingle" unicode="'" horiz-adv-x="713" 
d="M528 1479q27 103 109.5 278t107.5 258q21 26 21 53q0 61 -123 91q-138 -47 -156 -70q0 -10 -4 -64t-4 -79q-7 -59 -16.5 -129.5t-33.5 -169t-69 -213.5q0 -58 21 -58q37 0 90.5 35t56.5 68z" />
    <glyph glyph-name="parenleft" unicode="(" horiz-adv-x="999" 
d="M688 -184q56 -21 103 -21q73 0 73 70q0 47 -29 120.5t-82 180.5t-65 137q-70 176 -70 385q0 175 42.5 361t101.5 349.5t139 362.5q15 27 63 158.5t68 177.5q12 37 12 62q0 36 -28 36q-52 0 -145.5 -96.5t-161.5 -251.5q-332 -614 -332 -1171q0 -177 37 -340
q26 -120 102.5 -301t171.5 -219z" />
    <glyph glyph-name="parenright" unicode=")" horiz-adv-x="999" 
d="M508 2159q-67 24 -107 24q-73 0 -73 -74q0 -49 30 -124t86.5 -185.5t63.5 -128.5q65 -153 65 -368q0 -252 -75.5 -497t-214.5 -589q-20 -47 -64.5 -179.5t-54.5 -156.5q-17 -40 -17 -69q0 -33 29 -33q56 0 148.5 94.5t158.5 245.5q328 634 328 1167q0 188 -41 344
q-27 127 -99 308.5t-163 220.5z" />
    <glyph glyph-name="asterisk" unicode="*" 
d="M901 1143q0 6 -13.5 52.5t-19.5 90.5q-8 49 -8 123t-8 102q16 -6 136.5 -74.5t178.5 -68.5q68 0 103 74q0 20 -17.5 30.5t-64 25t-62.5 22.5q-21 9 -98.5 44.5t-109.5 45.5q13 25 143 116t160 121q41 25 41 66q0 37 -30 69.5t-61 32.5q-33 0 -45 -49q-245 -235 -258 -246
q0 64 16.5 170t16.5 150q0 110 -94 110q-7 -6 -44.5 -14.5t-37.5 -30.5q8 -106 8 -376q-24 12 -115 88t-114 88q-16 48 -74 94q-16 16 -33 16q-23 0 -40 -35t-17 -79q0 -65 41 -95q77 -38 178.5 -105.5t124.5 -90.5q-235 -152 -311 -168q-29 -7 -29 -41q0 -66 127 -66
q58 15 135 74.5t127 85.5q0 -10 -4 -84t-4 -121q0 -172 90 -172q37 0 86 25z" />
    <glyph glyph-name="comma" unicode="," horiz-adv-x="639" 
d="M209 209q-4 0 -12.5 -53.5t-12.5 -89.5q-6 -33 -22.5 -107t-46.5 -168q-25 -63 -25 -102q0 -25 33 -25q26 0 77.5 35t57.5 68q0 39 35 119t35 98q14 0 27 28t26 69.5t20 53.5q86 182 86 250q-20 20 -53 41q-48 8 -61 8q-55 0 -89 -29t-75 -94v-102z" />
    <glyph glyph-name="hyphen" unicode="-" horiz-adv-x="930" 
d="M618 578q43 -17 87 -17q63 0 94.5 42.5t31.5 101.5q0 94 -61 94h-553q-18 0 -59.5 -59.5t-51.5 -59.5q-32 -32 -32 -78q0 -41 57 -41q45 0 135 -4t135 -4q130 0 217 25z" />
    <glyph glyph-name="period" unicode="." horiz-adv-x="639" 
d="M336 0q74 12 143 57q27 0 81 49t54 70q0 47 -43 92.5t-133 50.5q-16 17 -37 17q-29 0 -65 -43t-41 -43q-86 -79 -86 -131q0 -25 17.5 -44.5t42.5 -35t67 -39.5z" />
    <glyph glyph-name="slash" unicode="/" 
d="M459 -25q0 266 246 586q64 105 234 365.5t288.5 457t199 374t80.5 290.5q45 67 45 94q0 25 -36 25q-28 0 -117 -22.5t-133 -22.5q-58 -99 -91.5 -182.5t-90 -237.5t-89.5 -223q-68 -121 -249.5 -424.5t-262.5 -441t-168 -294.5q-13 -13 -49.5 -135t-36.5 -200
q0 -103 62 -103q56 0 168 94z" />
    <glyph glyph-name="zero" unicode="0" horiz-adv-x="1360" 
d="M328 -86q138 -66 213 -66q29 0 82 17q142 31 290 276.5t246 557.5t98 509q0 51 10.5 170t10.5 195q0 356 -246 508q-106 69 -192 69q-141 0 -361 -237q21 60 21 90q0 78 -123 78q-89 -145 -155 -350t-106.5 -397.5t-74.5 -391.5q0 -98 12.5 -310t12.5 -329
q0 -134 92.5 -261.5t169.5 -127.5zM889 528q-216 -376 -352 -376q-154 0 -209 495q-17 161 -17 316q0 172 19 287t45 205t26 114q51 96 142 146t194 50q144 0 244 -104.5t100 -308.5q0 -46 -35.5 -249t-80 -377.5t-76.5 -197.5z" />
    <glyph glyph-name="one" unicode="1" horiz-adv-x="1135" 
d="M397 -135q98 11 171 126.5t126.5 272.5t96.5 289q34 167 111.5 470t122 504t77.5 455q0 51 -44.5 114t-107.5 63q-68 0 -135 -78q-94 -56 -149.5 -111t-122 -139t-121.5 -143q-410 -410 -410 -517q0 -36 74 -36q95 51 168 147q49 68 239 218.5t236 150.5q12 0 12 -13
q0 -163 -28.5 -348.5t-69.5 -353t-106 -399t-91 -328.5q-12 -36 -67 -160.5t-55 -163.5q0 -32 28 -32q15 0 45 12z" />
    <glyph glyph-name="two" unicode="2" horiz-adv-x="1307" 
d="M217 -94q135 -12 266 -12q286 0 557 81q91 0 177 70.5t86 126.5q0 45 -62 45q-79 0 -283.5 -22.5t-310.5 -22.5q-164 0 -254 45q21 69 75.5 153t151 212t109.5 147q196 254 329.5 492t133.5 483q-36 139 -119 215.5t-193 112t-274 65.5q-229 0 -377.5 -70.5
t-179.5 -203.5q-12 -43 -12 -99q0 -106 37.5 -200t81.5 -94q38 0 61 81q0 67 19 104.5t100 88.5q73 37 213 37q151 0 268.5 -51.5t128.5 -153.5q0 -183 -241 -520q-77 -96 -204.5 -246.5t-200.5 -240.5t-157 -210q-33 -38 -73.5 -113t-40.5 -140q0 -134 188 -160z" />
    <glyph glyph-name="three" unicode="3" horiz-adv-x="1262" 
d="M127 -160q154 0 290 52.5t270.5 136.5t287.5 180q250 134 250 414q-33 128 -118 186.5t-237.5 122.5t-197.5 117q68 106 135.5 213t97.5 122q14 43 153 248.5t175 272.5q0 132 -90 197t-254 65q-200 0 -385 -25t-238 -78q-41 -41 -90 -139t-49 -164q0 -77 66 -82l127 44
t217 63q98 16 159 16q185 0 185 -49q-36 -89 -189.5 -310.5t-265.5 -352.5q-70 -83 -70 -148q0 -77 81 -127t246 -106.5t222 -85.5q29 -12 29 -33q0 -78 -275.5 -245.5t-506.5 -278.5q-2 -2 -52.5 -41t-81 -71.5t-30.5 -59.5q0 -54 139 -54z" />
    <glyph glyph-name="four" unicode="4" horiz-adv-x="1221" 
d="M684 102q0 -23 -12.5 -94.5t-12.5 -113.5q0 -89 50 -127q113 56 143 143q31 10 45 130t31 274t47 202q9 32 38 48t115.5 51t141.5 69q86 33 86 123q0 70 -37 70q-47 -18 -87 -33t-86.5 -26t-101.5 -11l177 782q32 11 32 37q0 61 -135 107q-123 0 -143 -45
q-15 -32 -80 -377t-88 -480q-29 -28 -180 -28q-43 0 -125 2t-113 2q-110 0 -110 151q0 163 95.5 436.5t190.5 481.5q168 363 168 442q29 46 29 78q0 41 -49 41q-72 0 -190 -65.5t-158 -126.5q-95 -244 -95 -303q0 -17 25 -17q-12 -59 -71.5 -292.5t-76.5 -313.5
q-73 -290 -73 -442q0 -381 372 -381l213 20q70 0 70 -127q0 -81 -17 -163.5t-28 -123.5z" />
    <glyph glyph-name="five" unicode="5" horiz-adv-x="1253" 
d="M53 16q100 -110 316 -110q36 0 111 4t110 4q229 32 436 153t207 302q0 136 -131 278q-65 74 -290.5 220t-336 231.5t-135.5 183.5q0 141 51 236t150 194q71 25 302 36.5t283 37.5q74 33 127.5 115t73.5 180q-81 20 -221 20q-45 0 -139 -2t-140 -2q-53 0 -143 8
q-45 -24 -238 -24q-76 0 -166.5 -170t-152.5 -367q-33 -108 -33 -192q0 -118 51.5 -218.5t140 -186.5t208.5 -171.5t215 -152.5q120 -104 158 -142.5t38 -74.5q0 -39 -54 -74.5t-192 -98.5q-78 -36 -150.5 -50.5t-223 -36.5t-203.5 -37.5t-53 -47.5q0 -19 24 -45z" />
    <glyph glyph-name="six" unicode="6" horiz-adv-x="1196" 
d="M397 0q190 -94 361 -94q198 0 319 143q78 105 78 246q0 178 -127.5 368.5t-306.5 344t-324 233.5q114 170 234 321.5t279 339t261 314.5q86 17 86 49q0 45 -127 45q-122 0 -208 -69q-265 -193 -472 -426.5t-332.5 -514t-125.5 -579.5q0 -92 12 -184q60 -193 144.5 -312.5
t248.5 -224.5zM852 418q29 -77 29 -127q0 -111 -156 -111q-14 0 -40.5 2.5t-53.5 5.5l-45 5q-196 41 -286.5 169t-90.5 306q0 269 164 499q24 0 47 -65t47 -78q33 -22 120 -129.5t165.5 -240t99.5 -236.5z" />
    <glyph glyph-name="seven" unicode="7" 
d="M578 -176q39 0 69 42.5t49 51.5q24 0 45 50t44 135.5t30 105.5q32 126 111.5 341.5t165.5 451t116 350.5q29 125 29 204q0 185 -156 357q-86 78 -266.5 166t-380 147.5t-340.5 59.5q-22 0 -78 -9q0 -65 21 -130.5t58.5 -146.5t39.5 -87q140 0 336.5 -38.5t368.5 -109.5
q143 -71 143 -135q0 -5 -25 -61q-234 -726 -360 -1282q-78 -282 -78 -369q0 -94 58 -94z" />
    <glyph glyph-name="eight" unicode="8" horiz-adv-x="1151" 
d="M20 16q53 -192 271 -192q76 0 147 16q189 43 326 150.5t154 288.5q0 74 -24 173t-71 146q-98 50 -98 111q0 33 25 82q359 356 442 679q4 33 4 95q0 152 -54 283.5t-159.5 222.5t-257.5 129q-25 -25 -168 -25q-133 -36 -302 -168t-169 -246q0 -32 8 -49q72 0 126.5 18
t201.5 71.5t209 62.5q122 16 160 16q188 0 188 -156q0 -44 -12 -106q-72 -163 -216.5 -399.5t-242.5 -305.5q-41 11 -116.5 94t-133 194.5t-57.5 199.5q0 39 12 69q37 98 37 127t-21 29q-48 0 -140.5 -126t-92.5 -218q0 -195 56 -270.5t166 -136.5t147 -130
q-9 -26 -78 -104.5t-128.5 -159.5t-113.5 -202q-53 -109 -53 -209q0 -54 28 -54zM655 160q-28 -86 -127 -131t-217 -45q-61 24 -61 86q0 129 332 458q23 0 75 -101t52 -177q0 -72 -54 -90z" />
    <glyph glyph-name="nine" unicode="9" 
d="M647 -233q85 43 165 190t151.5 351.5t129.5 404.5t115 397q0 10 49.5 205t49.5 278q16 39 16 66q0 53 -70 53q-40 0 -98 -16q-75 -119 -360 -344q-143 -120 -292.5 -216t-219.5 -96q-9 20 -9 29q0 52 80 166t80 117q404 454 647 610q185 0 185 102q0 12 -9 41
q-11 33 -45.5 53.5t-91.5 41.5t-63 24q-19 12 -37 12q-50 0 -110 -38.5t-165 -116.5q-118 -119 -311 -312q-43 -18 -201 -249q-105 -193 -131 -205.5t-69 -224.5q0 -230 213 -230q118 0 274.5 80.5t319.5 243.5q31 43 44 54.5t30.5 17.5t48.5 26q-38 -150 -114 -476.5
t-120.5 -506t-101.5 -365.5q-21 -21 -41.5 -70t-20.5 -85q0 -37 25 -37q22 0 57 25z" />
    <glyph glyph-name="colon" unicode=":" horiz-adv-x="639" 
d="M471 872q53 0 143 50q33 0 86.5 48.5t53.5 69.5q0 50 -42.5 98.5t-133.5 53.5q-19 12 -33 12q-34 0 -72 -47t-43 -47q-86 -75 -86 -127q0 -35 28.5 -55.5t98.5 -55.5zM319 0q82 13 144 57q32 0 83.5 48.5t51.5 70.5q0 48 -40.5 93t-135.5 50q-16 17 -37 17q-29 0 -65 -43
t-41 -43q-82 -70 -82 -127q0 -27 17 -47t51.5 -42t53.5 -34z" />
    <glyph glyph-name="semicolon" unicode=";" horiz-adv-x="639" 
d="M369 872q53 0 143 50q27 0 81 49t54 69q0 48 -43 97.5t-129 54.5q-18 12 -33 12q-34 0 -72 -47t-42 -47q-86 -74 -86 -127q0 -52 127 -111zM209 209q-4 0 -12.5 -53.5t-12.5 -89.5q-6 -33 -22.5 -107t-46.5 -168q-25 -63 -25 -102q0 -25 33 -25q26 0 77.5 35t57.5 68
q0 39 35 119t35 98q14 0 27 28t26 69.5t20 53.5q86 182 86 250q-20 20 -53 41q-48 8 -61 8q-55 0 -89 -29t-75 -94v-102z" />
    <glyph glyph-name="less" unicode="&#x3c;" horiz-adv-x="754" 
d="M578 1098q-185 -185 -279 -242q-13 -33 -60 -73.5t-86.5 -77t-54.5 -82.5q-28 -46 -28 -103q0 -46 14.5 -94.5t36.5 -100.5t39 -92q27 -29 62.5 -86.5t60.5 -80.5q10 -21 57 -21q55 0 113.5 24.5t58.5 49.5q0 8 -8 16q-14 50 -75 144t-83 135.5t-22 97.5q0 55 36 111
q14 39 83 110t94 115q68 29 176 135q90 42 90 102q0 5 -8 21q-40 33 -82 33q-20 0 -135 -41z" />
    <glyph glyph-name="greater" unicode="&#x3e;" horiz-adv-x="713" 
d="M266 86q27 27 54 56t40 42q46 28 110 86t83 66q18 31 67.5 73t74 70.5t34.5 73.5q29 51 29 127q0 114 -69.5 244t-151.5 202q-13 13 -37 13q-50 0 -115.5 -27.5t-65.5 -46.5q17 -49 74 -140t86 -148t29 -122q0 -45 -25 -94q-9 -12 -84 -91.5t-108 -141.5
q-23 -4 -44.5 -20t-62.5 -53t-53 -46q-24 -20 -47 -38.5t-35 -32t-12 -27.5q0 -22 20 -37q29 -29 70 -29q24 0 139 41z" />
    <glyph glyph-name="question" unicode="?" 
d="M184 -16q18 -90 115 -90q105 0 214.5 88t109.5 194q0 74 -70 74q-38 0 -90 -21t-108 -51t-68 -35q-4 -13 -18.5 -28.5t-18.5 -28.5q-2 -2 -18 -16.5t-28 -33.5t-20 -52zM438 1561q29 0 29 24q0 27 -12 45q0 70 24 70q37 0 101 -51t92 -88q119 -137 119 -295
q0 -106 -39 -207t-122.5 -278t-109.5 -277q-8 -24 -8 -37q0 -49 66 -49q100 0 159 53q20 23 39 101.5t39 115.5q116 181 176 288.5t99 240.5q36 103 36 196q0 354 -495 586q-167 98 -287 98q-75 0 -86 -57q-37 -86 -37 -185q0 -225 217 -294z" />
    <glyph glyph-name="A" unicode="A" horiz-adv-x="1466" 
d="M209 -184q66 135 74 266q12 6 22.5 34t27 95.5t27.5 107.5q35 52 55.5 98t38 103t21.5 66q99 0 262 74.5t209 84.5q44 0 123 18.5t98 18.5q9 -53 9 -311q16 -33 16 -86q0 -58 -16 -90q8 -74 8 -102q0 -47 -8.5 -123t-8.5 -127q6 -41 33 -41q36 0 83.5 48.5t47.5 90.5
q53 177 53 336q7 11 24 212.5t17 258.5q70 34 70 90q0 44 -53 78q0 39 4 123t4 123q0 137 -33 163q8 41 8 131q0 169 -32 267q-10 60 -48.5 82.5t-100.5 51t-89 75.5q1 18 31.5 94.5t30.5 114.5q0 40 -33 57q-55 0 -99 -21.5t-98.5 -59t-73.5 -42.5q-10 -61 -47 -80.5
t-89 -40t-72 -63.5q-9 -23 -9 -33q0 -26 18.5 -43.5t18.5 -26.5q0 -12 -12 -24q-42 -30 -100 -171t-107 -304t-80 -291q-34 -45 -67.5 -135.5t-38.5 -98.5q-91 -12 -131.5 -59.5t-61.5 -149.5q8 -24 8 -37q0 -14 -4 -41t-4 -36q0 -37 82 -37q0 -35 -37 -141t-37 -162
q-7 -7 -17.5 -53t-10.5 -82q-49 -106 -49 -197q0 -86 57 -86q28 0 86 33zM1167 950q-118 0 -168 -28q-95 0 -215.5 -12.5t-144.5 -12.5q-37 0 -45 8q0 35 45 119t49 119q57 98 57 168q34 56 63 102.5t46.5 89.5t17.5 82q25 31 51.5 62.5t47.5 31.5q56 -7 94 -49t70 -96.5
t41 -54.5q-13 -42 -13 -103q8 -135 29 -135q-16 -11 -16 -61q0 -55 16 -99q0 -131 -25 -131z" />
    <glyph glyph-name="B" unicode="B" horiz-adv-x="1577" 
d="M250 -184q6 -12 19.5 -30.5t29.5 -18.5q16 16 57 16q46 0 62 -16q0 24 16.5 71.5t16.5 75.5q139 0 366.5 58.5t296.5 109.5q52 19 107 40t116.5 57t101.5 85t40 113q0 110 -136 246q-62 54 -161.5 95t-251 95t-223.5 93.5t-72 84.5q0 9 8 25q77 64 267.5 160t289.5 158
t160 161q225 143 225 471q-23 41 -70.5 90t-80.5 49q-110 70 -267 70q-77 16 -237 16q-115 -11 -322 -33.5t-358.5 -81.5t-151.5 -175q0 -33 8 -54q12 0 116 13.5t171 19.5q17 0 52 6t47 6q20 0 20 -12q0 -19 -37.5 -63t-40.5 -56q-57 -19 -80.5 -127.5t-39.5 -296.5
t-31 -256q-26 -25 -85 -48.5t-83 -49.5q0 -94 16 -119q66 -20 100.5 -53.5t34.5 -122.5q0 -15 -2 -130t-2 -193q0 -205 12 -279q-30 -6 -53 -10.5t-60.5 -32.5t-103.5 -109q43 -118 193 -118zM795 631q127 -33 239.5 -94.5t112.5 -98.5q-14 -78 -201 -135q-67 -33 -114 -57
t-111 -45q-59 -20 -152 -39t-110 -27q0 68 29.5 303t56.5 291q13 0 67 -33t183 -65zM1122 1528q-107 -82 -276.5 -184.5t-218.5 -102.5q-13 42 -13 86q0 71 23 138.5t51 95.5q-29 46 -29 110q0 67 33.5 141t52.5 93q504 0 504 -160q0 -40 -22.5 -80t-51 -74t-53.5 -63z" />
    <glyph glyph-name="C" unicode="C" horiz-adv-x="1511" 
d="M369 -74q15 0 135 -41t221 -41q89 0 156 21q46 12 159.5 66.5t135.5 60.5q7 11 63 59t80 76q24 30 24 66q0 57 -32 57q-17 0 -17 -41q-164 -83 -259 -121.5t-195 -38.5q-60 0 -103 17q-61 0 -168 92t-114 92q-19 64 -61.5 168.5t-62.5 176t-20 159.5q0 35 29 166.5
t29 214.5q179 481 438 659q81 61 233 61q103 0 172.5 -38t69.5 -117q0 -72 -65 -172q-58 -73 -105 -283.5t-47 -413.5q55 -16 111 -16q89 0 131 62t77 196q20 53 69.5 244.5t49.5 243.5q8 28 8 94q0 142 -41 250q0 209 -352 209q-108 -4 -248.5 -70t-248.5 -152.5
t-125 -138.5q-116 -55 -230 -283q-144 -253 -183.5 -421.5t-57.5 -393.5q0 -246 96 -457.5t248 -271.5z" />
    <glyph glyph-name="D" unicode="D" horiz-adv-x="1434" 
d="M377 1794l8 -25q-36 -4 -58 -24t-54.5 -61t-47.5 -54q-35 -20 -51.5 -102t-30.5 -224.5t-24 -177.5v-86q-26 -119 -38 -245t-24.5 -332t-23.5 -303q0 -11 -4 -53t-4 -74q13 -33 36 -33q41 0 97.5 96.5t66.5 165.5q32 167 119.5 568t126.5 624q15 65 35.5 158t46.5 108
q2 0 107.5 -62t170.5 -89q25 -22 25 -25q254 -254 320 -454q0 -62 -11 -120.5t-29 -117t-22 -82.5q-4 -8 -26.5 -30.5t-30.5 -34.5q-92 -189 -215 -313.5t-330 -280.5q-24 -18 -138.5 -59.5t-184.5 -88t-70 -123.5q11 -82 119 -82q54 0 139 25q66 15 124 44t120.5 70
t132.5 87q23 16 116 76t136 103t43 87q-5 12 -21 12q-36 0 -78 -20q16 53 87.5 122t80.5 82q135 169 217 364t82 382q0 334 -266 545l-201 135q-111 84 -311 184q-216 49 -270 49q-107 62 -201 62q-6 -3 -83 -13t-77 -32q0 -58 8 -82q6 -71 9.5 -84.5t24 -26.5t143.5 -82
q20 -4 56.5 -15.5t127.5 -37.5z" />
    <glyph glyph-name="E" unicode="E" horiz-adv-x="1307" 
d="M766 0q64 0 191.5 80t172.5 129q58 80 58 131q0 33 -25 33q-18 0 -57 -21q-289 -168 -852 -168q0 118 26.5 307.5t26.5 245.5q30 152 168 152q92 0 266 28.5t271 28.5q78 0 118 -8q26 5 42 47.5t16 95.5q0 136 -82 136q-27 0 -111 4t-135 4q-152 0 -242 -58
q-46 -12 -116 -69.5t-105 -57.5q0 177 144 623q21 114 75.5 162.5t155 59.5t334.5 11q12 -18 54.5 -37.5t80.5 -19.5q74 0 74 70q0 11 -8 45q28 39 28 94q0 72 -37 102q-49 54 -188 54q-54 0 -125.5 -6.5t-91.5 -6.5q-242 -47 -299 -118q-69 -56 -156.5 -128.5t-144 -148
t-64.5 -158.5q-16 0 -69.5 -318.5t-53.5 -361.5q0 -6 -27.5 -183.5t-41.5 -319.5q0 -36 -18.5 -141.5t-18.5 -157.5q0 -140 106 -140q13 0 13 -12q0 -6 -6.5 -28.5t-6.5 -41.5q61 -16 168 -16q278 8 492 82z" />
    <glyph glyph-name="F" unicode="F" horiz-adv-x="1257" 
d="M311 1729q-11 -17 -19.5 -65.5t-17.5 -70.5q-14 -59 -27 -232.5t-30.5 -271t-64.5 -131.5q-33 -19 -72 -62t-39 -77q0 -4 8 -20q5 -17 25 -17q14 0 47 12.5t47 12.5q12 -8 12 -57q0 -17 -2 -65t-2 -71q0 -56 -12 -214t-12 -273q3 -30 5.5 -131t10 -170.5t25.5 -83.5
q44 -25 73 -25q82 0 82 201q0 29 -2 86t-2 82q18 58 21 104.5t7 154t13 159.5q6 27 23.5 137t37 161t58.5 62q214 58 368 58q17 0 67 8t60 8q67 -11 131 -28t82 -17q25 0 37 12q37 37 37 107q0 55 -22.5 106t-55.5 74q-83 25 -172 25q-228 0 -549 -127q0 88 38.5 227.5
t43.5 169.5q30 161 33 168q49 99 141 168t195 69q68 0 135 -37q58 -16 82 -16q131 0 131 172q0 49 -12 111q-22 78 -209 78q-106 0 -193 -17q-187 -18 -339.5 -145.5t-221.5 -308.5z" />
    <glyph glyph-name="G" unicode="G" horiz-adv-x="1536" 
d="M844 86q12 9 81 69.5t111 91t74 40.5q0 -125 -24.5 -304.5t-24.5 -277.5q-29 -147 -29 -213q0 -44 12 -70q99 0 99 99q75 22 103 65t35 102t13 70q14 39 80 290t80 280q41 184 41 360q-12 37 -54 61.5t-89 24.5q-59 0 -90 -37q-53 -57 -166.5 -198.5t-177.5 -210.5
q-182 -148 -332 -148q-200 0 -221 299q-5 58 -5 176q0 200 29 361q29 46 71.5 189.5t71.5 203.5q86 166 234 328q6 4 74.5 54t109 69.5t86.5 19.5q67 0 120.5 -26.5t64.5 -75.5q67 -80 82 -123q21 -30 30.5 -126t22 -136.5t57.5 -40.5q24 0 74 24q99 83 143 152v82
q-5 10 -22.5 74t-42.5 69q0 58 -22.5 96t-70.5 93.5t-67 89.5q-24 12 -90.5 35t-77.5 30q-52 17 -115 17q-127 0 -271 -70.5t-259.5 -182.5t-161.5 -223q-90 -73 -242 -421q-155 -350 -155 -693q0 -250 109.5 -413.5t357.5 -184.5q27 10 107 35t134 52.5t103 72.5z" />
    <glyph glyph-name="H" unicode="H" horiz-adv-x="1638" 
d="M352 614q0 49 44.5 103.5t82.5 73.5q82 0 168 40q55 32 137.5 49.5t176 25.5t182.5 16q0 -88 -39 -309t-72 -285q0 -119 -32.5 -325t-32.5 -314q8 0 27 -6.5t38 -6.5q17 0 58 13q28 69 43 79t32.5 65t75.5 294q40 95 70.5 305.5t46.5 292.5t76 180q4 45 12 101.5t8 83.5
q107 288 107 573q49 251 49 365q0 131 -58 131q-53 0 -168 -127q-19 -37 -57 -82.5t-61 -85.5q8 -37 8 -135q0 -160 -31 -356t-51 -238q-70 -33 -221 -33q-57 0 -123 8q-59 -18 -186 -23t-191 -22q-65 0 -65 61q0 45 23.5 162.5t25.5 165.5q4 36 33 177t49 274q24 61 24 102
q0 94 -106 94q-125 0 -205 -86q-10 -25 -18 -133t-15 -153q-35 -245 -82 -689q-14 -56 -60 -137t-59 -121q15 -60 95 -229q-17 -48 -17 -123q0 -68 20.5 -204t20.5 -193q0 -115 90 -115q86 0 160 115q13 34 60 107.5t59 109.5q0 29 -17 29q-22 0 -102 -78q-37 22 -37 209
q0 42 2 114t2 90z" />
    <glyph glyph-name="I" unicode="I" horiz-adv-x="569" 
d="M106 8q7 -96 82 -102q24 0 62 12q23 38 60.5 61t41.5 62q-28 148 -28 319q0 145 18 294.5t48 319t61 337.5q0 57 43 237t43 205q0 7 30.5 129t30.5 191q0 94 -57 94q-45 0 -123 -53q-102 0 -161.5 -93.5t-93.5 -231.5t-57 -237q11 -15 14 -26t3 -15q-18 -45 -25 -131
q0 -37 8 -69q14 0 28.5 -36.5t17.5 -78.5q0 -64 -21 -106q-6 -101 -29.5 -349.5t-23.5 -392.5q0 -179 28 -340z" />
    <glyph glyph-name="J" unicode="J" horiz-adv-x="1110" 
d="M492 225q-55 23 -75 61t-48 124q4 20 34.5 48.5t30.5 102.5q-74 139 -74 160q-14 28 -32.5 73.5t-36 66t-49.5 28.5q-23 16 -74 16q-70 0 -78 -24q-20 -22 -20 -86q0 -166 90 -480t164 -381q27 -16 65 -16q18 2 62 8t69 8q25 15 73.5 29t65.5 21q41 35 71 128t70 249
t56 176q86 323 123 413q0 96 21.5 188t65.5 239t66.5 253.5t22.5 216.5q12 55 12 111q0 93 -28 159t-66 66q-11 -8 -58 -32.5t-93 -77.5q-110 -32 -234 -193q4 -34 38 -38.5t70 -8.5t40 -35q0 -73 -12 -164t-32.5 -209.5t-29.5 -183.5q0 -266 -152 -737q-6 -84 -50 -181.5
t-68 -97.5z" />
    <glyph glyph-name="K" unicode="K" horiz-adv-x="1503" 
d="M762 168q110 -188 250 -188q97 0 213 86q22 30 62.5 75t64.5 84q59 13 91 55.5t32 88.5q0 49 -37 49q-31 0 -78 -41q-38 -28 -79 -59t-83 -53.5t-84 -22.5q-83 0 -131 102q-61 83 -106.5 178.5t-103.5 225.5t-109 210q0 41 22.5 66t108.5 94q11 25 63.5 81t150 161
t105.5 119q0 11 55 72.5t114 139.5t118 189q39 20 70.5 115t31.5 213q-16 45 -41 45q5 0 -53 -21q-91 0 -201 -73q-110 -52 -110 -103q0 -21 26.5 -46.5t26.5 -35.5q-15 -68 -124 -244t-204 -280q-80 -96 -146.5 -178t-137.5 -157t-154 -132q0 86 15.5 172.5t46 202.5
t48 189.5t25.5 156.5q53 165 53 225q0 111 -86 144q-120 -29 -187 -125t-67 -219q0 -48 -45 -396t-45 -411q0 -20 -10 -60t-10 -88q-3 -26 -26.5 -198t-33.5 -268t-10 -181q0 -77 13 -119q13 0 47 -4t51 -4q74 0 94 41q-12 67 -12 143q0 218 106 590q28 -21 106.5 -164
t102.5 -155q19 -32 76 -110t125 -177z" />
    <glyph glyph-name="L" unicode="L" horiz-adv-x="967" 
d="M16 152q-8 -58 -8 -78q0 -140 103 -140q44 -49 127 -49q36 0 119.5 14.5t129.5 14.5q50 21 170 57.5t121 36.5q35 25 64.5 45t64 40t56.5 34q0 27 -6 119.5t-11 113.5q-29 0 -92 -38.5t-141 -42.5q-32 -19 -62.5 -30t-65 -19t-81.5 -21q-22 0 -71 -8t-73 -8q-36 0 -57 16
q-20 20 -20 98q0 98 28 244t79.5 383.5t51.5 273.5q21 27 28 92.5t17 75.5q11 11 26.5 141t47.5 236q4 28 19.5 152.5t29.5 183.5q0 83 -82 111q-126 -26 -190.5 -125.5t-115 -300.5t-54.5 -213q-8 -30 -28 -93.5t-29 -110.5t-9 -83q0 -92 58 -156q-125 -811 -144 -966z" />
    <glyph glyph-name="M" unicode="M" horiz-adv-x="1855" 
d="M217 8q41 74 41 225q11 24 22.5 148.5t22.5 163.5q17 17 54 307.5t69 290.5q19 -10 29.5 -28t29 -64t43.5 -93q122 -151 238 -151q110 0 217 123q83 20 165.5 97t153.5 170.5t140 186.5q16 17 24 17q17 0 17 -37q0 -31 -14 -106t-19 -107q-16 -95 -26 -196.5t-23 -114.5
q-22 -115 -39.5 -239t-42.5 -308t-45 -301q30 0 52.5 17t45 47t46.5 50.5t61 28.5q3 10 71 334t121 514q46 157 83.5 284.5t61 222t23.5 140.5q21 108 21 197q0 188 -70 188q-38 0 -86 -53q-49 -6 -104 -69.5t-72 -131.5q-22 -33 -106.5 -145t-131.5 -182
q-47 -36 -134 -132.5t-149.5 -146t-129.5 -49.5q-71 0 -140 70q-103 117 -135.5 317.5t-32.5 464.5v131q0 147 -37 147q-11 0 -55.5 -21.5t-83.5 -23.5q-19 -29 -75 -59t-76 -43q-32 -32 -49 -237t-17 -341q-15 -59 -32 -226.5t-17 -235.5q0 -76 -28.5 -252t-28.5 -232
q0 -49 12 -61q-53 -100 -53 -365q0 -106 4 -164q5 -16 28 -16t80 24.5t76 24.5z" />
    <glyph glyph-name="N" unicode="N" horiz-adv-x="1712" 
d="M74 -66q0 -6 -6.5 -33t-6.5 -48q0 -46 37 -62q13 25 50 25t45 24q19 68 78 261t91.5 310t55.5 244q36 126 65.5 229.5t54.5 177t40 81.5q49 -65 167 -361q20 -43 96 -223.5t137 -310.5t124 -226t106 -96q41 4 105 38t96 44q82 108 82 201q56 217 87.5 438t54.5 506
t42 520t45 432q-5 115 -28 115q-6 0 -115 -86q-87 -161 -114.5 -337t-35.5 -457.5t-18 -372.5q-48 -320 -77 -488.5t-50 -199.5q-44 17 -83 100t-112 276.5t-116 286.5q-19 83 -67.5 212t-96 254t-70.5 222q0 60 15 118.5t49 147.5t39 103q0 69 -37 69q-32 0 -110.5 -65.5
t-90.5 -65.5q-6 37 -94 37q-38 0 -82 -12q-38 0 -60 -82t-22 -201q-19 -44 -38.5 -205t-47 -400.5t-57.5 -401.5q-15 -30 -58 -298t-69 -440z" />
    <glyph glyph-name="O" unicode="O" horiz-adv-x="1679" 
d="M999 135q159 145 299 300t254.5 385.5t114.5 494.5q0 57 -4 86q-26 239 -186 458.5t-387 254.5q-217 -60 -275 -152q-12 -7 -54 -29.5t-66 -40t-40 -45.5q-12 -37 -41 -37q-8 0 -8 70q58 97 58 148q0 55 -58 61q-5 -4 -21 -17t-65 -49q-83 -140 -143 -272.5
t-156.5 -367.5t-126.5 -302q-27 -33 -37 -69t-14.5 -87t-9.5 -77q0 -37 20 -37t59.5 39.5t39.5 46.5q8 -32 8 -45q0 -28 -12.5 -67.5t-12.5 -63.5q-20 -130 -20 -234q0 -239 91.5 -395t280.5 -166q61 0 119 15.5t139.5 46.5t126.5 45q78 78 127 102zM1016 385
q-198 -192 -352 -192q-177 0 -246 270q-29 108 -29 237q0 108 18 225t58 298t47 219q108 147 177 204t261 107q142 0 242 -86t150.5 -223t50.5 -293q0 -142 -41 -262q-15 -19 -42.5 -103.5t-88.5 -177.5t-205 -223z" />
    <glyph glyph-name="P" unicode="P" horiz-adv-x="1466" 
d="M250 -258q100 0 209 209q-82 41 -82 188q0 91 33 238q306 62 532.5 176t352.5 282t126 377q0 74 -28 197q-39 171 -151 329.5t-249 273.5t-263 180t-193 65q-38 29 -54 29q-28 0 -98 -70q-152 -80 -152 -217q18 -33 64 -96t80 -125q-30 -152 -50.5 -294t-48.5 -360
t-50 -364.5t-52 -288.5q-26 -16 -55.5 -34t-44.5 -32.5t-15 -31.5q0 -39 107 -94q0 -55 -4 -159t-4 -153q0 -206 90 -225zM1122 1008q-43 -152 -239 -270t-387 -160q-4 0 -24 8t-30 8q11 20 32 194t46 228q33 24 33 135q14 40 69 226t66 208q-4 66 -4 90q0 2 -139 205
q-41 30 -41 45q0 8 12 8q24 0 73 -21.5t91 -56.5q442 -326 442 -847z" />
    <glyph glyph-name="Q" unicode="Q" horiz-adv-x="1753" 
d="M1065 184q14 81 90.5 163.5t163 174.5t106.5 174q74 159 128 293.5t92 282t38 284.5q0 206 -90 357q-152 266 -438 266q-305 0 -594 -307q-311 -269 -311 -754q0 -196 49.5 -369.5t101.5 -220.5q15 -41 100.5 -173.5t104.5 -170.5q-8 -8 -41 -8q-70 0 -157.5 67t-151 219
t-63.5 386q16 21 16 41q0 37 -37 37q-40 0 -61 -54q-78 -168 -78 -446q7 -158 65.5 -272.5t152.5 -173t212 -58.5q159 0 307 94q30 0 131.5 -109.5t147.5 -131.5q92 -71 184.5 -116t183.5 -89q112 -70 180 -70q50 0 91 21q53 29 53 61q0 28 -85 93t-104 83q-58 47 -107 87
t-97 71.5t-99 50.5q-16 20 -45 50t-56 59.5t-42 48.5t-41 59zM1343 905q-25 -41 -104 -201t-146.5 -255t-162.5 -146q-31 10 -61 47t-80.5 115.5t-83.5 120.5q-189 390 -189 643q0 221 115 434q143 205 381 205q144 0 256.5 -97t140.5 -276q0 -8 4 -68t4 -108
q0 -237 -74 -414z" />
    <glyph glyph-name="R" unicode="R" horiz-adv-x="1536" 
d="M258 -111q31 0 47.5 79.5t42.5 256.5t45 230q75 -39 125.5 -73t111 -82t75.5 -58q320 -223 745 -426q49 -37 78 -37q53 0 53 86q0 72 -41 136.5t-106 64.5q-22 32 -60 54.5t-59 22.5q-182 168 -402 312q-318 247 -344 368q0 45 59.5 76t188 80.5t178.5 85.5
q146 79 309 187.5t179 156.5q37 139 37 201q0 109 -54 184q-82 65 -208 149t-201 121q-277 111 -500 111q-74 0 -90 -8q-146 -36 -198 -135t-52 -254q0 -42 4 -123t4 -119q0 -35 2 -174t2 -215q0 -201 -12 -242q-23 -34 -111 -82q-24 -42 -24 -78q0 -27 12.5 -50t32 -44
t49.5 -53q0 -115 -18.5 -318t-18.5 -231q0 -148 119 -160zM1122 1360q-100 -72 -204.5 -146.5t-211 -128.5t-210.5 -69q0 225 82 463q8 48 8 65q0 119 -86 119q-51 0 -107 -61q-41 15 -41 77q0 20 4 54t4 45q22 46 52 53t133 16q320 -52 368 -69q308 -123 308 -262
q0 -75 -99 -156z" />
    <glyph glyph-name="S" unicode="S" horiz-adv-x="1073" 
d="M225 -184q45 4 93.5 20.5t107 43.5t78.5 34q36 22 76 47.5t67 54.5q144 74 225 168q2 2 32.5 43t58.5 52q36 39 77.5 60.5t49.5 29.5q8 24 8 37q0 28 -19.5 50.5t-46.5 22.5q0 133 -50.5 223t-178.5 240q-48 33 -65 59t-95 166q-128 120 -164 226q-12 48 -12 94
q0 119 78.5 219.5t199.5 165.5q29 0 29 -4q0 -19 -12 -37q-17 -13 -51.5 -36.5t-50.5 -43t-17 -47.5q11 -49 49 -49q34 0 117 51.5t113 62.5q27 10 118.5 94.5t118.5 98.5q7 4 20 48t13 91q0 135 -102 135q-29 0 -82 -20q-277 -94 -381 -176q-196 -125 -350 -306.5
t-154 -361.5q0 -160 135 -291q0 -27 181 -214t249 -269q78 -96 78 -168q0 -66 -61 -86q-25 -25 -25 -82q-8 -1 -37.5 -39t-59.5 -64t-71 -32q0 14 17 29.5t48 37t33 23.5q13 13 13 29q0 15 -15.5 28t-34.5 13q-12 0 -28 -8q-30 -16 -181 -86t-231.5 -124.5t-91.5 -109.5
q6 -36 26 -60.5t42 -37t58.5 -25t57.5 -20.5z" />
    <glyph glyph-name="T" unicode="T" horiz-adv-x="1143" 
d="M594 -94q12 23 48 37.5t46 40.5q3 33 5 167.5t12 294.5q17 65 27.5 120t23.5 157.5t30 214.5q42 123 83 354.5t61 411.5q-5 63 -34.5 101.5t-84.5 90.5q8 33 176 33q169 -33 213 -33q25 0 25 103q0 22 2 59t2 51q0 46 -29 74q-27 0 -92 16.5t-100 16.5q-21 0 -45 -8
q-58 8 -91 8q-61 0 -163 -12.5t-152 -12.5q-38 0 -90 9q-23 -7 -104.5 -15t-130 -25.5t-68.5 -62.5q-20 -20 -39 -79.5t-19 -112.5q-12 -29 -12 -70q0 -49 53 -49q32 0 81.5 14t105 35t84.5 29q7 0 64 14t87 14q49 0 49 -37q0 -65 -14 -190.5t-18 -210.5q-15 -31 -29 -152
t-31 -328t-18 -220q-8 -74 -8 -99q0 -28 4 -89t4 -103q-16 -49 -16 -103q0 -56 16 -90q0 -135 8 -204q4 -84 17 -122t61 -38z" />
    <glyph glyph-name="U" unicode="U" horiz-adv-x="1503" 
d="M90 594q0 -62 13.5 -174t39.5 -187q63 -136 116 -205t134 -69q178 5 286.5 117.5t242.5 333.5q16 16 20 16q12 0 12 -45q0 -41 -16 -167t-16 -165q8 -12 8 -98q0 -90 57 -90q34 0 116 49t81 49q0 16 30.5 53.5t30.5 57.5q0 27 -53 49q0 277 84 627t168 699.5t84 627.5
q-6 48 -10 82t-15 57.5t-33 23.5q-29 0 -77 -36q-78 -44 -78 -70q-18 -18 -29.5 -74.5t-11.5 -101.5q-42 -37 -69.5 -144t-37.5 -172q0 -23 -38.5 -187t-38.5 -202q-45 -85 -92 -282t-83 -299t-120 -181q-57 -114 -83.5 -156t-59.5 -57.5t-99 -15.5q-149 46 -201 320
q-14 0 -33.5 136.5t-19.5 235.5q0 50 8 66v209q3 53 37 176q0 35 20.5 153.5t20.5 190.5q0 175 -102 221q-21 10 -46.5 66.5t-52.5 56.5q-110 -32 -110 -496q-33 -54 -33 -278q0 -292 25 -373q0 -33 -6 -71.5t-7 -43.5q0 -33 13 -73q0 -136 24 -160z" />
    <glyph glyph-name="V" unicode="V" 
d="M643 16q6 22 70.5 76t64.5 105q0 28 -16 61q66 99 121.5 214.5t85.5 194t98.5 262t116.5 296.5q82 184 82 262q18 11 50.5 128t35.5 208q0 102 -54 102q-25 0 -65 -29q-128 -37 -160.5 -144.5t-32.5 -289.5q-41 -142 -93.5 -265t-138 -307.5t-128.5 -295.5
q-71 -176 -111 -176q-29 0 -57.5 121.5t-52.5 148.5q0 16 2 43t2 39q0 58 -29 78q0 49 -8 128t-8 114q-16 76 -18 201t-4.5 255.5t-18.5 214.5q45 184 45 340q0 108 -29 148q-11 37 -49 37q-42 0 -121.5 -38.5t-83.5 -39.5q-98 -130 -98 -340q0 -80 25 -164v-176
q0 -130 32 -135q0 -343 49 -402q0 -77 17.5 -180.5t36.5 -130.5q0 -62 22 -146.5t51 -103.5q26 -156 95 -319q-62 -62 -62 -123q0 -44 34.5 -71.5t88.5 -27.5q127 0 213 127z" />
    <glyph glyph-name="W" unicode="W" horiz-adv-x="1855" 
d="M561 74q47 35 103.5 153t56.5 183q9 18 49.5 117t69.5 154.5t49 55.5q33 0 33 -151q8 -51 17 -165.5t16.5 -171.5t27.5 -89q16 -107 107 -107q31 0 92 15t75 18q78 68 156.5 235.5t138 351t74.5 269.5q59 96 160 537q61 305 61 520q0 98 -16 106q-160 -77 -160 -299
q-10 -55 -76 -307t-100 -389q-44 -79 -68 -133t-36.5 -90t-22.5 -64q0 -19 -49 -155t-70 -181q-25 -86 -53 -86q-29 0 -29 127q0 177 9 271q-17 75 -17 180q0 155 60.5 455t70.5 381q0 131 -78 131q-63 0 -132 -46t-89 -102q-27 -57 -52.5 -213t-33.5 -184
q-27 -67 -71.5 -245.5t-71.5 -258.5q-35 -43 -96.5 -216t-96.5 -226q-36 -74 -61 -74q-31 0 -44.5 81.5t-27 238t-27 196.5t-15 158t-2.5 225.5t-15 128.5q0 12 16.5 129.5t16.5 140.5q-13 30 -13 74q0 40 12.5 135.5t12.5 147.5q0 97 -45 131q-5 7 -23 43t-44.5 58
t-76.5 30q-91 0 -125 -126.5t-34 -234.5q-58 -156 -58 -487q0 -145 17 -258q86 -36 86 -193q0 -67 44 -354t87 -309q-17 -30 -17 -70q0 -44 38 -143.5t48 -155.5q25 -41 91 -41q58 0 103 38.5t48 109.5z" />
    <glyph glyph-name="X" unicode="X" horiz-adv-x="1536" 
d="M131 41q-57 -45 -57 -176q0 -90 32 -90q23 0 50.5 37t69 111t72.5 120.5t62 67.5q11 31 86.5 156.5t106.5 203.5q12 12 55 77.5t64 74.5q22 0 51 -65t55 -95q97 -173 160 -230q19 -48 90 -123t148 -85q114 0 114 61q0 41 -73 115q-158 257 -230 422q-42 47 -76 126.5
t-34 139.5q0 35 12 53q64 97 213.5 276.5t243 307.5t162.5 285t69 319q-43 111 -94 111q-32 0 -82 -50q-261 -183 -311 -254q-50 -36 -50 -86q0 -53 90 -53q9 0 21.5 12.5t24.5 12.5q0 -21 -70.5 -135t-114.5 -193q-13 -36 -96 -144.5t-117 -183.5q-24 0 -42 90t-23 103
q-28 24 -69.5 226.5t-41.5 277.5q29 43 29 102q0 58 -24 115.5t-62 85.5q-11 57 -62 57q-64 0 -139 -82q-1 -4 -51.5 -113.5t-50.5 -185.5t49 -155q0 -32 5.5 -56t25 -82.5t30.5 -95.5q0 -116 51.5 -236.5t157.5 -328.5q0 -51 -31 -104.5t-80 -121.5t-49 -85
q-54 -116 -162 -293.5t-108 -243.5z" />
    <glyph glyph-name="Y" unicode="Y" horiz-adv-x="1360" 
d="M217 -57q4 -31 23.5 -43t55 -18.5t48.5 -16.5q93 15 127 49q45 9 80 37.5t35 64.5q0 12 -12.5 27.5t-12.5 38.5q0 36 31 173.5t31 174.5q37 54 67.5 119t69.5 172.5t47 126.5q15 29 53.5 77.5t52.5 82.5q13 22 103 167.5t90 159.5q15 14 38 70.5t23 81.5
q78 129 111 275.5t57 359.5q-28 57 -65 57q-39 0 -79.5 -55.5t-110.5 -180.5t-113 -190q-22 -53 -94.5 -202.5t-81.5 -198.5q-16 -16 -113.5 -231t-132.5 -224q-40 50 -61.5 133.5t-37 188.5t-20.5 116q-53 241 -53 365q0 73 20 188q0 201 -155 201q-140 0 -205 -123
q0 -84 11.5 -170t29.5 -92q0 -262 127 -713q19 -35 64 -133.5t81.5 -156t79.5 -78.5q0 -71 -58 -200.5t-65 -189.5q-32 -47 -59 -139t-27 -151z" />
    <glyph glyph-name="Z" unicode="Z" horiz-adv-x="1372" 
d="M303 -102q68 19 238 45t277 60t181 108q17 6 54.5 14t67.5 20.5t55 38.5q137 38 200 95q37 36 37 102q0 65 -53 65q-27 -8 -95 -38t-106 -39q-66 -39 -155.5 -61.5t-206.5 -43.5t-133 -31q-10 0 -29.5 6.5t-36.5 6.5q-33 0 -53 -13q-6 0 -48 4.5t-71 4.5q4 55 26.5 85.5
t86 106t63.5 103.5q30 31 64.5 67.5t67.5 82t52 95.5q119 108 127 140q49 63 111 133t100.5 120.5t67.5 110.5q123 89 200.5 221t77.5 271q0 180 -151 303q-54 16 -171 58.5t-201.5 63.5t-172.5 21q-28 0 -102 -8q-66 25 -135 25q-189 0 -209 -168q-22 -12 -40 -57.5
t-18 -86.5q0 -49 33 -49q34 0 135 -2t152 -2q65 0 115 12q30 -14 151.5 -30t194 -38.5t92.5 -74.5q0 -55 -52.5 -154t-120.5 -202t-130 -197q-23 -38 -136.5 -179t-125.5 -165q-32 -26 -267 -320q-159 -159 -245 -327q-33 -53 -33 -140q0 -163 270 -163z" />
    <glyph glyph-name="bracketleft" unicode="[" horiz-adv-x="1040" 
d="M696 -209q4 22 24.5 72t20.5 67t-12 29q-67 0 -161 -21t-130 -24q-36 7 -90 10.5t-82 18.5q-16 16 -16 65q0 38 10.5 87.5t29 114t21.5 77.5q0 103 90 688q48 193 85.5 470t58.5 361q16 144 120 180.5t285 36.5q90 40 90 136q0 41 -16 57q-41 20 -111 20q-107 0 -307 -69
q-65 0 -146.5 -46t-115.5 -130q-66 -181 -92.5 -346t-60 -460.5t-72.5 -463.5q-4 -69 -45 -453.5t-41 -451.5q45 -95 282 -95q243 0 381 70z" />
    <glyph glyph-name="bracketright" unicode="]" horiz-adv-x="1040" 
d="M496 -209q126 19 190 80.5t100 194.5q39 196 75 465.5l72 539t75 465.5q28 99 42.5 332t22.5 274q-75 99 -266 99q-123 0 -365 -50q-33 -5 -61 -63t-37 -105q3 -3 6 -11t11 -12.5t28 -4.5q71 0 266 53q43 -8 95 -13.5t69 -11t21 -24.5q0 -249 -103 -688
q0 -127 -21 -250.5t-63 -311.5t-63 -316.5t-21 -248.5q-9 -19 -57 -168q-88 -94 -262 -94q-50 0 -98 12q-99 -30 -99 -118q0 -34 21 -74q37 -16 106 -16q170 0 316 65z" />
    <glyph glyph-name="underscore" unicode="_" horiz-adv-x="1569" 
d="M16 -233v-152h1545v152h-1545z" />
    <glyph glyph-name="grave" unicode="`" horiz-adv-x="754" 
d="M418 1577q-95 57 -144 106t-106 140q-24 8 -33 8q-50 0 -110 -53q0 -16 -9 -54q0 -24 9 -28q3 -3 49 -86q30 -8 130 -71t132 -69q65 -42 154.5 -72t164.5 -55q13 0 43.5 22t30.5 44q-20 18 -98 50.5t-127 57t-86 60.5z" />
    <glyph glyph-name="a" unicode="a" horiz-adv-x="1303" 
d="M8 311q45 -22 45 -53q0 -18 -20 -65q0 -71 7 -98t42 -46q16 -45 82 -45q63 0 106 45q34 0 64 21t58.5 53t53.5 61q54 25 152.5 124.5t163.5 137.5q0 -95 55 -199t158 -104q21 0 57 9q57 0 126.5 39.5t74.5 41.5q4 14 35.5 41.5t34.5 36.5q0 5 -9 41q0 29 9 49
q-3 16 -4.5 46.5t-3.5 39.5t-9 9q-6 -6 -19 -23.5t-25.5 -26.5t-33.5 -16q-38 -33 -82 -33q-45 0 -75.5 37.5t-30.5 97.5q0 37 20 99q-3 6 -14 51.5t-29.5 68.5t-58.5 23q-46 0 -133 -63t-109 -105q-133 -83 -168 -151q-9 -4 -75.5 -53.5t-100.5 -49.5q0 15 15 43t18 35
q60 94 168 193q75 45 119 131q52 11 147 108t123 154q116 58 148 151q-41 70 -111 70q-77 0 -299 -156q-48 -49 -168 -137t-183.5 -143.5t-103.5 -136.5q-39 -35 -95 -80t-74.5 -63.5t-22.5 -41.5z" />
    <glyph glyph-name="b" unicode="b" horiz-adv-x="1176" 
d="M737 135q19 47 58.5 111.5t52.5 89.5q4 19 24 56t25 63q78 140 78 213q0 65 -82 65q-15 0 -42 -2t-40 -2q-21 0 -37 8q-32 -17 -107 -98.5t-94 -118.5q-69 -75 -69 -225q5 -12 43.5 -29t38.5 -41q0 -28 -33 -65q-98 -49 -160 -49q-78 129 -78 290q0 103 32 198.5
t75 145.5q291 459 545 1209q0 137 -17.5 195.5t-77.5 58.5q-61 0 -149.5 -46t-99.5 -48q-8 -30 -51.5 -75.5t-43.5 -64.5q-64 -101 -144.5 -302.5t-96.5 -237.5q-3 -30 -61 -251t-58 -270q-8 -34 -26 -100.5t-24 -107.5t-16 -127q0 -30 -47 -69t-47 -46q0 -16 -4 -88
t-4 -113q6 0 36 33t42 33q6 -54 23 -182.5t75 -221t176 -92.5q81 18 209.5 127.5t175.5 175.5zM823 201q-41 -74 -41 -82q0 -23 17 -33q32 0 45.5 6t44 29t61.5 39q28 34 91.5 72t94.5 69.5t31 91.5q-8 15 -18.5 47t-17 44t-21.5 12q-22 -40 -57 -81t-73 -77t-89.5 -79.5
t-67.5 -57.5zM487 1151q-14 -57 -51.5 -110.5t-42.5 -65.5q31 188 96.5 347t198.5 423q25 0 25 -8q0 -23 -25 -66q-45 -60 -72 -154.5t-57 -199t-72 -166.5z" />
    <glyph glyph-name="c" unicode="c" horiz-adv-x="1118" 
d="M66 512q-38 -17 -46 -25t-8 -53q0 -49 4 -90q9 0 34 -8t32 -8t12 -17q9 -17 17 -90t41 -135q17 -11 36 -26t54 -44q91 -61 192 -61q190 0 479 205q46 24 115 83t82 101q0 21 -4 45t-4 33q0 20 8 33q-34 45 -45 45t-16 -21q0 -45 -128.5 -129t-240.5 -141
q-33 -16 -102 -16q-170 0 -177 102q-8 24 -8 70q0 96 63 160t172 132t126 97q229 114 229 250q0 48 -25 102q-92 0 -172.5 -44t-113.5 -79q-100 -48 -277.5 -186.5t-177.5 -173.5q-47 -15 -89.5 -52t-61.5 -59z" />
    <glyph glyph-name="d" unicode="d" horiz-adv-x="1507" 
d="M303 8q73 38 136 100t127.5 142t129.5 160q89 168 144 168q10 -3 14 -56.5t27 -91.5q20 -117 104.5 -179.5t198.5 -62.5q188 0 303 140q24 74 24 135q0 41 -32 41q-114 -66 -197 -66q-71 0 -115 49q-94 129 -94 308q0 132 45 270q56 76 66 160q26 32 57 127
q78 116 78 233q16 31 39 76.5t41 94t18 91.5q18 35 41 176q0 160 -61 160q-48 0 -105.5 -59.5t-91.5 -149.5q-58 -86 -176 -344q-17 -44 -66 -206.5t-77 -190.5q-33 0 -53 -11.5t-99 -62.5q-215 -200 -258 -262q-46 -14 -126 -106.5t-144 -167.5q-40 -24 -90 -65.5
t-78 -61.5q-13 -21 -13 -50q0 -9 13 -61q0 -11 -16.5 -32.5t-16.5 -49.5q13 -20 20 -20t38.5 26.5t60.5 26.5q-70 -202 -70 -258q0 -74 41 -94q40 -17 86 -17q79 0 127 41zM680 647q-271 -344 -320 -344q0 77 128.5 274t183.5 230q45 93 168 176q0 -48 -4.5 -55.5
t-4.5 -55.5q-133 -225 -151 -225z" />
    <glyph glyph-name="e" unicode="e" horiz-adv-x="946" 
d="M98 119q110 -94 242 -94q87 0 164.5 35t213 114t200.5 105q20 32 20 151q8 21 8 41q0 12 -8 12q-19 0 -74 -41t-61 -41q-12 -12 -42 -29t-44 -28q-119 -65 -275 -65q-163 0 -163 114q0 32 12 70q90 65 106 90q67 32 139.5 105.5t122.5 145.5t50 93q41 18 41 102
q0 98 -41 119q-56 62 -140 62q-113 0 -135 -54q-105 -55 -196 -168q-22 -9 -43 -38.5t-49 -79t-40 -66.5q-110 -214 -110 -287q4 -133 25 -199.5t49 -106.5t28 -62zM475 889q17 -11 17 -29q0 -31 -39.5 -77.5t-55.5 -53.5q-6 -18 -35.5 -37.5t-54.5 -19.5q-20 5 -20 16
q0 4 6 19t14 30t8 17q104 135 160 135z" />
    <glyph glyph-name="f" unicode="f" horiz-adv-x="897" 
d="M496 -889q80 73 155 245.5t119 340.5q0 15 39 143t39 176q0 6 10 44t10 59q0 34 -20 49q0 5 4 47t4 68q0 58 -16 69q-70 0 -70 -65q-15 -8 -24.5 -37t-22 -90.5t-18.5 -85.5q-65 -177 -82 -291q-103 -270 -136 -270q-36 89 -36 213q0 46 6 102t6 53q0 268 24.5 609
t106.5 423q109 149 221 566q9 55 30.5 157t32.5 176t11 142q0 123 -41 205q0 114 -86 114q-126 0 -209 -225q-41 -93 -122.5 -348.5t-102.5 -306.5q-29 -200 -29 -349q0 -31 2 -85t2 -95q-26 -58 -60 -112t-60 -88.5t-75.5 -96t-99.5 -121.5q0 -127 -8 -167q6 -13 16 -13
q24 0 100 72t93 72q8 -18 8 -54q0 -24 -4 -86t-4 -86q0 -663 61 -856q24 -122 70 -169.5t156 -47.5zM696 1585q0 -97 -54 -240t-89 -161q-16 -70 -25 -70q-16 0 -16 152q16 20 16 143q35 44 65.5 175.5t45 178t66.5 84.5q20 0 20 -32q0 -43 -14.5 -130t-14.5 -100z" />
    <glyph glyph-name="g" unicode="g" horiz-adv-x="1135" 
d="M807 -639q0 31 37 100t37 133q0 17 -9 62q-34 181 -114 303q0 43 151 152q13 11 117 85t133 115q0 201 -16 201q-17 -4 -53 -44.5t-66 -57.5q-43 -33 -127 -90.5t-139.5 -100t-110.5 -92.5q-71 79 -102 162t-41 96q0 149 33 246q89 51 213 184q68 44 153 123t121 135
q46 25 54 47t16 97q-7 118 -99 118q-63 0 -155 -69q-28 -6 -73.5 -43.5t-45.5 -55.5q-72 -42 -200 -160.5t-136 -166.5q-22 -36 -66 -95t-73 -73q-17 -28 -53.5 -60t-103 -83.5t-81.5 -73.5q0 -10 17 -103q-9 -41 -9 -73q22 11 94 64.5t107 66.5q0 -133 41 -220.5
t102.5 -171t61.5 -120.5q-20 -20 -110 -102t-145.5 -140.5t-88.5 -110.5q-47 -70 -81 -168t-34 -180q0 -110 70 -127q21 -69 127 -69q80 0 178 32t149 62q141 46 320 266zM565 -594q-194 -194 -356 -221q-82 6 -82 70q0 32 25 57q0 28 23 64.5t86.5 114.5t98.5 124
q19 2 39 20t50.5 55.5t50.5 57t37 19.5q28 -21 54.5 -79.5t26.5 -125.5q0 -86 -53 -156z" />
    <glyph glyph-name="h" unicode="h" horiz-adv-x="1217" 
d="M606 336q36 0 77.5 -58.5t53.5 -68.5q49 -49 140 -49q112 0 213.5 66.5t101.5 158.5q12 43 12 78q0 37 -16 37q-22 0 -53 -37q-79 -37 -119 -37q-58 0 -111 53q-24 46 -45 129.5t-34.5 122t-43.5 43.5q-51 0 -108.5 -19t-75.5 -59q-40 -41 -94 -172t-74 -164
q-96 -176 -135 -176q-12 6 -12 49q0 57 25 203.5t28 177.5q102 85 169 175t191.5 275t200.5 271q58 110 123.5 236.5t85.5 206.5q61 74 61 159q41 96 41 152q0 102 -110 102q-11 29 -41 29q-63 0 -179 -100t-198 -207q-223 -225 -336 -553q-79 -109 -123 -234t-82.5 -310.5
t-56.5 -254.5q-14 -23 -44 -50.5t-38 -39.5q0 -23 -4 -104t-4 -97q16 0 35.5 20.5t21.5 20.5v-127q0 -132 32.5 -205t131.5 -73q17 0 57 8q89 69 209 238q0 14 21 44t60.5 80t45.5 60zM639 1217q-10 -11 -87.5 -115.5t-121.5 -134.5q0 54 69.5 212t69.5 189q23 13 50.5 55.5
t27.5 79.5q38 38 130.5 173.5t131.5 188t66 52.5q10 0 16 -12q0 -37 -14 -82.5t-35.5 -90t-57.5 -109.5t-53 -95q-13 -25 -40.5 -81.5t-45 -84t-32.5 -27.5q-22 -68 -74 -118z" />
    <glyph glyph-name="i" unicode="i" horiz-adv-x="958" 
d="M401 1352q0 -41 136 -41q34 21 101.5 67.5t82.5 132.5q15 20 32 74t17 98q0 70 -49 70q-62 0 -123 -32.5t-61 -65.5q-62 -18 -113 -85t-51 -132q0 -52 28 -86zM16 270q13 0 38.5 29t47.5 37q103 143 168 143q9 0 17 -8q29 -26 41 -72t41 -71q0 -42 48.5 -104t135.5 -113
q36 -9 61 -9q87 0 178 62.5t154 138.5q0 49 4 99t4 102q-22 -7 -60.5 -40.5t-53.5 -62.5q-13 -4 -54.5 -22.5t-64.5 -18.5q-73 0 -111 144q-6 33 -16.5 123.5t-24.5 146.5q-65 90 -184 90q-54 -54 -66 -73q-33 -15 -89 -83t-62 -94q-28 -10 -48.5 -29.5t-49.5 -54.5t-45 -51
q-5 -40 -8.5 -63t-6 -45.5t-2.5 -46.5q0 -28 8 -54z" />
    <glyph glyph-name="j" unicode="j" horiz-adv-x="967" 
d="M922 1688q36 117 36 200q-12 37 -65 37q-105 0 -156 -94q-172 -101 -172 -221q0 -46 33 -107q41 -24 131 -24q88 50 132 94t61 115zM0 262q29 16 69.5 53.5t95 99t93.5 105.5q102 119 148 119q22 0 30 -28.5t11.5 -85t7.5 -79.5q-10 -21 -34 -251.5t-52 -276.5
q-45 -51 -125.5 -187.5t-141.5 -274t-61 -210.5q-49 -54 -49 -147q0 -148 119 -148q60 8 96 44t80 149q63 92 112 261t90 304.5t117 224.5q195 165 385 426q0 3 -9.5 36t-14.5 59q0 5 2 13t5.5 17t4.5 15q0 16 -12 28q-19 0 -39 -23t-41.5 -63t-30.5 -57
q-21 -14 -86.5 -77.5t-97.5 -82.5q-25 0 -25 17q13 89 40 235t42.5 259t15.5 222q0 99 -8 148q-45 41 -90 41q-53 0 -126.5 -94.5t-94.5 -110.5q-64 -81 -154 -179.5t-190 -209.5q-86 -62 -86 -168q0 -15 2 -56t2 -67z" />
    <glyph glyph-name="k" unicode="k" 
d="M303 -127q49 0 110.5 79.5t73.5 88.5q29 35 55.5 70.5t61 85t43.5 61.5q18 37 45 37q23 0 53 -22.5t74 -62t83 -66t73 -33.5q84 0 187.5 89.5t103.5 209.5q0 25 -9 61q-8 16 -32 16q-87 -98 -152 -98t-123 98q-69 45 -69 107q0 44 41 102q14 39 75.5 136t97 167t35.5 136
q0 44 -32 90q-25 24 -49 24q-28 0 -49 -33t-37 -79t-25 -72q-21 -44 -94.5 -166.5t-98.5 -177.5q-84 -11 -117.5 -60.5t-40 -124.5t-9.5 -81q-8 -15 -61.5 -117t-78.5 -137q-13 -13 -24 -13q-17 0 -17 41q0 59 41 172q0 29 57.5 247t57.5 265q203 536 262 709q66 125 66 250
q0 179 -127 209q-43 0 -88 -97.5t-68 -205.5q-21 -82 -65 -172t-70 -181q-34 -148 -150 -392.5t-153 -360.5q-27 -44 -70.5 -102t-62.5 -101t-19 -109q0 -17 -16 -81q41 0 69 29t60.5 85.5t56 83.5t55.5 27q-4 -43 -18 -114t-14 -95q0 -21 8 -37q-37 -86 -37 -209
q0 -176 131 -176z" />
    <glyph glyph-name="l" unicode="l" horiz-adv-x="1028" 
d="M1053 279v217q-106 -54 -176 -103q-101 -65 -197 -65q-111 0 -182.5 89.5t-71.5 237.5q151 204 276 425t209.5 451.5t116.5 467.5q0 132 -22.5 191t-96.5 59q-52 0 -115 -54.5t-117.5 -128t-82.5 -129.5q-105 -213 -184.5 -416.5t-134.5 -417.5t-78 -431
q-145 -163 -185 -193v-143q-8 -42 -8 -45q0 -12 8 -12q16 0 92.5 71.5t100.5 79.5q29 -172 117.5 -258t193.5 -86q24 -12 57 -12q76 0 187.5 49.5t185.5 101.5q84 35 107 54zM573 1143q-24 -71 -65 -123.5t-66 -52.5q0 23 32.5 116t41.5 142q36 32 56.5 87.5t54 166.5
t57.5 151q27 30 59.5 64.5t59.5 34.5q-16 -33 -24.5 -96t-8.5 -64q-25 -27 -50 -125t-36 -109q-46 -86 -111 -192z" />
    <glyph glyph-name="m" unicode="m" horiz-adv-x="2101" 
d="M295 8q11 0 54.5 57t72.5 70q40 67 166.5 195.5t140.5 148.5q163 144 201 144q24 0 24 -45q0 -54 -28 -152q-22 -107 -66.5 -243t-44.5 -167q23 -61 70 -61q45 0 98 53q25 25 141 154t138 149q31 21 79.5 70.5t79.5 56.5q53 0 90.5 -34t100.5 -109.5t100 -93.5
q72 -45 143 -45q111 0 234 147v201q-20 0 -74.5 -53.5t-89.5 -53.5q-33 0 -61 33q-23 30 -51 75.5t-48 72.5q-44 167 -155 167q-86 0 -186 -79t-224 -203q0 70 35 224.5t35 234.5q-6 131 -86 131q-97 0 -250 -172q-65 -54 -130.5 -131t-139.5 -127q-45 -45 -62 -45
q-12 0 -12 20q0 22 22 109.5t27 140.5q0 143 -74 143q-47 0 -127 -49q-24 -10 -53 -38t-63 -66l-68 -76q-12 -14 -122.5 -122.5t-147.5 -176.5q0 -22 4 -81t4 -103q26 7 48.5 31.5t83 97.5t96.5 105t67 32q12 -6 12 -29q0 -53 -65.5 -244.5t-65.5 -214.5q0 -65 78 -65
q33 0 49 16z" />
    <glyph glyph-name="n" unicode="n" horiz-adv-x="1528" 
d="M406 -66q21 28 142 160t152 185q65 44 135.5 112t94.5 68q34 0 74 -74q37 -27 92.5 -123t74.5 -119q41 -28 86 -28q49 0 97 30t91 72t95 94q-16 50 -16 185q-18 -4 -58.5 -51.5t-68.5 -47.5q-24 0 -41 13q-37 23 -66.5 76t-68 149t-50.5 119q-48 24 -98 24
q-80 0 -155.5 -53.5t-147.5 -134t-135 -152.5q-27 -27 -52.5 -64.5t-33.5 -37.5q0 41 13.5 96.5t31 110t33.5 104.5q57 97 57 209q0 54 -16 86q-33 86 -99 86q-24 0 -52 -10.5t-64 -30t-39 -20.5q-41 -48 -132 -139t-148.5 -157.5t-96.5 -142.5q-37 -22 -37 -94q0 -17 2 -50
t2 -48q0 -62 4 -62q18 0 53 54q122 133 168 192q23 37 70 37q33 0 33 -37q0 -25 -25 -74q-8 -42 -30.5 -125.5t-22.5 -119.5q-5 -19 -31 -79t-26 -93q0 -13 8 -45v-78q24 -12 86 -12q99 0 115 40z" />
    <glyph glyph-name="o" unicode="o" horiz-adv-x="1315" 
d="M295 41q16 -32 47.5 -39.5t120.5 -17.5q83 5 151.5 30.5t113.5 58t87.5 73.5t89.5 87q16 30 94 111q5 22 49.5 88t57.5 96q37 84 37 185q0 100 -29 184q-69 98 -184 98q-84 0 -176 -53q-9 9 -9 12q0 13 18.5 43t18.5 43q0 20 -20 25q-9 0 -38 4t-48 4q-21 0 -45 -8
q-29 -33 -129 -122t-133 -144q-40 -20 -361 -336v-53q17 -6 17 -37q-9 -45 -9 -94q22 0 91.5 73.5t109.5 73.5q0 -37 -14.5 -117.5t-14.5 -120.5q0 -122 107 -147zM864 418q-100 -119 -159 -156q-92 -78 -164 -78q-78 0 -78 127q0 107 98 234q32 0 55.5 20t51.5 59t45 56
q49 33 94 33q51 0 78.5 -46t27.5 -110q0 -90 -49 -139zM991 86q17 0 87 49t89 58q12 12 65.5 46.5t82 66.5t28.5 79q-27 94 -49 94q-9 0 -18.5 -8t-36.5 -34t-39 -36q-26 -53 -74.5 -92t-68.5 -67q-28 -21 -57 -61.5t-29 -69.5q0 -20 20 -25z" />
    <glyph glyph-name="p" unicode="p" horiz-adv-x="1257" 
d="M209 -823q57 85 57 168q59 112 94 286q14 36 42.5 103t47 123t29.5 118q48 77 127 295q40 107 82 107q17 0 33 -12t49.5 -47.5t36.5 -38.5q97 -103 188 -103q77 0 254 119q0 33 8 123q0 61 -8 61q-18 0 -67.5 -36.5t-87.5 -36.5q-52 0 -119 73q-29 86 -103.5 170
t-146.5 84q-74 0 -119 -102q-91 -150 -148 -305t-139 -420q-22 -45 -48.5 -163.5t-53.5 -127.5q21 137 61 284.5t93 338.5t75 307q11 25 57.5 186.5t98.5 210.5q17 109 62 201q24 54 24 131q0 53 -16.5 92.5t-32.5 42.5q-14 0 -25.5 -10t-32.5 -37.5t-36 -42.5
q-242 -562 -529 -848q0 -78 -16 -94q8 -20 8 -55t8 -43q28 0 61.5 53t74.5 61q0 -123 -15.5 -242.5t-48.5 -323t-48 -329t-15 -272.5q0 -152 86 -152q76 0 98 103z" />
    <glyph glyph-name="q" unicode="q" horiz-adv-x="1073" 
d="M-8 250q15 15 27.5 27t27.5 19t35 7q-49 -124 -49 -192q0 -21 8 -37q47 -99 152 -99q66 0 133.5 38.5t103.5 97.5q80 45 164 122q19 10 64.5 58.5t62.5 48.5q11 0 16 -21q0 -102 -16 -241t-16 -144q-74 -423 -74 -557q-70 -301 -70 -327q0 -103 49 -103q56 0 103 45
q36 75 61 209q22 36 39.5 136t42.5 176q90 343 137 568.5t47 438.5q0 70 -35.5 113t-86.5 43q-42 0 -70 -29q-318 -233 -352 -295q-30 -11 -83 -42t-69 -31q0 65 41 106q0 41 127 164t135 139q12 12 91.5 64t117.5 96q1 2 68 38t67 72q-13 10 -45.5 50.5t-73.5 40.5
q-39 0 -249 -107q-19 -14 -77 -51.5t-75.5 -52.5t-24.5 -31q-132 -63 -278 -209q-15 -11 -73.5 -52t-80.5 -63t-22 -45q12 -42 12 -98q0 -46 -12 -90z" />
    <glyph glyph-name="r" unicode="r" horiz-adv-x="1061" 
d="M0 303q11 0 42 25t60 73q131 123 131 152q153 164 197 164q33 0 57 -53q33 -54 33 -123q0 -55 -65 -357q-58 -95 -58 -164q0 -94 131 -94q27 0 116 53.5t122 61.5q36 26 136 109t114 83q0 27 24.5 75t24.5 81q0 13 -8 37q-6 53 -17 53q-14 0 -24 -24q-26 -36 -144 -129
t-135 -93q-18 -12 -32 -12q-13 0 -13 21t44 152.5t46 199.5q0 94 -40 197.5t-109.5 176t-153.5 81.5q-96 0 -200 -107q-50 -16 -50 -53q0 -13 7.5 -35t9.5 -39q-27 -15 -55.5 -61.5t-30.5 -48.5q-14 -30 -82.5 -127.5t-85.5 -122.5q0 -54 4 -102t4 -50z" />
    <glyph glyph-name="s" unicode="s" horiz-adv-x="967" 
d="M0 279q23 7 150 140t194 179q35 17 72.5 55.5t54.5 38.5q26 0 41 -37q0 -191 -25 -360q-11 -29 -24 -29q-8 0 -22.5 26.5t-30.5 26.5q-28 0 -77.5 -32.5t-49.5 -85.5q0 -25 12 -49q0 -190 57 -271q0 -61 41 -61q18 0 37 7t45.5 20t52.5 26q23 38 95 78q34 34 149.5 117.5
t175.5 150.5t60 154q0 21 -9 57q0 62 -20 62q-28 0 -98 -123q-5 -2 -86 -77t-115 -75q0 53 74 262q4 23 21 100.5t24.5 131.5t7.5 120q29 36 29 91q0 70 -48 129t-112 59q-45 0 -86 -37q-22 -22 -85 -97.5t-108.5 -122t-93.5 -71.5q-54 -76 -155 -177t-115 -101
q-45 -16 -45 -70q0 -17 6 -67t6 -88z" />
    <glyph glyph-name="t" unicode="t" horiz-adv-x="999" 
d="M319 82q0 -156 50 -156q26 -7 55 -31t39 -30q44 0 274 221q246 132 246 410q-5 16 -16 16q-10 0 -42 -33t-77 -61q-141 -149 -234 -185q-16 0 -16 50q0 124 41 315q0 81 27.5 179.5t75.5 228.5t65 186q8 9 73.5 19.5t65.5 37.5q0 111 12 201q0 20 -22.5 32t-22.5 38
q41 129 41 180q0 94 -90 94q-44 -14 -71.5 -54.5t-58.5 -114.5t-55.5 -106t-68.5 -32q-7 0 -41 8q-24 -8 -53 -8q-21 0 -76 4t-84 4q-49 0 -69 -8q-33 8 -94 8q-152 0 -152 -147q0 -16 8 -74q10 -41 127 -57q12 12 33 12q13 0 49 -6t61 -6q21 0 64 2t59 2q86 0 86 -37
q-169 -305 -225 -361q-34 -77 -131.5 -190t-163.5 -170q0 -78 4 -144t4 -61q195 168 385 414q0 -48 -26.5 -190t-30.5 -171q-25 -49 -25 -229z" />
    <glyph glyph-name="u" unicode="u" horiz-adv-x="1421" 
d="M303 16q55 -24 107 -24q130 0 239 110.5t223 282.5q10 8 17 8q10 0 33 -67.5t69 -116.5t144 -49q56 0 93 14t84 43t81 45q53 10 53 135q0 107 -21 107q-11 -4 -76 -53.5t-100 -49.5q-67 0 -90 160q0 107 -21 160t-89 53q-52 -1 -89.5 -41t-88.5 -122t-89 -124
q-18 -28 -84.5 -99.5t-83.5 -100.5q-12 -4 -48.5 -29t-53.5 -25q-25 39 -25 132q0 151 50 307q0 32 43 151t43 168q0 32 -17 49q-12 13 -37 13q-54 0 -147 -70q-218 -352 -381 -487q-53 -43 -53 -152q0 -82 20 -82q16 0 49 30.5t73.5 75.5t45.5 50q8 8 17 8q23 0 29 -118
t17.5 -186.5t63.5 -105.5z" />
    <glyph glyph-name="v" unicode="v" horiz-adv-x="1151" 
d="M258 193q-12 -31 -12 -70q0 -83 49.5 -154.5t114.5 -79.5q66 0 94 17.5t44 54.5t30 55q51 28 136.5 183.5t104.5 177.5q0 18 34.5 73.5t51 88t17.5 75.5q53 63 73 226q33 49 42.5 86.5t31.5 154.5q0 45 -49 45q-72 0 -102 -86q-27 -69 -83 -241.5t-102 -270.5
q-126 -209 -162.5 -264t-62.5 -55q-23 0 -36 70.5t-13 138.5q0 176 -8 303q8 57 8 164q0 142 -33 147q-36 0 -89.5 -42t-62.5 -68q-25 -71 -73.5 -156t-106 -171.5t-98.5 -148.5q0 -151 24 -167q14 8 94 104t107 96q0 -270 37 -286zM954 176q121 78 169 117t48 92
q-11 12 -23 65.5t-26 53.5q-15 0 -46 -42t-56 -52q-10 -24 -113.5 -130.5t-111.5 -136.5q0 -57 20 -57q5 0 37 8q9 7 48.5 37.5t53.5 44.5z" />
    <glyph glyph-name="w" unicode="w" horiz-adv-x="1626" 
d="M238 385q0 -24 22.5 -147.5t22.5 -155.5q5 -19 11.5 -64.5t20.5 -74.5q6 -127 91 -127q47 0 90.5 46t52.5 122q72 107 78 159q39 39 76 131.5t55 110.5q20 0 20 -41q-16 -90 -16 -135q0 -122 41 -250q48 -53 102 -53q63 0 139 78q103 115 198.5 267t168 317.5
t105.5 312.5q45 110 45 196q0 100 -62 140q-57 -16 -75.5 -77t-34.5 -198q-24 -42 -103 -303q-29 -42 -94 -157.5t-103.5 -173.5t-68.5 -58q-21 21 -21 119q0 64 10.5 185.5t10.5 158.5q24 41 24 159q33 8 33 74q0 103 -98 103q-53 -16 -90 -71t-103 -187q-13 -58 -86 -160
q-39 -128 -73 -152q-6 -12 -29 -61t-37 -69.5t-29 -20.5q-14 0 -19.5 31.5t-7.5 96.5t-5 97q-8 102 -8 262q16 106 16 131q0 70 -74 70q-58 -5 -102.5 -61t-65.5 -83q-16 -62 -52.5 -121t-88.5 -125.5t-64 -88.5q-46 -47 -50.5 -94.5t-6.5 -90.5q0 -73 16 -73
q12 0 46.5 43.5t72.5 70.5q63 74 90 74q9 0 9 -82zM1458 209q96 57 132 86.5t36 89.5q-2 14 -6.5 43.5t-11.5 52.5t-19 23q-9 0 -41 -41t-90 -78q-4 -21 -25 -43t-76.5 -72.5t-83.5 -85t-28 -61.5q0 -13 8 -29q4 -8 21 -8q35 0 96 45.5t88 77.5z" />
    <glyph glyph-name="x" unicode="x" horiz-adv-x="1249" 
d="M795 782q-154 -214 -217 -237q-15 0 -38.5 52.5t-23.5 115.5q13 30 70 71.5t98 87.5q50 18 127 95q53 -6 53 -45q0 -52 -69 -140zM242 16q120 67 209 185q24 -5 74 -55.5t85 -79.5q66 -62 144 -62q59 0 116 28.5t174 102.5q47 12 92 51t121 117v193l-5.5 5.5l-2.5 2.5
q-7 0 -24.5 -26.5t-36.5 -31.5q-58 -93 -152 -143q-49 0 -73 -24q-85 -29 -132 -29q-93 0 -163 110q0 30 33 65t109.5 106.5t90.5 99.5q114 124 176 217q58 69 58 156q0 84 -44.5 146t-103.5 62q-40 0 -65 -20q-33 -23 -107 -92t-147 -125q-36 -18 -106.5 -83t-90.5 -65
q-13 0 -20 21q-10 31 -26 87.5t-23.5 76t-20.5 37.5q-11 16 -37 16q-42 0 -87.5 -41.5t-59.5 -110.5q-9 -36 -9 -53q0 -41 27 -106t27 -90q0 -24 -13 -41q-47 -45 -129 -89t-96 -79q0 -14 -6 -69t-6 -79q0 -41 16 -41q21 0 66 62q29 12 111.5 96.5t113.5 103.5q17 -5 58 -92
t44 -117q-25 -43 -152.5 -157.5t-142.5 -136.5q0 -50 66 -50q16 0 37.5 15.5t32.5 25.5z" />
    <glyph glyph-name="y" unicode="y" horiz-adv-x="1450" 
d="M725 352q4 26 29 48.5t68.5 47.5t62.5 39q12 0 12 -28q0 -22 -14.5 -104.5t-14.5 -137.5q-27 -36 -51.5 -92.5t-48 -120.5t-35.5 -98q-85 -61 -241 -275q-40 -28 -96.5 -103t-80.5 -126q-16 0 -43 -53t-51 -62q-7 -17 -38 -61.5t-49.5 -82t-18.5 -81.5q17 -29 78 -29
q136 0 241 119q10 10 32 45.5t42 48.5q23 10 52.5 55.5t49.5 59.5q66 135 258 389q44 96 115 175t169 158t167.5 136t114.5 109v168q-8 8 -17 8q-26 0 -102.5 -74.5t-93.5 -77.5q-25 -24 -66 -71.5t-49 -47.5t-8 13q0 32 69.5 217.5t77.5 232.5q11 46 34.5 114t23.5 91
q0 30 -21 41q-107 0 -178.5 -48.5t-166.5 -150.5t-159 -149q-44 -25 -119 -115q-129 -84 -151 -119q-30 0 -39.5 9t-9.5 41q8 36 56.5 174.5t57.5 197.5q0 107 -114 107q-34 -9 -67 -39t-95 -97.5t-84 -88.5q-21 -29 -112.5 -110.5t-104.5 -107.5q0 -110 -8 -167
q0 -17 8 -21q21 11 96.5 81.5t87.5 70.5q18 0 20 -77.5t13 -90.5q0 -34 -8 -90q0 -54 33 -70q42 -21 81 -21q118 0 213 148q35 4 69.5 27t67 57t56.5 59z" />
    <glyph glyph-name="z" unicode="z" horiz-adv-x="1110" 
d="M16 455q-16 -25 -16 -160q0 -5 3 -9.5t5 -6.5q26 0 60.5 31t50.5 75q48 32 114 111q34 28 86 87t82 81q25 24 50 24q43 0 83.5 -64.5t51.5 -119.5q0 -39 -49.5 -124t-49.5 -110q-69 -58 -69 -200q0 -118 45 -213q-36 -34 -107.5 -134t-89.5 -108q-18 -29 -96 -141
t-88 -138q-53 -81 -53 -188q0 -18 2 -56t2 -59q11 -23 59.5 -46t116.5 -23q46 0 102 12q512 274 512 651q0 78 -24 164q-16 15 -70 123q0 40 72 103t96 94q9 8 82 73t90.5 84t28.5 43v168q0 29 -13 29q-19 0 -135 -156q-39 -36 -90 -86.5t-61 -56.5q-14 -34 -65 -82.5
t-83 -48.5q-12 0 -20 8q-8 25 -8 66q0 60 49 131.5t57 101.5q90 123 90 258q0 125 -82 238q-27 58 -83 98.5t-117 40.5q-98 0 -144 -115q-41 -35 -175.5 -198t-201.5 -252zM578 -561q-65 -103 -156.5 -199t-171.5 -96q-17 0 -41 8q-12 12 -12 33q0 24 23.5 80t29.5 80
q21 29 45.5 66t48.5 61q43 84 100.5 154.5t92.5 70.5q41 -25 41 -258z" />
    <glyph glyph-name="braceleft" unicode="{" horiz-adv-x="999" 
d="M942 2048l25 193h-230q-334 -21 -385 -488q0 -650 -336 -688l-24 -168q76 0 142.5 -65.5t66.5 -233.5q-5 -51 -37 -240t-37 -325q0 -154 80.5 -233t177.5 -79h238l24 193q-16 0 -55 -2t-60 -2q-118 0 -147 65q-12 37 -12 70q0 28 9.5 89t10.5 83q3 22 18 116t23 164
t8 138q0 277 -184 340v8q290 122 320 496v98q0 458 204 471h160z" />
    <glyph glyph-name="braceright" unicode="}" horiz-adv-x="999" 
d="M16 -86l-24 -193h217q95 8 183.5 52t135.5 116q50 88 67.5 249t39.5 345.5t89.5 292t217.5 121.5l25 168q-66 0 -131.5 67t-65.5 228q2 99 32.5 284.5t37.5 292.5q0 98 -42 167.5t-103.5 103t-116.5 33.5h-234l-33 -185h95q135 0 172 -74q8 -28 8 -86q0 -29 -8 -143
q-3 -25 -22 -129t-29.5 -175.5t-10.5 -145.5q0 -263 197 -320v-8q-122 -46 -196 -145t-107.5 -223.5t-48 -271t-25.5 -269.5q-6 -38 -42 -95t-126 -57h-152z" />
    <glyph glyph-name="quotesinglbase" unicode="&#x201a;" horiz-adv-x="1712" 
d="M254 582q0 -213 53 -361q63 -136 116 -205t134 -69q126 4 219.5 67t156 149t152.5 234q17 17 21 17q12 0 12 -45q0 -48 -16.5 -170.5t-16.5 -161.5q9 -12 9 -98q0 -91 57 -91q24 0 57.5 17t79 46t60.5 36q0 17 30.5 53.5t30.5 56.5q0 28 -53 49q0 278 84 628t168 699.5
t84 626.5q-3 18 -9 67.5t-16 73t-33 23.5q-29 0 -78 -37q-77 -45 -77 -69q-18 -18 -29.5 -74.5t-11.5 -101.5q-42 -37 -69.5 -144t-37.5 -172q0 -23 -39 -189t-39 -200q-44 -85 -90.5 -279.5t-82.5 -298t-122 -184.5q-57 -115 -83 -156.5t-59 -57t-99 -15.5
q-149 46 -201 319q-14 0 -33.5 136t-19.5 237q0 48 8 66v208q3 54 37 177q0 36 20.5 154t20.5 190q0 175 -103 221q-20 9 -45.5 66t-52.5 57q-110 -32 -110 -496q-33 -54 -33 -278q0 -289 24 -373q0 -27 -5.5 -68.5t-6.5 -46.5q0 -30 12 -74q0 -135 25 -159zM983 2474
q-56 -42 -173 -86.5t-142 -73.5q0 -18 29 -39.5t44 -21.5q16 9 141.5 47t178.5 80q22 4 124.5 61.5t137.5 65.5q6 17 31.5 61.5t25.5 73.5q0 24 -8 41q-57 57 -110 57q-9 0 -33 -8q-51 -86 -98.5 -134.5t-147.5 -123.5z" />
    <glyph glyph-name="afii10100" unicode="&#x192;" horiz-adv-x="1753" 
d="M512 -872q54 67 101.5 136t115.5 167q0 55 47 159t47 136q0 24 -16 41q69 235 143 618q24 80 48.5 163t45 159.5t29.5 132.5q11 2 78.5 12.5t105.5 19.5q49 0 177 25q22 4 38 35t40 79t57 79q-182 0 -250 -33q-21 12 -70 12q-14 0 -53 -2t-61 -2q0 22 22 78t27 98
q48 105 135 488q18 42 63.5 88.5t96.5 46.5q53 0 106 -70q5 -49 41 -49t73.5 48.5t37.5 111.5q0 249 -140 249q-40 0 -102 -24q-32 8 -49 8q-101 0 -202 -70t-101 -163q-96 -136 -144 -410q-27 -85 -63 -264t-47 -191q-52 -28 -131 -28q-78 0 -127 4q-29 0 -57.5 -89.5
t-28.5 -152.5q6 0 97.5 12.5t139.5 12.5q41 0 41 -25q-47 -160 -119 -449t-90 -399q-19 -112 -100.5 -316.5t-144.5 -240.5q-79 -11 -127 -33q-41 14 -62 66t-37 61q-15 0 -118 -61q0 -115 -17 -176q4 -12 10.5 -81.5t30.5 -74.5q13 0 38 -4t40 -4q37 0 57 8q13 -8 62 -8
q50 0 114 8q102 58 152 58z" />
    <glyph glyph-name="quotedblbase" unicode="&#x201e;" horiz-adv-x="897" 
d="M160 528q-26 -104 -61.5 -265t-49.5 -214q0 -82 25 -82q20 0 77.5 42.5t57.5 64.5q8 67 68 187t75 177q22 27 58 135.5t36 122.5q-95 45 -143 45q-63 0 -127 -53q-4 -15 -8 -85t-8 -75zM610 520q-15 -19 -17 -87t-24 -146q-5 -24 -35 -116t-38 -122q-13 -42 -13 -57
q0 -25 29 -25q25 0 78 36t65 71q0 38 41 120t41 93q16 16 23 29.5t18 46t29 83.5q16 40 30.5 75.5t27 76t12.5 70.5q0 86 -107 86q-65 0 -147 -66q-13 -20 -13 -57v-111z" />
    <glyph glyph-name="ellipsis" unicode="&#x2026;" horiz-adv-x="2511" 
d="M307 0q54 9 144 57q127 24 127 115q0 57 -47.5 100.5t-124.5 46.5q-17 17 -33 17q-30 0 -73 -47t-42 -47q-78 -23 -78 -78q0 -82 127 -164zM1339 0q82 13 144 57q74 22 139 119q0 48 -46 95.5t-138 47.5q-10 17 -29 17q-30 0 -74 -43t-45 -43q-78 -60 -78 -111
q0 -64 127 -139zM2363 0q61 8 152 57q31 7 72 44.5t59 74.5q0 47 -42 92.5t-134 50.5q-16 17 -33 17q-33 0 -78.5 -43t-44.5 -43q-17 -14 -43 -60t-26 -79q0 -49 118 -111z" />
    <glyph glyph-name="FLW136" unicode="&#x2c6;" horiz-adv-x="856" 
d="M250 1360q47 0 91 30.5t115 91.5t113 79q13 0 70 -35t82 -56q61 -7 150.5 -56.5t107.5 -49.5q29 0 29 53t-26.5 93t-66.5 68t-111.5 62t-82.5 39q-45 45 -98 45q-30 0 -83.5 -23.5t-84.5 -29.5q-12 -19 -89.5 -72.5t-123 -93.5t-45.5 -80q0 -36 53 -65z" />
    <glyph glyph-name="quilsinglleft" unicode="&#x2039;" horiz-adv-x="754" 
d="M578 1098q-185 -185 -279 -242q-13 -33 -60 -73.5t-86.5 -77t-54.5 -82.5q-28 -46 -28 -103q0 -46 14.5 -94.5t36.5 -100.5t39 -92q27 -29 62.5 -86.5t60.5 -80.5q10 -21 57 -21q55 0 113.5 24.5t58.5 49.5q0 8 -8 16q-14 50 -75 144t-83 135.5t-22 97.5q0 55 36 111
q14 39 83 110t94 115q68 29 176 135q90 42 90 102q0 5 -8 21q-40 33 -82 33q-20 0 -135 -41z" />
    <glyph glyph-name="afii10059" unicode="&#x152;" horiz-adv-x="2585" 
d="M2015 -33q71 19 222 103t188 123q41 40 41 86q0 30 -18 51.5t-44 21.5q-41 0 -73 -49q-45 -4 -144 -43t-192 -51q-176 -25 -484 -25q0 713 308 713q76 0 217 22.5t221 22.5q63 0 160 -20q53 33 53 139q0 113 -62 131q-44 25 -135 25q-61 0 -119 -17q-48 8 -69 8
q-73 0 -156 -49q-60 0 -143.5 -59.5t-114.5 -59.5q0 219 139 615q0 41 29 74q26 126 168 126q100 41 234 41q127 0 192 -32q33 -33 82 -33q70 0 70 49q8 98 8 139q0 86 -41 129t-160 43q-48 13 -115 13q-120 0 -236.5 -38.5t-160.5 -101.5q-79 -40 -178.5 -147t-149.5 -139
q-51 35 -118.5 119t-116.5 127t-133 57q-61 33 -86 33q-26 0 -74 -41q-66 0 -100 -18.5t-129 -92.5q-27 -7 -46 -23t-65.5 -65.5t-73.5 -75.5v82q54 84 54 143q0 54 -54 66q-6 -7 -60.5 -48t-70.5 -95q-76 -41 -188 -484q-59 -80 -74 -127q-21 -30 -30 -68.5t-44 -99.5
q-14 -39 -48 -97t-52 -99t-18 -86q0 -13 8 -45q16 -25 57 -25q24 12 37 74l5 5l3 3q25 0 25 -115q-5 -2 -25 -45q0 -41 -6 -150t-6 -169q0 -312 160 -418q148 -74 241 -74q103 0 279 90q67 8 230.5 141.5t273.5 272.5q0 -40 -12.5 -129.5t-12.5 -136.5q0 -164 127 -164
q-29 -29 -29 -53q0 -16 13 -33q89 -25 188 -25q186 0 434 78zM1143 528q-87 -130 -226.5 -232.5t-257.5 -102.5q-155 0 -217 192q-45 143 -45 340q0 325 115 745q246 287 463 287q143 0 250 -111t159 -278q21 -66 21 -147q0 -189 -79.5 -404t-182.5 -289z" />
    <glyph glyph-name="afii10061" horiz-adv-x="2474" 
d="M147 -217q75 0 111 50.5t59 143t31 109.5q50 178 86 274q46 64 59 122.5l23 103.5q41 0 77 12.5t115 44.5t149.5 57t137.5 37q72 5 123 25t66 20q7 0 33 -8q12 -36 12 -176q0 -136 -12 -303q0 -74 -2.5 -167.5t-2.5 -135.5q0 -94 29 -94q26 0 71.5 35.5t51.5 66.5l8 -8
q0 -98 41 -98q28 0 78 12q360 0 614 151q50 13 83 29t72.5 44.5t53.5 37.5q90 60 90 147q0 54 -41 54q-40 0 -90 -50q-399 -135 -815 -135q0 141 33 295q7 115 35 233.5t59 135.5q142 50 247.5 64t362.5 38q30 0 81 -8t67 -8q40 0 45 24q25 50 25 177q-27 90 -172 90
q-52 -16 -182 -21.5t-199 -36.5q-41 0 -72 -15t-70 -46t-60.5 -44t-47.5 -13q0 176 16 303q15 12 47.5 130.5t49 171t46.5 75.5q19 75 61.5 101t105 33.5t75.5 16.5q98 16 164 16q141 0 205 -41q13 0 44 -6t46 -6q53 0 53 111q33 80 33 123q0 114 -209 114q-43 17 -82 17
q-24 0 -94 -17q-105 0 -220 -37t-132 -81q-79 -63 -141.5 -113.5t-117 -110t-86.5 -130.5t-32 -158q-15 59 -24.5 142t-16.5 112q-9 65 -39.5 92.5t-88 57t-77.5 58.5q3 16 34.5 95.5t31.5 117.5q0 46 -37 62q-26 8 -37 8q-46 0 -122.5 -65.5t-111.5 -73.5q-9 -18 -16 -38.5
t-20 -36.5t-41 -36q-52 0 -94 -28t-42 -66q0 -24 13 -41q1 -3 9.5 -20t10.5 -25q0 -17 -12 -29q-40 -34 -98.5 -184.5t-77.5 -253.5q-71 -195 -103 -319q-24 -33 -44.5 -78t-32.5 -77t-29 -79q-184 0 -184 -250q-17 -37 -17 -69q0 -50 45 -50q1 0 37 9q0 -34 -32.5 -147.5
t-32.5 -164.5q-21 -34 -54 -145.5t-33 -181.5q0 -74 41 -74zM1217 950q-12 -3 -70.5 -10t-97.5 -18q-79 0 -213 -12.5t-201 -12.5q0 86 57 143q37 116 111 226q2 23 25 71.5t43 86.5t35.5 79t15.5 74q10 14 38.5 59t44.5 60.5t39 15.5q113 0 151 -147t38 -299
q-12 -70 -12 -230q0 -57 -4 -86z" />
    <glyph glyph-name="quoteleft" unicode="&#x2018;" horiz-adv-x="455" 
d="M135 1376q125 43 144 66q0 -3 8 52t8 116q24 36 24 143q19 73 63 216.5t44 172.5q-7 21 -37 21q-65 0 -131 -90q0 -64 -39 -121t-51 -113q-80 -76 -152 -385q4 -16 20.5 -28.5t48.5 -26.5t50 -23z" />
    <glyph glyph-name="quoteright" unicode="&#x2019;" horiz-adv-x="713" 
d="M528 1479q27 103 109.5 278t107.5 258q21 26 21 53q0 61 -123 91q-138 -47 -156 -70q0 -10 -4 -64t-4 -79q-7 -59 -16.5 -129.5t-33.5 -169t-69 -213.5q0 -58 21 -58q37 0 90.5 35t56.5 68z" />
    <glyph glyph-name="quotedblleft" unicode="&#x201c;" horiz-adv-x="897" 
d="M786 1610q25 0 25 127q0 17 44.5 170t49.5 190q0 62 -41 62q-69 0 -134.5 -125.5t-65.5 -194.5q-20 -6 -66 -121t-70 -207q-24 -56 -24 -65q0 -18 33 -29q18 -10 48.5 -25.5t41.5 -15.5q64 12 84 31t75 88q13 17 13 49q0 24 -5 41t-8 25zM336 1610q24 0 24 127
q0 17 47.5 172.5t51.5 187.5q8 16 8 33q0 29 -49 29q-50 0 -95.5 -60.5t-75.5 -139t-30 -120.5q-28 -7 -135 -328q-8 -32 -8 -45q0 -86 98 -86q53 0 100 30.5t64 84.5q12 18 12 49q0 21 -4.5 39.5t-7.5 26.5z" />
    <glyph glyph-name="quotedblright" unicode="&#x201d;" horiz-adv-x="897" 
d="M152 1946q-25 0 -25 -140q0 -17 -94 -352q0 -47 10 -58.5t39 -11.5q44 0 87.5 60.5t74 140.5t30.5 119q13 4 37 56t50 121.5t57 150.5q16 56 16 61q0 26 -33 37q-20 9 -51 23t-39 14q-112 -43 -159 -119q-13 -17 -13 -45q0 -19 5 -34.5t8 -22.5zM602 1946q-24 0 -24 -140
q0 -20 -17 -81.5t-45.5 -153t-36.5 -117.5q0 -70 41 -70q60 0 130.5 127t70.5 193q16 4 38.5 56t50.5 127t54 145q17 60 17 65q0 22 -33 33q-17 9 -45 23t-41 14q-68 -24 -99.5 -46.5t-60.5 -72.5q-12 -18 -12 -45q0 -19 4.5 -34.5t7.5 -22.5z" />
    <glyph glyph-name="bullet" unicode="&#x2022;" horiz-adv-x="1143" 
d="M578 496q157 0 286.5 78.5t204 209.5t74.5 281q0 145 -78.5 271t-208.5 200t-278 74q-149 0 -275.5 -72.5t-202 -198.5t-84.5 -274q0 -153 73.5 -284t202 -208t286.5 -77z" />
    <glyph glyph-name="emdash" unicode="&#x2013;" horiz-adv-x="1577" 
d="M49 586q6 -29 164 -29q81 0 273.5 10.5t283.5 10.5q50 8 111 8q43 0 175 -4t210 -4q26 0 90.5 -9.5t105.5 -11.5q95 0 131 37v188q-12 25 -49 25q-247 0 -739 4t-739 4q-29 -17 -29 -86q0 -29 6 -80t6 -63z" />
    <glyph glyph-name="endash" unicode="&#x2014;" horiz-adv-x="3121" 
d="M3097 807q-127 -4 -326.5 -4h-405.5t-358 -4q-242 0 -485 0.5t-445 1.5t-485.5 4.5t-525.5 9.5q-29 0 -29 -65q0 -22 12 -54q0 -21 -6 -56t-6 -42q0 -20 20 -20q97 -17 205 -17q76 0 199 11.5t203 13.5q114 4 340 4q213 0 395 -3.5t405 -9.5t414.5 -9t316.5 -3
q299 0 578 13q16 80 16 139q0 85 -32 90z" />
    <glyph glyph-name="FLW152" unicode="&#x2dc;" horiz-adv-x="1040" 
d="M274 1487q93 57 140 57q44 0 49 -49q22 -81 32.5 -102t53.5 -21q45 0 147 37q51 0 169 37t159 82q25 58 25 82q0 32 -29 32q-26 0 -164 -65q-9 -3 -71 -30t-89 -27q-41 0 -41 53q0 14 9 57q-33 78 -115 78q-49 0 -90 -20q-185 -42 -316 -127q-64 -24 -86 -66q0 -9 -4 -30
t-4 -31q0 -25 57 -25q80 58 168 78z" />
    <glyph glyph-name="trademark" unicode="&#x2122;" horiz-adv-x="2687" 
d="M16 2167v-193h394v-1085h221v1085h393v193h-1008zM1241 2159v-1262h221v1049l418 -1049h143l418 1049v-1049h221v1262h-344l-364 -942l-369 942h-344z" />
    <glyph glyph-name="quilsinglright" unicode="&#x203a;" horiz-adv-x="713" 
d="M266 86q27 27 54 56t40 42q46 28 110 86t83 66q18 31 67.5 73t74 70.5t34.5 73.5q29 51 29 127q0 114 -69.5 244t-151.5 202q-13 13 -37 13q-50 0 -115.5 -27.5t-65.5 -46.5q17 -49 74 -140t86 -148t29 -122q0 -45 -25 -94q-9 -12 -84 -91.5t-108 -141.5
q-23 -4 -44.5 -20t-62.5 -53t-53 -46q-24 -20 -47 -38.5t-35 -32t-12 -27.5q0 -22 20 -37q29 -29 70 -29q24 0 139 41z" />
    <glyph glyph-name="afii10110" unicode="&#xa2;" horiz-adv-x="999" 
d="M41 430q0 -118 110 -182t234 -64q0 -4 -2 -41t-2 -61q0 -78 25 -78q22 0 49 37q13 14 15 69.5t9 82.5q107 0 265 110t223 209q24 30 24 57q0 29 -33 29q-16 -1 -81.5 -35.5t-114.5 -34.5q-79 -58 -128.5 -78.5t-129.5 -23.5q0 38 4 93t4 104q12 42 30 141.5t27 116.5
q40 21 50.5 30t44.5 56q186 81 241 176q13 32 13 94q0 90 -37 90q-74 0 -99 -16q-26 0 -61 -25q-72 -18 -123 -69q-8 4 -8 24q0 24 20.5 89.5t20.5 82.5q0 12 -17 12q-60 0 -135 -24q0 -9 -8 -41t-8 -66q-25 -20 -25 -188q-205 -149 -237 -209q-19 -18 -53 -51.5t-64.5 -73
t-51.5 -86.5t-24 -100q0 -3 16.5 -48.5t16.5 -107.5zM430 774q0 -13 -4 -57t-4 -66q0 -37 8 -45q-20 -45 -20 -180q-107 48 -107 152q0 59 34.5 114t92.5 82z" />
    <glyph glyph-name="afii10057" unicode="&#xa3;" horiz-adv-x="1647" 
d="M393 -16q10 5 47.5 43.5t71.5 38.5q234 -151 344 -160q113 -17 148 -17q139 0 266 96.5t291 358.5q6 74 69 242q-6 12 -16 12q-30 0 -86.5 -67t-85.5 -138q-61 -64 -128.5 -133t-130.5 -109t-126 -40q-224 0 -377 159q0 60 28.5 133.5t28.5 116.5q24 38 46.5 158.5
t47.5 169.5q95 35 472 74q33 25 68.5 51t63 56t27.5 56q0 21 -12 33q-57 0 -276.5 -18.5t-276.5 -18.5q32 163 86.5 397t65.5 300q5 37 24 37t25 -29q0 13 4 -125t4 -227v-86q0 -47 12.5 -64.5t57.5 -17.5q155 101 155 151q0 14 -7.5 27.5t-21.5 31.5t-20 27q0 16 -4.5 68.5
t-7.5 99.5q0 70 12 168q-27 324 -147 324q-62 0 -136 -74q-118 -39 -118 -143q-2 -8 -34 -98.5t-50 -165t-19 -154.5q-49 -73 -123 -479q-83 -33 -155 -33q-66 0 -66 33q-133 0 -225 -58q-70 -104 -70 -188q0 -39 21 -49q19 0 83 10t117 10q98 33 234 33q-4 -47 -18.5 -123
t-14.5 -115q-39 -25 -53 -88t-37 -63q-35 0 -66.5 19.5t-91.5 64t-105 68.5t-89 24q-24 0 -44.5 -26.5t-47 -77t-27.5 -52.5q0 -49 33 -98.5t102 -139t82 -126.5q21 0 74 -43t102 -47z" />
    <glyph glyph-name="afii10050" unicode="&#xa5;" horiz-adv-x="1577" 
d="M508 -49q10 -40 48.5 -51t111.5 -11q104 48 144 72t40 64q0 28 -33 61q0 61 33.5 174.5t52.5 132.5q47 24 226 38t217 32q25 20 66 51.5t67 61.5t26 55q0 8 -8 24q-24 0 -91.5 -6t-141.5 -10q-143 -53 -303 -53q32 157 94 254q60 19 181 33t189.5 34t133.5 84
q36 38 36 74q0 27 -36 33q-41 -14 -116.5 -20t-88.5 -13q-99 -41 -217 -41q73 97 153.5 204t139 197t108 197t70.5 217q28 48 28 123q0 16 -2 61t-2 74q-31 43 -41.5 56.5t-31.5 13.5q-59 -59 -94 -124t-106.5 -217.5t-119.5 -223.5q-31 -71 -102 -189.5t-111 -212.5
q-40 -4 -93 -96t-83 -113q-59 0 -88.5 65t-48 176.5t-23.5 127.5q-41 150 -41 299q0 21 8 307q0 16 -37.5 57.5t-76.5 57.5q-21 0 -86 -33q-65 0 -99.5 -23.5t-52.5 -95.5q0 -176 33 -241q4 -72 17.5 -126.5t43 -150.5t41.5 -145q142 -210 185 -324q-50 -8 -66 -8
q-27 0 -78 6t-77 6q-50 0 -74 -8q-111 -85 -111 -172q0 -37 62 -37q32 0 182 22.5t248 22.5q12 0 12 -37q0 -75 -29 -184q-122 -41 -225 -41h-180q-53 0 -110.5 -71t-57.5 -122q0 -32 33 -32q44 3 214 30t257 27q-119 -200 -119 -393z" />
    <glyph glyph-name="afii10023" unicode="&#xa8;" horiz-adv-x="1360" 
d="M852 -25q64 7 210 94t187 132q37 35 37 102q0 53 -41 53q-15 0 -41 -12q-134 -71 -275 -110.5t-283.5 -52.5t-313.5 -13q0 112 34.5 311t34.5 258q15 75 98 112.5t189.5 52.5t200.5 28q82 8 115 8q84 0 221 -16q61 20 61 151q0 135 -78 135q-19 -1 -136 -6t-207.5 -18
t-159.5 -41q-46 -12 -116.5 -65.5t-105.5 -53.5q72 397 152 631q16 138 135 181.5t303 43.5h135q24 -53 123 -53q86 0 86 74q0 11 -8 45q29 39 29 98q0 79 -45 98q-61 45 -172 45q-37 0 -106 -6t-95 -6q-97 0 -192 -31t-132 -80q-200 -165 -237 -184q-86 -116 -106.5 -148.5
t-20.5 -93.5q-21 0 -84.5 -314.5t-63.5 -365.5q0 18 -53 -512q0 -25 -14.5 -126t-14.5 -160q0 -176 99 -176q-8 0 -8 -41q2 -3 4 -14t4 -15q22 -22 82 -29q53 0 94 4q279 0 475 86zM1130 2327h111q20 34 55 50t43 23q17 22 17 82q0 86 -49 86q-38 33 -86 33
q-70 0 -127.5 -60.5t-57.5 -123.5q0 -79 94 -90zM668 2327q25 0 65 8q33 0 53 -8q10 21 54.5 49.5t48.5 40.5q0 40 -6.5 99.5t-30.5 59.5q-31 21 -78 21q-71 0 -127.5 -50.5t-56.5 -109.5q0 -72 78 -110z" />
    <glyph glyph-name="copyright" unicode="&#xa9;" horiz-adv-x="2216" 
d="M1184 -66q190 8 373 90t332.5 230.5t236.5 343.5t90 418q0 288 -141.5 544t-381.5 409t-517 153q-234 0 -442.5 -79.5t-365.5 -225t-244.5 -339.5t-90.5 -413q0 -324 150 -582.5t412.5 -403.5t588.5 -145zM1503 1249h193q-6 50 -46.5 151.5t-161.5 202.5t-337 101
q-250 0 -444.5 -184t-194.5 -529q6 -198 98.5 -341t236 -214t300.5 -71q208 0 365.5 120.5t183.5 337.5h-193q-19 -138 -115 -206t-217 -68q-77 0 -147 29q-133 54 -206 185.5t-73 285.5q0 174 92 306.5t261 155.5q165 0 273.5 -77.5t131.5 -184.5zM1118 143
q-240 5 -434 123t-306 327.5t-112 471.5q0 213 111 411t308 321.5t433 123.5q188 0 347 -74.5t274.5 -203t179 -293.5t63.5 -342q0 -231 -125.5 -431.5t-326 -317t-412.5 -116.5z" />
    <glyph glyph-name="afii10053" unicode="&#xaa;" horiz-adv-x="897" 
d="M82 1503q42 -41 90 -41q53 0 108 35t127.5 98.5t88.5 75.5q64 66 77 66q16 0 21 -33q0 -152 131 -152q70 0 156 50q27 25 35 56.5t22 45.5q0 41 -8 49q0 8 -8 8q-64 -61 -99 -61q-27 0 -45 29q-28 22 -28 65q0 29 12 53q-13 27 -15 67t-10 40h-78q-19 -9 -64 -46t-58 -61
q-72 -28 -111 -86q-14 -7 -49 -33.5t-78 -31.5q0 9 12.5 33l12.5 24q18 23 63 66t55 53q49 12 78 74q33 7 65.5 33t62.5 61t57 65q81 43 81 86q-40 41 -90 41q-44 0 -93.5 -25.5t-95.5 -59.5t-89 -66q-127 -86 -127 -107q-73 -44 -149 -172.5t-76 -228.5q0 -42 16 -70z" />
    <glyph glyph-name="guillemotleft" unicode="&#xab;" horiz-adv-x="1257" 
d="M586 1098q-185 -185 -279 -242q-13 -33 -60 -73.5t-86.5 -77t-54.5 -82.5q-28 -46 -28 -103q0 -46 14.5 -94.5t36.5 -100.5t39 -92q33 -32 68.5 -88.5t54.5 -78.5q13 -21 57 -21q56 0 114 28.5t58 61.5q-13 38 -59 107.5t-68 109.5q-53 77 -53 148q0 58 31 110t93.5 125
t88.5 113q30 15 168 135q86 44 86 94q0 17 -12 29q-40 33 -82 33q-16 0 -38 -6.5t-42 -15t-47 -19.5zM1090 1090q-193 -193 -287 -250q-14 -33 -61.5 -73.5t-86.5 -77.5t-53 -83q-24 -49 -24 -106q0 -109 68.5 -242.5t148.5 -200.5q11 -28 65 -28q53 0 104.5 25t51.5 57
q-13 43 -70 135t-81.5 141t-24.5 109q0 58 32 102q14 39 79.5 111.5t88.5 121.5q72 31 177 136q90 51 90 98q0 9 -9 25q-36 36 -81 36q-27 0 -75.5 -17.5t-51.5 -18.5z" />
    <glyph glyph-name="FLW173" unicode="&#xad;" horiz-adv-x="930" 
d="M618 578q43 -17 87 -17q63 0 94.5 42.5t31.5 101.5q0 94 -61 94h-553q-18 0 -59.5 -59.5t-51.5 -59.5q-32 -32 -32 -78q0 -41 57 -41q45 0 135 -4t135 -4q130 0 217 25z" />
    <glyph glyph-name="registered" unicode="&#xae;" horiz-adv-x="2216" 
d="M696 1655v-1254h209v541h185l352 -549h205l-361 549q168 53 250 123.5t82 220.5q0 171 -103 270t-212 99h-607zM905 1479h312q85 0 130.5 -53.5t45.5 -131.5q0 -75 -46.5 -129.5t-129.5 -54.5h-312v369zM1118 -74q223 0 421 94t350 256t235.5 358t83.5 390
q-9 295 -156.5 544t-386.5 395.5t-506 150.5q-251 0 -460 -88.5t-360 -244.5t-232.5 -358.5t-81.5 -423.5q0 -197 78 -386.5t223 -341t347.5 -243.5t444.5 -102zM1167 135q-287 0 -498 126t-319 325.5t-108 412.5q0 220 109.5 430.5t309 343t449.5 132.5q232 0 433 -123
t320 -329t119 -437q0 -219 -104.5 -419.5t-290.5 -326.5t-420 -135z" />
    <glyph glyph-name="afii10056" unicode="&#xaf;" horiz-adv-x="569" 
d="M106 8q7 -96 82 -102q24 0 62 12q23 38 60.5 61t41.5 62q-28 148 -28 319q0 145 18 294.5t48 319t61 337.5q0 57 43 237t43 205q0 7 30.5 129t30.5 191q0 94 -57 94q-45 0 -123 -53q-102 0 -161.5 -93.5t-93.5 -231.5t-57 -237q11 -15 14 -26t3 -15q-18 -45 -25 -131
q0 -37 8 -69q14 0 28.5 -36.5t17.5 -78.5q0 -64 -21 -106q-6 -101 -29.5 -349.5t-23.5 -392.5q0 -179 28 -340zM635 2322h110q20 34 41 44t58 30q16 23 16 82q0 86 -49 86q-38 33 -86 33q-68 0 -126 -60.5t-58 -123.5q0 -79 94 -91zM172 2322q19 0 66 9q32 0 53 -9
q8 21 53 50t49 41q0 40 -6.5 99.5t-30.5 59.5q-30 21 -77 21q-72 0 -128.5 -50.5t-56.5 -109.5q0 -71 78 -111z" />
    <glyph glyph-name="degree" unicode="&#xb0;" horiz-adv-x="598" 
d="M143 1602q0 -10 -10 -25t-10 -16q-25 -43 -25 -78q0 -37 62 -99q53 -53 119 -53q32 0 101.5 22.5t115.5 22.5q34 27 48 52t29 68.5t21 55.5q24 13 24 66l-16 45q0 8 -4 16t-4 17q-114 82 -197 82q-24 0 -53 -9q-10 0 -56 -24t-79 -57q-13 -26 -66 -86zM233 1487
q0 57 46 110.5t106 53.5q26 0 49 -13q45 0 45 -65q0 -88 -53 -94q-56 -29 -123 -29q-63 0 -70 37z" />
    <glyph glyph-name="afii10055" unicode="&#xb2;" horiz-adv-x="569" 
d="M106 8q7 -96 82 -102q24 0 62 12q23 38 60.5 61t41.5 62q-28 148 -28 319q0 145 18 294.5t48 319t61 337.5q0 57 43 237t43 205q0 7 30.5 129t30.5 191q0 94 -57 94q-45 0 -123 -53q-102 0 -161.5 -93.5t-93.5 -231.5t-57 -237q11 -15 14 -26t3 -15q-18 -45 -25 -131
q0 -37 8 -69q14 0 28.5 -36.5t17.5 -78.5q0 -64 -21 -106q-6 -101 -29.5 -349.5t-23.5 -392.5q0 -179 28 -340z" />
    <glyph glyph-name="afii10103" unicode="&#xb3;" horiz-adv-x="958" 
d="M401 1352q0 -41 136 -41q34 21 101.5 67.5t82.5 132.5q15 20 32 74t17 98q0 70 -49 70q-62 0 -123 -32.5t-61 -65.5q-62 -18 -113 -85t-51 -132q0 -52 28 -86zM16 270q13 0 38.5 29t47.5 37q103 143 168 143q9 0 17 -8q29 -26 41 -72t41 -71q0 -42 48.5 -104t135.5 -113
q36 -9 61 -9q87 0 178 62.5t154 138.5q0 49 4 99t4 102q-22 -7 -60.5 -40.5t-53.5 -62.5q-13 -4 -54.5 -22.5t-64.5 -18.5q-73 0 -111 144q-6 33 -16.5 123.5t-24.5 146.5q-65 90 -184 90q-54 -54 -66 -73q-33 -15 -89 -83t-62 -94q-28 -10 -48.5 -29.5t-49.5 -54.5t-45 -51
q-5 -40 -8.5 -63t-6 -45.5t-2.5 -46.5q0 -28 8 -54z" />
    <glyph glyph-name="afii10098" unicode="&#xb4;" horiz-adv-x="754" 
d="M328 1569q-44 -39 -82 -55t-124 -50t-106 -55q7 -23 35 -44.5t35 -21.5q12 6 140.5 48t191.5 88q24 0 126.5 61t127.5 70q15 29 57 86q8 8 8 20q0 10 -16 62q-61 53 -107 53q-12 0 -36 -8q-47 -84 -98 -135t-152 -119z" />
    <glyph glyph-name="FLW182" unicode="&#xb6;" horiz-adv-x="1614" 
d="M709 -70v1463q-181 0 -325.5 78t-227 210.5t-82.5 284.5q0 305 198.5 446.5t550.5 147.5h660v-2630h-209v2425h-356v-2425h-209z" />
    <glyph glyph-name="periodcentered" unicode="&#xb7;" horiz-adv-x="385" 
d="M434 623q78 0 123 53.5t45 126.5q0 70 -44 121t-124 51q-82 0 -129 -51.5t-47 -124.5q0 -70 48 -123t128 -53z" />
    <glyph glyph-name="afii10071" unicode="&#xb8;" horiz-adv-x="1073" 
d="M119 119q110 -94 241 -94q87 0 164.5 35t213 114t200.5 105q20 32 20 151q9 21 9 41q0 12 -9 12q-18 0 -74 -41t-61 -41q-14 -14 -43 -30t-43 -27q-119 -65 -274 -65q-164 0 -164 114q0 32 12 70q21 14 41 27t35.5 27.5t30.5 35.5q68 33 139 105.5t121.5 145t50.5 93.5
q41 17 41 102q0 99 -41 119q-56 62 -139 62q-113 0 -135 -54q-106 -54 -197 -168q-30 -12 -61.5 -66t-69.5 -118q-111 -211 -111 -287q4 -136 25.5 -201t49.5 -105t28 -62zM496 889q16 -11 16 -29q0 -31 -38 -76.5t-56 -54.5q-6 -18 -35.5 -37.5t-54.5 -19.5q-21 5 -21 16
q0 12 13.5 36t15.5 30q104 135 160 135zM848 1393q29 4 65 4q33 0 45 -13q15 30 28.5 41t34 17.5t28.5 11.5q20 35 20 94q0 82 -53 82q-38 33 -86 33q-66 0 -121 -60t-55 -120q0 -79 94 -90zM385 1384q7 1 35 9t43 8q7 0 41 -8q8 22 53 47t49 39q0 8 2 39t2 47q0 65 -41 65
q-39 29 -90 29q-68 0 -120 -49t-52 -107q0 -70 78 -119z" />
    <glyph glyph-name="afii61352" unicode="&#xb9;" horiz-adv-x="2691" 
d="M74 -66q0 -6 -6.5 -33t-6.5 -48q0 -46 37 -62q13 25 50 25t45 24q19 68 78 261t91.5 310t55.5 244q36 126 65.5 229.5t54.5 177t40 81.5q49 -65 167 -361q20 -43 96 -223.5t137 -310.5t124 -226t106 -96q41 4 105 38t96 44q82 108 82 201q56 217 87.5 438t54.5 506
t42 520t45 432q-5 115 -28 115q-6 0 -115 -86q-87 -161 -114.5 -337t-35.5 -457.5t-18 -372.5q-48 -320 -77 -488.5t-50 -199.5q-44 17 -83 100t-112 276.5t-116 286.5q-19 83 -67.5 212t-96 254t-70.5 222q0 60 15 118.5t49 147.5t39 103q0 69 -37 69q-32 0 -110.5 -65.5
t-90.5 -65.5q-6 37 -94 37q-38 0 -82 -12q-38 0 -60 -82t-22 -201q-19 -44 -38.5 -205t-47 -400.5t-57.5 -401.5q-15 -30 -58 -298t-69 -440zM2363 872q-122 -122 -229 -122q-29 17 -29 57q0 38 21.5 81t44.5 62q49 0 65 49q47 54 107 54q61 0 61 -95q-11 -22 -21.5 -45.5
t-19.5 -40.5zM1987 631q28 -22 155 -41q43 13 94 29.5t92 41t60 60.5q44 22 66 61q56 33 97.5 123t41.5 176q0 55 -21 95q-55 61 -143 61q-64 0 -143 -29q0 25 24 49q0 37 -90 37q-138 -136 -160 -143q-58 -60 -106.5 -165t-48.5 -195q0 -113 82 -160zM2261 336
q49 -12 82 -12q115 0 115 94q0 69 -54 69h-520q-19 0 -58.5 -40.5t-47.5 -40.5q-33 -23 -33 -54q0 -28 53 -28q64 0 136.5 -2.5t113.5 -2.5q108 0 213 17z" />
    <glyph glyph-name="afii10101" unicode="&#xba;" horiz-adv-x="713" 
d="M635 1745q-123 -123 -229 -123q-29 17 -29 57q0 38 23 83t42 61q50 0 66 49q44 53 106 53t62 -94q-15 -30 -24 -49.5t-17 -36.5zM258 1503q29 -21 156 -41q37 12 90.5 29t94.5 41.5t60 60.5q45 24 66 62q58 34 98.5 123.5t40.5 175.5q0 52 -20 94q-55 61 -144 61
q-63 0 -143 -28q0 27 25 49q0 37 -90 37q-134 -134 -160 -144q-57 -56 -106.5 -163t-49.5 -197q0 -113 82 -160z" />
    <glyph glyph-name="guillemotright" unicode="&#xbb;" horiz-adv-x="1257" 
d="M799 1098q169 -176 278 -242q13 -33 60 -73.5t86.5 -77t54.5 -82.5q29 -48 29 -103q0 -46 -14 -93.5t-36.5 -100.5t-39.5 -93q-33 -32 -69.5 -90t-53.5 -77q-15 -21 -58 -21q-54 0 -113 29t-59 61q14 36 62 111t65 106q53 77 53 148q0 58 -31 110t-93.5 125t-88.5 113
q-32 16 -167 135q-86 43 -86 94q0 17 12 29q38 33 82 33q16 0 38 -6.5t42 -15t47 -19.5zM295 1090q176 -183 287 -250q14 -33 62 -74.5t86 -77.5t52 -82q25 -49 25 -106q0 -110 -69.5 -243.5t-147.5 -199.5q-11 -28 -66 -28q-52 0 -103.5 25t-51.5 57q11 35 93.5 171
t82.5 214q0 58 -33 102q-13 39 -78.5 111.5t-89.5 121.5q-74 33 -176 136q-90 51 -90 98q0 7 8 25q37 36 82 36q26 0 72.5 -17t54.5 -19z" />
    <glyph glyph-name="afii10104" unicode="&#xbf;" horiz-adv-x="958" 
d="M737 1397q29 4 66 4q33 0 45 -12q14 29 28.5 40.5t34 17.5t27.5 11q20 35 20 94q0 82 -53 82q-37 33 -86 33q-66 0 -121 -60t-55 -120q0 -79 94 -90zM274 1389q19 2 43.5 9t34.5 7q9 0 41 -8q10 24 54.5 48.5t48.5 37.5q0 8 2 39t2 47q0 65 -41 65q-40 29 -90 29
q-68 0 -120 -49t-52 -107q0 -72 77 -118zM16 270q13 0 38.5 29t47.5 37q103 143 168 143q9 0 17 -8q29 -26 41 -72t41 -71q0 -42 48.5 -104t135.5 -113q36 -9 61 -9q87 0 178 62.5t154 138.5q0 49 4 99t4 102q-22 -7 -60.5 -40.5t-53.5 -62.5q-13 -4 -54.5 -22.5
t-64.5 -18.5q-73 0 -111 144q-6 33 -16.5 123.5t-24.5 146.5q-65 90 -184 90q-54 -54 -66 -73q-33 -15 -89 -83t-62 -94q-28 -10 -48.5 -29.5t-49.5 -54.5t-45 -51q-5 -40 -8.5 -63t-6 -45.5t-2.5 -46.5q0 -28 8 -54z" />
    <glyph glyph-name="afii10017" unicode="&#xc0;" horiz-adv-x="1503" 
d="M168 -176q39 75 58 121.5t24 140.5q13 6 24 38t27 97.5t27 106.5q37 53 57.5 100t31 85t21.5 81q77 0 141.5 23.5t168.5 73t157 63.5q56 0 142 18.5t88 18.5q8 -54 8 -312q8 -20 8 -78q0 -66 -8 -98q8 -74 8 -102q0 -39 -8 -119t-8 -131q6 -41 32 -41q34 0 80.5 48.5
t46.5 90.5q18 48 33.5 160t15.5 176q12 11 31 204t19 267q69 35 69 90q0 46 -53 78q0 36 4 119t4 123q0 140 -33 168q9 41 9 131q0 157 -33 258q-10 64 -34.5 81t-101 52.5t-106.5 83.5q0 15 33 93t33 116t-33 49q-24 8 -41 8q-36 0 -67.5 -19.5t-85 -59.5t-76.5 -44
q-6 -38 -34 -74t-56 -36q-14 -6 -41.5 -10.5t-45.5 -18t-32 -45.5q-8 -17 -8 -41q0 -23 16 -40t16 -26q0 -12 -8 -20q-102 -80 -295 -766q-31 -48 -56 -118t-42 -116q-90 -11 -132 -58t-69 -150q8 -33 8 -103q0 -57 82 -57q0 -35 -36.5 -135.5t-36.5 -159.5
q-10 -10 -23.5 -55t-13.5 -80q-49 -106 -49 -197q0 -86 57 -86q28 0 86 33zM1135 958q-119 0 -168 -28q-61 0 -191 -12.5t-170 -12.5q-41 0 -45 8q0 42 16.5 86t53 113.5t55 110.5t27.5 88q7 13 47.5 85t58 112.5t21.5 76.5q67 94 98 94q56 -4 94.5 -44.5t71 -97t39.5 -58.5
q-13 -47 -13 -99q10 -134 29 -139q-20 -7 -20 -70q0 -45 12 -81q0 -132 -16 -132z" />
    <glyph glyph-name="afii10017" unicode="&#x410;" horiz-adv-x="1503" 
d="M168 -176q39 75 58 121.5t24 140.5q13 6 24 38t27 97.5t27 106.5q37 53 57.5 100t31 85t21.5 81q77 0 141.5 23.5t168.5 73t157 63.5q56 0 142 18.5t88 18.5q8 -54 8 -312q8 -20 8 -78q0 -66 -8 -98q8 -74 8 -102q0 -39 -8 -119t-8 -131q6 -41 32 -41q34 0 80.5 48.5
t46.5 90.5q18 48 33.5 160t15.5 176q12 11 31 204t19 267q69 35 69 90q0 46 -53 78q0 36 4 119t4 123q0 140 -33 168q9 41 9 131q0 157 -33 258q-10 64 -34.5 81t-101 52.5t-106.5 83.5q0 15 33 93t33 116t-33 49q-24 8 -41 8q-36 0 -67.5 -19.5t-85 -59.5t-76.5 -44
q-6 -38 -34 -74t-56 -36q-14 -6 -41.5 -10.5t-45.5 -18t-32 -45.5q-8 -17 -8 -41q0 -23 16 -40t16 -26q0 -12 -8 -20q-102 -80 -295 -766q-31 -48 -56 -118t-42 -116q-90 -11 -132 -58t-69 -150q8 -33 8 -103q0 -57 82 -57q0 -35 -36.5 -135.5t-36.5 -159.5
q-10 -10 -23.5 -55t-13.5 -80q-49 -106 -49 -197q0 -86 57 -86q28 0 86 33zM1135 958q-119 0 -168 -28q-61 0 -191 -12.5t-170 -12.5q-41 0 -45 8q0 42 16.5 86t53 113.5t55 110.5t27.5 88q7 13 47.5 85t58 112.5t21.5 76.5q67 94 98 94q56 -4 94.5 -44.5t71 -97t39.5 -58.5
q-13 -47 -13 -99q10 -134 29 -139q-20 -7 -20 -70q0 -45 12 -81q0 -132 -16 -132z" />
    <glyph glyph-name="afii10018" unicode="&#xc1;" horiz-adv-x="1368" 
d="M176 2167q113 49 386 92t511 43q221 0 320 -41q0 -25 4 -88t4 -92q0 -98 -62 -103q-119 45 -340 45q-66 0 -149.5 -5t-148 -12t-95.5 -11q-28 -53 -45 -110.5t-30.5 -128.5t-30.5 -159q-42 -212 -54 -254q283 -101 500 -249q119 -80 219.5 -208.5t100.5 -295.5
q0 -97 -62 -198.5t-127 -166.5q-73 -73 -180.5 -128t-200.5 -77q-249 -47 -290 -49q-58 0 -123 13q-116 12 -162.5 75t-46.5 207q0 90 20 275q67 669 180 1228q3 34 57 103t58 102q-5 17 -24 17q-25 0 -99 -31t-94 -31q-37 76 -37 144q0 70 41 94zM373 836
q-37 -207 -37 -394q0 -193 29 -241q24 -37 106 -37q150 0 287 82q121 71 171 126t91 165q0 94 -79 193.5t-187 175.5t-193 106q-57 33 -65 49q-31 69 -82 94q-16 -177 -41 -319z" />
    <glyph glyph-name="afii10018" unicode="&#x411;" horiz-adv-x="1368" 
d="M176 2167q113 49 386 92t511 43q221 0 320 -41q0 -25 4 -88t4 -92q0 -98 -62 -103q-119 45 -340 45q-66 0 -149.5 -5t-148 -12t-95.5 -11q-28 -53 -45 -110.5t-30.5 -128.5t-30.5 -159q-42 -212 -54 -254q283 -101 500 -249q119 -80 219.5 -208.5t100.5 -295.5
q0 -97 -62 -198.5t-127 -166.5q-73 -73 -180.5 -128t-200.5 -77q-249 -47 -290 -49q-58 0 -123 13q-116 12 -162.5 75t-46.5 207q0 90 20 275q67 669 180 1228q3 34 57 103t58 102q-5 17 -24 17q-25 0 -99 -31t-94 -31q-37 76 -37 144q0 70 41 94zM373 836
q-37 -207 -37 -394q0 -193 29 -241q24 -37 106 -37q150 0 287 82q121 71 171 126t91 165q0 94 -79 193.5t-187 175.5t-193 106q-57 33 -65 49q-31 69 -82 94q-16 -177 -41 -319z" />
    <glyph glyph-name="afii10019" unicode="&#xc2;" horiz-adv-x="1577" 
d="M250 -184q6 -12 19.5 -30.5t29.5 -18.5q16 16 57 16q46 0 62 -16q0 24 16.5 71.5t16.5 75.5q139 0 366.5 58.5t296.5 109.5q52 19 107 40t116.5 57t101.5 85t40 113q0 110 -136 246q-62 54 -161.5 95t-251 95t-223.5 93.5t-72 84.5q0 9 8 25q77 64 267.5 160t289.5 158
t160 161q225 143 225 471q-23 41 -70.5 90t-80.5 49q-110 70 -267 70q-77 16 -237 16q-115 -11 -322 -33.5t-358.5 -81.5t-151.5 -175q0 -33 8 -54q12 0 116 13.5t171 19.5q17 0 52 6t47 6q20 0 20 -12q0 -19 -37.5 -63t-40.5 -56q-57 -19 -80.5 -127.5t-39.5 -296.5
t-31 -256q-26 -25 -85 -48.5t-83 -49.5q0 -94 16 -119q66 -20 100.5 -53.5t34.5 -122.5q0 -15 -2 -130t-2 -193q0 -205 12 -279q-30 -6 -53 -10.5t-60.5 -32.5t-103.5 -109q43 -118 193 -118zM795 631q127 -33 239.5 -94.5t112.5 -98.5q-14 -78 -201 -135q-67 -33 -114 -57
t-111 -45q-59 -20 -152 -39t-110 -27q0 68 29.5 303t56.5 291q13 0 67 -33t183 -65zM1122 1528q-107 -82 -276.5 -184.5t-218.5 -102.5q-13 42 -13 86q0 71 23 138.5t51 95.5q-29 46 -29 110q0 67 33.5 141t52.5 93q504 0 504 -160q0 -40 -22.5 -80t-51 -74t-53.5 -63z" />
    <glyph glyph-name="afii10019" unicode="&#x412;" horiz-adv-x="1577" 
d="M250 -184q6 -12 19.5 -30.5t29.5 -18.5q16 16 57 16q46 0 62 -16q0 24 16.5 71.5t16.5 75.5q139 0 366.5 58.5t296.5 109.5q52 19 107 40t116.5 57t101.5 85t40 113q0 110 -136 246q-62 54 -161.5 95t-251 95t-223.5 93.5t-72 84.5q0 9 8 25q77 64 267.5 160t289.5 158
t160 161q225 143 225 471q-23 41 -70.5 90t-80.5 49q-110 70 -267 70q-77 16 -237 16q-115 -11 -322 -33.5t-358.5 -81.5t-151.5 -175q0 -33 8 -54q12 0 116 13.5t171 19.5q17 0 52 6t47 6q20 0 20 -12q0 -19 -37.5 -63t-40.5 -56q-57 -19 -80.5 -127.5t-39.5 -296.5
t-31 -256q-26 -25 -85 -48.5t-83 -49.5q0 -94 16 -119q66 -20 100.5 -53.5t34.5 -122.5q0 -15 -2 -130t-2 -193q0 -205 12 -279q-30 -6 -53 -10.5t-60.5 -32.5t-103.5 -109q43 -118 193 -118zM795 631q127 -33 239.5 -94.5t112.5 -98.5q-14 -78 -201 -135q-67 -33 -114 -57
t-111 -45q-59 -20 -152 -39t-110 -27q0 68 29.5 303t56.5 291q13 0 67 -33t183 -65zM1122 1528q-107 -82 -276.5 -184.5t-218.5 -102.5q-13 42 -13 86q0 71 23 138.5t51 95.5q-29 46 -29 110q0 67 33.5 141t52.5 93q504 0 504 -160q0 -40 -22.5 -80t-51 -74t-53.5 -63z" />
    <glyph glyph-name="afii10020" unicode="&#xc3;" horiz-adv-x="1389" 
d="M406 2150q-95 -27 -95 -217v-61q0 -96 -73 -647q0 -60 6 -194t6 -204q0 -209 -41 -331q-6 -86 -50.5 -182.5t-68.5 -96.5q-28 -51 -44.5 -115t-41.5 -110q14 -9 28 -23.5t24.5 -24t25 -14t37.5 -4.5q25 15 78 30.5t61 18.5q39 34 70 129t71 249t56 175q10 40 26 167.5
t27 190t33 118.5q0 151 41 386.5t49 338.5q0 17 -60.5 84.5t-62.5 82.5q46 29 262 29q115 0 348 -8t303 -8q0 12 8.5 76.5t8.5 107.5q0 82 -33 98q-98 41 -197 41q-37 -13 -265.5 -17t-365 -14t-171.5 -51z" />
    <glyph glyph-name="afii10020" unicode="&#x413;" horiz-adv-x="1389" 
d="M406 2150q-95 -27 -95 -217v-61q0 -96 -73 -647q0 -60 6 -194t6 -204q0 -209 -41 -331q-6 -86 -50.5 -182.5t-68.5 -96.5q-28 -51 -44.5 -115t-41.5 -110q14 -9 28 -23.5t24.5 -24t25 -14t37.5 -4.5q25 15 78 30.5t61 18.5q39 34 70 129t71 249t56 175q10 40 26 167.5
t27 190t33 118.5q0 151 41 386.5t49 338.5q0 17 -60.5 84.5t-62.5 82.5q46 29 262 29q115 0 348 -8t303 -8q0 12 8.5 76.5t8.5 107.5q0 82 -33 98q-98 41 -197 41q-37 -13 -265.5 -17t-365 -14t-171.5 -51z" />
    <glyph glyph-name="afii10021" unicode="&#xc4;" horiz-adv-x="1499" 
d="M442 1794l9 -25q-36 -4 -59.5 -25t-53 -59.5t-47.5 -54.5q-37 -20 -52 -98.5t-30 -224.5t-25 -181v-86q-27 -130 -39 -257t-24 -326.5t-23 -296.5q0 -11 -4 -53t-4 -74q13 -33 37 -33q41 0 98 98.5t66 163.5q32 167 119.5 568t126.5 624q16 74 37 163t44 103
q3 0 108.5 -62t170.5 -89l25 -25q254 -254 319 -454q0 -71 -10 -122.5t-28.5 -112.5t-22.5 -85q-2 -4 -25.5 -28.5t-32.5 -36.5q-92 -188 -214.5 -313t-329.5 -281q-24 -18 -139.5 -60t-185 -88t-69.5 -123q12 -82 119 -82q54 0 139 25q66 15 123 43.5t120.5 70t133.5 87.5
q23 16 116 76t136 103t43 87q-4 12 -20 12q-38 0 -78 -20q14 51 86.5 121t81.5 83q135 169 217 364t82 382q0 334 -266 545l-201 135q-111 84 -311 184q-35 9 -84.5 21t-96 20t-90.5 8q-105 62 -201 62q-6 -3 -82.5 -13t-76.5 -32q0 -58 8 -82q6 -75 9.5 -87t23.5 -24.5
t143 -81.5q21 -4 82 -23t102 -30z" />
    <glyph glyph-name="afii10021" unicode="&#x414;" horiz-adv-x="1499" 
d="M442 1794l9 -25q-36 -4 -59.5 -25t-53 -59.5t-47.5 -54.5q-37 -20 -52 -98.5t-30 -224.5t-25 -181v-86q-27 -130 -39 -257t-24 -326.5t-23 -296.5q0 -11 -4 -53t-4 -74q13 -33 37 -33q41 0 98 98.5t66 163.5q32 167 119.5 568t126.5 624q16 74 37 163t44 103
q3 0 108.5 -62t170.5 -89l25 -25q254 -254 319 -454q0 -71 -10 -122.5t-28.5 -112.5t-22.5 -85q-2 -4 -25.5 -28.5t-32.5 -36.5q-92 -188 -214.5 -313t-329.5 -281q-24 -18 -139.5 -60t-185 -88t-69.5 -123q12 -82 119 -82q54 0 139 25q66 15 123 43.5t120.5 70t133.5 87.5
q23 16 116 76t136 103t43 87q-4 12 -20 12q-38 0 -78 -20q14 51 86.5 121t81.5 83q135 169 217 364t82 382q0 334 -266 545l-201 135q-111 84 -311 184q-35 9 -84.5 21t-96 20t-90.5 8q-105 62 -201 62q-6 -3 -82.5 -13t-76.5 -32q0 -58 8 -82q6 -75 9.5 -87t23.5 -24.5
t143 -81.5q21 -4 82 -23t102 -30z" />
    <glyph glyph-name="afii10022" unicode="&#xc5;" horiz-adv-x="1339" 
d="M799 0q64 0 191.5 80t172.5 129q58 80 58 131q0 33 -25 33q-18 0 -57 -21q-289 -168 -852 -168q0 118 26.5 307.5t26.5 245.5q30 152 168 152q92 0 266 28.5t270 28.5q78 0 119 -8q26 5 42 47.5t16 95.5q0 136 -82 136q-27 0 -111 4t-135 4q-152 0 -242 -58
q-46 -12 -116 -69.5t-105 -57.5q0 180 143 623q21 114 75.5 162.5t155.5 59.5t335 11q12 -18 54.5 -37.5t80.5 -19.5q74 0 74 70q0 7 -9 45q29 39 29 94q0 72 -37 102q-49 54 -188 54q-54 0 -125.5 -6.5t-91.5 -6.5q-242 -47 -299 -118q-69 -56 -156.5 -128.5t-144 -148
t-64.5 -158.5q-16 0 -69.5 -318.5t-53.5 -361.5q0 -6 -27.5 -183.5t-41.5 -319.5q0 -36 -18.5 -141.5t-18.5 -157.5q0 -140 106 -140q13 0 13 -12q0 -6 -6.5 -28.5t-6.5 -41.5q60 -16 168 -16q278 8 492 82z" />
    <glyph glyph-name="afii10022" unicode="&#x415;" horiz-adv-x="1339" 
d="M799 0q64 0 191.5 80t172.5 129q58 80 58 131q0 33 -25 33q-18 0 -57 -21q-289 -168 -852 -168q0 118 26.5 307.5t26.5 245.5q30 152 168 152q92 0 266 28.5t270 28.5q78 0 119 -8q26 5 42 47.5t16 95.5q0 136 -82 136q-27 0 -111 4t-135 4q-152 0 -242 -58
q-46 -12 -116 -69.5t-105 -57.5q0 180 143 623q21 114 75.5 162.5t155.5 59.5t335 11q12 -18 54.5 -37.5t80.5 -19.5q74 0 74 70q0 7 -9 45q29 39 29 94q0 72 -37 102q-49 54 -188 54q-54 0 -125.5 -6.5t-91.5 -6.5q-242 -47 -299 -118q-69 -56 -156.5 -128.5t-144 -148
t-64.5 -158.5q-16 0 -69.5 -318.5t-53.5 -361.5q0 -6 -27.5 -183.5t-41.5 -319.5q0 -36 -18.5 -141.5t-18.5 -157.5q0 -140 106 -140q13 0 13 -12q0 -6 -6.5 -28.5t-6.5 -41.5q60 -16 168 -16q278 8 492 82z" />
    <glyph glyph-name="afii10024" unicode="&#xc6;" horiz-adv-x="3760" 
d="M1761 8q-28 155 -28 303q0 135 20 320q-136 6 -260 22.5t-150 26.5q-10 -16 -115.5 -230t-129.5 -241q-92 -134 -187 -208.5t-317 -127.5q-60 -16 -131 -16q-177 0 -285 124t-121 367q0 33 -2 74t-2 57q0 89 49 201q18 41 45 41q50 0 50 -107q0 -211 19 -306t55 -122.5
t114 -42.5q66 -8 94 -8q199 0 340 135q56 63 146 206.5t137 256.5q-31 1 -80.5 15.5t-98 31.5t-112.5 39q7 27 29 94q23 70 43.5 96.5t58.5 26.5q51 -4 134 -41t120 -37q35 128 54.5 274t19.5 218q-28 180 -140.5 276.5t-257.5 96.5q-237 0 -380 -205l-17 262
q256 250 541 250q136 0 249 -65.5t189 -196.5q102 -170 102 -365q0 -99 -21 -188t-59.5 -203t-50.5 -170q19 -9 54 -14t61 -19q36 -2 90.5 -12t126.5 -12q3 26 14.5 93t14.5 112q16 43 16 98q0 49 -12 86t-29 37q0 180 17 200q12 0 -17 41q22 98 56 236.5t93.5 232
t162.5 93.5q72 49 122 49q58 0 58 -90q0 -69 -31 -193t-31 -127q0 -25 -43 -205t-43 -237q-12 -73 -25 -157t-26.5 -173.5t-21.5 -140.5q58 0 138.5 -5.5t123.5 -7.5q39 320 221 643q114 228 229 283q17 52 125.5 138.5t248.5 152.5t249 70q352 0 352 -209q41 -108 41 -250
q0 -66 -8 -94q0 -54 -102 -369q-3 -81 -20.5 -114.5t-65.5 -33.5q-53 0 -173 37q-4 62 -4 156q0 117 16.5 174t61.5 117q66 101 66 172q0 77 -70 116t-172 39q-152 0 -233 -61q-258 -176 -439 -659q0 -60 -49 -308q214 -8 213 -8q29 0 29 -28q0 -43 -37 -95
q-13 -41 -24.5 -51t-45.5 -10q9 0 -131 8q15 -81 66 -209.5t65 -183.5q8 0 114 -92t169 -92q43 -17 102 -17q101 0 196 38.5t259 121.5q0 41 16 41q33 0 33 -57q0 -36 -24 -66q-26 -31 -80 -76.5t-64 -58.5q-21 -6 -134 -60.5t-161 -66.5q-65 -21 -155 -21q-101 0 -222 41
t-135 41q-147 58 -245.5 275.5t-98.5 421.5q-45 2 -137 2t-141 2q-17 -124 -17 -267q0 -152 29 -319q-4 -39 -41.5 -62t-60.5 -61q-25 -8 -62 -8q-76 0 -82 98z" />
    <glyph glyph-name="afii10024" unicode="&#x416;" horiz-adv-x="3760" 
d="M1761 8q-28 155 -28 303q0 135 20 320q-136 6 -260 22.5t-150 26.5q-10 -16 -115.5 -230t-129.5 -241q-92 -134 -187 -208.5t-317 -127.5q-60 -16 -131 -16q-177 0 -285 124t-121 367q0 33 -2 74t-2 57q0 89 49 201q18 41 45 41q50 0 50 -107q0 -211 19 -306t55 -122.5
t114 -42.5q66 -8 94 -8q199 0 340 135q56 63 146 206.5t137 256.5q-31 1 -80.5 15.5t-98 31.5t-112.5 39q7 27 29 94q23 70 43.5 96.5t58.5 26.5q51 -4 134 -41t120 -37q35 128 54.5 274t19.5 218q-28 180 -140.5 276.5t-257.5 96.5q-237 0 -380 -205l-17 262
q256 250 541 250q136 0 249 -65.5t189 -196.5q102 -170 102 -365q0 -99 -21 -188t-59.5 -203t-50.5 -170q19 -9 54 -14t61 -19q36 -2 90.5 -12t126.5 -12q3 26 14.5 93t14.5 112q16 43 16 98q0 49 -12 86t-29 37q0 180 17 200q12 0 -17 41q22 98 56 236.5t93.5 232
t162.5 93.5q72 49 122 49q58 0 58 -90q0 -69 -31 -193t-31 -127q0 -25 -43 -205t-43 -237q-12 -73 -25 -157t-26.5 -173.5t-21.5 -140.5q58 0 138.5 -5.5t123.5 -7.5q39 320 221 643q114 228 229 283q17 52 125.5 138.5t248.5 152.5t249 70q352 0 352 -209q41 -108 41 -250
q0 -66 -8 -94q0 -54 -102 -369q-3 -81 -20.5 -114.5t-65.5 -33.5q-53 0 -173 37q-4 62 -4 156q0 117 16.5 174t61.5 117q66 101 66 172q0 77 -70 116t-172 39q-152 0 -233 -61q-258 -176 -439 -659q0 -60 -49 -308q214 -8 213 -8q29 0 29 -28q0 -43 -37 -95
q-13 -41 -24.5 -51t-45.5 -10q9 0 -131 8q15 -81 66 -209.5t65 -183.5q8 0 114 -92t169 -92q43 -17 102 -17q101 0 196 38.5t259 121.5q0 41 16 41q33 0 33 -57q0 -36 -24 -66q-26 -31 -80 -76.5t-64 -58.5q-21 -6 -134 -60.5t-161 -66.5q-65 -21 -155 -21q-101 0 -222 41
t-135 41q-147 58 -245.5 275.5t-98.5 421.5q-45 2 -137 2t-141 2q-17 -124 -17 -267q0 -152 29 -319q-4 -39 -41.5 -62t-60.5 -61q-25 -8 -62 -8q-76 0 -82 98z" />
    <glyph glyph-name="afii10025" unicode="&#xc7;" horiz-adv-x="1307" 
d="M160 -160q154 0 289.5 52.5t269.5 136t289 180.5q249 135 249 414q-32 127 -118 186t-237.5 123t-196.5 117q68 106 135.5 213t97.5 122q14 43 153 248.5t175 272.5q0 132 -91 197t-253 65q-200 0 -385 -25t-238 -78q-41 -41 -90 -139t-49 -164q0 -77 65 -82q1 0 128 44
t216 63q98 16 160 16q184 0 184 -49q-34 -87 -188 -309.5t-266 -353.5q-70 -83 -70 -148q0 -77 82 -127t247 -107t220 -85q29 -13 29 -33q0 -78 -280 -248.5t-503 -275.5q-3 -3 -51 -40t-80.5 -71t-32.5 -61q0 -54 140 -54z" />
    <glyph glyph-name="afii10025" unicode="&#x417;" horiz-adv-x="1307" 
d="M160 -160q154 0 289.5 52.5t269.5 136t289 180.5q249 135 249 414q-32 127 -118 186t-237.5 123t-196.5 117q68 106 135.5 213t97.5 122q14 43 153 248.5t175 272.5q0 132 -91 197t-253 65q-200 0 -385 -25t-238 -78q-41 -41 -90 -139t-49 -164q0 -77 65 -82q1 0 128 44
t216 63q98 16 160 16q184 0 184 -49q-34 -87 -188 -309.5t-266 -353.5q-70 -83 -70 -148q0 -77 82 -127t247 -107t220 -85q29 -13 29 -33q0 -78 -280 -248.5t-503 -275.5q-3 -3 -51 -40t-80.5 -71t-32.5 -61q0 -54 140 -54z" />
    <glyph glyph-name="afii10026" unicode="&#xc8;" horiz-adv-x="1696" 
d="M897 819h4q0 54 114 252t148 215q17 0 28.5 25.5t32 87.5t38 96t41.5 45q20 -30 20 -94q0 -156 -143 -488q0 -88 -39.5 -308.5t-71.5 -284.5q0 -119 -32.5 -325t-32.5 -314q8 0 27 -6.5t38 -6.5q22 0 57 13q28 68 43.5 78.5t33 65.5t75.5 294q40 95 65 266.5t46 292.5
t81 219q5 43 13 100.5t8 83.5q106 287 106 574q50 248 50 364q0 131 -58 131q-53 0 -168 -127q-20 -38 -58.5 -84t-59.5 -83q-62 -73 -173.5 -240t-138.5 -219q-35 -14 -158.5 -256t-266.5 -529t-169 -301q-12 55 -12 103q0 38 16 150t21 231q0 103 34 362t36 289
q3 28 32 173t49 278q25 59 25 102q0 94 -106 94q-125 0 -205 -86q-10 -25 -18 -133.5t-15 -153.5q-35 -244 -82 -688q-11 -47 -21.5 -126.5t-23.5 -123.5q4 -41 4 -139q0 -65 16 -98q-20 -61 -20 -189q0 -57 6 -177t6 -175q0 -52 42 -91.5t102 -39.5q105 0 168 102
q10 30 64 110.5t67 119.5q0 38 58 108t97 109l-8 -8q-8 4 -8 20q0 34 88 166t88 174z" />
    <glyph glyph-name="afii10026" unicode="&#x418;" horiz-adv-x="1696" 
d="M897 819h4q0 54 114 252t148 215q17 0 28.5 25.5t32 87.5t38 96t41.5 45q20 -30 20 -94q0 -156 -143 -488q0 -88 -39.5 -308.5t-71.5 -284.5q0 -119 -32.5 -325t-32.5 -314q8 0 27 -6.5t38 -6.5q22 0 57 13q28 68 43.5 78.5t33 65.5t75.5 294q40 95 65 266.5t46 292.5
t81 219q5 43 13 100.5t8 83.5q106 287 106 574q50 248 50 364q0 131 -58 131q-53 0 -168 -127q-20 -38 -58.5 -84t-59.5 -83q-62 -73 -173.5 -240t-138.5 -219q-35 -14 -158.5 -256t-266.5 -529t-169 -301q-12 55 -12 103q0 38 16 150t21 231q0 103 34 362t36 289
q3 28 32 173t49 278q25 59 25 102q0 94 -106 94q-125 0 -205 -86q-10 -25 -18 -133.5t-15 -153.5q-35 -244 -82 -688q-11 -47 -21.5 -126.5t-23.5 -123.5q4 -41 4 -139q0 -65 16 -98q-20 -61 -20 -189q0 -57 6 -177t6 -175q0 -52 42 -91.5t102 -39.5q105 0 168 102
q10 30 64 110.5t67 119.5q0 38 58 108t97 109l-8 -8q-8 4 -8 20q0 34 88 166t88 174z" />
    <glyph glyph-name="afii10027" unicode="&#xc9;" horiz-adv-x="1712" 
d="M958 819h5q0 54 114 252t148 215q17 0 30 29t30 83.5t36 92.5t43 49q20 -30 20 -94q0 -156 -143 -488q0 -88 -38 -306t-73 -287q0 -119 -32.5 -325t-32.5 -314q8 0 28 -6.5t37 -6.5q22 0 58 13q28 68 43.5 78.5t32.5 65.5t75 294q42 99 66.5 268.5t45.5 290.5t81 219
q4 45 12 101.5t8 82.5q107 290 107 574q49 244 49 364q0 131 -57 131q-55 0 -168 -127q-20 -38 -58 -82t-61 -85q-66 -77 -176.5 -243.5t-134.5 -215.5q-35 -14 -157.5 -255t-266.5 -529t-170 -302q-13 60 -13 103q0 38 16 150t21 231q0 88 33 339.5t37 311.5q4 36 33 177
t49 274q24 60 24 102q0 94 -106 94q-125 0 -205 -86q-9 -22 -17 -131t-16 -156q-38 -279 -82 -688q-11 -47 -21.5 -126.5t-23.5 -123.5q5 -41 5 -139q0 -65 16 -98q-21 -64 -21 -189q0 -57 6.5 -169.5t6.5 -182.5q0 -53 41.5 -92t101.5 -39q105 0 168 102q13 36 66 115
t65 115q0 39 58.5 108.5t97.5 108.5l-8 -8q-9 4 -9 20q0 34 88 166t88 174zM983 2474q-56 -42 -173 -86.5t-142 -73.5q0 -18 29 -39.5t44 -21.5q16 9 141.5 47t178.5 80q22 4 124.5 61.5t137.5 65.5q6 17 31.5 61.5t25.5 73.5q0 24 -8 41q-57 57 -110 57q-9 0 -33 -8
q-51 -86 -98.5 -134.5t-147.5 -123.5z" />
    <glyph glyph-name="afii10027" unicode="&#x419;" horiz-adv-x="1712" 
d="M958 819h5q0 54 114 252t148 215q17 0 30 29t30 83.5t36 92.5t43 49q20 -30 20 -94q0 -156 -143 -488q0 -88 -38 -306t-73 -287q0 -119 -32.5 -325t-32.5 -314q8 0 28 -6.5t37 -6.5q22 0 58 13q28 68 43.5 78.5t32.5 65.5t75 294q42 99 66.5 268.5t45.5 290.5t81 219
q4 45 12 101.5t8 82.5q107 290 107 574q49 244 49 364q0 131 -57 131q-55 0 -168 -127q-20 -38 -58 -82t-61 -85q-66 -77 -176.5 -243.5t-134.5 -215.5q-35 -14 -157.5 -255t-266.5 -529t-170 -302q-13 60 -13 103q0 38 16 150t21 231q0 88 33 339.5t37 311.5q4 36 33 177
t49 274q24 60 24 102q0 94 -106 94q-125 0 -205 -86q-9 -22 -17 -131t-16 -156q-38 -279 -82 -688q-11 -47 -21.5 -126.5t-23.5 -123.5q5 -41 5 -139q0 -65 16 -98q-21 -64 -21 -189q0 -57 6.5 -169.5t6.5 -182.5q0 -53 41.5 -92t101.5 -39q105 0 168 102q13 36 66 115
t65 115q0 39 58.5 108.5t97.5 108.5l-8 -8q-9 4 -9 20q0 34 88 166t88 174zM983 2474q-56 -42 -173 -86.5t-142 -73.5q0 -18 29 -39.5t44 -21.5q16 9 141.5 47t178.5 80q22 4 124.5 61.5t137.5 65.5q6 17 31.5 61.5t25.5 73.5q0 24 -8 41q-57 57 -110 57q-9 0 -33 -8
q-51 -86 -98.5 -134.5t-147.5 -123.5z" />
    <glyph glyph-name="afii10028" unicode="&#xca;" horiz-adv-x="1503" 
d="M762 168q110 -188 250 -188q97 0 213 86q22 30 62.5 75t64.5 84q59 13 91 55.5t32 88.5q0 49 -37 49q-31 0 -78 -41q-38 -28 -79 -59t-83 -53.5t-84 -22.5q-83 0 -131 102q-61 83 -106.5 178.5t-103.5 225.5t-109 210q0 41 22.5 66t108.5 94q11 25 63.5 81t150 161
t105.5 119q0 11 55 72.5t114 139.5t118 189q39 20 70.5 115t31.5 213q-16 45 -41 45q5 0 -53 -21q-91 0 -201 -73q-110 -52 -110 -103q0 -21 26.5 -46.5t26.5 -35.5q-15 -68 -124 -244t-204 -280q-80 -96 -146.5 -178t-137.5 -157t-154 -132q0 86 15.5 172.5t46 202.5
t48 189.5t25.5 156.5q53 165 53 225q0 111 -86 144q-120 -29 -187 -125t-67 -219q0 -48 -45 -396t-45 -411q0 -20 -10 -60t-10 -88q-3 -26 -26.5 -198t-33.5 -268t-10 -181q0 -77 13 -119q13 0 47 -4t51 -4q74 0 94 41q-12 67 -12 143q0 218 106 590q28 -21 106.5 -164
t102.5 -155q19 -32 76 -110t125 -177z" />
    <glyph glyph-name="afii10028" unicode="&#x41a;" horiz-adv-x="1503" 
d="M762 168q110 -188 250 -188q97 0 213 86q22 30 62.5 75t64.5 84q59 13 91 55.5t32 88.5q0 49 -37 49q-31 0 -78 -41q-38 -28 -79 -59t-83 -53.5t-84 -22.5q-83 0 -131 102q-61 83 -106.5 178.5t-103.5 225.5t-109 210q0 41 22.5 66t108.5 94q11 25 63.5 81t150 161
t105.5 119q0 11 55 72.5t114 139.5t118 189q39 20 70.5 115t31.5 213q-16 45 -41 45q5 0 -53 -21q-91 0 -201 -73q-110 -52 -110 -103q0 -21 26.5 -46.5t26.5 -35.5q-15 -68 -124 -244t-204 -280q-80 -96 -146.5 -178t-137.5 -157t-154 -132q0 86 15.5 172.5t46 202.5
t48 189.5t25.5 156.5q53 165 53 225q0 111 -86 144q-120 -29 -187 -125t-67 -219q0 -48 -45 -396t-45 -411q0 -20 -10 -60t-10 -88q-3 -26 -26.5 -198t-33.5 -268t-10 -181q0 -77 13 -119q13 0 47 -4t51 -4q74 0 94 41q-12 67 -12 143q0 218 106 590q28 -21 106.5 -164
t102.5 -155q19 -32 76 -110t125 -177z" />
    <glyph glyph-name="afii10029" unicode="&#xcb;" horiz-adv-x="1409" 
d="M766 2114q-6 -22 -70.5 -76t-64.5 -105q0 -29 16 -61q-64 -95 -128 -245t-131.5 -342t-129.5 -373t-106 -281q-82 -182 -82 -262q-18 -11 -50.5 -128.5t-35.5 -207.5q0 -103 53 -103q24 0 65 29q128 38 160.5 145t32.5 289q43 149 120 352t181.5 461.5t132.5 329.5
q71 176 111 176q19 0 30.5 -28t26 -89.5t25.5 -96.5t28 -56q0 -15 -2 -43t-2 -39q0 -59 29 -78q0 -50 8 -129t8 -113q21 -98 21 -330t20 -341q-45 -184 -45 -340q0 -108 29 -148q11 -37 49 -37q40 0 119 38.5t86 39.5q35 45 66.5 138t31.5 202q0 80 -25 164v176
q0 130 -32 135q0 343 -49 402q0 78 -18 183.5t-36 127.5q0 62 -22 147.5t-51 102.5q-26 156 -95 319q62 62 62 123q0 44 -34.5 71.5t-88.5 27.5q-127 0 -213 -127z" />
    <glyph glyph-name="afii10029" unicode="&#x41b;" horiz-adv-x="1409" 
d="M766 2114q-6 -22 -70.5 -76t-64.5 -105q0 -29 16 -61q-64 -95 -128 -245t-131.5 -342t-129.5 -373t-106 -281q-82 -182 -82 -262q-18 -11 -50.5 -128.5t-35.5 -207.5q0 -103 53 -103q24 0 65 29q128 38 160.5 145t32.5 289q43 149 120 352t181.5 461.5t132.5 329.5
q71 176 111 176q19 0 30.5 -28t26 -89.5t25.5 -96.5t28 -56q0 -15 -2 -43t-2 -39q0 -59 29 -78q0 -50 8 -129t8 -113q21 -98 21 -330t20 -341q-45 -184 -45 -340q0 -108 29 -148q11 -37 49 -37q40 0 119 38.5t86 39.5q35 45 66.5 138t31.5 202q0 80 -25 164v176
q0 130 -32 135q0 343 -49 402q0 78 -18 183.5t-36 127.5q0 62 -22 147.5t-51 102.5q-26 156 -95 319q62 62 62 123q0 44 -34.5 71.5t-88.5 27.5q-127 0 -213 -127z" />
    <glyph glyph-name="afii10030" unicode="&#xcc;" horiz-adv-x="1901" 
d="M217 8q41 74 41 225q11 24 22.5 148.5t22.5 163.5q17 17 54 307.5t69 290.5q19 -10 29.5 -28t29 -64t43.5 -93q122 -151 238 -151q110 0 217 123q83 20 165.5 97t153.5 170.5t140 186.5q16 17 24 17q17 0 17 -37q0 -31 -14 -106t-19 -107q-16 -95 -26 -196.5t-23 -114.5
q-22 -115 -39.5 -239t-42.5 -308t-45 -301q30 0 52.5 17t45 47t46.5 50.5t61 28.5q3 10 71 334t121 514q46 157 83.5 284.5t61 222t23.5 140.5q21 108 21 197q0 188 -70 188q-38 0 -86 -53q-49 -6 -104 -69.5t-72 -131.5q-22 -33 -106.5 -145t-131.5 -182
q-47 -36 -134 -132.5t-149.5 -146t-129.5 -49.5q-71 0 -140 70q-103 117 -135.5 317.5t-32.5 464.5v131q0 147 -37 147q-11 0 -55.5 -21.5t-83.5 -23.5q-19 -29 -75 -59t-76 -43q-32 -32 -49 -237t-17 -341q-15 -59 -32 -226.5t-17 -235.5q0 -76 -28.5 -252t-28.5 -232
q0 -49 12 -61q-53 -100 -53 -365q0 -106 4 -164q5 -16 28 -16t80 24.5t76 24.5z" />
    <glyph glyph-name="afii10030" unicode="&#x41c;" horiz-adv-x="1901" 
d="M217 8q41 74 41 225q11 24 22.5 148.5t22.5 163.5q17 17 54 307.5t69 290.5q19 -10 29.5 -28t29 -64t43.5 -93q122 -151 238 -151q110 0 217 123q83 20 165.5 97t153.5 170.5t140 186.5q16 17 24 17q17 0 17 -37q0 -31 -14 -106t-19 -107q-16 -95 -26 -196.5t-23 -114.5
q-22 -115 -39.5 -239t-42.5 -308t-45 -301q30 0 52.5 17t45 47t46.5 50.5t61 28.5q3 10 71 334t121 514q46 157 83.5 284.5t61 222t23.5 140.5q21 108 21 197q0 188 -70 188q-38 0 -86 -53q-49 -6 -104 -69.5t-72 -131.5q-22 -33 -106.5 -145t-131.5 -182
q-47 -36 -134 -132.5t-149.5 -146t-129.5 -49.5q-71 0 -140 70q-103 117 -135.5 317.5t-32.5 464.5v131q0 147 -37 147q-11 0 -55.5 -21.5t-83.5 -23.5q-19 -29 -75 -59t-76 -43q-32 -32 -49 -237t-17 -341q-15 -59 -32 -226.5t-17 -235.5q0 -76 -28.5 -252t-28.5 -232
q0 -49 12 -61q-53 -100 -53 -365q0 -106 4 -164q5 -16 28 -16t80 24.5t76 24.5z" />
    <glyph glyph-name="afii10031" unicode="&#xcd;" horiz-adv-x="1675" 
d="M352 614q0 49 44.5 103.5t82.5 73.5q82 0 168 40q55 32 137.5 49.5t176 25.5t182.5 16q0 -88 -39 -309t-72 -285q0 -119 -32.5 -325t-32.5 -314q8 0 27 -6.5t38 -6.5q17 0 58 13q28 69 43 79t32.5 65t75.5 294q40 95 70.5 305.5t46.5 292.5t76 180q4 45 12 101.5t8 83.5
q107 288 107 573q49 251 49 365q0 131 -58 131q-53 0 -168 -127q-19 -37 -57 -82.5t-61 -85.5q8 -37 8 -135q0 -160 -31 -356t-51 -238q-70 -33 -221 -33q-57 0 -123 8q-59 -18 -186 -23t-191 -22q-65 0 -65 61q0 45 23.5 162.5t25.5 165.5q4 36 33 177t49 274q24 61 24 102
q0 94 -106 94q-125 0 -205 -86q-10 -25 -18 -133t-15 -153q-35 -245 -82 -689q-14 -56 -60 -137t-59 -121q15 -60 95 -229q-17 -48 -17 -123q0 -68 20.5 -204t20.5 -193q0 -115 90 -115q86 0 160 115q13 34 60 107.5t59 109.5q0 29 -17 29q-22 0 -102 -78q-37 22 -37 209
q0 42 2 114t2 90z" />
    <glyph glyph-name="afii10031" unicode="&#x41d;" horiz-adv-x="1675" 
d="M352 614q0 49 44.5 103.5t82.5 73.5q82 0 168 40q55 32 137.5 49.5t176 25.5t182.5 16q0 -88 -39 -309t-72 -285q0 -119 -32.5 -325t-32.5 -314q8 0 27 -6.5t38 -6.5q17 0 58 13q28 69 43 79t32.5 65t75.5 294q40 95 70.5 305.5t46.5 292.5t76 180q4 45 12 101.5t8 83.5
q107 288 107 573q49 251 49 365q0 131 -58 131q-53 0 -168 -127q-19 -37 -57 -82.5t-61 -85.5q8 -37 8 -135q0 -160 -31 -356t-51 -238q-70 -33 -221 -33q-57 0 -123 8q-59 -18 -186 -23t-191 -22q-65 0 -65 61q0 45 23.5 162.5t25.5 165.5q4 36 33 177t49 274q24 61 24 102
q0 94 -106 94q-125 0 -205 -86q-10 -25 -18 -133t-15 -153q-35 -245 -82 -689q-14 -56 -60 -137t-59 -121q15 -60 95 -229q-17 -48 -17 -123q0 -68 20.5 -204t20.5 -193q0 -115 90 -115q86 0 160 115q13 34 60 107.5t59 109.5q0 29 -17 29q-22 0 -102 -78q-37 22 -37 209
q0 42 2 114t2 90z" />
    <glyph glyph-name="afii10032" unicode="&#xce;" horiz-adv-x="1655" 
d="M975 135q159 144 298.5 299.5t254 386t114.5 494.5q0 57 -4 86q-26 242 -186 460t-387 253q-216 -60 -274 -152q-18 -11 -57.5 -32t-63 -38t-39.5 -45q-3 -10 -16.5 -23.5t-24.5 -13.5q-8 0 -8 70q57 98 57 148q0 55 -57 61q-10 -8 -27.5 -22.5t-58.5 -43.5
q-76 -126 -142 -270.5t-152 -356t-132 -315.5q-26 -29 -37 -68.5t-15 -89t-10 -75.5q0 -37 21 -37t59.5 39.5t38.5 46.5q8 -32 8 -45q0 -25 -12 -66t-12 -65q-21 -126 -21 -234q0 -240 92 -395.5t281 -165.5q60 0 117 15t140 46.5t128 45.5q78 78 127 102zM991 385
q-198 -192 -352 -192q-177 0 -246 270q-28 109 -28 237q0 114 18.5 232t54 278t49.5 232q85 115 118.5 153.5t107 79.5t213.5 78q142 0 241.5 -85.5t150 -223t50.5 -293.5q0 -146 -41 -262q-17 -23 -43 -105.5t-86.5 -174.5t-206.5 -224z" />
    <glyph glyph-name="afii10032" unicode="&#x41e;" horiz-adv-x="1655" 
d="M975 135q159 144 298.5 299.5t254 386t114.5 494.5q0 57 -4 86q-26 242 -186 460t-387 253q-216 -60 -274 -152q-18 -11 -57.5 -32t-63 -38t-39.5 -45q-3 -10 -16.5 -23.5t-24.5 -13.5q-8 0 -8 70q57 98 57 148q0 55 -57 61q-10 -8 -27.5 -22.5t-58.5 -43.5
q-76 -126 -142 -270.5t-152 -356t-132 -315.5q-26 -29 -37 -68.5t-15 -89t-10 -75.5q0 -37 21 -37t59.5 39.5t38.5 46.5q8 -32 8 -45q0 -25 -12 -66t-12 -65q-21 -126 -21 -234q0 -240 92 -395.5t281 -165.5q60 0 117 15t140 46.5t128 45.5q78 78 127 102zM991 385
q-198 -192 -352 -192q-177 0 -246 270q-28 109 -28 237q0 114 18.5 232t54 278t49.5 232q85 115 118.5 153.5t107 79.5t213.5 78q142 0 241.5 -85.5t150 -223t50.5 -293.5q0 -146 -41 -262q-17 -23 -43 -105.5t-86.5 -174.5t-206.5 -224z" />
    <glyph glyph-name="afii10033" unicode="&#xcf;" horiz-adv-x="1638" 
d="M352 614q0 14 39 188t70 388t31 448q-14 49 -46 84t-32 31h241q55 34 183.5 53.5t315 33.5t230.5 20q0 -26 -11.5 -40.5t-37 -33t-41 -34t-16.5 -36.5q-12 -173 -66 -344q-23 -66 -65 -303t-45 -303q0 -62 -28.5 -240t-41.5 -198q0 -119 -32.5 -325t-32.5 -314
q8 0 27 -6.5t38 -6.5q17 0 58 13q28 69 43 79t32.5 65t75.5 294q40 95 70.5 305.5t46.5 292.5t76 180q4 45 12 101.5t8 83.5q107 288 107 573q28 129 32 197q15 0 40.5 -4.5t37.5 -4.5q41 0 41 25q0 27 4 82t4 78q0 110 -86 110q-46 10 -175 11.5t-197 5.5q-99 0 -144 -13
q-49 -21 -195.5 -30.5t-267.5 -22.5q-37 2 -56.5 2.5t-94.5 5.5q-97 0 -279 -69q-35 -32 -61 -112t-29 -150q0 -91 29 -91q7 0 22.5 4.5t30.5 4.5q-51 -361 -82 -652q-11 -46 -23 -130.5t-26 -127.5q4 -37 4 -123q0 -60 21 -106q-17 -48 -17 -123q0 -68 20.5 -204t20.5 -193
q0 -115 90 -115q86 0 160 115q12 33 37.5 60.5t36.5 62.5q0 69 -33 69q-17 0 -41 -24q-37 22 -37 209q0 42 2 114t2 90z" />
    <glyph glyph-name="afii10033" unicode="&#x41f;" horiz-adv-x="1638" 
d="M352 614q0 14 39 188t70 388t31 448q-14 49 -46 84t-32 31h241q55 34 183.5 53.5t315 33.5t230.5 20q0 -26 -11.5 -40.5t-37 -33t-41 -34t-16.5 -36.5q-12 -173 -66 -344q-23 -66 -65 -303t-45 -303q0 -62 -28.5 -240t-41.5 -198q0 -119 -32.5 -325t-32.5 -314
q8 0 27 -6.5t38 -6.5q17 0 58 13q28 69 43 79t32.5 65t75.5 294q40 95 70.5 305.5t46.5 292.5t76 180q4 45 12 101.5t8 83.5q107 288 107 573q28 129 32 197q15 0 40.5 -4.5t37.5 -4.5q41 0 41 25q0 27 4 82t4 78q0 110 -86 110q-46 10 -175 11.5t-197 5.5q-99 0 -144 -13
q-49 -21 -195.5 -30.5t-267.5 -22.5q-37 2 -56.5 2.5t-94.5 5.5q-97 0 -279 -69q-35 -32 -61 -112t-29 -150q0 -91 29 -91q7 0 22.5 4.5t30.5 4.5q-51 -361 -82 -652q-11 -46 -23 -130.5t-26 -127.5q4 -37 4 -123q0 -60 21 -106q-17 -48 -17 -123q0 -68 20.5 -204t20.5 -193
q0 -115 90 -115q86 0 160 115q12 33 37.5 60.5t36.5 62.5q0 69 -33 69q-17 0 -41 -24q-37 22 -37 209q0 42 2 114t2 90z" />
    <glyph glyph-name="afii10034" unicode="&#xd0;" horiz-adv-x="1401" 
d="M201 -258q98 0 209 209q-82 41 -82 188q0 83 32 238q305 62 532 176t353.5 282t126.5 377q0 78 -29 197q-53 228 -219.5 421t-355 310t-281.5 117q-36 29 -53 29q-28 0 -98 -70q-152 -80 -152 -217q18 -33 64 -96t80 -125q-30 -152 -50.5 -294t-48.5 -360t-50 -364.5
t-52 -288.5q-26 -16 -55.5 -34t-44.5 -32.5t-15 -31.5q0 -39 107 -94q0 -55 -4 -159t-4 -153q0 -206 90 -225zM1073 1008q-43 -152 -239.5 -270t-387.5 -160q-3 0 -23 8t-30 8q11 20 32 194t46 228q33 24 33 135q14 40 67 222t68 212q-4 66 -4 90l-139 205q-41 30 -41 45
q0 8 12 8q66 0 164 -78q442 -326 442 -847z" />
    <glyph glyph-name="afii10034" unicode="&#x420;" horiz-adv-x="1401" 
d="M201 -258q98 0 209 209q-82 41 -82 188q0 83 32 238q305 62 532 176t353.5 282t126.5 377q0 78 -29 197q-53 228 -219.5 421t-355 310t-281.5 117q-36 29 -53 29q-28 0 -98 -70q-152 -80 -152 -217q18 -33 64 -96t80 -125q-30 -152 -50.5 -294t-48.5 -360t-50 -364.5
t-52 -288.5q-26 -16 -55.5 -34t-44.5 -32.5t-15 -31.5q0 -39 107 -94q0 -55 -4 -159t-4 -153q0 -206 90 -225zM1073 1008q-43 -152 -239.5 -270t-387.5 -160q-3 0 -23 8t-30 8q11 20 32 194t46 228q33 24 33 135q14 40 67 222t68 212q-4 66 -4 90l-139 205q-41 30 -41 45
q0 8 12 8q66 0 164 -78q442 -326 442 -847z" />
    <glyph glyph-name="afii10035" unicode="&#xd1;" horiz-adv-x="1511" 
d="M369 -74q15 0 135 -41t221 -41q89 0 156 21q46 12 159.5 66.5t135.5 60.5q7 11 63 59t80 76q24 30 24 66q0 57 -32 57q-17 0 -17 -41q-164 -83 -259 -121.5t-195 -38.5q-60 0 -103 17q-61 0 -168 92t-114 92q-19 64 -61.5 168.5t-62.5 176t-20 159.5q0 35 29 166.5
t29 214.5q179 481 438 659q81 61 233 61q103 0 172.5 -38t69.5 -117q0 -72 -65 -172q-58 -73 -105 -283.5t-47 -413.5q55 -16 111 -16q89 0 131 62t77 196q20 53 69.5 244.5t49.5 243.5q8 28 8 94q0 142 -41 250q0 209 -352 209q-108 -4 -248.5 -70t-248.5 -152.5
t-125 -138.5q-116 -55 -230 -283q-144 -253 -183.5 -421.5t-57.5 -393.5q0 -246 96 -457.5t248 -271.5z" />
    <glyph glyph-name="afii10035" unicode="&#x421;" horiz-adv-x="1511" 
d="M369 -74q15 0 135 -41t221 -41q89 0 156 21q46 12 159.5 66.5t135.5 60.5q7 11 63 59t80 76q24 30 24 66q0 57 -32 57q-17 0 -17 -41q-164 -83 -259 -121.5t-195 -38.5q-60 0 -103 17q-61 0 -168 92t-114 92q-19 64 -61.5 168.5t-62.5 176t-20 159.5q0 35 29 166.5
t29 214.5q179 481 438 659q81 61 233 61q103 0 172.5 -38t69.5 -117q0 -72 -65 -172q-58 -73 -105 -283.5t-47 -413.5q55 -16 111 -16q89 0 131 62t77 196q20 53 69.5 244.5t49.5 243.5q8 28 8 94q0 142 -41 250q0 209 -352 209q-108 -4 -248.5 -70t-248.5 -152.5
t-125 -138.5q-116 -55 -230 -283q-144 -253 -183.5 -421.5t-57.5 -393.5q0 -246 96 -457.5t248 -271.5z" />
    <glyph glyph-name="afii10036" unicode="&#xd2;" horiz-adv-x="1221" 
d="M565 -94q13 23 48.5 37.5t45.5 40.5q4 35 6 178.5t11 283.5q19 67 28 117t23 156.5t31 218.5q87 264 143 766q-5 63 -34.5 101.5t-84.5 90.5q9 33 176 33q169 -33 213 -33q25 0 25 103q0 22 2 59t2 51q0 46 -29 74q-27 0 -92 16.5t-100 16.5q-21 0 -45 -8q-58 8 -90 8
q-62 0 -163 -12.5t-153 -12.5q-38 0 -90 9q-23 -7 -104.5 -15t-130 -25.5t-68.5 -62.5q-17 -17 -37 -79t-20 -113q-12 -29 -12 -70q0 -49 53 -49q32 0 81.5 14t104 34.5t84.5 29.5q6 0 63 14t89 14q49 0 49 -37q0 -72 -14.5 -194t-18.5 -207q-15 -31 -27.5 -140t-31 -328
t-19.5 -232q-8 -74 -8 -99q0 -28 4 -89t4 -103q-16 -49 -16 -103q0 -56 16 -90q0 -135 8 -204q7 -89 18.5 -124.5t59.5 -35.5z" />
    <glyph glyph-name="afii10036" unicode="&#x422;" horiz-adv-x="1221" 
d="M565 -94q13 23 48.5 37.5t45.5 40.5q4 35 6 178.5t11 283.5q19 67 28 117t23 156.5t31 218.5q87 264 143 766q-5 63 -34.5 101.5t-84.5 90.5q9 33 176 33q169 -33 213 -33q25 0 25 103q0 22 2 59t2 51q0 46 -29 74q-27 0 -92 16.5t-100 16.5q-21 0 -45 -8q-58 8 -90 8
q-62 0 -163 -12.5t-153 -12.5q-38 0 -90 9q-23 -7 -104.5 -15t-130 -25.5t-68.5 -62.5q-17 -17 -37 -79t-20 -113q-12 -29 -12 -70q0 -49 53 -49q32 0 81.5 14t104 34.5t84.5 29.5q6 0 63 14t89 14q49 0 49 -37q0 -72 -14.5 -194t-18.5 -207q-15 -31 -27.5 -140t-31 -328
t-19.5 -232q-8 -74 -8 -99q0 -28 4 -89t4 -103q-16 -49 -16 -103q0 -56 16 -90q0 -135 8 -204q7 -89 18.5 -124.5t59.5 -35.5z" />
    <glyph glyph-name="afii10037" unicode="&#xd3;" horiz-adv-x="1405" 
d="M348 233q-31 -43 -53 -139q-4 -17 -45 -39t-59.5 -37.5t-18.5 -46.5q5 -42 56.5 -64t99.5 -42q93 15 127 49q46 9 80 37.5t34 64.5q9 20 15 31.5t14 38.5q70 259 70 344q37 54 67.5 119t69.5 172.5t47 126.5q15 29 53.5 77.5t52.5 82.5q23 42 108 178.5t85 148.5
q15 14 38 70.5t23 81.5q78 129 111 275.5t57 359.5q-28 57 -65 57q-39 0 -79.5 -55.5t-110.5 -180.5t-113 -190q-22 -53 -94.5 -202.5t-81.5 -198.5q-16 -18 -113.5 -232t-132.5 -223q-40 50 -61.5 133.5t-35.5 185.5t-22 119q-53 241 -53 365q0 73 20 188q0 201 -155 201
q-140 0 -205 -123q0 -84 11.5 -170t29.5 -92q0 -262 127 -713q19 -35 64 -133.5t81.5 -156t79.5 -78.5q0 -50 -15.5 -97t-44 -109t-42.5 -98.5t-21 -85.5z" />
    <glyph glyph-name="afii10037" unicode="&#x423;" horiz-adv-x="1405" 
d="M348 233q-31 -43 -53 -139q-4 -17 -45 -39t-59.5 -37.5t-18.5 -46.5q5 -42 56.5 -64t99.5 -42q93 15 127 49q46 9 80 37.5t34 64.5q9 20 15 31.5t14 38.5q70 259 70 344q37 54 67.5 119t69.5 172.5t47 126.5q15 29 53.5 77.5t52.5 82.5q23 42 108 178.5t85 148.5
q15 14 38 70.5t23 81.5q78 129 111 275.5t57 359.5q-28 57 -65 57q-39 0 -79.5 -55.5t-110.5 -180.5t-113 -190q-22 -53 -94.5 -202.5t-81.5 -198.5q-16 -18 -113.5 -232t-132.5 -223q-40 50 -61.5 133.5t-35.5 185.5t-22 119q-53 241 -53 365q0 73 20 188q0 201 -155 201
q-140 0 -205 -123q0 -84 11.5 -170t29.5 -92q0 -262 127 -713q19 -35 64 -133.5t81.5 -156t79.5 -78.5q0 -50 -15.5 -97t-44 -109t-42.5 -98.5t-21 -85.5z" />
    <glyph glyph-name="afii10038" unicode="&#xd4;" horiz-adv-x="1577" 
d="M897 487q-27 -7 -78 -32q-22 -195 -69 -303q-60 -244 -76.5 -296.5t-32 -62.5t-43.5 -80q-37 -12 -57 -12q-19 0 -39 6t-27 6q0 100 33 309.5t33 329.5q7 14 12 29q-106 -16 -168 -16q-189 6 -281 98t-92 237q0 61 21 140q0 10 8 42t8 64q0 110 98.5 307t270.5 369
q61 27 86 41q57 -6 57 -41q0 -29 -57 -86q0 -41 8 -41q32 0 41 21q15 16 41 27.5t63.5 23t55.5 18.5q28 21 65 37q0 193 -4 266q25 44 62.5 87.5t56.5 80.5q108 127 168 127q57 0 57 -131q0 -116 -49 -364v-25q134 -28 239.5 -94.5t171.5 -152t81 -167.5q0 -181 -114.5 -332
t-243 -240.5t-306.5 -189.5zM913 639q143 76 205.5 133t88.5 107t42 63q41 69 41 156q0 107 -62.5 198.5t-178.5 133.5q-29 -171 -86 -316q0 -30 -8.5 -84.5t-12.5 -99.5q-73 -119 -102 -332q12 6 35 19.5t38 21.5zM700 1159q22 42 58 287q-134 -26 -189 -57.5t-159 -114.5
q-4 -12 -45.5 -126t-59.5 -184.5t-18 -136.5q0 -74 28 -143q68 -160 275 -160q61 288 61 422z" />
    <glyph glyph-name="afii10038" unicode="&#x424;" horiz-adv-x="1577" 
d="M897 487q-27 -7 -78 -32q-22 -195 -69 -303q-60 -244 -76.5 -296.5t-32 -62.5t-43.5 -80q-37 -12 -57 -12q-19 0 -39 6t-27 6q0 100 33 309.5t33 329.5q7 14 12 29q-106 -16 -168 -16q-189 6 -281 98t-92 237q0 61 21 140q0 10 8 42t8 64q0 110 98.5 307t270.5 369
q61 27 86 41q57 -6 57 -41q0 -29 -57 -86q0 -41 8 -41q32 0 41 21q15 16 41 27.5t63.5 23t55.5 18.5q28 21 65 37q0 193 -4 266q25 44 62.5 87.5t56.5 80.5q108 127 168 127q57 0 57 -131q0 -116 -49 -364v-25q134 -28 239.5 -94.5t171.5 -152t81 -167.5q0 -181 -114.5 -332
t-243 -240.5t-306.5 -189.5zM913 639q143 76 205.5 133t88.5 107t42 63q41 69 41 156q0 107 -62.5 198.5t-178.5 133.5q-29 -171 -86 -316q0 -30 -8.5 -84.5t-12.5 -99.5q-73 -119 -102 -332q12 6 35 19.5t38 21.5zM700 1159q22 42 58 287q-134 -26 -189 -57.5t-159 -114.5
q-4 -12 -45.5 -126t-59.5 -184.5t-18 -136.5q0 -74 28 -143q68 -160 275 -160q61 288 61 422z" />
    <glyph glyph-name="afii10039" unicode="&#xd5;" horiz-adv-x="1536" 
d="M131 41q-57 -45 -57 -176q0 -90 32 -90q23 0 50.5 37t69 111t72.5 120.5t62 67.5q11 31 86.5 156.5t106.5 203.5q12 12 55 77.5t64 74.5q22 0 51 -65t55 -95q97 -173 160 -230q19 -48 90 -123t148 -85q114 0 114 61q0 41 -73 115q-158 257 -230 422q-42 47 -76 126.5
t-34 139.5q0 35 12 53q64 97 213.5 276.5t243 307.5t162.5 285t69 319q-43 111 -94 111q-32 0 -82 -50q-261 -183 -311 -254q-50 -36 -50 -86q0 -53 90 -53q9 0 21.5 12.5t24.5 12.5q0 -21 -70.5 -135t-114.5 -193q-13 -36 -96 -144.5t-117 -183.5q-24 0 -42 90t-23 103
q-28 24 -69.5 226.5t-41.5 277.5q29 43 29 102q0 58 -24 115.5t-62 85.5q-11 57 -62 57q-64 0 -139 -82q-1 -4 -51.5 -113.5t-50.5 -185.5t49 -155q0 -32 5.5 -56t25 -82.5t30.5 -95.5q0 -116 51.5 -236.5t157.5 -328.5q0 -51 -31 -104.5t-80 -121.5t-49 -85
q-54 -116 -162 -293.5t-108 -243.5z" />
    <glyph glyph-name="afii10039" unicode="&#x425;" horiz-adv-x="1536" 
d="M131 41q-57 -45 -57 -176q0 -90 32 -90q23 0 50.5 37t69 111t72.5 120.5t62 67.5q11 31 86.5 156.5t106.5 203.5q12 12 55 77.5t64 74.5q22 0 51 -65t55 -95q97 -173 160 -230q19 -48 90 -123t148 -85q114 0 114 61q0 41 -73 115q-158 257 -230 422q-42 47 -76 126.5
t-34 139.5q0 35 12 53q64 97 213.5 276.5t243 307.5t162.5 285t69 319q-43 111 -94 111q-32 0 -82 -50q-261 -183 -311 -254q-50 -36 -50 -86q0 -53 90 -53q9 0 21.5 12.5t24.5 12.5q0 -21 -70.5 -135t-114.5 -193q-13 -36 -96 -144.5t-117 -183.5q-24 0 -42 90t-23 103
q-28 24 -69.5 226.5t-41.5 277.5q29 43 29 102q0 58 -24 115.5t-62 85.5q-11 57 -62 57q-64 0 -139 -82q-1 -4 -51.5 -113.5t-50.5 -185.5t49 -155q0 -32 5.5 -56t25 -82.5t30.5 -95.5q0 -116 51.5 -236.5t157.5 -328.5q0 -51 -31 -104.5t-80 -121.5t-49 -85
q-54 -116 -162 -293.5t-108 -243.5z" />
    <glyph glyph-name="afii10040" unicode="&#xd6;" horiz-adv-x="1675" 
d="M1262 1892q23 40 61 85.5t57 82.5q108 127 168 127q58 0 58 -131q0 -109 -50 -364q0 -288 -106 -574q0 -26 -8 -82.5t-12 -101.5q-51 -79 -73.5 -172t-41 -241t-29.5 -202q46 13 161 25t179 12q12 -12 12 -82q0 -90 -16 -211t-33 -153q-37 -87 -37 -139q-22 -49 -61 -107
q-89 0 -139 33q-9 9 -9 33q0 38 31 173.5t35 178.5q-16 12 -41 12q-27 -18 -131.5 -24t-146.5 -37q-34 -11 -138 -35.5t-157 -46.5q-53 -3 -282.5 -24t-352.5 -21q-82 0 -119 4q-21 10 -21 65q0 27 6.5 89t6.5 100q0 220 57 405q0 58 4 129t4 97q28 179 54 274
q37 133 55.5 386.5t25.5 301.5q8 47 16 156t17 131q83 90 205 90q107 0 107 -98q0 -39 -25 -103q-19 -129 -48.5 -271.5t-33.5 -178.5q0 -10 -29.5 -177t-40.5 -307q-10 -163 -40.5 -405.5t-36.5 -302.5v-107q98 6 237.5 13t151.5 8q104 9 319 78q12 62 63 339.5t82.5 451.5
t39.5 208q53 280 53 475q0 98 -8 135z" />
    <glyph glyph-name="afii10040" unicode="&#x426;" horiz-adv-x="1675" 
d="M1262 1892q23 40 61 85.5t57 82.5q108 127 168 127q58 0 58 -131q0 -109 -50 -364q0 -288 -106 -574q0 -26 -8 -82.5t-12 -101.5q-51 -79 -73.5 -172t-41 -241t-29.5 -202q46 13 161 25t179 12q12 -12 12 -82q0 -90 -16 -211t-33 -153q-37 -87 -37 -139q-22 -49 -61 -107
q-89 0 -139 33q-9 9 -9 33q0 38 31 173.5t35 178.5q-16 12 -41 12q-27 -18 -131.5 -24t-146.5 -37q-34 -11 -138 -35.5t-157 -46.5q-53 -3 -282.5 -24t-352.5 -21q-82 0 -119 4q-21 10 -21 65q0 27 6.5 89t6.5 100q0 220 57 405q0 58 4 129t4 97q28 179 54 274
q37 133 55.5 386.5t25.5 301.5q8 47 16 156t17 131q83 90 205 90q107 0 107 -98q0 -39 -25 -103q-19 -129 -48.5 -271.5t-33.5 -178.5q0 -10 -29.5 -177t-40.5 -307q-10 -163 -40.5 -405.5t-36.5 -302.5v-107q98 6 237.5 13t151.5 8q104 9 319 78q12 62 63 339.5t82.5 451.5
t39.5 208q53 280 53 475q0 98 -8 135z" />
    <glyph glyph-name="afii10041" unicode="&#xd7;" horiz-adv-x="1638" 
d="M311 737h4q118 30 164 54q82 0 168 40q55 32 137.5 49.5t176 25.5t182.5 16q0 -88 -39 -309t-72 -285q0 -119 -32.5 -325t-32.5 -314q8 0 27 -6.5t38 -6.5q17 0 58 13q28 69 43 79t32.5 65t75.5 294q40 95 70.5 305.5t46.5 292.5t76 180q4 45 12 101.5t8 83.5
q107 288 107 573q49 251 49 365q0 131 -58 131q-53 0 -168 -127q-19 -37 -57 -82.5t-61 -85.5q8 -37 8 -135q0 -160 -31 -356t-51 -238q-70 -33 -221 -33q-57 0 -123 8q-59 -18 -186 -23t-191 -22q-65 0 -65 61q0 45 23.5 162.5t25.5 165.5q4 36 33 177t49 274q24 61 24 102
q0 94 -106 94q-125 0 -205 -86q-10 -25 -18 -133t-15 -153q-35 -245 -82 -689q-29 -157 -29 -172q0 -10 9 -73q8 -38 45.5 -48t150.5 -10z" />
    <glyph glyph-name="afii10041" unicode="&#x427;" horiz-adv-x="1638" 
d="M311 737h4q118 30 164 54q82 0 168 40q55 32 137.5 49.5t176 25.5t182.5 16q0 -88 -39 -309t-72 -285q0 -119 -32.5 -325t-32.5 -314q8 0 27 -6.5t38 -6.5q17 0 58 13q28 69 43 79t32.5 65t75.5 294q40 95 70.5 305.5t46.5 292.5t76 180q4 45 12 101.5t8 83.5
q107 288 107 573q49 251 49 365q0 131 -58 131q-53 0 -168 -127q-19 -37 -57 -82.5t-61 -85.5q8 -37 8 -135q0 -160 -31 -356t-51 -238q-70 -33 -221 -33q-57 0 -123 8q-59 -18 -186 -23t-191 -22q-65 0 -65 61q0 45 23.5 162.5t25.5 165.5q4 36 33 177t49 274q24 61 24 102
q0 94 -106 94q-125 0 -205 -86q-10 -25 -18 -133t-15 -153q-35 -245 -82 -689q-29 -157 -29 -172q0 -10 9 -73q8 -38 45.5 -48t150.5 -10z" />
    <glyph glyph-name="afii10042" unicode="&#xd8;" horiz-adv-x="2617" 
d="M111 -66q-103 0 -103 140q0 20 8 78q19 155 144 966q-58 64 -58 156q0 35 9 82.5t29 111t28 93.5q4 12 54.5 213t115 300.5t190.5 125.5q82 -28 82 -111q-14 -59 -29.5 -183.5t-19.5 -152.5q-32 -106 -47.5 -236t-26.5 -141q-10 -10 -17 -75.5t-28 -92.5
q0 -36 -51.5 -273.5t-79.5 -383.5t-28 -244q0 -78 20 -98q92 -62 201 -62q51 0 129 -8t104 -8q42 0 70 16q24 4 83 8t130 9q0 97 17.5 214.5t39.5 190.5q0 58 4 129t4 97q28 179 54 274q37 133 55 378.5t27 309.5q7 45 15 155t17 132q85 90 205 90q107 0 107 -98
q0 -39 -25 -103q-19 -129 -48.5 -271.5t-33.5 -178.5q0 -10 -29.5 -178.5t-39.5 -305.5q-8 -135 -37.5 -367.5t-40.5 -340.5v-107q313 19 344 21q104 9 319 78q12 62 63 339.5t82.5 451.5t39.5 208q53 280 53 475q0 98 -8 135q23 40 61 85.5t57 82.5q108 127 168 127
q58 0 58 -131q0 -107 -49 -364q0 -286 -107 -574q0 -26 -8 -82.5t-12 -101.5q-53 -84 -76 -186.5t-42.5 -258t-41.5 -239.5q4 -62 4 -127q-30 -18 -85.5 -38t-98.5 -52q-34 -11 -138 -35.5t-157 -46.5q-604 -49 -844 -49q-90 0 -123 4q-147 8 -471 8q-173 0 -188 20z" />
    <glyph glyph-name="afii10042" unicode="&#x428;" horiz-adv-x="2617" 
d="M111 -66q-103 0 -103 140q0 20 8 78q19 155 144 966q-58 64 -58 156q0 35 9 82.5t29 111t28 93.5q4 12 54.5 213t115 300.5t190.5 125.5q82 -28 82 -111q-14 -59 -29.5 -183.5t-19.5 -152.5q-32 -106 -47.5 -236t-26.5 -141q-10 -10 -17 -75.5t-28 -92.5
q0 -36 -51.5 -273.5t-79.5 -383.5t-28 -244q0 -78 20 -98q92 -62 201 -62q51 0 129 -8t104 -8q42 0 70 16q24 4 83 8t130 9q0 97 17.5 214.5t39.5 190.5q0 58 4 129t4 97q28 179 54 274q37 133 55 378.5t27 309.5q7 45 15 155t17 132q85 90 205 90q107 0 107 -98
q0 -39 -25 -103q-19 -129 -48.5 -271.5t-33.5 -178.5q0 -10 -29.5 -178.5t-39.5 -305.5q-8 -135 -37.5 -367.5t-40.5 -340.5v-107q313 19 344 21q104 9 319 78q12 62 63 339.5t82.5 451.5t39.5 208q53 280 53 475q0 98 -8 135q23 40 61 85.5t57 82.5q108 127 168 127
q58 0 58 -131q0 -107 -49 -364q0 -286 -107 -574q0 -26 -8 -82.5t-12 -101.5q-53 -84 -76 -186.5t-42.5 -258t-41.5 -239.5q4 -62 4 -127q-30 -18 -85.5 -38t-98.5 -52q-34 -11 -138 -35.5t-157 -46.5q-604 -49 -844 -49q-90 0 -123 4q-147 8 -471 8q-173 0 -188 20z" />
    <glyph glyph-name="afii10043" unicode="&#xd9;" horiz-adv-x="2617" 
d="M111 -66q-103 0 -103 140q0 20 8 78q19 155 144 966q-58 64 -58 156q0 35 9 82.5t29 111t28 93.5q4 12 54.5 213t115 300.5t190.5 125.5q82 -28 82 -111q-14 -59 -29.5 -183.5t-19.5 -152.5q-32 -106 -47.5 -236t-26.5 -141q-10 -10 -17 -75.5t-28 -92.5
q0 -36 -51.5 -273.5t-79.5 -383.5t-28 -244q0 -78 20 -98q92 -62 201 -62q51 0 129 -8t104 -8q42 0 70 16q24 4 83 8t130 9q0 97 17.5 214.5t39.5 190.5q0 58 4 129t4 97q28 179 54 274q37 133 55 378.5t27 309.5q7 45 15 155t17 132q85 90 205 90q107 0 107 -98
q0 -39 -25 -103q-19 -129 -48.5 -271.5t-33.5 -178.5q0 -10 -29.5 -178.5t-39.5 -305.5q-8 -135 -37.5 -367.5t-40.5 -340.5v-107q313 19 344 21q104 9 319 78q12 62 63 339.5t82.5 451.5t39.5 208q53 280 53 475q0 98 -8 135q23 40 61 85.5t57 82.5q108 127 168 127
q58 0 58 -131q0 -107 -49 -364q0 -286 -107 -574q0 -26 -8 -82.5t-12 -101.5q-51 -79 -73.5 -172t-41 -241t-29.5 -202q46 13 161 25t179 12q12 -12 12 -82q0 -90 -16 -211t-33 -153q-37 -90 -37 -139q-22 -49 -61 -107q-87 0 -139 33q-8 8 -8 33q0 43 30.5 176t34.5 176
q-16 12 -41 12q-27 -18 -131.5 -24t-146.5 -37q-34 -11 -138 -35.5t-157 -46.5q-604 -49 -844 -49q-90 0 -123 4q-147 8 -471 8q-173 0 -188 20z" />
    <glyph glyph-name="afii10043" unicode="&#x429;" horiz-adv-x="2617" 
d="M111 -66q-103 0 -103 140q0 20 8 78q19 155 144 966q-58 64 -58 156q0 35 9 82.5t29 111t28 93.5q4 12 54.5 213t115 300.5t190.5 125.5q82 -28 82 -111q-14 -59 -29.5 -183.5t-19.5 -152.5q-32 -106 -47.5 -236t-26.5 -141q-10 -10 -17 -75.5t-28 -92.5
q0 -36 -51.5 -273.5t-79.5 -383.5t-28 -244q0 -78 20 -98q92 -62 201 -62q51 0 129 -8t104 -8q42 0 70 16q24 4 83 8t130 9q0 97 17.5 214.5t39.5 190.5q0 58 4 129t4 97q28 179 54 274q37 133 55 378.5t27 309.5q7 45 15 155t17 132q85 90 205 90q107 0 107 -98
q0 -39 -25 -103q-19 -129 -48.5 -271.5t-33.5 -178.5q0 -10 -29.5 -178.5t-39.5 -305.5q-8 -135 -37.5 -367.5t-40.5 -340.5v-107q313 19 344 21q104 9 319 78q12 62 63 339.5t82.5 451.5t39.5 208q53 280 53 475q0 98 -8 135q23 40 61 85.5t57 82.5q108 127 168 127
q58 0 58 -131q0 -107 -49 -364q0 -286 -107 -574q0 -26 -8 -82.5t-12 -101.5q-51 -79 -73.5 -172t-41 -241t-29.5 -202q46 13 161 25t179 12q12 -12 12 -82q0 -90 -16 -211t-33 -153q-37 -90 -37 -139q-22 -49 -61 -107q-87 0 -139 33q-8 8 -8 33q0 43 30.5 176t34.5 176
q-16 12 -41 12q-27 -18 -131.5 -24t-146.5 -37q-34 -11 -138 -35.5t-157 -46.5q-604 -49 -844 -49q-90 0 -123 4q-147 8 -471 8q-173 0 -188 20z" />
    <glyph glyph-name="afii10044" unicode="&#xda;" horiz-adv-x="1602" 
d="M561 1950q-142 -538 -233 -1409q-21 -179 -21 -275q0 -144 46.5 -207t162.5 -75q45 -9 123 -9q146 8 291 45q95 23 202.5 78.5t178.5 126.5q188 191 188 365q0 167 -100 294.5t-219 209.5q-219 149 -500 249q10 37 42.5 207t78.5 288t149 255q13 19 13 41q0 52 -84 85.5
t-215 33.5q-38 0 -80 -7t-91.5 -18.5t-70.5 -15.5q-127 -22 -186.5 -41t-190.5 -90q-57 -6 -57 -78q0 -42 20 -86.5t45 -56.5q93 34 260.5 62t247.5 28zM606 836q24 126 41 319q54 -26 82 -94q6 -11 10.5 -16.5t19.5 -13.5t36 -19q85 -30 192.5 -106t186.5 -175.5t79 -193.5
q-41 -110 -91 -165t-171 -126q-137 -82 -286 -82q-83 0 -107 37q-29 51 -29 241q0 178 37 394z" />
    <glyph glyph-name="afii10044" unicode="&#x42a;" horiz-adv-x="1602" 
d="M561 1950q-142 -538 -233 -1409q-21 -179 -21 -275q0 -144 46.5 -207t162.5 -75q45 -9 123 -9q146 8 291 45q95 23 202.5 78.5t178.5 126.5q188 191 188 365q0 167 -100 294.5t-219 209.5q-219 149 -500 249q10 37 42.5 207t78.5 288t149 255q13 19 13 41q0 52 -84 85.5
t-215 33.5q-38 0 -80 -7t-91.5 -18.5t-70.5 -15.5q-127 -22 -186.5 -41t-190.5 -90q-57 -6 -57 -78q0 -42 20 -86.5t45 -56.5q93 34 260.5 62t247.5 28zM606 836q24 126 41 319q54 -26 82 -94q6 -11 10.5 -16.5t19.5 -13.5t36 -19q85 -30 192.5 -106t186.5 -175.5t79 -193.5
q-41 -110 -91 -165t-171 -126q-137 -82 -286 -82q-83 0 -107 37q-29 51 -29 241q0 178 37 394z" />
    <glyph glyph-name="afii10045" unicode="&#xdb;" horiz-adv-x="1991" 
d="M1454 45q6 -96 82 -102q25 0 61 12q22 37 60.5 60.5t42.5 62.5q-29 146 -29 319q0 146 18.5 298.5t52 337.5t56.5 315q0 57 43 237t43 205q0 3 31 127t31 192q0 95 -58 95q-44 0 -123 -54q-101 0 -161 -93t-94 -231.5t-56 -236.5q10 -16 13 -26.5t3 -14.5
q-17 -42 -24 -131q0 -37 8 -69q13 0 27.5 -35t17.5 -80q0 -66 -20 -107q-9 -126 -25 -291.5t-22.5 -253t-6.5 -196.5q0 -173 29 -340zM455 1585q-42 -213 -54 -254q280 -100 500 -250q115 -75 217.5 -206t102.5 -297q0 -97 -62 -198.5t-127 -166.5q-73 -73 -180.5 -128
t-200.5 -77q-249 -47 -291 -49q-54 0 -122 12q-117 14 -163 75.5t-46 207.5q0 91 20 274q65 645 160 1110q10 65 29 130t45 157q6 22 19 93t30 108t53 69q60 54 147 54q81 0 147 -37t66 -78q0 -40 -81 -57q-152 -199 -209 -492zM328 823q-37 -206 -37 -393q0 -191 28 -242
q25 -36 107 -36q151 0 287 81q122 73 171.5 127t90.5 164q0 136 -159.5 282t-299.5 193q-57 34 -65 50q-32 68 -82 94q-20 -204 -41 -320z" />
    <glyph glyph-name="afii10045" unicode="&#x42b;" horiz-adv-x="1991" 
d="M1454 45q6 -96 82 -102q25 0 61 12q22 37 60.5 60.5t42.5 62.5q-29 146 -29 319q0 146 18.5 298.5t52 337.5t56.5 315q0 57 43 237t43 205q0 3 31 127t31 192q0 95 -58 95q-44 0 -123 -54q-101 0 -161 -93t-94 -231.5t-56 -236.5q10 -16 13 -26.5t3 -14.5
q-17 -42 -24 -131q0 -37 8 -69q13 0 27.5 -35t17.5 -80q0 -66 -20 -107q-9 -126 -25 -291.5t-22.5 -253t-6.5 -196.5q0 -173 29 -340zM455 1585q-42 -213 -54 -254q280 -100 500 -250q115 -75 217.5 -206t102.5 -297q0 -97 -62 -198.5t-127 -166.5q-73 -73 -180.5 -128
t-200.5 -77q-249 -47 -291 -49q-54 0 -122 12q-117 14 -163 75.5t-46 207.5q0 91 20 274q65 645 160 1110q10 65 29 130t45 157q6 22 19 93t30 108t53 69q60 54 147 54q81 0 147 -37t66 -78q0 -40 -81 -57q-152 -199 -209 -492zM328 823q-37 -206 -37 -393q0 -191 28 -242
q25 -36 107 -36q151 0 287 81q122 73 171.5 127t90.5 164q0 136 -159.5 282t-299.5 193q-57 34 -65 50q-32 68 -82 94q-20 -204 -41 -320z" />
    <glyph glyph-name="afii10046" unicode="&#xdc;" horiz-adv-x="1368" 
d="M500 1597q-42 -212 -54 -254q283 -101 500 -249q119 -80 219.5 -208.5t100.5 -295.5q0 -97 -62 -198.5t-127 -166.5q-73 -73 -180.5 -128t-200.5 -77q-249 -47 -290 -49q-58 0 -123 13q-116 12 -162.5 75t-46.5 207q0 90 20 275q65 643 160 1110q10 64 29 129t45 157
q6 22 19 93t29 107t54 71q59 53 148 53q79 0 146 -37t67 -78q0 -40 -82 -57q-152 -199 -209 -492zM373 836q-37 -207 -37 -394q0 -193 29 -241q24 -37 106 -37q150 0 287 82q121 71 171 126t91 165q0 94 -79 193.5t-187 175.5t-193 106q-57 33 -65 49q-31 69 -82 94
q-16 -177 -41 -319z" />
    <glyph glyph-name="afii10046" unicode="&#x42c;" horiz-adv-x="1368" 
d="M500 1597q-42 -212 -54 -254q283 -101 500 -249q119 -80 219.5 -208.5t100.5 -295.5q0 -97 -62 -198.5t-127 -166.5q-73 -73 -180.5 -128t-200.5 -77q-249 -47 -290 -49q-58 0 -123 13q-116 12 -162.5 75t-46.5 207q0 90 20 275q65 643 160 1110q10 64 29 129t45 157
q6 22 19 93t29 107t54 71q59 53 148 53q79 0 146 -37t67 -78q0 -40 -82 -57q-152 -199 -209 -492zM373 836q-37 -207 -37 -394q0 -193 29 -241q24 -37 106 -37q150 0 287 82q121 71 171 126t91 165q0 94 -79 193.5t-187 175.5t-193 106q-57 33 -65 49q-31 69 -82 94
q-16 -177 -41 -319z" />
    <glyph glyph-name="afii10047" unicode="&#xdd;" horiz-adv-x="1753" 
d="M1462 778q20 40 45 79t36.5 68t33.5 119q11 50 45.5 153t54 185.5t19.5 169.5q0 188 -103 361q-76 131 -189 196.5t-249 65.5q-285 0 -541 -250l17 -262q143 205 381 205q144 0 256.5 -97t140.5 -276q0 -74 4 -131q0 -195 -37 -352q-24 -111 -82 -193q-8 3 -114 28
t-181 75q-37 24 -107.5 44.5t-110 39t-68.5 63.5q-75 0 -115 -119q-2 -7 -29 -94q77 -95 278 -151.5t357 -69.5q-134 -188 -237 -311q-146 -140 -389 -140q-43 0 -95 9q-114 21 -202 188.5t-88 466.5q16 21 16 41q0 37 -37 37q-40 0 -61 -54q-78 -168 -78 -446
q12 -244 132.5 -374t305.5 -130q68 0 127 17q224 53 346 136.5t207 203.5q137 178 238 327q34 -13 61 -20.5t76.5 -17.5t70.5 -15q10 19 28 26.5t26 34.5q37 58 37 99q0 17 -13 24q-24 17 -127 17q-14 2 -27 8.5t-59 15.5z" />
    <glyph glyph-name="afii10047" unicode="&#x42d;" horiz-adv-x="1753" 
d="M1462 778q20 40 45 79t36.5 68t33.5 119q11 50 45.5 153t54 185.5t19.5 169.5q0 188 -103 361q-76 131 -189 196.5t-249 65.5q-285 0 -541 -250l17 -262q143 205 381 205q144 0 256.5 -97t140.5 -276q0 -74 4 -131q0 -195 -37 -352q-24 -111 -82 -193q-8 3 -114 28
t-181 75q-37 24 -107.5 44.5t-110 39t-68.5 63.5q-75 0 -115 -119q-2 -7 -29 -94q77 -95 278 -151.5t357 -69.5q-134 -188 -237 -311q-146 -140 -389 -140q-43 0 -95 9q-114 21 -202 188.5t-88 466.5q16 21 16 41q0 37 -37 37q-40 0 -61 -54q-78 -168 -78 -446
q12 -244 132.5 -374t305.5 -130q68 0 127 17q224 53 346 136.5t207 203.5q137 178 238 327q34 -13 61 -20.5t76.5 -17.5t70.5 -15q10 19 28 26.5t26 34.5q37 58 37 99q0 17 -13 24q-24 17 -127 17q-14 2 -27 8.5t-59 15.5z" />
    <glyph glyph-name="afii10048" unicode="&#xde;" horiz-adv-x="2417" 
d="M365 655q0 -36 -2.5 -99t-2.5 -105q0 -186 37 -209q79 77 103 77q16 0 16 -28q-14 -42 -60 -112.5t-59 -104.5q-74 -115 -155 -115q-95 0 -95 115q0 44 -20.5 185.5t-20.5 219.5q9 83 17 115q-80 169 -94 229q10 33 57 117.5t61 140.5q44 409 82 688q8 47 16 156t17 131
q83 90 205 90q106 0 106 -98q0 -40 -24 -102q-20 -133 -49 -274t-33 -177q0 -54 -26.5 -172t-26.5 -160q0 -57 69 -57q219 57 377 57q12 0 35 4t31 4q46 114 100.5 285.5t99.5 287t115 234.5q34 22 62.5 27t35.5 10q58 -6 58 -28q0 -24 -54 -107q0 -70 9 -70q11 0 24 13
t17 24q16 27 39.5 45t65.5 40.5t54 29.5q59 92 275 152q227 -35 387 -254.5t186 -458.5q4 -29 4 -86q0 -264 -114.5 -494.5t-254 -386t-298.5 -299.5q-54 -26 -127 -102q-45 -14 -128 -45.5t-140 -46.5t-117 -15q-190 10 -281.5 166t-91.5 395q0 104 20 234q22 159 25 205
q-177 -18 -238 -54q-88 -41 -167 -41q-40 -20 -83.5 -73.5t-43.5 -102.5zM1753 385q146 132 206.5 224t86.5 174.5t43 105.5q41 116 41 262q0 156 -50.5 293t-150.5 223t-241 86q-140 -37 -213.5 -78t-107 -79.5t-118.5 -153.5q-7 -38 -47 -219t-58 -298t-18 -225
q0 -124 29 -237q69 -270 246 -270q154 0 352 192z" />
    <glyph glyph-name="afii10048" unicode="&#x42e;" horiz-adv-x="2417" 
d="M365 655q0 -36 -2.5 -99t-2.5 -105q0 -186 37 -209q79 77 103 77q16 0 16 -28q-14 -42 -60 -112.5t-59 -104.5q-74 -115 -155 -115q-95 0 -95 115q0 44 -20.5 185.5t-20.5 219.5q9 83 17 115q-80 169 -94 229q10 33 57 117.5t61 140.5q44 409 82 688q8 47 16 156t17 131
q83 90 205 90q106 0 106 -98q0 -40 -24 -102q-20 -133 -49 -274t-33 -177q0 -54 -26.5 -172t-26.5 -160q0 -57 69 -57q219 57 377 57q12 0 35 4t31 4q46 114 100.5 285.5t99.5 287t115 234.5q34 22 62.5 27t35.5 10q58 -6 58 -28q0 -24 -54 -107q0 -70 9 -70q11 0 24 13
t17 24q16 27 39.5 45t65.5 40.5t54 29.5q59 92 275 152q227 -35 387 -254.5t186 -458.5q4 -29 4 -86q0 -264 -114.5 -494.5t-254 -386t-298.5 -299.5q-54 -26 -127 -102q-45 -14 -128 -45.5t-140 -46.5t-117 -15q-190 10 -281.5 166t-91.5 395q0 104 20 234q22 159 25 205
q-177 -18 -238 -54q-88 -41 -167 -41q-40 -20 -83.5 -73.5t-43.5 -102.5zM1753 385q146 132 206.5 224t86.5 174.5t43 105.5q41 116 41 262q0 156 -50.5 293t-150.5 223t-241 86q-140 -37 -213.5 -78t-107 -79.5t-118.5 -153.5q-7 -38 -47 -219t-58 -298t-18 -225
q0 -124 29 -237q69 -270 246 -270q154 0 352 192z" />
    <glyph glyph-name="afii10049" unicode="&#xdf;" horiz-adv-x="1753" 
d="M1286 942q-25 -85 -105 -233.5t-87 -163.5q-6 -10 -37 -44t-41 -46q-47 -60 -158 -178t-125 -142q-10 -42 -53 -74q-195 -147 -479 -147q-13 -8 -29 -8q-26 0 -58.5 35.5t-43.5 38.5q-50 61 -50 163q48 53 100.5 108.5t100.5 55.5v4q26 0 86 -45t90 -45q14 4 57.5 17
t82.5 24q45 37 137 113t137 112q50 63 88.5 110.5l77 95t88.5 110.5q83 140 139 196q-53 -32 -89.5 -54.5t-74.5 -45t-65 -35.5q-124 -71 -344 -119q-169 9 -273 63t-149 140.5t-45 190.5q0 230 155 442q153 209 242 254q47 68 161 135t258 109.5t269 42.5q66 0 119 -13
q11 -4 76.5 -17.5t91.5 -23.5q22 -23 68.5 -54.5t69 -53t22.5 -55.5q24 -5 40.5 -41.5t24.5 -44.5v-50q-39 -39 -143 -94q-66 -16 -74 -16q-45 0 -57.5 24.5t-22.5 83t-30 76.5q-16 27 -82 74q-25 61 -185 61q-49 0 -88.5 -12t-103 -40t-78.5 -34q-151 -98 -233 -196
q-27 -33 -69.5 -118.5t-74.5 -115.5q-30 -172 -33 -217q0 -34 9 -106q21 -181 217 -181q152 0 336 91q68 43 189.5 133t154.5 112q20 13 69 13q19 0 28 -19t21 -22q15 -4 61.5 -43.5t53.5 -51.5q4 -12 4 -90q0 -154 -16.5 -398t-32.5 -286q-14 -16 -86 -178.5t-74 -165.5
q-6 -6 -13 -40.5t-35 -60t-103 -38.5q0 -61 -99 -61q-12 12 -12 41q0 32 29 131q0 84 45 442t53 475z" />
    <glyph glyph-name="afii10049" unicode="&#x42f;" horiz-adv-x="1753" 
d="M1286 942q-25 -85 -105 -233.5t-87 -163.5q-6 -10 -37 -44t-41 -46q-47 -60 -158 -178t-125 -142q-10 -42 -53 -74q-195 -147 -479 -147q-13 -8 -29 -8q-26 0 -58.5 35.5t-43.5 38.5q-50 61 -50 163q48 53 100.5 108.5t100.5 55.5v4q26 0 86 -45t90 -45q14 4 57.5 17
t82.5 24q45 37 137 113t137 112q50 63 88.5 110.5l77 95t88.5 110.5q83 140 139 196q-53 -32 -89.5 -54.5t-74.5 -45t-65 -35.5q-124 -71 -344 -119q-169 9 -273 63t-149 140.5t-45 190.5q0 230 155 442q153 209 242 254q47 68 161 135t258 109.5t269 42.5q66 0 119 -13
q11 -4 76.5 -17.5t91.5 -23.5q22 -23 68.5 -54.5t69 -53t22.5 -55.5q24 -5 40.5 -41.5t24.5 -44.5v-50q-39 -39 -143 -94q-66 -16 -74 -16q-45 0 -57.5 24.5t-22.5 83t-30 76.5q-16 27 -82 74q-25 61 -185 61q-49 0 -88.5 -12t-103 -40t-78.5 -34q-151 -98 -233 -196
q-27 -33 -69.5 -118.5t-74.5 -115.5q-30 -172 -33 -217q0 -34 9 -106q21 -181 217 -181q152 0 336 91q68 43 189.5 133t154.5 112q20 13 69 13q19 0 28 -19t21 -22q15 -4 61.5 -43.5t53.5 -51.5q4 -12 4 -90q0 -154 -16.5 -398t-32.5 -286q-14 -16 -86 -178.5t-74 -165.5
q-6 -6 -13 -40.5t-35 -60t-103 -38.5q0 -61 -99 -61q-12 12 -12 41q0 32 29 131q0 84 45 442t53 475z" />
    <glyph glyph-name="afii10065" unicode="&#xe0;" horiz-adv-x="1303" 
d="M8 311q45 -22 45 -53q0 -18 -20 -65q0 -71 7 -98t42 -46q16 -45 82 -45q63 0 106 45q34 0 64 21t58.5 53t53.5 61q54 25 152.5 124.5t163.5 137.5q0 -95 55 -199t158 -104q21 0 57 9q57 0 126.5 39.5t74.5 41.5q4 14 35.5 41.5t34.5 36.5q0 5 -9 41q0 29 9 49
q-3 16 -4.5 46.5t-3.5 39.5t-9 9q-6 -6 -19 -23.5t-25.5 -26.5t-33.5 -16q-38 -33 -82 -33q-45 0 -75.5 37.5t-30.5 97.5q0 37 20 99q-3 6 -14 51.5t-29.5 68.5t-58.5 23q-46 0 -133 -63t-109 -105q-133 -83 -168 -151q-9 -4 -75.5 -53.5t-100.5 -49.5q0 15 15 43t18 35
q60 94 168 193q75 45 119 131q52 11 147 108t123 154q116 58 148 151q-41 70 -111 70q-77 0 -299 -156q-48 -49 -168 -137t-183.5 -143.5t-103.5 -136.5q-39 -35 -95 -80t-74.5 -63.5t-22.5 -41.5z" />
    <glyph glyph-name="afii10065" unicode="&#x430;" horiz-adv-x="1303" 
d="M8 311q45 -22 45 -53q0 -18 -20 -65q0 -71 7 -98t42 -46q16 -45 82 -45q63 0 106 45q34 0 64 21t58.5 53t53.5 61q54 25 152.5 124.5t163.5 137.5q0 -95 55 -199t158 -104q21 0 57 9q57 0 126.5 39.5t74.5 41.5q4 14 35.5 41.5t34.5 36.5q0 5 -9 41q0 29 9 49
q-3 16 -4.5 46.5t-3.5 39.5t-9 9q-6 -6 -19 -23.5t-25.5 -26.5t-33.5 -16q-38 -33 -82 -33q-45 0 -75.5 37.5t-30.5 97.5q0 37 20 99q-3 6 -14 51.5t-29.5 68.5t-58.5 23q-46 0 -133 -63t-109 -105q-133 -83 -168 -151q-9 -4 -75.5 -53.5t-100.5 -49.5q0 15 15 43t18 35
q60 94 168 193q75 45 119 131q52 11 147 108t123 154q116 58 148 151q-41 70 -111 70q-77 0 -299 -156q-48 -49 -168 -137t-183.5 -143.5t-103.5 -136.5q-39 -35 -95 -80t-74.5 -63.5t-22.5 -41.5z" />
    <glyph glyph-name="afii10066" unicode="&#xe1;" horiz-adv-x="1040" 
d="M0 258q87 66 127 127q0 -303 33 -344q74 -74 127 -74q48 0 98 49q16 10 80 34.5t96 51.5q4 3 86.5 51t106.5 97q19 20 63.5 90.5t71.5 114.5q43 46 70 278t36 377q0 145 -47 389t-47 250q37 11 177.5 61t178.5 50q65 13 249 15t214 9q2 22 21.5 99.5t19.5 117.5
q0 45 -16 62q-195 0 -398.5 -20t-306.5 -34q-77 -27 -135.5 -48t-109.5 -35.5t-82 -14.5q-9 -12 -18.5 -24.5t-18.5 -24.5q0 -29 39 -132t69 -258t31 -421q0 -230 -61.5 -438.5t-192.5 -352.5q-46 -45 -131 -45q-39 0 -45 13q-20 20 -20 61q0 31 12 49q0 132 45 385
q5 9 58.5 87.5t76.5 129.5q3 7 30 35t43.5 55.5t16.5 61.5q-27 6 -60 27.5t-55 21.5q-8 0 -32 -8q-15 -6 -48 -35t-82 -76.5t-67 -64.5q-24 -39 -69.5 -101t-45.5 -84q-48 -48 -69 -127t-41 -159t-70 -131q8 -26 8 -41q0 -20 -8 -73t-8 -83z" />
    <glyph glyph-name="afii10066" unicode="&#x431;" horiz-adv-x="1040" 
d="M0 258q87 66 127 127q0 -303 33 -344q74 -74 127 -74q48 0 98 49q16 10 80 34.5t96 51.5q4 3 86.5 51t106.5 97q19 20 63.5 90.5t71.5 114.5q43 46 70 278t36 377q0 145 -47 389t-47 250q37 11 177.5 61t178.5 50q65 13 249 15t214 9q2 22 21.5 99.5t19.5 117.5
q0 45 -16 62q-195 0 -398.5 -20t-306.5 -34q-77 -27 -135.5 -48t-109.5 -35.5t-82 -14.5q-9 -12 -18.5 -24.5t-18.5 -24.5q0 -29 39 -132t69 -258t31 -421q0 -230 -61.5 -438.5t-192.5 -352.5q-46 -45 -131 -45q-39 0 -45 13q-20 20 -20 61q0 31 12 49q0 132 45 385
q5 9 58.5 87.5t76.5 129.5q3 7 30 35t43.5 55.5t16.5 61.5q-27 6 -60 27.5t-55 21.5q-8 0 -32 -8q-15 -6 -48 -35t-82 -76.5t-67 -64.5q-24 -39 -69.5 -101t-45.5 -84q-48 -48 -69 -127t-41 -159t-70 -131q8 -26 8 -41q0 -20 -8 -73t-8 -83z" />
    <glyph glyph-name="afii10067" unicode="&#xe2;" horiz-adv-x="1130" 
d="M737 135q19 47 58.5 111.5t52.5 89.5q4 19 24 56t25 63q78 140 78 213q0 65 -82 65q-15 0 -42 -2t-40 -2q-21 0 -37 8q-32 -17 -107 -98.5t-94 -118.5q-69 -75 -69 -225q5 -12 43.5 -29t38.5 -41q0 -28 -33 -65q-98 -49 -160 -49q-78 129 -78 290q0 103 32 198.5
t75 145.5q291 459 545 1209q0 137 -17.5 195.5t-77.5 58.5q-61 0 -149.5 -46t-99.5 -48q-8 -30 -51.5 -75.5t-43.5 -64.5q-64 -101 -144.5 -302.5t-96.5 -237.5q-3 -30 -61 -251t-58 -270q-8 -34 -26 -100.5t-24 -107.5t-16 -127q0 -30 -47 -69t-47 -46q0 -16 -4 -88
t-4 -113q6 0 36 33t42 33q6 -54 23 -182.5t75 -221t176 -92.5q81 18 209.5 127.5t175.5 175.5zM823 201q-41 -74 -41 -82q0 -23 17 -33q32 0 45.5 6t44 29t61.5 39q28 34 91.5 72t94.5 69.5t31 91.5q-8 15 -18.5 47t-17 44t-21.5 12q-22 -40 -57 -81t-73 -77t-89.5 -79.5
t-67.5 -57.5zM487 1151q-14 -57 -51.5 -110.5t-42.5 -65.5q31 188 96.5 347t198.5 423q25 0 25 -8q0 -23 -25 -66q-45 -60 -72 -154.5t-57 -199t-72 -166.5z" />
    <glyph glyph-name="afii10067" unicode="&#x432;" horiz-adv-x="1130" 
d="M737 135q19 47 58.5 111.5t52.5 89.5q4 19 24 56t25 63q78 140 78 213q0 65 -82 65q-15 0 -42 -2t-40 -2q-21 0 -37 8q-32 -17 -107 -98.5t-94 -118.5q-69 -75 -69 -225q5 -12 43.5 -29t38.5 -41q0 -28 -33 -65q-98 -49 -160 -49q-78 129 -78 290q0 103 32 198.5
t75 145.5q291 459 545 1209q0 137 -17.5 195.5t-77.5 58.5q-61 0 -149.5 -46t-99.5 -48q-8 -30 -51.5 -75.5t-43.5 -64.5q-64 -101 -144.5 -302.5t-96.5 -237.5q-3 -30 -61 -251t-58 -270q-8 -34 -26 -100.5t-24 -107.5t-16 -127q0 -30 -47 -69t-47 -46q0 -16 -4 -88
t-4 -113q6 0 36 33t42 33q6 -54 23 -182.5t75 -221t176 -92.5q81 18 209.5 127.5t175.5 175.5zM823 201q-41 -74 -41 -82q0 -23 17 -33q32 0 45.5 6t44 29t61.5 39q28 34 91.5 72t94.5 69.5t31 91.5q-8 15 -18.5 47t-17 44t-21.5 12q-22 -40 -57 -81t-73 -77t-89.5 -79.5
t-67.5 -57.5zM487 1151q-14 -57 -51.5 -110.5t-42.5 -65.5q31 188 96.5 347t198.5 423q25 0 25 -8q0 -23 -25 -66q-45 -60 -72 -154.5t-57 -199t-72 -166.5z" />
    <glyph glyph-name="afii10068" unicode="&#xe3;" horiz-adv-x="995" 
d="M315 152q26 -31 43 -75.5t23 -68.5q28 -28 82 -28q127 0 315.5 116.5t233.5 214.5q-2 24 -4.5 104t-12.5 89q-24 -22 -104 -106.5t-146 -138.5t-106 -54q-35 0 -41 53q0 17 33.5 143.5t55.5 238.5t22 224q0 87 -25 164q-43 107 -111 107q-23 0 -57 -17q-86 0 -128.5 -13
t-96.5 -61q-48 -46 -161 -171t-138 -156q0 -201 49 -201q17 10 147 162t172 166q26 8 29 8q23 0 32.5 -28t14 -87.5t6.5 -72.5q0 -48 -67.5 -225.5t-67.5 -241.5q0 -33 8 -45z" />
    <glyph glyph-name="afii10068" unicode="&#x433;" horiz-adv-x="995" 
d="M315 152q26 -31 43 -75.5t23 -68.5q28 -28 82 -28q127 0 315.5 116.5t233.5 214.5q-2 24 -4.5 104t-12.5 89q-24 -22 -104 -106.5t-146 -138.5t-106 -54q-35 0 -41 53q0 17 33.5 143.5t55.5 238.5t22 224q0 87 -25 164q-43 107 -111 107q-23 0 -57 -17q-86 0 -128.5 -13
t-96.5 -61q-48 -46 -161 -171t-138 -156q0 -201 49 -201q17 10 147 162t172 166q26 8 29 8q23 0 32.5 -28t14 -87.5t6.5 -72.5q0 -48 -67.5 -225.5t-67.5 -241.5q0 -33 8 -45z" />
    <glyph glyph-name="afii10069" unicode="&#xe4;" horiz-adv-x="1360" 
d="M-8 250q15 15 27.5 27t27.5 19t35 7q-49 -124 -49 -192q0 -21 8 -37q47 -99 152 -99q66 0 133.5 38.5t103.5 97.5q80 45 164 122q112 61 188 144q17 -5 17 -33q0 -26 -14.5 -108.5t-14.5 -133.5q-62 -75 -139 -311q-103 -80 -238 -270q-44 -38 -100 -114t-76 -128
q-16 0 -44 -49t-54 -53q-7 -17 -37 -62t-48 -82.5t-18 -81.5q27 -32 86 -32q140 0 234 123q23 21 75.5 99.5t100.5 104.5q17 32 68.5 109.5t66.5 107.5q17 17 52.5 74.5t70.5 102.5q55 120 140 202.5t231.5 196.5t193.5 170v176q-8 8 -16 8q-29 0 -107 -77t-94 -83
q-31 -24 -67.5 -69t-42.5 -45q-9 0 -9 16q0 34 69 216t75 235q10 37 35.5 105t25.5 95q0 30 -20 45l-21 4.5t-45 4.5q-38 0 -69 -17q-37 -13 -87.5 -70t-64.5 -57q-30 -24 -132.5 -96.5t-168 -130.5t-100.5 -117q-30 -11 -83 -42t-69 -31q0 65 41 106q0 41 127 164t135 139
q12 12 91.5 64t117.5 96q1 2 68 38t67 72q-13 10 -45.5 50.5t-73.5 40.5q-39 0 -249 -107q-19 -14 -77 -51.5t-75.5 -52.5t-24.5 -31q-132 -63 -278 -209q-15 -11 -73.5 -52t-80.5 -63t-22 -45q12 -42 12 -98q0 -46 -12 -90z" />
    <glyph glyph-name="afii10069" unicode="&#x434;" horiz-adv-x="1360" 
d="M-8 250q15 15 27.5 27t27.5 19t35 7q-49 -124 -49 -192q0 -21 8 -37q47 -99 152 -99q66 0 133.5 38.5t103.5 97.5q80 45 164 122q112 61 188 144q17 -5 17 -33q0 -26 -14.5 -108.5t-14.5 -133.5q-62 -75 -139 -311q-103 -80 -238 -270q-44 -38 -100 -114t-76 -128
q-16 0 -44 -49t-54 -53q-7 -17 -37 -62t-48 -82.5t-18 -81.5q27 -32 86 -32q140 0 234 123q23 21 75.5 99.5t100.5 104.5q17 32 68.5 109.5t66.5 107.5q17 17 52.5 74.5t70.5 102.5q55 120 140 202.5t231.5 196.5t193.5 170v176q-8 8 -16 8q-29 0 -107 -77t-94 -83
q-31 -24 -67.5 -69t-42.5 -45q-9 0 -9 16q0 34 69 216t75 235q10 37 35.5 105t25.5 95q0 30 -20 45l-21 4.5t-45 4.5q-38 0 -69 -17q-37 -13 -87.5 -70t-64.5 -57q-30 -24 -132.5 -96.5t-168 -130.5t-100.5 -117q-30 -11 -83 -42t-69 -31q0 65 41 106q0 41 127 164t135 139
q12 12 91.5 64t117.5 96q1 2 68 38t67 72q-13 10 -45.5 50.5t-73.5 40.5q-39 0 -249 -107q-19 -14 -77 -51.5t-75.5 -52.5t-24.5 -31q-132 -63 -278 -209q-15 -11 -73.5 -52t-80.5 -63t-22 -45q12 -42 12 -98q0 -46 -12 -90z" />
    <glyph glyph-name="afii10070" unicode="&#xe5;" horiz-adv-x="942" 
d="M106 119q110 -94 242 -94q87 0 164.5 35t213 114t200.5 105q20 32 20 151q8 21 8 41q0 12 -8 12q-19 0 -74 -41t-61 -41q-12 -12 -42 -29t-44 -28q-119 -65 -274 -65q-164 0 -164 114q0 32 12 70q21 14 41 27t35.5 27.5t30.5 35.5q68 33 139 105.5t121.5 145t50.5 93.5
q41 18 41 102q0 98 -41 119q-56 62 -139 62q-112 0 -136 -54q-105 -55 -196 -168q-30 -12 -61.5 -66t-69.5 -118q-111 -211 -111 -287q4 -133 25 -199.5t49 -106.5t28 -62zM483 889q17 -10 17 -29q0 -31 -38 -76.5t-56 -54.5q-5 -16 -36 -36.5t-55 -20.5q-20 5 -20 16
q0 4 6 19t10.5 23.5t12.5 23.5q104 135 159 135z" />
    <glyph glyph-name="afii10070" unicode="&#x435;" horiz-adv-x="942" 
d="M106 119q110 -94 242 -94q87 0 164.5 35t213 114t200.5 105q20 32 20 151q8 21 8 41q0 12 -8 12q-19 0 -74 -41t-61 -41q-12 -12 -42 -29t-44 -28q-119 -65 -274 -65q-164 0 -164 114q0 32 12 70q21 14 41 27t35.5 27.5t30.5 35.5q68 33 139 105.5t121.5 145t50.5 93.5
q41 18 41 102q0 98 -41 119q-56 62 -139 62q-112 0 -136 -54q-105 -55 -196 -168q-30 -12 -61.5 -66t-69.5 -118q-111 -211 -111 -287q4 -133 25 -199.5t49 -106.5t28 -62zM483 889q17 -10 17 -29q0 -31 -38 -76.5t-56 -54.5q-5 -16 -36 -36.5t-55 -20.5q-20 5 -20 16
q0 4 6 19t10.5 23.5t12.5 23.5q104 135 159 135z" />
    <glyph glyph-name="afii10072" unicode="&#xe6;" horiz-adv-x="1966" 
d="M856 41q38 -33 131 -33q55 12 70.5 37.5t15.5 40.5q51 36 108 109.5t85 115.5l57 49q-12 -61 -12 -114q0 -230 233 -230q186 0 300.5 103t150.5 176q28 6 28 45q0 35 -17 73.5t-28 57.5q-15 0 -42 -54t-57 -93t-85 -54q-87 -61 -135 -61q-28 0 -66 24q-65 23 -65 160
q0 90 33 160q35 48 91 64t104 32t79 72q41 61 41 98q0 46 -49 58q-55 20 -94 20q-181 0 -373 -303q-15 -35 -100 -112.5t-138 -121.5q0 27 27 83.5t31 88.5q16 51 81.5 205.5t65.5 212.5q-8 24 -76 43t-129 19q-5 -3 -41 -93t-82 -120q-8 -5 -81.5 -96t-110.5 -121
q1 4 25 103.5t24 154.5q0 106 -78 172q-53 82 -139 82q-93 0 -198.5 -90.5t-157.5 -180.5q27 -168 94 -168q40 20 55 39t23 53t20 60q8 5 34 31t44 26q23 0 41 -24q37 -51 37 -99q0 -43 -90 -327q-27 -89 -83.5 -167.5t-105.5 -78.5q-20 0 -37 16q-44 0 -55 26t-22 86
t-33 73q-94 0 -160 -66q-25 -19 -25 -45q0 -25 23.5 -84.5t26.5 -71.5q0 -52 35.5 -75t58.5 -27q56 -20 135 -20q142 0 252 89t158 234q15 15 101.5 78.5t119.5 105.5q0 -35 -47 -188t-47 -209q7 -40 20 -49z" />
    <glyph glyph-name="afii10072" unicode="&#x436;" horiz-adv-x="1966" 
d="M856 41q38 -33 131 -33q55 12 70.5 37.5t15.5 40.5q51 36 108 109.5t85 115.5l57 49q-12 -61 -12 -114q0 -230 233 -230q186 0 300.5 103t150.5 176q28 6 28 45q0 35 -17 73.5t-28 57.5q-15 0 -42 -54t-57 -93t-85 -54q-87 -61 -135 -61q-28 0 -66 24q-65 23 -65 160
q0 90 33 160q35 48 91 64t104 32t79 72q41 61 41 98q0 46 -49 58q-55 20 -94 20q-181 0 -373 -303q-15 -35 -100 -112.5t-138 -121.5q0 27 27 83.5t31 88.5q16 51 81.5 205.5t65.5 212.5q-8 24 -76 43t-129 19q-5 -3 -41 -93t-82 -120q-8 -5 -81.5 -96t-110.5 -121
q1 4 25 103.5t24 154.5q0 106 -78 172q-53 82 -139 82q-93 0 -198.5 -90.5t-157.5 -180.5q27 -168 94 -168q40 20 55 39t23 53t20 60q8 5 34 31t44 26q23 0 41 -24q37 -51 37 -99q0 -43 -90 -327q-27 -89 -83.5 -167.5t-105.5 -78.5q-20 0 -37 16q-44 0 -55 26t-22 86
t-33 73q-94 0 -160 -66q-25 -19 -25 -45q0 -25 23.5 -84.5t26.5 -71.5q0 -52 35.5 -75t58.5 -27q56 -20 135 -20q142 0 252 89t158 234q15 15 101.5 78.5t119.5 105.5q0 -35 -47 -188t-47 -209q7 -40 20 -49z" />
    <glyph glyph-name="afii10073" unicode="&#xe7;" horiz-adv-x="1110" 
d="M16 455q-16 -25 -16 -160q0 -5 3 -9.5t5 -6.5q26 0 60.5 31t50.5 75q48 32 114 111q34 28 86 87t82 81q25 24 50 24q43 0 83.5 -64.5t51.5 -119.5q0 -39 -49.5 -124t-49.5 -110q-69 -58 -69 -200q0 -118 45 -213q-36 -34 -107.5 -134t-89.5 -108q-18 -29 -96 -141
t-88 -138q-53 -81 -53 -188q0 -18 2 -56t2 -59q11 -23 59.5 -46t116.5 -23q46 0 102 12q512 274 512 651q0 78 -24 164q-16 15 -70 123q0 40 72 103t96 94q9 8 82 73t90.5 84t28.5 43v168q0 29 -13 29q-19 0 -135 -156q-39 -36 -90 -86.5t-61 -56.5q-14 -34 -65 -82.5
t-83 -48.5q-12 0 -20 8q-8 25 -8 66q0 60 49 131.5t57 101.5q90 123 90 258q0 125 -82 238q-27 58 -83 98.5t-117 40.5q-98 0 -144 -115q-41 -35 -175.5 -198t-201.5 -252zM578 -561q-65 -103 -156.5 -199t-171.5 -96q-17 0 -41 8q-12 12 -12 33q0 24 23.5 80t29.5 80
q21 29 45.5 66t48.5 61q43 84 100.5 154.5t92.5 70.5q41 -25 41 -258z" />
    <glyph glyph-name="afii10073" unicode="&#x437;" horiz-adv-x="1110" 
d="M16 455q-16 -25 -16 -160q0 -5 3 -9.5t5 -6.5q26 0 60.5 31t50.5 75q48 32 114 111q34 28 86 87t82 81q25 24 50 24q43 0 83.5 -64.5t51.5 -119.5q0 -39 -49.5 -124t-49.5 -110q-69 -58 -69 -200q0 -118 45 -213q-36 -34 -107.5 -134t-89.5 -108q-18 -29 -96 -141
t-88 -138q-53 -81 -53 -188q0 -18 2 -56t2 -59q11 -23 59.5 -46t116.5 -23q46 0 102 12q512 274 512 651q0 78 -24 164q-16 15 -70 123q0 40 72 103t96 94q9 8 82 73t90.5 84t28.5 43v168q0 29 -13 29q-19 0 -135 -156q-39 -36 -90 -86.5t-61 -56.5q-14 -34 -65 -82.5
t-83 -48.5q-12 0 -20 8q-8 25 -8 66q0 60 49 131.5t57 101.5q90 123 90 258q0 125 -82 238q-27 58 -83 98.5t-117 40.5q-98 0 -144 -115q-41 -35 -175.5 -198t-201.5 -252zM578 -561q-65 -103 -156.5 -199t-171.5 -96q-17 0 -41 8q-12 12 -12 33q0 24 23.5 80t29.5 80
q21 29 45.5 66t48.5 61q43 84 100.5 154.5t92.5 70.5q41 -25 41 -258z" />
    <glyph glyph-name="afii10074" unicode="&#xe8;" horiz-adv-x="1397" 
d="M279 16q54 -24 106 -24q131 0 240 110.5t223 282.5q8 8 16 8q10 0 33.5 -67.5t69.5 -116.5t143 -49q56 0 93.5 14t88 45t76.5 43q53 10 53 135q0 107 -20 107q-8 -3 -75 -53t-101 -50q-68 0 -90 160q0 108 -21.5 160.5t-89.5 52.5q-52 -1 -89.5 -41t-91.5 -126t-85 -120
q-18 -28 -84.5 -99.5t-83.5 -100.5q-16 -5 -51.5 -29.5t-51.5 -24.5q-24 37 -24 132q0 154 49 307q0 32 43 151t43 168q0 33 -16 49q-13 13 -37 13q-55 0 -148 -70q-219 -354 -381 -487q-53 -43 -53 -152q0 -82 21 -82q15 0 48 31t74 75.5t46 49.5q8 8 16 8q22 0 28 -115
t17.5 -186t65.5 -109z" />
    <glyph glyph-name="afii10074" unicode="&#x438;" horiz-adv-x="1397" 
d="M279 16q54 -24 106 -24q131 0 240 110.5t223 282.5q8 8 16 8q10 0 33.5 -67.5t69.5 -116.5t143 -49q56 0 93.5 14t88 45t76.5 43q53 10 53 135q0 107 -20 107q-8 -3 -75 -53t-101 -50q-68 0 -90 160q0 108 -21.5 160.5t-89.5 52.5q-52 -1 -89.5 -41t-91.5 -126t-85 -120
q-18 -28 -84.5 -99.5t-83.5 -100.5q-16 -5 -51.5 -29.5t-51.5 -24.5q-24 37 -24 132q0 154 49 307q0 32 43 151t43 168q0 33 -16 49q-13 13 -37 13q-55 0 -148 -70q-219 -354 -381 -487q-53 -43 -53 -152q0 -82 21 -82q15 0 48 31t74 75.5t46 49.5q8 8 16 8q22 0 28 -115
t17.5 -186t65.5 -109z" />
    <glyph glyph-name="afii10075" unicode="&#xe9;" horiz-adv-x="1409" 
d="M291 16q55 -24 106 -24q131 0 240 110.5t223 282.5q8 8 17 8q11 0 33.5 -67.5t68.5 -116.5t143 -49q56 0 93.5 14t88 45t76.5 43q54 11 54 135q0 107 -21 107q-8 -3 -75 -53t-101 -50q-68 0 -90 160q0 107 -21.5 160t-89.5 53q-50 -1 -88.5 -41t-92.5 -126t-85 -120
q-18 -28 -84.5 -99.5t-83.5 -100.5q-16 -5 -51.5 -29.5t-50.5 -24.5q-25 37 -25 132q0 148 49 307q0 32 43 151t43 168q0 33 -16 49q-12 13 -37 13q-54 0 -147 -70q-223 -356 -381 -487q-54 -43 -54 -152q0 -82 21 -82q15 0 47 29.5t74 75.5t47 51q8 8 16 8q22 0 29 -118
t18.5 -186.5t63.5 -105.5zM1004 1569q-44 -39 -84 -56t-125.5 -50.5t-102.5 -53.5q5 -21 33 -43.5t37 -22.5q10 5 138.5 47t189.5 89q26 0 129.5 61t128.5 70q5 12 31 54.5t26 72.5q0 24 -8 41q-61 53 -111 53q-15 0 -33 -8q-44 -81 -95 -130t-154 -124z" />
    <glyph glyph-name="afii10075" unicode="&#x439;" horiz-adv-x="1409" 
d="M291 16q55 -24 106 -24q131 0 240 110.5t223 282.5q8 8 17 8q11 0 33.5 -67.5t68.5 -116.5t143 -49q56 0 93.5 14t88 45t76.5 43q54 11 54 135q0 107 -21 107q-8 -3 -75 -53t-101 -50q-68 0 -90 160q0 107 -21.5 160t-89.5 53q-50 -1 -88.5 -41t-92.5 -126t-85 -120
q-18 -28 -84.5 -99.5t-83.5 -100.5q-16 -5 -51.5 -29.5t-50.5 -24.5q-25 37 -25 132q0 148 49 307q0 32 43 151t43 168q0 33 -16 49q-12 13 -37 13q-54 0 -147 -70q-223 -356 -381 -487q-54 -43 -54 -152q0 -82 21 -82q15 0 47 29.5t74 75.5t47 51q8 8 16 8q22 0 29 -118
t18.5 -186.5t63.5 -105.5zM1004 1569q-44 -39 -84 -56t-125.5 -50.5t-102.5 -53.5q5 -21 33 -43.5t37 -22.5q10 5 138.5 47t189.5 89q26 0 129.5 61t128.5 70q5 12 31 54.5t26 72.5q0 24 -8 41q-61 53 -111 53q-15 0 -33 -8q-44 -81 -95 -130t-154 -124z" />
    <glyph glyph-name="afii10076" unicode="&#xea;" 
d="M303 -127q49 0 110.5 79.5t73.5 88.5q29 35 55.5 70.5t61 85t43.5 61.5q18 37 45 37q23 0 53 -22.5t74 -62t83 -66t73 -33.5q84 0 187.5 89.5t103.5 209.5q0 25 -9 61q-8 16 -32 16q-87 -98 -152 -98t-123 98q-69 45 -69 107q0 44 41 102q14 39 75.5 136t97 167t35.5 136
q0 44 -32 90q-25 24 -49 24q-28 0 -49 -33t-37 -79t-25 -72q-21 -44 -94.5 -166.5t-98.5 -177.5q-84 -11 -117.5 -60.5t-40 -124.5t-9.5 -81q-8 -15 -61.5 -117t-78.5 -137q-13 -13 -24 -13q-17 0 -17 41q0 59 41 172q0 29 57.5 247t57.5 265q25 66 47.5 140.5t46.5 154.5
q21 72 21 95q0 41 -62 65q-30 12 -69 12q-72 0 -99 -53q-29 -92 -86.5 -213t-110.5 -233.5t-81 -208.5q-27 -44 -70.5 -102t-62.5 -101t-19 -109q0 -17 -16 -81q41 0 69 29t60.5 85.5t56 83.5t55.5 27q-4 -43 -18 -114t-14 -95q0 -21 8 -37q-37 -86 -37 -209
q0 -176 131 -176z" />
    <glyph glyph-name="afii10076" unicode="&#x43a;" 
d="M303 -127q49 0 110.5 79.5t73.5 88.5q29 35 55.5 70.5t61 85t43.5 61.5q18 37 45 37q23 0 53 -22.5t74 -62t83 -66t73 -33.5q84 0 187.5 89.5t103.5 209.5q0 25 -9 61q-8 16 -32 16q-87 -98 -152 -98t-123 98q-69 45 -69 107q0 44 41 102q14 39 75.5 136t97 167t35.5 136
q0 44 -32 90q-25 24 -49 24q-28 0 -49 -33t-37 -79t-25 -72q-21 -44 -94.5 -166.5t-98.5 -177.5q-84 -11 -117.5 -60.5t-40 -124.5t-9.5 -81q-8 -15 -61.5 -117t-78.5 -137q-13 -13 -24 -13q-17 0 -17 41q0 59 41 172q0 29 57.5 247t57.5 265q25 66 47.5 140.5t46.5 154.5
q21 72 21 95q0 41 -62 65q-30 12 -69 12q-72 0 -99 -53q-29 -92 -86.5 -213t-110.5 -233.5t-81 -208.5q-27 -44 -70.5 -102t-62.5 -101t-19 -109q0 -17 -16 -81q41 0 69 29t60.5 85.5t56 83.5t55.5 27q-4 -43 -18 -114t-14 -95q0 -21 8 -37q-37 -86 -37 -209
q0 -176 131 -176z" />
    <glyph glyph-name="afii10077" unicode="&#xeb;" horiz-adv-x="1208" 
d="M225 213q-109 88 -119 209q-14 41 -94 41q-30 -15 -57.5 -97t-28.5 -83q0 -18 35 -75t35 -89q13 -43 65 -78q0 -31 29 -52.5t74 -21.5q65 0 115 49q65 73 113.5 137t104.5 148.5t113 169.5q21 0 21 -20q-11 -59 -13 -62q0 -50 40.5 -155.5t46.5 -139.5q44 -45 106 -45
q77 0 180 78q16 18 110 90.5t103 118.5q8 32 8 53q0 40 -10 77.5t-22 37.5q-121 -152 -234 -152q-11 0 -37 8q-16 17 -16 70q0 44 15.5 131.5t17.5 118.5q18 65 46 165t44 126q12 0 12 12q0 24 -54 57t-126 33q-107 -48 -162 -143t-119 -219t-153 -183q-10 -20 -43.5 -103
t-68.5 -140t-77 -72z" />
    <glyph glyph-name="afii10077" unicode="&#x43b;" horiz-adv-x="1208" 
d="M225 213q-109 88 -119 209q-14 41 -94 41q-30 -15 -57.5 -97t-28.5 -83q0 -18 35 -75t35 -89q13 -43 65 -78q0 -31 29 -52.5t74 -21.5q65 0 115 49q65 73 113.5 137t104.5 148.5t113 169.5q21 0 21 -20q-11 -59 -13 -62q0 -50 40.5 -155.5t46.5 -139.5q44 -45 106 -45
q77 0 180 78q16 18 110 90.5t103 118.5q8 32 8 53q0 40 -10 77.5t-22 37.5q-121 -152 -234 -152q-11 0 -37 8q-16 17 -16 70q0 44 15.5 131.5t17.5 118.5q18 65 46 165t44 126q12 0 12 12q0 24 -54 57t-126 33q-107 -48 -162 -143t-119 -219t-153 -183q-10 -20 -43.5 -103
t-68.5 -140t-77 -72z" />
    <glyph glyph-name="afii10078" unicode="&#xec;" horiz-adv-x="1667" 
d="M164 238v-5q-30 12 -44.5 50t-41.5 139q-28 16 -70 16q-22 -7 -44 -41t-41.5 -77.5t-20.5 -45.5q0 -20 24.5 -89.5t24.5 -102.5q9 -30 36.5 -55t37.5 -47q0 -37 41 -37q38 0 85 33t78 90q126 133 291 393q21 0 21 -78q-13 -42 -13 -82t11 -80t33.5 -102.5t25.5 -75.5
q52 -25 94 -25q125 0 248 132.5t199 277.5q12 -4 12 -25q-2 -8 -4 -28.5t-4 -24.5q0 -57 18.5 -116.5t18.5 -96.5q56 -61 135 -61q81 0 135 45q17 19 87.5 67.5t112.5 89.5t42 89q-11 90 -15.5 116.5t-25.5 26.5q-108 -156 -221 -156q-29 34 -29 119q0 33 8 123
q22 137 53 176q8 8 8 16q0 31 -56 79t-103 48q-59 -23 -77.5 -48t-66.5 -136q-14 -54 -45 -76t-70 -46.5t-57 -69.5q-6 -9 -56.5 -90t-76 -108.5t-59.5 -27.5q-12 12 -12 54q0 63 27 212.5t30 184.5q5 20 57.5 119t52.5 123q0 34 -65.5 76t-130.5 42q-102 -77 -161.5 -212.5
t-114.5 -261.5t-150 -185q-117 -192 -172 -225z" />
    <glyph glyph-name="afii10078" unicode="&#x43c;" horiz-adv-x="1667" 
d="M164 238v-5q-30 12 -44.5 50t-41.5 139q-28 16 -70 16q-22 -7 -44 -41t-41.5 -77.5t-20.5 -45.5q0 -20 24.5 -89.5t24.5 -102.5q9 -30 36.5 -55t37.5 -47q0 -37 41 -37q38 0 85 33t78 90q126 133 291 393q21 0 21 -78q-13 -42 -13 -82t11 -80t33.5 -102.5t25.5 -75.5
q52 -25 94 -25q125 0 248 132.5t199 277.5q12 -4 12 -25q-2 -8 -4 -28.5t-4 -24.5q0 -57 18.5 -116.5t18.5 -96.5q56 -61 135 -61q81 0 135 45q17 19 87.5 67.5t112.5 89.5t42 89q-11 90 -15.5 116.5t-25.5 26.5q-108 -156 -221 -156q-29 34 -29 119q0 33 8 123
q22 137 53 176q8 8 8 16q0 31 -56 79t-103 48q-59 -23 -77.5 -48t-66.5 -136q-14 -54 -45 -76t-70 -46.5t-57 -69.5q-6 -9 -56.5 -90t-76 -108.5t-59.5 -27.5q-12 12 -12 54q0 63 27 212.5t30 184.5q5 20 57.5 119t52.5 123q0 34 -65.5 76t-130.5 42q-102 -77 -161.5 -212.5
t-114.5 -261.5t-150 -185q-117 -192 -172 -225z" />
    <glyph glyph-name="afii10079" unicode="&#xed;" horiz-adv-x="1458" 
d="M487 602h5q8 52 28 107.5t52.5 127.5t51.5 125t19 87q0 24 -22 52.5t-56 33.5q-34 0 -127 -66q-50 -45 -69 -74q-1 -1 -22 -24.5t-36 -52.5q-11 -33 -89 -121t-91 -125q-17 -23 -74 -80t-85.5 -98t-28.5 -88q0 -43 20 -78q3 -3 9 -12t8 -13q14 14 85 74.5t91 93.5
q-9 0 57 82q-20 -73 -36 -144t-30 -106q-9 -79 -31 -176.5t-22 -126.5q0 -16 20 -35t46 -22q46 0 78 2t53 2q75 0 90 188q3 48 21.5 140t31.5 118q39 0 62 -20q5 -4 45.5 -54t76.5 -69q5 -1 36 -33.5t71 -32.5q17 0 53 9q65 71 89 91t30 27q0 -136 53 -262q44 -49 90 -49
q41 0 76 23.5t113 87.5q1 1 79.5 64t122.5 113.5t44 96.5q0 152 -29 152q-164 -209 -266 -209q-25 29 -25 127q0 93 21 192q3 12 28 88.5t25 100.5q-6 66 -70 77q-74 0 -110 -12q-59 -27 -105.5 -143.5t-46.5 -188.5q-11 -11 -42.5 -51.5t-51.5 -42.5q-21 0 -49 29
q-9 11 -43.5 63.5t-59.5 63.5q-2 0 -21 6t-28 6q-20 0 -29 -12q-17 -9 -44 -16t-42 -13z" />
    <glyph glyph-name="afii10079" unicode="&#x43d;" horiz-adv-x="1458" 
d="M487 602h5q8 52 28 107.5t52.5 127.5t51.5 125t19 87q0 24 -22 52.5t-56 33.5q-34 0 -127 -66q-50 -45 -69 -74q-1 -1 -22 -24.5t-36 -52.5q-11 -33 -89 -121t-91 -125q-17 -23 -74 -80t-85.5 -98t-28.5 -88q0 -43 20 -78q3 -3 9 -12t8 -13q14 14 85 74.5t91 93.5
q-9 0 57 82q-20 -73 -36 -144t-30 -106q-9 -79 -31 -176.5t-22 -126.5q0 -16 20 -35t46 -22q46 0 78 2t53 2q75 0 90 188q3 48 21.5 140t31.5 118q39 0 62 -20q5 -4 45.5 -54t76.5 -69q5 -1 36 -33.5t71 -32.5q17 0 53 9q65 71 89 91t30 27q0 -136 53 -262q44 -49 90 -49
q41 0 76 23.5t113 87.5q1 1 79.5 64t122.5 113.5t44 96.5q0 152 -29 152q-164 -209 -266 -209q-25 29 -25 127q0 93 21 192q3 12 28 88.5t25 100.5q-6 66 -70 77q-74 0 -110 -12q-59 -27 -105.5 -143.5t-46.5 -188.5q-11 -11 -42.5 -51.5t-51.5 -42.5q-21 0 -49 29
q-9 11 -43.5 63.5t-59.5 63.5q-2 0 -21 6t-28 6q-20 0 -29 -12q-17 -9 -44 -16t-42 -13z" />
    <glyph glyph-name="afii10080" unicode="&#xee;" horiz-adv-x="1278" 
d="M279 41q16 -32 47 -39t120 -18q83 5 151.5 30.5t111.5 56.5t88 73.5t92 88.5q19 36 94 111q3 18 47 83.5t60 100.5q36 85 36 185q0 99 -28 184q-69 98 -185 98q-83 0 -176 -53q-8 8 -8 12q0 13 18.5 43t18.5 43q0 20 -21 25q-8 0 -38 4t-48 4q-19 0 -45 -8
q-29 -34 -129 -121.5t-133 -144.5q-49 -25 -360 -336v-53q16 -5 16 -37q-8 -50 -8 -94q20 0 90.5 73.5t110.5 73.5q0 -37 -14.5 -117.5t-14.5 -120.5q0 -122 107 -147zM848 418q-100 -118 -160 -156q-91 -78 -164 -78q-78 0 -78 127q0 41 28 110t71 124q32 0 54.5 19.5
t51 59t45.5 56.5q49 33 95 33q50 0 78 -46t28 -110q0 -90 -49 -139zM975 86q17 0 87 49t89 58q12 12 65 46.5t82 66t29 79.5q-27 94 -49 94q-13 0 -44 -31t-50 -47q-26 -54 -76.5 -95t-67.5 -64q-86 -67 -86 -131q0 -20 21 -25z" />
    <glyph glyph-name="afii10080" unicode="&#x43e;" horiz-adv-x="1278" 
d="M279 41q16 -32 47 -39t120 -18q83 5 151.5 30.5t111.5 56.5t88 73.5t92 88.5q19 36 94 111q3 18 47 83.5t60 100.5q36 85 36 185q0 99 -28 184q-69 98 -185 98q-83 0 -176 -53q-8 8 -8 12q0 13 18.5 43t18.5 43q0 20 -21 25q-8 0 -38 4t-48 4q-19 0 -45 -8
q-29 -34 -129 -121.5t-133 -144.5q-49 -25 -360 -336v-53q16 -5 16 -37q-8 -50 -8 -94q20 0 90.5 73.5t110.5 73.5q0 -37 -14.5 -117.5t-14.5 -120.5q0 -122 107 -147zM848 418q-100 -118 -160 -156q-91 -78 -164 -78q-78 0 -78 127q0 41 28 110t71 124q32 0 54.5 19.5
t51 59t45.5 56.5q49 33 95 33q50 0 78 -46t28 -110q0 -90 -49 -139zM975 86q17 0 87 49t89 58q12 12 65 46.5t82 66t29 79.5q-27 94 -49 94q-13 0 -44 -31t-50 -47q-26 -54 -76.5 -95t-67.5 -64q-86 -67 -86 -131q0 -20 21 -25z" />
    <glyph glyph-name="afii10081" unicode="&#xef;" horiz-adv-x="1577" 
d="M434 -66q16 22 140 157t155 188q65 44 135 112t94 68q35 0 74 -74q40 -29 96.5 -126.5t71.5 -115.5q41 -28 86 -28q49 0 97 30t91 72t95 94q-17 53 -17 185q-18 -4 -57.5 -51.5t-69.5 -47.5q-22 0 -41 13q-37 23 -66.5 76t-64 140.5t-53.5 127.5q-49 24 -98 24
q-80 0 -155.5 -53.5t-147.5 -134t-135 -152.5q-25 -24 -51.5 -63t-34.5 -39q0 41 13.5 97t33 116t30.5 98q58 95 58 209q0 55 -17 86q-31 86 -98 86q-24 0 -52 -10.5t-64.5 -30t-39.5 -20.5q-34 -40 -130 -137t-151.5 -161.5t-94.5 -140.5q-37 -22 -37 -94q0 -17 2 -50
t2 -48q0 -62 4 -62q18 0 53 54q118 129 168 192q21 37 70 37q32 0 32 -37q0 -24 -24 -74q-9 -46 -24 -99.5t-22 -88t-7 -57.5q-8 -29 -33 -84t-25 -88q0 -13 8 -45v-78q25 -12 86 -12q100 0 115 40z" />
    <glyph glyph-name="afii10081" unicode="&#x43f;" horiz-adv-x="1577" 
d="M434 -66q16 22 140 157t155 188q65 44 135 112t94 68q35 0 74 -74q40 -29 96.5 -126.5t71.5 -115.5q41 -28 86 -28q49 0 97 30t91 72t95 94q-17 53 -17 185q-18 -4 -57.5 -51.5t-69.5 -47.5q-22 0 -41 13q-37 23 -66.5 76t-64 140.5t-53.5 127.5q-49 24 -98 24
q-80 0 -155.5 -53.5t-147.5 -134t-135 -152.5q-25 -24 -51.5 -63t-34.5 -39q0 41 13.5 97t33 116t30.5 98q58 95 58 209q0 55 -17 86q-31 86 -98 86q-24 0 -52 -10.5t-64.5 -30t-39.5 -20.5q-34 -40 -130 -137t-151.5 -161.5t-94.5 -140.5q-37 -22 -37 -94q0 -17 2 -50
t2 -48q0 -62 4 -62q18 0 53 54q118 129 168 192q21 37 70 37q32 0 32 -37q0 -24 -24 -74q-9 -46 -24 -99.5t-22 -88t-7 -57.5q-8 -29 -33 -84t-25 -88q0 -13 8 -45v-78q25 -12 86 -12q100 0 115 40z" />
    <glyph glyph-name="afii10082" unicode="&#xf0;" horiz-adv-x="1257" 
d="M209 -823q57 85 57 168q59 112 94 286q14 36 42.5 103t47 123t29.5 118q48 77 127 295q40 107 82 107q17 0 33 -12t49.5 -47.5t36.5 -38.5q97 -103 188 -103q77 0 254 119q0 33 8 123q0 61 -8 61q-18 0 -67.5 -36.5t-87.5 -36.5q-52 0 -119 73q-29 86 -103.5 170
t-146.5 84q-74 0 -119 -102q-91 -150 -148 -305t-139 -420q-22 -45 -48.5 -163.5t-53.5 -127.5q21 137 61 284.5t93 338.5t75 307q11 25 57.5 186.5t98.5 210.5q17 109 62 201q24 54 24 131q0 53 -16.5 92.5t-32.5 42.5q-14 0 -25.5 -10t-32.5 -37.5t-36 -42.5
q-242 -562 -529 -848q0 -78 -16 -94q8 -20 8 -55t8 -43q28 0 61.5 53t74.5 61q0 -123 -15.5 -242.5t-48.5 -323t-48 -329t-15 -272.5q0 -152 86 -152q76 0 98 103z" />
    <glyph glyph-name="afii10082" unicode="&#x440;" horiz-adv-x="1257" 
d="M209 -823q57 85 57 168q59 112 94 286q14 36 42.5 103t47 123t29.5 118q48 77 127 295q40 107 82 107q17 0 33 -12t49.5 -47.5t36.5 -38.5q97 -103 188 -103q77 0 254 119q0 33 8 123q0 61 -8 61q-18 0 -67.5 -36.5t-87.5 -36.5q-52 0 -119 73q-29 86 -103.5 170
t-146.5 84q-74 0 -119 -102q-91 -150 -148 -305t-139 -420q-22 -45 -48.5 -163.5t-53.5 -127.5q21 137 61 284.5t93 338.5t75 307q11 25 57.5 186.5t98.5 210.5q17 109 62 201q24 54 24 131q0 53 -16.5 92.5t-32.5 42.5q-14 0 -25.5 -10t-32.5 -37.5t-36 -42.5
q-242 -562 -529 -848q0 -78 -16 -94q8 -20 8 -55t8 -43q28 0 61.5 53t74.5 61q0 -123 -15.5 -242.5t-48.5 -323t-48 -329t-15 -272.5q0 -152 86 -152q76 0 98 103z" />
    <glyph glyph-name="afii10083" unicode="&#xf1;" horiz-adv-x="1094" 
d="M57 512q-37 -16 -45 -24.5t-8 -53.5q0 -49 4 -90q9 0 33 -8t33 -8q7 0 12 -17q9 -17 17 -90t40 -135q11 -7 28 -20t30.5 -24t31.5 -26q92 -61 193 -61q190 0 479 205q46 24 115 83t82 101q0 21 -4 45t-4 33q0 20 8 33q-34 45 -45 45q-12 0 -17 -21q0 -45 -128 -129
t-240 -141q-33 -16 -103 -16q-170 0 -176 102q-8 24 -8 70q0 96 63 160t171 131.5t126 97.5q230 113 230 250q0 48 -25 102q-92 0 -172.5 -44t-113.5 -79q-100 -48 -277.5 -186.5t-177.5 -173.5q-46 -15 -89 -52t-63 -59z" />
    <glyph glyph-name="afii10083" unicode="&#x441;" horiz-adv-x="1094" 
d="M57 512q-37 -16 -45 -24.5t-8 -53.5q0 -49 4 -90q9 0 33 -8t33 -8q7 0 12 -17q9 -17 17 -90t40 -135q11 -7 28 -20t30.5 -24t31.5 -26q92 -61 193 -61q190 0 479 205q46 24 115 83t82 101q0 21 -4 45t-4 33q0 20 8 33q-34 45 -45 45q-12 0 -17 -21q0 -45 -128 -129
t-240 -141q-33 -16 -103 -16q-170 0 -176 102q-8 24 -8 70q0 96 63 160t171 131.5t126 97.5q230 113 230 250q0 48 -25 102q-92 0 -172.5 -44t-113.5 -79q-100 -48 -277.5 -186.5t-177.5 -173.5q-46 -15 -89 -52t-63 -59z" />
    <glyph glyph-name="afii10084" unicode="&#xf2;" horiz-adv-x="2068" 
d="M283 8q10 0 53.5 57t73.5 70q43 72 168 198t139 146q163 144 201 144q24 0 24 -45q0 -55 -29 -152q-22 -107 -66 -241.5t-44 -168.5q23 -61 69 -61t99 53q33 33 144.5 158t133.5 145q34 23 81.5 71.5t78.5 55.5q53 0 90.5 -34t100.5 -109.5t100 -93.5q72 -45 143 -45
q111 0 234 147v201q-19 0 -74.5 -53.5t-89.5 -53.5q-33 0 -62 33q-34 45 -56 83t-42 65q-45 167 -156 167q-87 0 -186 -79t-223 -203q0 75 34.5 227t34.5 232q-6 131 -86 131q-96 0 -249 -172q-67 -55 -130 -130t-141 -128q-45 -45 -61 -45q-12 0 -12 20q0 22 22.5 116
t26.5 134q0 143 -74 143q-48 0 -127 -49q-24 -10 -53 -38t-63 -66l-68 -76q-21 -24 -127.5 -127.5t-143.5 -171.5q0 -22 4.5 -76t4.5 -108q26 7 56 40t82.5 97.5t88.5 96.5t67 32q13 -6 13 -29q0 -53 -65.5 -244.5t-65.5 -214.5q0 -65 77 -65q33 0 50 16z" />
    <glyph glyph-name="afii10084" unicode="&#x442;" horiz-adv-x="2068" 
d="M283 8q10 0 53.5 57t73.5 70q43 72 168 198t139 146q163 144 201 144q24 0 24 -45q0 -55 -29 -152q-22 -107 -66 -241.5t-44 -168.5q23 -61 69 -61t99 53q33 33 144.5 158t133.5 145q34 23 81.5 71.5t78.5 55.5q53 0 90.5 -34t100.5 -109.5t100 -93.5q72 -45 143 -45
q111 0 234 147v201q-19 0 -74.5 -53.5t-89.5 -53.5q-33 0 -62 33q-34 45 -56 83t-42 65q-45 167 -156 167q-87 0 -186 -79t-223 -203q0 75 34.5 227t34.5 232q-6 131 -86 131q-96 0 -249 -172q-67 -55 -130 -130t-141 -128q-45 -45 -61 -45q-12 0 -12 20q0 22 22.5 116
t26.5 134q0 143 -74 143q-48 0 -127 -49q-24 -10 -53 -38t-63 -66l-68 -76q-21 -24 -127.5 -127.5t-143.5 -171.5q0 -22 4.5 -76t4.5 -108q26 7 56 40t82.5 97.5t88.5 96.5t67 32q13 -6 13 -29q0 -53 -65.5 -244.5t-65.5 -214.5q0 -65 77 -65q33 0 50 16z" />
    <glyph glyph-name="afii10085" unicode="&#xf3;" horiz-adv-x="1454" 
d="M729 352q4 26 29 48.5t68.5 47.5t62.5 39q12 0 12 -28q0 -22 -14.5 -104.5t-14.5 -137.5q-27 -36 -51.5 -92.5t-48 -120.5t-35.5 -98q-81 -58 -241 -275q-40 -28 -96.5 -103t-80.5 -126q-16 0 -43 -53t-51 -62q-7 -17 -38 -61.5t-49.5 -82t-18.5 -81.5q17 -29 78 -29
q136 0 241 119q10 10 32 45.5t42 48.5q23 10 52.5 55.5t49.5 59.5q66 135 258 389q44 96 115 175t169 158t167.5 136t114.5 109v168q-8 8 -17 8q-26 0 -102.5 -74.5t-93.5 -77.5q-14 -14 -60 -66.5t-55 -52.5q-8 0 -8 13q0 32 69.5 217.5t77.5 232.5q11 46 34.5 114t23.5 91
q0 31 -21 41q-106 0 -177 -48t-168.5 -151.5t-158.5 -148.5q-42 -24 -118 -115q-129 -84 -152 -119q-30 0 -39.5 9t-9.5 41q8 36 57 177t58 195q0 107 -115 107q-34 -9 -67 -39t-95 -97.5t-84 -88.5q-23 -31 -113 -111.5t-104 -106.5q0 -110 -8 -167q0 -17 8 -21
q21 11 96.5 81.5t87.5 70.5q18 0 20 -77.5t13 -90.5q0 -34 -8 -90q0 -54 33 -70q42 -21 82 -21q116 0 213 148q36 4 69.5 27t66 57t56.5 59z" />
    <glyph glyph-name="afii10085" unicode="&#x443;" horiz-adv-x="1454" 
d="M729 352q4 26 29 48.5t68.5 47.5t62.5 39q12 0 12 -28q0 -22 -14.5 -104.5t-14.5 -137.5q-27 -36 -51.5 -92.5t-48 -120.5t-35.5 -98q-81 -58 -241 -275q-40 -28 -96.5 -103t-80.5 -126q-16 0 -43 -53t-51 -62q-7 -17 -38 -61.5t-49.5 -82t-18.5 -81.5q17 -29 78 -29
q136 0 241 119q10 10 32 45.5t42 48.5q23 10 52.5 55.5t49.5 59.5q66 135 258 389q44 96 115 175t169 158t167.5 136t114.5 109v168q-8 8 -17 8q-26 0 -102.5 -74.5t-93.5 -77.5q-14 -14 -60 -66.5t-55 -52.5q-8 0 -8 13q0 32 69.5 217.5t77.5 232.5q11 46 34.5 114t23.5 91
q0 31 -21 41q-106 0 -177 -48t-168.5 -151.5t-158.5 -148.5q-42 -24 -118 -115q-129 -84 -152 -119q-30 0 -39.5 9t-9.5 41q8 36 57 177t58 195q0 107 -115 107q-34 -9 -67 -39t-95 -97.5t-84 -88.5q-23 -31 -113 -111.5t-104 -106.5q0 -110 -8 -167q0 -17 8 -21
q21 11 96.5 81.5t87.5 70.5q18 0 20 -77.5t13 -90.5q0 -34 -8 -90q0 -54 33 -70q42 -21 82 -21q116 0 213 148q36 4 69.5 27t66 57t56.5 59z" />
    <glyph glyph-name="afii10086" unicode="&#xf4;" horiz-adv-x="1577" 
d="M61 246q12 11 25.5 24.5t29.5 21t36 7.5q-21 -53 -21 -119q0 -67 29 -106q86 -119 262 -119q72 0 135 25q24 10 52 19t42.5 19.5t44.5 38.5q70 70 99 70q0 -36 -10.5 -107t-10.5 -90q-74 -441 -74 -557q-69 -315 -69 -327q0 -103 49 -103q57 0 102 45q34 67 62 209
q22 36 40 137.5t42 173.5q28 105 51.5 236t40 265t31.5 279.5t24 231.5q14 67 67.5 119.5t108.5 52.5q46 -6 78.5 -44.5t32.5 -90.5q-35 -265 -193 -369q-98 -64 -98 -82q0 -48 34 -93.5t93 -45.5q71 23 273 158t227 170q16 24 16 106q0 78 -37 78q-40 -7 -94 -50.5
t-53 -43.5q20 49 20 102q17 28 17 99q0 154 -74 233q-43 50 -129.5 78.5t-173.5 28.5q-127 -14 -180 -82q-84 -84 -107 -135q-15 -22 -43 -121t-69 -185t-117 -157q-82 -74 -156 -74q-66 0 -106 53q-9 18 -9 25q0 77 54 131q0 31 44 78.5t126.5 127.5t91.5 97q14 14 92 65
t117 95q5 8 26 23.5t32 32t11 42.5q-13 10 -38 36t-43 36t-46 10q-22 0 -62.5 -17.5t-88 -42t-74.5 -38.5q-111 -83 -127 -123q-136 -65 -278 -209q-3 -2 -68 -47.5t-87 -67.5t-22 -45q13 -40 13 -98q0 -50 -13 -90z" />
    <glyph glyph-name="afii10086" unicode="&#x444;" horiz-adv-x="1577" 
d="M61 246q12 11 25.5 24.5t29.5 21t36 7.5q-21 -53 -21 -119q0 -67 29 -106q86 -119 262 -119q72 0 135 25q24 10 52 19t42.5 19.5t44.5 38.5q70 70 99 70q0 -36 -10.5 -107t-10.5 -90q-74 -441 -74 -557q-69 -315 -69 -327q0 -103 49 -103q57 0 102 45q34 67 62 209
q22 36 40 137.5t42 173.5q28 105 51.5 236t40 265t31.5 279.5t24 231.5q14 67 67.5 119.5t108.5 52.5q46 -6 78.5 -44.5t32.5 -90.5q-35 -265 -193 -369q-98 -64 -98 -82q0 -48 34 -93.5t93 -45.5q71 23 273 158t227 170q16 24 16 106q0 78 -37 78q-40 -7 -94 -50.5
t-53 -43.5q20 49 20 102q17 28 17 99q0 154 -74 233q-43 50 -129.5 78.5t-173.5 28.5q-127 -14 -180 -82q-84 -84 -107 -135q-15 -22 -43 -121t-69 -185t-117 -157q-82 -74 -156 -74q-66 0 -106 53q-9 18 -9 25q0 77 54 131q0 31 44 78.5t126.5 127.5t91.5 97q14 14 92 65
t117 95q5 8 26 23.5t32 32t11 42.5q-13 10 -38 36t-43 36t-46 10q-22 0 -62.5 -17.5t-88 -42t-74.5 -38.5q-111 -83 -127 -123q-136 -65 -278 -209q-3 -2 -68 -47.5t-87 -67.5t-22 -45q13 -40 13 -98q0 -50 -13 -90z" />
    <glyph glyph-name="afii10087" unicode="&#xf5;" horiz-adv-x="1208" 
d="M774 782q-151 -213 -217 -237q-14 0 -37.5 53.5t-23.5 114.5q12 30 68.5 70t99.5 89q50 18 127 95q53 -6 53 -45q0 -53 -70 -140zM221 16q122 67 209 185q24 -5 71.5 -53t88.5 -82q66 -62 143 -62q59 0 118 30t173 101q59 14 213 168v193l-5.5 5.5l-2.5 2.5
q-8 0 -25.5 -26.5t-36.5 -31.5q-55 -91 -151 -143q-49 0 -74 -24q-84 -29 -131 -29q-94 0 -164 110q0 30 26.5 58t110 105.5t97.5 107.5q114 124 176 217q57 68 57 156q0 84 -44.5 146t-102.5 62q-40 0 -66 -20q-33 -23 -107 -92t-147 -125q-39 -19 -107.5 -83.5
t-88.5 -64.5q-14 0 -21 21q-10 31 -26 87.5t-23.5 76t-20.5 37.5q-11 16 -36 16q-43 0 -87.5 -40.5t-60.5 -111.5q-8 -32 -8 -53q0 -43 26.5 -107t26.5 -89q0 -23 -12 -41q-47 -45 -130 -89.5t-95 -78.5q0 -21 -6.5 -72.5t-6.5 -75.5q0 -41 17 -41q20 0 65 62q31 13 113 97
t113 103q17 -6 58 -92.5t44 -116.5q-25 -43 -152.5 -157.5t-142.5 -136.5q0 -50 66 -50q15 0 36.5 15.5t32.5 25.5z" />
    <glyph glyph-name="afii10087" unicode="&#x445;" horiz-adv-x="1208" 
d="M774 782q-151 -213 -217 -237q-14 0 -37.5 53.5t-23.5 114.5q12 30 68.5 70t99.5 89q50 18 127 95q53 -6 53 -45q0 -53 -70 -140zM221 16q122 67 209 185q24 -5 71.5 -53t88.5 -82q66 -62 143 -62q59 0 118 30t173 101q59 14 213 168v193l-5.5 5.5l-2.5 2.5
q-8 0 -25.5 -26.5t-36.5 -31.5q-55 -91 -151 -143q-49 0 -74 -24q-84 -29 -131 -29q-94 0 -164 110q0 30 26.5 58t110 105.5t97.5 107.5q114 124 176 217q57 68 57 156q0 84 -44.5 146t-102.5 62q-40 0 -66 -20q-33 -23 -107 -92t-147 -125q-39 -19 -107.5 -83.5
t-88.5 -64.5q-14 0 -21 21q-10 31 -26 87.5t-23.5 76t-20.5 37.5q-11 16 -36 16q-43 0 -87.5 -40.5t-60.5 -111.5q-8 -32 -8 -53q0 -43 26.5 -107t26.5 -89q0 -23 -12 -41q-47 -45 -130 -89.5t-95 -78.5q0 -21 -6.5 -72.5t-6.5 -75.5q0 -41 17 -41q20 0 65 62q31 13 113 97
t113 103q17 -6 58 -92.5t44 -116.5q-25 -43 -152.5 -157.5t-142.5 -136.5q0 -50 66 -50q15 0 36.5 15.5t32.5 25.5z" />
    <glyph glyph-name="afii10088" unicode="&#xf6;" horiz-adv-x="1667" 
d="M1229 33q-16 -18 -47 -56t-43.5 -51t-32.5 -28q-17 -28 -51 -85t-57 -111.5t-23 -94.5q0 -58 37 -78q16 -4 45 -4q24 0 123 12q270 144 270 426q0 28 -8 86q13 14 72.5 74t91 96.5t61.5 83.5v201q-40 -9 -89.5 -94t-78.5 -107q-20 -38 -74 -78q0 63 -25 128t-73 65
q-17 0 -74 -37t-90 -37q-68 0 -90 143q20 9 53 72t33 117q0 85 -106 90q-50 -4 -95.5 -44t-116 -127.5t-87.5 -107.5q-18 -28 -85.5 -101t-82.5 -99q-16 -5 -51.5 -29.5t-51.5 -24.5q-24 37 -24 132q0 154 49 307q0 32 43 151t43 168q0 33 -16 49q-13 13 -37 13
q-55 0 -148 -70q-219 -354 -381 -487q-32 -116 -32 -181q0 -28 8 -28q30 0 79 44.5t80 86.5q10 8 17 8q22 0 28 -115t18 -186.5t64 -108.5q55 -24 107 -24q210 0 414 311q8 8 16 8q12 0 35 -65.5t68 -112.5t139 -47q23 0 73.5 32.5t53.5 33.5q38 -99 49 -119zM1249 -225
q-16 -26 -86 -94q-20 5 -20 24q0 36 49 103.5t82 89.5q12 -19 12 -41q0 -30 -37 -82z" />
    <glyph glyph-name="afii10088" unicode="&#x446;" horiz-adv-x="1667" 
d="M1229 33q-16 -18 -47 -56t-43.5 -51t-32.5 -28q-17 -28 -51 -85t-57 -111.5t-23 -94.5q0 -58 37 -78q16 -4 45 -4q24 0 123 12q270 144 270 426q0 28 -8 86q13 14 72.5 74t91 96.5t61.5 83.5v201q-40 -9 -89.5 -94t-78.5 -107q-20 -38 -74 -78q0 63 -25 128t-73 65
q-17 0 -74 -37t-90 -37q-68 0 -90 143q20 9 53 72t33 117q0 85 -106 90q-50 -4 -95.5 -44t-116 -127.5t-87.5 -107.5q-18 -28 -85.5 -101t-82.5 -99q-16 -5 -51.5 -29.5t-51.5 -24.5q-24 37 -24 132q0 154 49 307q0 32 43 151t43 168q0 33 -16 49q-13 13 -37 13
q-55 0 -148 -70q-219 -354 -381 -487q-32 -116 -32 -181q0 -28 8 -28q30 0 79 44.5t80 86.5q10 8 17 8q22 0 28 -115t18 -186.5t64 -108.5q55 -24 107 -24q210 0 414 311q8 8 16 8q12 0 35 -65.5t68 -112.5t139 -47q23 0 73.5 32.5t53.5 33.5q38 -99 49 -119zM1249 -225
q-16 -26 -86 -94q-20 5 -20 24q0 36 49 103.5t82 89.5q12 -19 12 -41q0 -30 -37 -82z" />
    <glyph glyph-name="afii10089" unicode="&#xf7;" horiz-adv-x="1094" 
d="M0 303q11 0 42 25t60 73q131 123 131 152q19 19 73 86t79 82q81 -74 176 -74q43 0 70 17q-67 -120 -144 -480q-36 -58 -36 -118q0 -119 163 -119q27 0 100.5 45t108.5 53q48 33 142.5 113t107.5 80q0 25 24.5 73t24.5 82q0 13 -8 37q-6 53 -16 53q-15 0 -25 -24
q-30 -39 -145.5 -120t-132.5 -81q-26 -12 -33 -12q-17 0 -17 24t42 150.5t44 185.5q30 75 95 173t65 134q-3 2 -12 25t-23.5 36t-42.5 13q-36 0 -114 -37q-55 -16 -119 -16q-59 0 -135 16t-82 17q-15 23 -36 62t-35 54t-40 15q-66 -19 -129 -68t-63 -88q-8 -4 -8 -16
q0 -13 24.5 -66t24.5 -86q0 -40 -41 -69q-14 -30 -82.5 -127.5t-85.5 -122.5q0 -54 4 -102t4 -50z" />
    <glyph glyph-name="afii10089" unicode="&#x447;" horiz-adv-x="1094" 
d="M0 303q11 0 42 25t60 73q131 123 131 152q19 19 73 86t79 82q81 -74 176 -74q43 0 70 17q-67 -120 -144 -480q-36 -58 -36 -118q0 -119 163 -119q27 0 100.5 45t108.5 53q48 33 142.5 113t107.5 80q0 25 24.5 73t24.5 82q0 13 -8 37q-6 53 -16 53q-15 0 -25 -24
q-30 -39 -145.5 -120t-132.5 -81q-26 -12 -33 -12q-17 0 -17 24t42 150.5t44 185.5q30 75 95 173t65 134q-3 2 -12 25t-23.5 36t-42.5 13q-36 0 -114 -37q-55 -16 -119 -16q-59 0 -135 16t-82 17q-15 23 -36 62t-35 54t-40 15q-66 -19 -129 -68t-63 -88q-8 -4 -8 -16
q0 -13 24.5 -66t24.5 -86q0 -40 -41 -69q-14 -30 -82.5 -127.5t-85.5 -122.5q0 -54 4 -102t4 -50z" />
    <glyph glyph-name="afii10090" unicode="&#xf8;" horiz-adv-x="1876" 
d="M1589 479q29 22 58 250q0 30 -55.5 68.5t-108.5 38.5q-51 -8 -76.5 -54.5t-67 -152.5t-77.5 -150q-20 -25 -78 -79t-90 -97q-49 -24 -74 -24q-49 0 -49 73q0 43 16 102t36 118t38 112q0 34 30.5 108t30.5 105q0 25 -16 41q-25 25 -70 25q-60 0 -118 -45
q-118 -221 -336 -599q-21 -6 -56 -29.5t-51 -23.5q-24 37 -24 131q0 155 49 308q0 34 26.5 131t26.5 143q0 40 -16 61q-13 13 -37 13q-71 0 -156 -70q-53 -84 -108.5 -171.5t-109.5 -156.5t-122 -127q-20 -27 -20 -94q0 -106 20 -106t67.5 46.5t67.5 76.5q16 8 17 8
q25 0 31.5 -125.5t16.5 -186.5t62 -98q89 -37 148 -37q92 0 146 57.5t149 200.5q21 17 28 17q11 0 12.5 -47t15 -89.5t62.5 -76.5q40 -29 99 -29q93 0 197.5 76t174.5 182q9 8 21 8q15 0 38 -54t66.5 -92t141.5 -38q50 0 99 25t116.5 73.5t95.5 61.5q16 40 16 127
q0 73 -16 73q-15 -7 -65 -43t-88 -57.5t-68 -21.5q-66 0 -66 114z" />
    <glyph glyph-name="afii10090" unicode="&#x448;" horiz-adv-x="1876" 
d="M1589 479q29 22 58 250q0 30 -55.5 68.5t-108.5 38.5q-51 -8 -76.5 -54.5t-67 -152.5t-77.5 -150q-20 -25 -78 -79t-90 -97q-49 -24 -74 -24q-49 0 -49 73q0 43 16 102t36 118t38 112q0 34 30.5 108t30.5 105q0 25 -16 41q-25 25 -70 25q-60 0 -118 -45
q-118 -221 -336 -599q-21 -6 -56 -29.5t-51 -23.5q-24 37 -24 131q0 155 49 308q0 34 26.5 131t26.5 143q0 40 -16 61q-13 13 -37 13q-71 0 -156 -70q-53 -84 -108.5 -171.5t-109.5 -156.5t-122 -127q-20 -27 -20 -94q0 -106 20 -106t67.5 46.5t67.5 76.5q16 8 17 8
q25 0 31.5 -125.5t16.5 -186.5t62 -98q89 -37 148 -37q92 0 146 57.5t149 200.5q21 17 28 17q11 0 12.5 -47t15 -89.5t62.5 -76.5q40 -29 99 -29q93 0 197.5 76t174.5 182q9 8 21 8q15 0 38 -54t66.5 -92t141.5 -38q50 0 99 25t116.5 73.5t95.5 61.5q16 40 16 127
q0 73 -16 73q-15 -7 -65 -43t-88 -57.5t-68 -21.5q-66 0 -66 114z" />
    <glyph glyph-name="afii10091" unicode="&#xf9;" horiz-adv-x="2048" 
d="M1552 492l4 -5q0 -131 54 -131q26 0 82.5 42t68.5 48q46 0 123 -213q47 59 78 119q17 12 44 36.5t54 49.5q23 49 45 49q9 -57 9 -168q-42 -97 -193 -237q0 -167 -73.5 -303t-188.5 -209q-156 -16 -184 -16q-50 27 -50 86q0 45 23.5 93.5t69 118.5t51.5 82
q25 21 62.5 66.5t68.5 73.5q-3 3 -29 73q-59 -32 -119 -32q-52 0 -88 17.5t-55.5 43t-35.5 65t-17 42.5q-4 12 -17 12q2 0 -36 -25q-68 -103 -174.5 -172t-202.5 -69q-67 0 -111 32q-49 34 -62 75t-14.5 89.5t-13.5 48.5q-6 0 -29 -16q-53 -80 -74 -112.5t-56 -68.5
t-74.5 -56.5t-90.5 -20.5q-63 0 -147 37q-49 38 -60 106.5t-20.5 185.5t-30.5 117l-16 -8q-20 -30 -67.5 -76.5t-67.5 -46.5q-21 0 -21 107q0 66 21 94q68 58 123.5 129t130.5 190t86 136q84 69 155 69q25 0 37 -12q17 -21 17 -61q0 -46 -27 -146t-27 -129
q-49 -159 -49 -307q0 -94 25 -131q17 0 51 23.5t55 29.5q199 343 336 598q57 45 119 45q44 0 70 -24q16 -17 16 -41q0 -33 -30.5 -107t-30.5 -106q-5 -17 -32 -93.5t-43 -137.5t-16 -105q0 -70 50 -70q26 0 73 25q30 41 90.5 97.5t77.5 78.5q34 41 78 151.5t69 154t74 50.5
q53 0 108.5 -37t55.5 -69q-8 -71 -37.5 -143t-44.5 -82zM1724 -209q21 82 21 127q-34 -21 -91 -86t-57 -106q0 -31 37 -37q24 9 56.5 55t33.5 47z" />
    <glyph glyph-name="afii10091" unicode="&#x449;" horiz-adv-x="2048" 
d="M1552 492l4 -5q0 -131 54 -131q26 0 82.5 42t68.5 48q46 0 123 -213q47 59 78 119q17 12 44 36.5t54 49.5q23 49 45 49q9 -57 9 -168q-42 -97 -193 -237q0 -167 -73.5 -303t-188.5 -209q-156 -16 -184 -16q-50 27 -50 86q0 45 23.5 93.5t69 118.5t51.5 82
q25 21 62.5 66.5t68.5 73.5q-3 3 -29 73q-59 -32 -119 -32q-52 0 -88 17.5t-55.5 43t-35.5 65t-17 42.5q-4 12 -17 12q2 0 -36 -25q-68 -103 -174.5 -172t-202.5 -69q-67 0 -111 32q-49 34 -62 75t-14.5 89.5t-13.5 48.5q-6 0 -29 -16q-53 -80 -74 -112.5t-56 -68.5
t-74.5 -56.5t-90.5 -20.5q-63 0 -147 37q-49 38 -60 106.5t-20.5 185.5t-30.5 117l-16 -8q-20 -30 -67.5 -76.5t-67.5 -46.5q-21 0 -21 107q0 66 21 94q68 58 123.5 129t130.5 190t86 136q84 69 155 69q25 0 37 -12q17 -21 17 -61q0 -46 -27 -146t-27 -129
q-49 -159 -49 -307q0 -94 25 -131q17 0 51 23.5t55 29.5q199 343 336 598q57 45 119 45q44 0 70 -24q16 -17 16 -41q0 -33 -30.5 -107t-30.5 -106q-5 -17 -32 -93.5t-43 -137.5t-16 -105q0 -70 50 -70q26 0 73 25q30 41 90.5 97.5t77.5 78.5q34 41 78 151.5t69 154t74 50.5
q53 0 108.5 -37t55.5 -69q-8 -71 -37.5 -143t-44.5 -82zM1724 -209q21 82 21 127q-34 -21 -91 -86t-57 -106q0 -31 37 -37q24 9 56.5 55t33.5 47z" />
    <glyph glyph-name="afii10092" unicode="&#xfa;" horiz-adv-x="1249" 
d="M504 8q72 -28 135 -28q175 0 319 134.5t144 356.5q0 69 -21 156q0 13 -21.5 46t-35.5 72q-29 40 -42.5 52t-33.5 16.5t-30 9.5q-23 -8 -61.5 -9t-57.5 -11q-17 -22 -17 -53q0 -59 29 -78q0 -33 45 -78q41 -47 41 -107q0 -67 -82 -208q-16 -5 -51.5 -29.5t-50.5 -24.5
q-25 37 -25 131q0 149 49 308q0 28 43 180.5t43 212.5q0 35 -12 53q-8 8 -33 8q-26 0 -90 -23t-86 -26q-69 0 -165 37t-122 37q-20 0 -32 -13q-57 -52 -125 -148t-68 -146q31 -27 115 -131q37 24 90.5 84t69.5 124q49 -41 192 -41q-37 -85 -90.5 -259t-56.5 -220
q0 -312 94 -385z" />
    <glyph glyph-name="afii10092" unicode="&#x44a;" horiz-adv-x="1249" 
d="M504 8q72 -28 135 -28q175 0 319 134.5t144 356.5q0 69 -21 156q0 13 -21.5 46t-35.5 72q-29 40 -42.5 52t-33.5 16.5t-30 9.5q-23 -8 -61.5 -9t-57.5 -11q-17 -22 -17 -53q0 -59 29 -78q0 -33 45 -78q41 -47 41 -107q0 -67 -82 -208q-16 -5 -51.5 -29.5t-50.5 -24.5
q-25 37 -25 131q0 149 49 308q0 28 43 180.5t43 212.5q0 35 -12 53q-8 8 -33 8q-26 0 -90 -23t-86 -26q-69 0 -165 37t-122 37q-20 0 -32 -13q-57 -52 -125 -148t-68 -146q31 -27 115 -131q37 24 90.5 84t69.5 124q49 -41 192 -41q-37 -85 -90.5 -259t-56.5 -220
q0 -312 94 -385z" />
    <glyph glyph-name="afii10093" unicode="&#xfb;" horiz-adv-x="1503" 
d="M299 12q72 -28 135 -28q175 0 319 134.5t144 356.5q0 68 -20 156q112 22 127 37q0 -43 -21 -324q0 -68 57 -128t164 -60q56 0 93.5 14t88 45t76.5 43q54 11 54 135q0 107 -21 107q-8 -3 -75 -53t-101 -50q-68 0 -90 160q8 34 20.5 100.5t12.5 133.5q0 85 -33 102
q-19 -7 -76 -11t-84 -18q-82 -40 -158.5 -78t-152.5 -68t-123 -34q6 -4 9 -43t7 -43q41 -47 41 -106q0 -68 -82 -209q-16 -5 -50.5 -29.5t-51.5 -24.5q-25 39 -25 131q0 149 49 308q0 29 45.5 181.5t45.5 211.5q0 36 -17 53q-12 12 -33 12q-58 0 -155 -73
q-22 -35 -105.5 -179.5t-147 -236t-128.5 -145.5q-53 -43 -53 -152q0 -82 20 -82q15 0 47 29.5t74 75.5t47 51q8 8 16 8q22 0 29 -118t18.5 -186.5t63.5 -105.5z" />
    <glyph glyph-name="afii10093" unicode="&#x44b;" horiz-adv-x="1503" 
d="M299 12q72 -28 135 -28q175 0 319 134.5t144 356.5q0 68 -20 156q112 22 127 37q0 -43 -21 -324q0 -68 57 -128t164 -60q56 0 93.5 14t88 45t76.5 43q54 11 54 135q0 107 -21 107q-8 -3 -75 -53t-101 -50q-68 0 -90 160q8 34 20.5 100.5t12.5 133.5q0 85 -33 102
q-19 -7 -76 -11t-84 -18q-82 -40 -158.5 -78t-152.5 -68t-123 -34q6 -4 9 -43t7 -43q41 -47 41 -106q0 -68 -82 -209q-16 -5 -50.5 -29.5t-51.5 -24.5q-25 39 -25 131q0 149 49 308q0 29 45.5 181.5t45.5 211.5q0 36 -17 53q-12 12 -33 12q-58 0 -155 -73
q-22 -35 -105.5 -179.5t-147 -236t-128.5 -145.5q-53 -43 -53 -152q0 -82 20 -82q15 0 47 29.5t74 75.5t47 51q8 8 16 8q22 0 29 -118t18.5 -186.5t63.5 -105.5z" />
    <glyph glyph-name="afii10094" unicode="&#xfc;" horiz-adv-x="938" 
d="M299 8q72 -28 135 -28q175 0 319 134.5t144 356.5q0 66 -20 156q0 14 -22 46.5t-36 71.5q-31 43 -43.5 53.5t-31.5 14.5t-31 10q-22 -8 -61 -9t-58 -11q-16 -23 -16 -53q0 -59 28 -78q0 -33 45 -78q41 -47 41 -107q0 -67 -82 -208q-16 -5 -50.5 -29.5t-51.5 -24.5
q-25 39 -25 131q0 149 49 308q0 28 43 180.5t43 212.5q0 35 -12 53q-12 12 -33 12q-56 0 -155 -73q-22 -35 -105.5 -179.5t-146.5 -235.5t-129 -147q-53 -41 -53 -151q0 -82 20 -82q15 0 47 29.5t74 75.5t47 51q8 8 16 8q22 0 29 -118t18.5 -186.5t63.5 -105.5z" />
    <glyph glyph-name="afii10094" unicode="&#x44c;" horiz-adv-x="938" 
d="M299 8q72 -28 135 -28q175 0 319 134.5t144 356.5q0 66 -20 156q0 14 -22 46.5t-36 71.5q-31 43 -43.5 53.5t-31.5 14.5t-31 10q-22 -8 -61 -9t-58 -11q-16 -23 -16 -53q0 -59 28 -78q0 -33 45 -78q41 -47 41 -107q0 -67 -82 -208q-16 -5 -50.5 -29.5t-51.5 -24.5
q-25 39 -25 131q0 149 49 308q0 28 43 180.5t43 212.5q0 35 -12 53q-12 12 -33 12q-56 0 -155 -73q-22 -35 -105.5 -179.5t-146.5 -235.5t-129 -147q-53 -41 -53 -151q0 -82 20 -82q15 0 47 29.5t74 75.5t47 51q8 8 16 8q22 0 29 -118t18.5 -186.5t63.5 -105.5z" />
    <glyph glyph-name="afii10095" unicode="&#xfd;" horiz-adv-x="1040" 
d="M926 262q90 0 94 45q0 46 -12 63t-41.5 27t-40.5 17q41 120 41 303q0 93 -13 110q-14 144 -77 217q-38 54 -140 54q-56 -3 -106.5 -12t-98.5 -17q-80 0 -198.5 -106t-169.5 -213q32 -127 143 -127q30 5 50.5 31.5t37 65.5t35.5 83q10 7 51 46.5t80 66t74 26.5
q25 0 41 -16q74 -94 74 -213q0 -113 -74 -254q-51 0 -138 49t-104 49q-23 -13 -62.5 -73t-39.5 -95q0 -34 102.5 -66t167.5 -32q0 -15 -18 -46t-27 -40q-27 -85 -104.5 -143t-190.5 -58q-50 7 -59 40.5t-13.5 107.5t-25.5 86q-59 0 -119 -74q-53 -22 -53 -62q0 -23 23 -68.5
t30 -70.5q29 -123 242 -123q193 0 303 70q29 35 92 89t76 95q8 12 35 70t51 106q33 -8 82 -8z" />
    <glyph glyph-name="afii10095" unicode="&#x44d;" horiz-adv-x="1040" 
d="M926 262q90 0 94 45q0 46 -12 63t-41.5 27t-40.5 17q41 120 41 303q0 93 -13 110q-14 144 -77 217q-38 54 -140 54q-56 -3 -106.5 -12t-98.5 -17q-80 0 -198.5 -106t-169.5 -213q32 -127 143 -127q30 5 50.5 31.5t37 65.5t35.5 83q10 7 51 46.5t80 66t74 26.5
q25 0 41 -16q74 -94 74 -213q0 -113 -74 -254q-51 0 -138 49t-104 49q-23 -13 -62.5 -73t-39.5 -95q0 -34 102.5 -66t167.5 -32q0 -15 -18 -46t-27 -40q-27 -85 -104.5 -143t-190.5 -58q-50 7 -59 40.5t-13.5 107.5t-25.5 86q-59 0 -119 -74q-53 -22 -53 -62q0 -23 23 -68.5
t30 -70.5q29 -123 242 -123q193 0 303 70q29 35 92 89t76 95q8 12 35 70t51 106q33 -8 82 -8z" />
    <glyph glyph-name="afii10096" unicode="&#xfe;" horiz-adv-x="1610" 
d="M512 1151q-19 0 -28 -36.5t-9 -57.5q-3 -6 -5 -34t-11 -56q-11 -31 -104 -144.5t-105 -150.5q-21 -27 -76.5 -82t-84 -96t-28.5 -88q0 -41 21 -78q3 -3 8.5 -12t7.5 -13q15 14 61 53.5t73 64.5t42 50q-8 0 58 82q-6 -91 -66 -250q-9 -75 -35 -175.5t-26 -131.5
q0 -37 28 -37q45 -25 78 -25t99 50q13 0 74 220t77 234q49 -8 176 -8q-37 -132 -37 -213q0 -151 119 -176q18 -33 48 -40.5t112 -16.5q159 10 239 67.5t199 181.5q18 31 56.5 68t42.5 43q16 41 61 136t63.5 151.5t18.5 122.5q0 65 -25 143q-74 98 -188 98q-87 0 -172 -53
q-8 8 -8 12q0 10 16 40t16 42q0 19 -24 29q-7 0 -34 4t-44 4t-41 -8q-61 -66 -108.5 -112.5t-67.5 -63.5q-22 0 -53 -46.5t-70.5 -121t-52.5 -90.5q-15 0 -38.5 -6.5t-39.5 -6.5q-45 0 -82 62q10 56 31.5 124.5t55.5 157t48 128.5q0 23 -75.5 50t-137.5 27q-42 0 -53 -16z
M1384 418q-80 -103 -159 -156q-99 -78 -168 -78q-70 0 -70 127q0 42 26 110.5t68 123.5q35 0 59.5 21t52.5 61t40 53q52 37 102 37q82 -5 82 -135q0 -100 -33 -164z" />
    <glyph glyph-name="afii10096" unicode="&#x44e;" horiz-adv-x="1610" 
d="M512 1151q-19 0 -28 -36.5t-9 -57.5q-3 -6 -5 -34t-11 -56q-11 -31 -104 -144.5t-105 -150.5q-21 -27 -76.5 -82t-84 -96t-28.5 -88q0 -41 21 -78q3 -3 8.5 -12t7.5 -13q15 14 61 53.5t73 64.5t42 50q-8 0 58 82q-6 -91 -66 -250q-9 -75 -35 -175.5t-26 -131.5
q0 -37 28 -37q45 -25 78 -25t99 50q13 0 74 220t77 234q49 -8 176 -8q-37 -132 -37 -213q0 -151 119 -176q18 -33 48 -40.5t112 -16.5q159 10 239 67.5t199 181.5q18 31 56.5 68t42.5 43q16 41 61 136t63.5 151.5t18.5 122.5q0 65 -25 143q-74 98 -188 98q-87 0 -172 -53
q-8 8 -8 12q0 10 16 40t16 42q0 19 -24 29q-7 0 -34 4t-44 4t-41 -8q-61 -66 -108.5 -112.5t-67.5 -63.5q-22 0 -53 -46.5t-70.5 -121t-52.5 -90.5q-15 0 -38.5 -6.5t-39.5 -6.5q-45 0 -82 62q10 56 31.5 124.5t55.5 157t48 128.5q0 23 -75.5 50t-137.5 27q-42 0 -53 -16z
M1384 418q-80 -103 -159 -156q-99 -78 -168 -78q-70 0 -70 127q0 42 26 110.5t68 123.5q35 0 59.5 21t52.5 61t40 53q52 37 102 37q82 -5 82 -135q0 -100 -33 -164z" />
    <glyph glyph-name="afii10097" unicode="&#xff;" horiz-adv-x="1319" 
d="M1094 676q0 24 -62 24q-28 -4 -65 -4q86 140 86 279q0 105 -54.5 180t-162.5 98q-155 0 -298.5 -79.5t-230 -210t-86.5 -271.5q0 -106 53 -209q33 -49 132 -49q85 0 225 41q-23 -39 -101.5 -128.5t-140.5 -137.5q-28 -29 -115 -29q-11 0 -45 47.5t-66 95.5t-65 88t-53 40
q-33 0 -46.5 -100.5t-23.5 -117.5q47 -127 78.5 -177.5t114.5 -71.5q342 0 545 303q3 9 22.5 40t30.5 58q52 40 74 119q0 -11 -16.5 -110t-16.5 -144q11 -186 143 -193q85 0 196 69t181 153q0 23 6 72t6 67q0 43 -20 53q-65 -40 -144 -116t-102 -76q-17 0 -29 16
q0 72 8 133.5t23 139.5t19 108zM848 868v4q-28 -33 -61 -117t-46 -100q-90 -20 -172 -20q-90 0 -90 94q0 59 37 135q113 201 270 201q86 -22 86 -98q0 -43 -24 -99z" />
    <glyph glyph-name="afii10097" unicode="&#x44f;" horiz-adv-x="1319" 
d="M1094 676q0 24 -62 24q-28 -4 -65 -4q86 140 86 279q0 105 -54.5 180t-162.5 98q-155 0 -298.5 -79.5t-230 -210t-86.5 -271.5q0 -106 53 -209q33 -49 132 -49q85 0 225 41q-23 -39 -101.5 -128.5t-140.5 -137.5q-28 -29 -115 -29q-11 0 -45 47.5t-66 95.5t-65 88t-53 40
q-33 0 -46.5 -100.5t-23.5 -117.5q47 -127 78.5 -177.5t114.5 -71.5q342 0 545 303q3 9 22.5 40t30.5 58q52 40 74 119q0 -11 -16.5 -110t-16.5 -144q11 -186 143 -193q85 0 196 69t181 153q0 23 6 72t6 67q0 43 -20 53q-65 -40 -144 -116t-102 -76q-17 0 -29 16
q0 72 8 133.5t23 139.5t19 108zM848 868v4q-28 -33 -61 -117t-46 -100q-90 -20 -172 -20q-90 0 -90 94q0 59 37 135q113 201 270 201q86 -22 86 -98q0 -43 -24 -99z" />
    <glyph glyph-name="nonbreakingspace" unicode="&#xa0;" horiz-adv-x="754" 
 />
    </font>
</defs>
</svg>
